<svg viewBox="0 0 24 24" xmlns="http://www.w3.org/2000/svg" xml:space="preserve" style="fill-rule:evenodd;clip-rule:evenodd;stroke-linejoin:round;stroke-miterlimit:2"><path style="fill:none" d="M0 0h24v24H0z"/><path d="M14.9 3H9.1c-.53 0-1.04.21-1.42.59l-4.1 4.1C3.21 8.06 3 8.57 3 9.1v5.8c0 .53.21 1.04.59 1.41l4.1 4.1c.37.38.88.59 1.41.59h5.8c.53 0 1.04-.21 1.41-.59l4.1-4.1c.38-.37.59-.88.59-1.41V9.1c0-.53-.21-1.04-.59-1.41l-4.1-4.1c-.37-.38-.88-.59-1.41-.59zm2.105 9.002a.996.996 0 0 1-.997.998l-8.011.007a.996.996 0 1 1 0-1.994l7.997-.008a.999.999 0 0 1 1.011.997z" style="fill-rule:nonzero"/></svg>