<svg viewBox="0 0 24 24" xmlns="http://www.w3.org/2000/svg" xml:space="preserve" style="fill-rule:evenodd;clip-rule:evenodd;stroke-linejoin:round;stroke-miterlimit:2"><path style="fill:none" d="M0 0h24v24H0z"/><path d="M12 2C6.48 2 2 6.48 2 12s4.48 10 10 10 10-4.48 10-10S17.52 2 12 2zm1.707 14.613 3.494-6.058c.172-.299.263-.639.263-.985 0-1.081-.889-1.97-1.97-1.97H8.506c-1.081 0-1.97.889-1.97 1.97 0 .346.091.686.264.986l3.493 6.057a1.971 1.971 0 0 0 3.415 0h-.001zM8.859 9.6a.174.174 0 0 0-.151.261l3.081 5.344a.245.245 0 0 0 .211.122.245.245 0 0 0 .211-.122l3.023-5.244a.241.241 0 0 0-.208-.361H8.859z"/></svg>