<svg viewBox="0 0 24 24" xmlns="http://www.w3.org/2000/svg" xml:space="preserve" style="fill-rule:evenodd;clip-rule:evenodd;stroke-linejoin:round;stroke-miterlimit:2"><path style="fill:none" d="M0 0h24v24H0z"/><path d="M19.55 3.959h-1.6v1.527a1.447 1.447 0 0 1-1.441 1.429h-1.434a1.45 1.45 0 0 1-1.442-1.429V3.961h-3.265v1.525a1.447 1.447 0 0 1-1.441 1.429H7.491a1.449 1.449 0 0 1-1.442-1.429V3.961H4.432c-.902 0-1.646.737-1.656 1.639v3.24a.367.367 0 0 0 .365.362H20.85a.366.366 0 0 0 .364-.362V5.6a1.65 1.65 0 0 0-1.643-1.639h-.03l.009-.002zM19.628 18.878a.795.795 0 0 1-.8.782H5.193a.797.797 0 0 1-.8-.782v-7.432a.366.366 0 0 0-.364-.362h-.884a.367.367 0 0 0-.365.362v7.432a2.387 2.387 0 0 0 2.375 2.363l.038-.001h13.644c1.3 0 2.373-1.062 2.386-2.363v-7.432a.366.366 0 0 0-.364-.362h-.865a.367.367 0 0 0-.365.362l-.001 7.433z"/><path d="M6.716 13.919H8.87a.464.464 0 0 0 .456-.457v-1.791a.465.465 0 0 0-.456-.457H6.716a.465.465 0 0 0-.457.457v1.791a.478.478 0 0 0 .457.458v-.001zM15.134 13.919h2.154a.464.464 0 0 0 .457-.457v-1.791a.465.465 0 0 0-.457-.457h-2.154a.467.467 0 0 0-.457.457v1.797c0 .248.204.452.452.452h.005v-.001zM14.677 17.307c.004.25.208.454.457.457h2.154a.464.464 0 0 0 .457-.457v-1.791a.465.465 0 0 0-.457-.457h-2.154a.467.467 0 0 0-.457.457v1.791zM10.917 13.919h2.154a.465.465 0 0 0 .457-.457v-1.791a.467.467 0 0 0-.457-.457h-2.154a.465.465 0 0 0-.457.457v1.791a.478.478 0 0 0 .457.458v-.001zM6.277 17.307c.004.25.208.454.457.457h2.154a.464.464 0 0 0 .457-.457v-1.791a.465.465 0 0 0-.457-.457H6.716a.467.467 0 0 0-.457.457v1.792l.018-.001zM10.478 17.307c.003.25.207.454.457.457h2.153a.464.464 0 0 0 .457-.457v-1.791a.465.465 0 0 0-.457-.457h-2.172a.465.465 0 0 0-.457.457v1.792l.019-.001zM7.511 5.961H8.887a.475.475 0 0 0 .472-.472V3.331a.577.577 0 0 0-.572-.572h-1.2a.577.577 0 0 0-.573.572v2.134c0 .275.226.5.5.5l-.003-.004zM15.12 5.961h1.377a.475.475 0 0 0 .472-.472l-.001-.004V3.331a.576.576 0 0 0-.572-.572h-1.2a.577.577 0 0 0-.572.572v2.134a.52.52 0 0 0 .5.5l-.004-.004z"/></svg>