<svg viewBox="0 0 24 24" xmlns="http://www.w3.org/2000/svg" xml:space="preserve" style="fill-rule:evenodd;clip-rule:evenodd;stroke-linejoin:round;stroke-miterlimit:2"><path style="fill:none" d="M0 0h24v24H0z"/><path d="M18.92 5.01C18.72 4.42 18.16 4 17.5 4h-11c-.66 0-1.21.42-1.42 1.01L3 11v7.5c0 .83.67 1.5 1.5 1.5S6 19.33 6 18.5V18h12v.5c0 .82.67 1.5 1.5 1.5.82 0 1.5-.67 1.5-1.5V11l-2.08-5.99zM7.5 15c-.83 0-1.5-.67-1.5-1.5S6.67 12 7.5 12s1.5.67 1.5 1.5S8.33 15 7.5 15zm9 0c-.83 0-1.5-.67-1.5-1.5s.67-1.5 1.5-1.5 1.5.67 1.5 1.5-.67 1.5-1.5 1.5zM5.81 9l1.04-3h10.29l1.04 3H5.81z" style="fill-rule:nonzero"/></svg>