<svg viewBox="0 0 24 24" xmlns="http://www.w3.org/2000/svg" xml:space="preserve" style="fill-rule:evenodd;clip-rule:evenodd;stroke-linejoin:round;stroke-miterlimit:2"><path style="fill:none" d="M0 0h24v24H0z"/><path d="M20.026 4H3.974a1.233 1.233 0 0 0-1.205 1.236v13.528A1.233 1.233 0 0 0 3.974 20h16.052a1.232 1.232 0 0 0 1.204-1.236V5.255A1.238 1.238 0 0 0 20.026 4zM8.522 5.275a.595.595 0 0 1 .583.598.594.594 0 0 1-.583.597.595.595 0 0 1-.584-.597.61.61 0 0 1 .584-.598zm-1.808 0a.595.595 0 0 1 .583.598.594.594 0 0 1-.583.597.596.596 0 0 1-.584-.597v-.018c0-.318.262-.58.58-.58h.004zm-1.827 0a.595.595 0 0 1 .583.598.594.594 0 0 1-.583.597.595.595 0 0 1-.584-.597.596.596 0 0 1 .585-.598h-.001zm14.847 13.211H4.266V7.806h15.47l-.002 10.68z"/><path d="M18.769 11.365a2.304 2.304 0 0 0-2.307-1.827 2.578 2.578 0 0 0-.769.134l.998 1.711h2.078v-.018z"/><path d="M16.341 14.461a2.44 2.44 0 0 0 2.426-2.022h-2.426a.418.418 0 0 1-.351-.192l-1.159-2.093a2.407 2.407 0 0 0-.985 1.921 2.481 2.481 0 0 0 2.495 2.388v-.002zM6.19 14.461a.38.38 0 0 0 .279-.145l1.285-1.897 1.062.866c.072.06.169.083.261.062a.34.34 0 0 0 .223-.145l1.267-1.898.354.289c.07.069.181.078.261.021a.312.312 0 0 0 .149-.248l.055-1.548a.31.31 0 0 0-.093-.228.226.226 0 0 0-.223-.041l-1.323.495a.294.294 0 0 0-.167.228.286.286 0 0 0 .093.268l.354.288-1.079 1.63-1.061-.888a.303.303 0 0 0-.261-.061.344.344 0 0 0-.224.144L5.913 13.86a.421.421 0 0 0 .074.537.34.34 0 0 0 .202.062l.001.002zM6.158 16.923H7.38a.293.293 0 0 0 .312-.245v-1.355a.293.293 0 0 0-.312-.245H6.158a.291.291 0 0 0-.312.245v1.375a.294.294 0 0 0 .312.225zM9.841 13.845H8.619a.306.306 0 0 0-.312.269v2.54a.306.306 0 0 0 .312.269h1.222a.306.306 0 0 0 .312-.269v-2.54a.306.306 0 0 0-.312-.269zM11.081 12.615a.305.305 0 0 0-.312.28v3.747a.305.305 0 0 0 .312.28h1.222a.305.305 0 0 0 .312-.28v-3.747a.305.305 0 0 0-.312-.28h-1.222zM14.13 16.923h4.354a.304.304 0 0 0 .284-.311v-1.223a.304.304 0 0 0-.284-.311H14.13a.305.305 0 0 0-.284.311v1.264c0 .148.122.27.27.27l.014-.001v.001z"/></svg>