<svg viewBox="0 0 25 24" xmlns="http://www.w3.org/2000/svg" xml:space="preserve" style="fill-rule:evenodd;clip-rule:evenodd;stroke-linejoin:round;stroke-miterlimit:2"><path style="fill:none" d="M.791 0h24v24h-24z"/><path d="M16.298 16.714v1.1a.188.188 0 0 0 .186.186h1.1a.181.181 0 0 0 .118-.051l3.941-3.94-1.351-1.354-3.943 3.942a.151.151 0 0 0-.051.117zm6.393-4.262-.846-.846a.368.368 0 0 0-.507 0l-.66.659 1.353 1.353.66-.66a.368.368 0 0 0 0-.505v-.001z" style="fill-rule:nonzero"/><path d="m14.626 16 6.35-6.349V7.667c0-.915-.752-1.667-1.667-1.667h-15c-.914 0-1.666.752-1.666 1.667v6.666c0 .915.752 1.667 1.666 1.667h10.317zm-9.835-1.605h5.283a.7.7 0 0 0 0-1.4H4.791a.7.7 0 0 0 0 1.4zm0-2.695h9.305a.7.7 0 0 0 0-1.4H4.791a.7.7 0 0 0 0 1.4zm0-2.712h3a.7.7 0 1 0 0-1.4h-3a.7.7 0 0 0 0 1.4z"/></svg>