<svg viewBox="0 0 24 24" xmlns="http://www.w3.org/2000/svg" xml:space="preserve" style="fill-rule:evenodd;clip-rule:evenodd;stroke-linejoin:round;stroke-miterlimit:2"><path style="fill:none" d="M0 0h24v24H0z"/><path d="M12 2C6.48 2 2 6.48 2 12s4.48 10 10 10 10-4.48 10-10S17.52 2 12 2zm0 18c-4.41 0-8-3.59-8-8s3.59-8 8-8 8 3.59 8 8-3.59 8-8 8zm3.54-11.18-4.95 4.95-2.12-2.12a.996.996 0 1 0-1.41 1.41l2.83 2.83c.39.39 1.02.39 1.41 0l5.66-5.66a.996.996 0 0 0 0-1.41c-.4-.39-1.03-.39-1.42 0z" style="fill-rule:nonzero"/></svg>