<svg viewBox="0 0 24 24" xmlns="http://www.w3.org/2000/svg" xml:space="preserve" style="fill-rule:evenodd;clip-rule:evenodd;stroke-linejoin:round;stroke-miterlimit:2"><path style="fill:none" d="M0 0h24v24H0z"/><path d="M8.871 11.771c.266-.266.399-.587.399-.963s-.133-.697-.399-.963a1.312 1.312 0 0 0-.963-.399c-.376 0-.697.133-.962.399a1.312 1.312 0 0 0-.399.963c0 .376.133.697.399.963.265.266.586.399.962.399s.697-.133.963-.399zm4.085 0c.266-.266.399-.587.399-.963s-.133-.697-.399-.963a1.312 1.312 0 0 0-.963-.399c-.376 0-.697.133-.963.399a1.312 1.312 0 0 0-.399.963c0 .376.133.697.399.963s.587.399.963.399.697-.133.963-.399zm4.084 0c.266-.266.399-.587.399-.963s-.133-.697-.399-.963a1.308 1.308 0 0 0-.962-.399c-.376 0-.697.133-.963.399a1.312 1.312 0 0 0-.399.963c0 .376.133.697.399.963s.587.399.963.399.697-.133.962-.399zm3.208-4.383c.851 1.046 1.276 2.186 1.276 3.42s-.425 2.374-1.276 3.42c-.851 1.046-2.007 1.872-3.468 2.478-1.461.607-3.057.91-4.787.91-.78 0-1.528-.064-2.244-.192-1.227 1.227-2.77 2.039-4.628 2.436a9.614 9.614 0 0 1-.915.139.35.35 0 0 1-.234-.064.338.338 0 0 1-.138-.192c-.028-.106.043-.237.213-.393l.521-.479c.05-.05.133-.14.25-.271.117-.131.202-.243.255-.335.054-.092.126-.224.218-.394.093-.17.164-.34.213-.51a9.82 9.82 0 0 0 .154-.612c.054-.238.098-.495.133-.771-1.035-.639-1.849-1.406-2.441-2.303-.592-.897-.888-1.853-.888-2.867 0-1.234.425-2.374 1.276-3.42.851-1.046 2.007-1.872 3.468-2.479C8.667 4.303 10.263 4 11.993 4s3.326.303 4.787.909c1.461.607 2.617 1.433 3.468 2.479z" style="fill-rule:nonzero"/></svg>