<svg viewBox="0 0 25 24" xmlns="http://www.w3.org/2000/svg" xml:space="preserve" style="fill-rule:evenodd;clip-rule:evenodd;stroke-linejoin:round;stroke-miterlimit:2"><path style="fill:none" d="M.154 0h24v24h-24z"/><path d="M12.154 11.625c1.358 0 2.558.325 3.533.75.9.4 1.467 1.3 1.467 2.275v2.517a.836.836 0 0 1-.834.833H7.987a.836.836 0 0 1-.833-.833v-2.509a2.47 2.47 0 0 1 1.466-2.275 8.707 8.707 0 0 1 3.534-.758zm-6.667.208c.917 0 1.667-.75 1.667-1.666 0-.917-.75-1.667-1.667-1.667s-1.667.75-1.667 1.667c0 .916.75 1.666 1.667 1.666zm.942.917a5.83 5.83 0 0 0-.942-.083c-.825 0-1.608.175-2.317.483a1.677 1.677 0 0 0-1.016 1.542v2.475c0 .458.375.833.833.833h2.917v-3.342c0-.691.191-1.341.525-1.908zm12.391-.917c.917 0 1.667-.75 1.667-1.666 0-.917-.75-1.667-1.667-1.667-.916 0-1.666.75-1.666 1.667 0 .916.75 1.666 1.666 1.666zm3.334 2.859c0-.675-.4-1.275-1.017-1.542a5.798 5.798 0 0 0-2.317-.483c-.325 0-.633.033-.941.083.333.567.525 1.217.525 1.908V18h2.916a.836.836 0 0 0 .834-.833v-2.475zM12.154 6c1.383 0 2.5 1.117 2.5 2.5s-1.117 2.5-2.5 2.5a2.496 2.496 0 0 1-2.5-2.5c0-1.383 1.116-2.5 2.5-2.5z" style="fill-rule:nonzero"/></svg>