<svg viewBox="0 0 24 24" xmlns="http://www.w3.org/2000/svg" xml:space="preserve" style="fill-rule:evenodd;clip-rule:evenodd;stroke-linejoin:round;stroke-miterlimit:2"><path style="fill:none" d="M0 0h24v24H0z"/><path d="M21.864 6.677A.677.677 0 0 0 21.187 6H2.799a.677.677 0 0 0-.677.677v10.646c0 .374.303.677.677.677h18.388a.677.677 0 0 0 .677-.677V6.677zm-18.387.678v9.29h17.032v-9.29H3.477z"/><path d="M5.231 14.419V9.57h.979v1.909h1.919V9.57h.979v4.849h-.979v-2.12H6.21v2.12h-.979zM9.921 12.025c0-.494.074-.909.222-1.244a2.27 2.27 0 0 1 .452-.665c.19-.196.399-.342.626-.437a2.663 2.663 0 0 1 1.046-.191c.714 0 1.286.221 1.715.664.429.444.643 1.06.643 1.849 0 .783-.213 1.396-.638 1.838-.426.442-.995.663-1.707.663-.721 0-1.295-.22-1.72-.66-.426-.44-.639-1.046-.639-1.817zm1.009-.034c0 .55.127.966.381 1.249.253.283.575.425.966.425.39 0 .71-.14.96-.422.251-.281.376-.702.376-1.265 0-.555-.122-.97-.366-1.243-.243-.274-.567-.411-.97-.411-.404 0-.729.139-.976.415-.247.277-.371.695-.371 1.252zM19.762 14.419h-1.065l-.424-1.101h-1.938l-.4 1.101h-1.039l1.889-4.849h1.035l1.942 4.849zm-1.803-1.918-.668-1.8-.655 1.8h1.323z" style="fill-rule:nonzero"/><path style="fill:none" d="M2.316 6.194h19.355v11.613H2.316z"/></svg>