<svg viewBox="0 0 24 24" xmlns="http://www.w3.org/2000/svg" xml:space="preserve" style="fill-rule:evenodd;clip-rule:evenodd;stroke-linejoin:round;stroke-miterlimit:2"><path style="fill:none" d="M0 0h24v24H0z"/><path d="M9.47 21a.413.413 0 0 0 .412-.412v-5.553c0-.214.174-.388.388-.388h3.49c.198 0 .358.16.358.358v5.572c0 .234.189.423.423.423h4.493a.378.378 0 0 0 .378-.378v-8.093h2.139a.398.398 0 0 0 .266-.694l-9.534-8.58a.423.423 0 0 0-.566 0l-9.59 8.631a.369.369 0 0 0 .247.643h1.859c.196 0 .355.159.355.355v7.757a.359.359 0 0 0 .36.359H9.47z" style="fill-rule:nonzero"/></svg>