<svg viewBox="0 0 24 25" xmlns="http://www.w3.org/2000/svg" xml:space="preserve" style="fill-rule:evenodd;clip-rule:evenodd;stroke-linejoin:round;stroke-miterlimit:2"><path style="fill:none" d="M0 .398h24v24H0z"/><path d="M16.375 15.898a.878.878 0 0 1-.875-.875h-7a.878.878 0 0 1-.875.875.878.878 0 0 1-.875-.875h-3.5v2.625c0 .963.787 1.75 1.75 1.75h14c.962 0 1.75-.787 1.75-1.75v-2.625h-3.5a.878.878 0 0 1-.875.875zM19 8.898h-2.625v-1.75c0-.962-.788-1.75-1.75-1.75h-5.25c-.963 0-1.75.788-1.75 1.75v1.75H5c-.963 0-1.75.788-1.75 1.75v3.5h3.5v-.875c0-.481.394-.875.875-.875s.875.394.875.875v.875h7v-.875c0-.481.394-.875.875-.875s.875.394.875.875v.875h3.5v-3.5c0-.962-.788-1.75-1.75-1.75zm-4.375 0h-5.25v-1.75h5.25v1.75z" style="fill-rule:nonzero"/></svg>