<svg viewBox="0 0 24 24" xmlns="http://www.w3.org/2000/svg" xml:space="preserve" style="fill-rule:evenodd;clip-rule:evenodd;stroke-linejoin:round;stroke-miterlimit:2"><path style="fill:none" d="M0 0h24v24H0z"/><path d="M8.411 5.861a.432.432 0 0 0-.482 0l-6.73 4.486a.449.449 0 0 0-.199.372v9.866a.414.414 0 0 0 .415.415h4.162A.424.424 0 0 0 6 20.577v-7.2c0-.208.169-.377.377-.377h3.244a.38.38 0 0 1 .379.379v7.238a.382.382 0 0 0 .383.383h4.267a.35.35 0 0 0 .35-.35V10.458a.388.388 0 0 0-.173-.323L8.411 5.861z" style="fill-rule:nonzero"/><path d="M10.437 3a.437.437 0 0 0-.437.437v.871c0 .126.063.244.169.314L12 5.84 13.73 7H15v.85l2 1.34v1.427a.382.382 0 0 0 .383.383H19v2h-1.586a.42.42 0 0 0-.293.121.42.42 0 0 0-.121.293v1.22c0 .097.039.19.107.259a.37.37 0 0 0 .259.107H19v2h-1.642a.358.358 0 0 0-.358.358v3.233c0 .109.043.213.12.289.076.077.18.12.289.12h5.161a.43.43 0 0 0 .43-.43V3.379A.38.38 0 0 0 22.621 3H10.437zM19 9h-2V7h2v2z" style="fill-rule:nonzero"/></svg>