<svg viewBox="0 0 24 24" xmlns="http://www.w3.org/2000/svg" xml:space="preserve" style="fill-rule:evenodd;clip-rule:evenodd;stroke-linejoin:round;stroke-miterlimit:2"><path style="fill:none" d="M0 0h24v24H0z"/><path d="m10.108 12.237-.946.161c-.208-.423-.436-.661-.685-.715-.249-.054-.523.072-.821.379l-.772-.535c.166-.432.178-.761.037-.99-.141-.228-.431-.334-.871-.317l-.075-.43a6.983 6.983 0 0 1-.062-.441c0-.017.008-.038.025-.063A.113.113 0 0 1 6 9.237c.373-.158.583-.372.629-.642.045-.269-.09-.545-.405-.827l.573-.797c.157.116.315.185.473.205a.697.697 0 0 0 .473-.118.656.656 0 0 0 .311-.367c.05-.154.058-.33.025-.529L9.037 6c.166.432.38.678.641.741.262.062.554-.065.878-.38l.772.548c-.224.357-.247.674-.069.952.179.278.471.396.878.355l.162.946c-.39.091-.629.294-.716.61-.087.315.031.61.355.884l-.548.771c-.398-.232-.728-.238-.99-.018a.806.806 0 0 0-.292.828zm-2.303-2.229c.224.357.539.583.946.679.407.095.784.031 1.133-.193.357-.224.583-.54.678-.946a1.45 1.45 0 0 0-.193-1.146 1.478 1.478 0 0 0-.94-.678 1.442 1.442 0 0 0-1.139.193c-.215.133-.39.313-.522.542-.133.228-.2.475-.2.74 0 .15.021.293.063.43.041.137.099.263.174.379zM18.087 18l-2.128-4.456c.323-.258.605-.559.846-.903s.423-.72.548-1.126v-.025a3.926 3.926 0 0 0 .149-1.631 4.033 4.033 0 0 0-.461-1.5 4.14 4.14 0 0 0-.995-1.214 4.164 4.164 0 0 0-1.432-.759 4.295 4.295 0 0 0-1.855-.106 3.658 3.658 0 0 0-.647.168l.025-.012.772 1.419c.074-.017.159-.031.255-.044a2.241 2.241 0 0 1 .66.013c.12.02.238.047.354.081h-.024c.34.099.634.253.883.46a2.554 2.554 0 0 1 .909 1.681c.033.323 0 .655-.1.995a2.562 2.562 0 0 1-.46.884 2.563 2.563 0 0 1-1.668.909 2.398 2.398 0 0 1-.996-.087 2.163 2.163 0 0 1-.479-.199 3.263 3.263 0 0 1-.405-.274l-1.444.784a4.09 4.09 0 0 0 1.345 1.002 3.908 3.908 0 0 0 2.029.349c.116-.013.228-.027.336-.044h-.025L15.759 18h2.328z" style="fill-rule:nonzero"/></svg>