<svg viewBox="0 0 24 24" xmlns="http://www.w3.org/2000/svg" xml:space="preserve" style="fill-rule:evenodd;clip-rule:evenodd;stroke-linejoin:round;stroke-miterlimit:2"><path style="fill:none" d="M0 0h24v24H0z"/><path d="M18.778 17.527a.817.817 0 0 1 .242.606.772.772 0 0 1-.07.332.972.972 0 0 1-.192.273.688.688 0 0 1-.282.201.957.957 0 0 1-.343.061H4.98V5.888c0-.121.02-.236.06-.343a.881.881 0 0 1 .474-.484.936.936 0 0 1 .686.01 1.3 1.3 0 0 1 .293.191c.08.094.141.192.181.293a.877.877 0 0 1 .061.333v11.397h11.398c.134 0 .252.02.353.061.1.04.198.101.292.181zm-.242-11.054c.027.148.027.285 0 .413a1.307 1.307 0 0 1-.161.394l-3.631 5.527a1.424 1.424 0 0 1-.323.333 1.013 1.013 0 0 1-.444.171c-.161 0-.313-.027-.454-.08a.948.948 0 0 1-.373-.263L12.182 12l-2.623 3.974c-.215.309-.504.464-.867.464-.121 0-.232-.013-.333-.04a1.26 1.26 0 0 1-.293-.121 1.216 1.216 0 0 1-.272-.283.961.961 0 0 1-.151-.363 1.062 1.062 0 0 1 0-.413c.027-.128.08-.253.161-.374l3.369-4.982a.937.937 0 0 1 .746-.484 1.257 1.257 0 0 1 .827.302l.868.868.484-.464L16.68 6.11c.081-.108.175-.202.283-.283a.877.877 0 0 1 .363-.161.812.812 0 0 1 .403-.02.899.899 0 0 1 .383.181.763.763 0 0 1 .283.262c.067.108.114.236.141.384z" style="fill-rule:nonzero"/></svg>