<svg viewBox="0 0 24 24" xmlns="http://www.w3.org/2000/svg" xml:space="preserve" style="fill-rule:evenodd;clip-rule:evenodd;stroke-linejoin:round;stroke-miterlimit:2"><path style="fill:none" d="M0 0h24v24H0z"/><path d="M11.756 6H6.45a.36.36 0 0 0-.264.109.36.36 0 0 0-.109.264v11.563h6.051V6.373a.36.36 0 0 0-.109-.264.357.357 0 0 0-.263-.109zM9.867 7.734c0-.025.011-.049.032-.07a.097.097 0 0 1 .071-.032h1.105c.034 0 .06.01.077.032a.11.11 0 0 1 .026.07v1.105c0 .026-.009.05-.026.071-.017.021-.043.032-.077.032H9.97a.1.1 0 0 1-.071-.032.1.1 0 0 1-.032-.071V7.734zm0 2.943a.1.1 0 0 1 .032-.071.1.1 0 0 1 .071-.032h1.105c.034 0 .06.011.077.032a.111.111 0 0 1 .026.071v1.105a.11.11 0 0 1-.026.07c-.017.022-.043.032-.077.032H9.97a.097.097 0 0 1-.071-.032.099.099 0 0 1-.032-.07v-1.105zm-1.593 4.021a.1.1 0 0 1-.032.071.1.1 0 0 1-.071.032H7.066a.099.099 0 0 1-.07-.032.097.097 0 0 1-.032-.071v-1.105c0-.026.01-.049.032-.071a.099.099 0 0 1 .07-.032h1.105a.1.1 0 0 1 .071.032.1.1 0 0 1 .032.071v1.105zm0-2.916a.099.099 0 0 1-.032.07.095.095 0 0 1-.071.032H7.066a.095.095 0 0 1-.07-.032.095.095 0 0 1-.032-.07v-1.105c0-.026.01-.05.032-.071a.099.099 0 0 1 .07-.032h1.105a.1.1 0 0 1 .071.032.1.1 0 0 1 .032.071v1.105zm0-2.943a.1.1 0 0 1-.032.071.1.1 0 0 1-.071.032H7.066a.099.099 0 0 1-.07-.032.095.095 0 0 1-.032-.071V7.734c0-.025.01-.049.032-.07a.095.095 0 0 1 .07-.032h1.105c.026 0 .05.01.071.032a.099.099 0 0 1 .032.07v1.105zm2.904 5.859a.113.113 0 0 1-.026.071c-.017.021-.043.032-.077.032H9.97a.1.1 0 0 1-.071-.032.1.1 0 0 1-.032-.071v-1.105a.1.1 0 0 1 .032-.071.1.1 0 0 1 .071-.032h1.105c.034 0 .06.011.077.032a.113.113 0 0 1 .026.071v1.105zm6.372-3.546h-4.535a.356.356 0 0 0-.263.109.36.36 0 0 0-.11.264V18h1.619v-2.904c0-.025.011-.049.032-.07a.097.097 0 0 1 .071-.032h1.824c.035 0 .06.01.078.032a.11.11 0 0 1 .025.07V18h1.632v-6.475a.36.36 0 0 0-.109-.264.36.36 0 0 0-.264-.109z" style="fill-rule:nonzero"/></svg>