<svg viewBox="0 0 24 24" xmlns="http://www.w3.org/2000/svg" xml:space="preserve" style="fill-rule:evenodd;clip-rule:evenodd;stroke-linejoin:round;stroke-miterlimit:2"><path style="fill:none" d="M0 0h24v24H0z"/><path d="M18.549 14.994a6.352 6.352 0 0 0-.889-1.668 5.546 5.546 0 0 0-1.381-1.299 4.278 4.278 0 0 0-1.121-.56 4.717 4.717 0 0 0-1.169-.233 4.314 4.314 0 0 0-2.303.493H7.229a.591.591 0 0 0-.424.17.555.555 0 0 0-.178.417c0 .165.059.306.178.424a.575.575 0 0 0 .424.178h2.939a5.961 5.961 0 0 0-.554.704 7.293 7.293 0 0 0-.458.786l-.013.041H6.49a.585.585 0 0 0-.588.602c0 .164.057.303.171.417a.567.567 0 0 0 .417.171h2.201a4.596 4.596 0 0 0-.123.458 8.394 8.394 0 0 0-.095.526l-.014.041h-2.98a.575.575 0 0 0-.424.178.577.577 0 0 0-.178.424c0 .164.059.303.178.417a.588.588 0 0 0 .424.171h2.857v.205c.465.337.964.54 1.497.608.533.068 1.064.139 1.593.212.146.027.294.05.444.068l.458.055h2.817c.419-.055.838-.107 1.257-.157.42-.05.834-.116 1.244-.198.256-.055.504-.142.746-.26.241-.119.485-.228.731-.328v-.821a44.148 44.148 0 0 1-.26-1.128 9.542 9.542 0 0 0-.314-1.114zm-2.721-9.133a3.012 3.012 0 0 1 .861 2.099c0 .378-.072.75-.218 1.114a3.05 3.05 0 0 1-.643.971c-.292.292-.62.51-.984.656a3.146 3.146 0 0 1-2.229 0 2.944 2.944 0 0 1-.97-.656 2.95 2.95 0 0 1-.657-.971 3.163 3.163 0 0 1-.205-1.114c0-.378.069-.75.205-1.114.146-.365.365-.693.657-.985a3.06 3.06 0 0 1 .97-.642A2.975 2.975 0 0 1 13.729 5a3.031 3.031 0 0 1 2.099.861z" style="fill-rule:nonzero"/></svg>