<svg viewBox="0 0 24 24" xmlns="http://www.w3.org/2000/svg" xml:space="preserve" style="fill-rule:evenodd;clip-rule:evenodd;stroke-linejoin:round;stroke-miterlimit:2"><path style="fill:none" d="M0 0h24v24H0z"/><path d="M11.764 5.099A.32.32 0 0 1 11.998 5c.089 0 .167.033.234.099l7.801 7.022a.297.297 0 0 1 .106.177.421.421 0 0 1-.007.206.329.329 0 0 1-.134.17.384.384 0 0 1-.206.056h-1.986v5.915a.34.34 0 0 1-.106.249.34.34 0 0 1-.249.106h-3.872a.332.332 0 0 1-.255-.106.354.354 0 0 1-.099-.249v-4.34h-2.44v4.34a.342.342 0 0 1-.107.249.338.338 0 0 1-.248.106H6.544a.34.34 0 0 1-.249-.106.345.345 0 0 1-.106-.249V12.73H4.203a.346.346 0 0 1-.198-.056.34.34 0 0 1-.128-.17.31.31 0 0 1-.014-.206.386.386 0 0 1 .099-.177l7.802-7.022zm-6.639 6.936h1.419a.354.354 0 0 1 .354.355v5.901h3.178V13.95a.33.33 0 0 1 .099-.241.345.345 0 0 1 .255-.099h3.149c.095 0 .175.033.241.099a.33.33 0 0 1 .1.241v4.341h3.177V12.39a.354.354 0 0 1 .354-.355h1.433l-6.879-6.212-6.88 6.212z" style="fill-rule:nonzero"/></svg>