<svg viewBox="0 0 24 24" xmlns="http://www.w3.org/2000/svg" xml:space="preserve" style="fill-rule:evenodd;clip-rule:evenodd;stroke-linejoin:round;stroke-miterlimit:2"><path style="fill:none" d="M0 0h24v24H0z"/><path d="m12.547 14.219-2.406.047a.511.511 0 0 0-.375.156.508.508 0 0 0-.157.375c0 .156.052.286.157.39a.508.508 0 0 0 .375.157l2.406-.047a.511.511 0 0 0 .375-.156.515.515 0 0 0 .156-.375.53.53 0 0 0-.156-.391.511.511 0 0 0-.375-.156zm1.312-2.766h-3.718a.511.511 0 0 0-.375.156.512.512 0 0 0-.157.375c0 .157.052.287.157.391a.511.511 0 0 0 .375.156h3.718a.511.511 0 0 0 .375-.156.527.527 0 0 0 .157-.391.512.512 0 0 0-.157-.375.511.511 0 0 0-.375-.156zm-.656-2.797h-3.062a.508.508 0 0 0-.375.157.526.526 0 0 0-.157.39c0 .146.052.271.157.375a.511.511 0 0 0 .375.156h3.062a.531.531 0 0 0 .547-.531.53.53 0 0 0-.156-.39.528.528 0 0 0-.391-.157zM17.969 19H6.031V5h11.938v14zM7.406 17.625h9.188V6.375H7.406v11.25z" style="fill-rule:nonzero"/></svg>