<svg viewBox="0 0 24 24" xmlns="http://www.w3.org/2000/svg" xml:space="preserve" style="fill-rule:evenodd;clip-rule:evenodd;stroke-linejoin:round;stroke-miterlimit:2"><path style="fill:none" d="M0 0h24v24H0z"/><path d="M15.374 13.41a.754.754 0 0 0-.185.285c-.033.101-.05.213-.05.336.011.537.017 1.075.017 1.612v1.611c0 .347-.081.599-.244.756-.162.156-.411.235-.747.235-2.271.011-4.543.011-6.815 0-.336 0-.585-.082-.747-.244-.162-.162-.243-.411-.243-.747v-6.698c0-.749-.006-1.499-.017-2.249-.011-.526.084-.879.285-1.058.202-.179.537-.257 1.007-.235.258.023.518.031.781.026.263-.006.529-.009.797-.009v-.755h-1.98c-.482.011-.873.17-1.175.478-.303.308-.454.702-.454 1.184v9.4c0 .481.154.879.462 1.192.308.313.702.47 1.183.47h7c.493 0 .89-.154 1.192-.462.302-.307.453-.702.453-1.183v-4.482l-.067-.017c-.078.101-.154.196-.226.285-.073.09-.149.18-.227.269zM11.53 5.369c-.235-.246-.49-.369-.764-.369s-.529.129-.764.386c-.19.235-.327.49-.411.764a3.447 3.447 0 0 0-.143.881h2.619c.034-.257-.003-.548-.109-.873a2.21 2.21 0 0 0-.428-.789zm.319 1.948H9.683a1.19 1.19 0 0 0-.713.251 1.32 1.32 0 0 0-.478.621h4.566a1.446 1.446 0 0 0-.496-.637 1.195 1.195 0 0 0-.713-.235zm2.384-.286c.313 0 .548.079.705.235.156.157.235.397.235.722v.705l.067.017c.101-.123.201-.244.302-.361.101-.118.201-.243.302-.378a.354.354 0 0 0 .05-.134.72.72 0 0 0 .017-.151 1.627 1.627 0 0 0-.403-.915 1.217 1.217 0 0 0-.873-.445c-.38-.033-.763-.045-1.149-.033-.386.011-.775.016-1.167.016v.722c.324 0 .643-.003.957-.008.313-.006.632-.003.957.008zm-.303 8.31H7.619v.402h6.311v-.402zm-6.328-.806h6.312v-.403H7.602v.403zm.017 2.4h6.295v-.403H7.619v.403zm3.642-3.592v-.403H7.619v.403h3.642zm0-1.612H7.619v.42h3.642v-.42zm-3.659-.789h3.659v-.419H7.602v.419zm.017-1.208h3.642v-.403H7.619v.403zm10.777-1.158-1.175-.957-2.955 3.592-1.662-1.528-1.024 1.125c.47.437.943.873 1.419 1.31.475.436.943.872 1.401 1.309.023-.023.04-.034.051-.034.011 0 .017-.005.017-.017.134-.156.263-.31.386-.461.123-.151.246-.299.369-.445a.28.28 0 0 0 .084-.084l.067-.101.386-.47.42-.52.621-.772c.224-.258.442-.518.655-.781.212-.263.43-.529.654-.797.045-.056.09-.115.135-.176a3.14 3.14 0 0 1 .151-.193z" style="fill-rule:nonzero"/></svg>