<svg viewBox="0 0 24 24" xmlns="http://www.w3.org/2000/svg" xml:space="preserve" style="fill-rule:evenodd;clip-rule:evenodd;stroke-linejoin:round;stroke-miterlimit:2"><path style="fill:none" d="M0 0h24v24H0z"/><path d="M18.778 17.523a.912.912 0 0 0-.287-.177 1.025 1.025 0 0 0-.362-.059H6.728V5.901a.827.827 0 0 0-.251-.635A.778.778 0 0 0 5.871 5c-.138 0-.258.02-.362.059a.805.805 0 0 0-.287.192.917.917 0 0 0-.252.65V19h13.159c.128 0 .243-.02.347-.059a.933.933 0 0 0 .487-.48.846.846 0 0 0-.185-.938zm-3.485-8.447h2.127v7.281h-2.127V9.076zm-3.5-2.319h2.127v9.6h-2.127v-9.6zm-3.485 4.017h2.127v5.583H8.308v-5.583z" style="fill-rule:nonzero"/></svg>