<svg viewBox="0 0 24 24" xmlns="http://www.w3.org/2000/svg" xml:space="preserve" style="fill-rule:evenodd;clip-rule:evenodd;stroke-linejoin:round;stroke-miterlimit:2"><path style="fill:none" d="M0 0h24v24H0z"/><path d="M5.225 16.553c0 .642.228 1.194.684 1.656a2.23 2.23 0 0 0 1.647.693c.654 0 1.209-.231 1.665-.693a2.275 2.275 0 0 0 .684-1.656v-.093a.306.306 0 0 0-.017-.093l1.554-.743c.214.214.465.386.752.515.288.13.6.195.938.195.642 0 1.194-.228 1.656-.685.462-.456.692-1.01.692-1.664 0-.462-.123-.878-.371-1.25a2.434 2.434 0 0 0-.946-.845l.236-2.129c.53-.112.969-.38 1.318-.802.349-.423.524-.915.524-1.479 0-.653-.228-1.208-.685-1.664a2.264 2.264 0 0 0-1.664-.684c-.642 0-1.194.228-1.655.684a2.25 2.25 0 0 0-.693 1.664c0 .496.141.941.422 1.335.282.394.637.676 1.065.845l-.22 2.011a2.284 2.284 0 0 0-1.445.777 2.25 2.25 0 0 0-.582 1.537 2.795 2.795 0 0 0 .033.439v-.016l-1.419.692a2.388 2.388 0 0 0-.802-.65 2.266 2.266 0 0 0-1.04-.245 2.23 2.23 0 0 0-1.647.693 2.271 2.271 0 0 0-.684 1.655zm7.502-9.073c0-.326.112-.602.337-.827.226-.226.502-.338.828-.338.327 0 .603.112.828.338.225.225.338.501.338.827 0 .327-.113.603-.338.828a1.122 1.122 0 0 1-.828.338c-.326 0-.602-.112-.828-.338a1.125 1.125 0 0 1-.337-.828zm-5.171 7.908c.327 0 .606.112.837.337.231.226.346.502.346.828 0 .327-.115.603-.346.828-.231.225-.51.338-.837.338-.315 0-.588-.113-.819-.338a1.11 1.11 0 0 1-.346-.828c0-.326.115-.602.346-.828.231-.225.504-.337.819-.337zm12.199 2.939a1.06 1.06 0 0 0-.329-.202 1.167 1.167 0 0 0-.414-.068h-9.31a2.664 2.664 0 0 1-.937.845 2.571 2.571 0 0 1-1.259.321 2.544 2.544 0 0 1-1.876-.786 2.585 2.585 0 0 1-.777-1.884c0-.45.102-.864.304-1.241.203-.378.473-.685.811-.921V5.014c0-.147-.022-.279-.067-.397a1.068 1.068 0 0 0-.203-.33 1.22 1.22 0 0 0-.329-.211A.953.953 0 0 0 4.988 4c-.157 0-.295.023-.414.068a1.06 1.06 0 0 0-.329.202 1.17 1.17 0 0 0-.211.338 1.056 1.056 0 0 0-.076.406V20h15.054c.146 0 .278-.023.397-.068a.939.939 0 0 0 .329-.219.877.877 0 0 0 .228-.313.948.948 0 0 0 .076-.38.938.938 0 0 0-.287-.693z" style="fill-rule:nonzero"/></svg>