<svg viewBox="0 0 24 24" xmlns="http://www.w3.org/2000/svg" xml:space="preserve" style="fill-rule:evenodd;clip-rule:evenodd;stroke-linejoin:round;stroke-miterlimit:2"><path style="fill:none" d="M0 0h24v24H0z"/><path d="M15.067 18h3.253l-4.067-4.507a4.699 4.699 0 0 0 .88-2.746c0-.658-.124-1.271-.373-1.84a4.734 4.734 0 0 0-2.52-2.534A4.537 4.537 0 0 0 10.4 6a4.6 4.6 0 0 0-1.84.373 4.81 4.81 0 0 0-2.52 2.534 4.684 4.684 0 0 0-.36 1.84c0 .657.12 1.275.36 1.853.249.578.589 1.08 1.02 1.507.431.426.931.764 1.5 1.013a4.6 4.6 0 0 0 1.84.373c.373 0 .733-.042 1.08-.126.347-.085.676-.203.987-.354l-.027.014L15.067 18zm-7.574-7.253a2.902 2.902 0 0 1 .847-2.06 3.07 3.07 0 0 1 .927-.634 2.865 2.865 0 0 1 1.133-.226c.4 0 .778.075 1.133.226.356.16.665.371.927.634a2.902 2.902 0 0 1 .847 2.06c0 .409-.076.791-.227 1.146a3.013 3.013 0 0 1-.62.92 2.834 2.834 0 0 1-.927.627 2.866 2.866 0 0 1-1.133.227c-.4 0-.778-.076-1.133-.227a2.834 2.834 0 0 1-.927-.627 3.013 3.013 0 0 1-.62-.92 2.897 2.897 0 0 1-.227-1.146z" style="fill-rule:nonzero"/></svg>