<svg viewBox="0 0 24 24" xmlns="http://www.w3.org/2000/svg" xml:space="preserve" style="fill-rule:evenodd;clip-rule:evenodd;stroke-linejoin:round;stroke-miterlimit:2"><path style="fill:none" d="M0 0h24v24H0z"/><path d="M6 17.418V6.582a.94.94 0 0 1 .222-.36.94.94 0 0 1 .36-.222h1.659v2.899c0 .169.035.289.107.36.072.072.192.112.361.121h5.62c.169 0 .291-.032.367-.095.076-.063.114-.167.114-.31V7.487c0-.493-.004-.989-.013-1.487h.962L18 8.241v9.177a.94.94 0 0 1-.222.36.94.94 0 0 1-.36.222H6.582a.94.94 0 0 1-.36-.222.94.94 0 0 1-.222-.36zm2.025-.165H16c.194 0 .327-.038.399-.114.071-.076.107-.207.107-.392v-4.912c0-.244-.038-.405-.114-.481-.076-.076-.232-.113-.468-.113H8.025c-.194 0-.331.037-.411.113-.08.076-.12.211-.12.405v4.963c0 .21.036.352.107.424.072.071.213.107.424.107zm1.076-2.456h5.798c.16 0 .28.032.36.095a.326.326 0 0 1 .121.273.365.365 0 0 1-.133.272.53.53 0 0 1-.336.095h-5.81c-.16 0-.28-.034-.36-.102-.081-.067-.121-.164-.121-.291a.332.332 0 0 1 .133-.253c.08-.059.196-.089.348-.089zm5.76-1.278H9.063c-.168 0-.293-.053-.373-.158-.08-.106-.091-.226-.032-.361a.338.338 0 0 1 .171-.171.656.656 0 0 1 .247-.044c1.595.008 3.19.012 4.785.012h1.012c.169 0 .296.03.38.089.085.059.127.152.127.279a.342.342 0 0 1-.133.265c-.08.059-.209.089-.386.089z" style="fill-rule:nonzero"/></svg>