<svg viewBox="0 0 24 24" xmlns="http://www.w3.org/2000/svg" xml:space="preserve" style="fill-rule:evenodd;clip-rule:evenodd;stroke-linejoin:round;stroke-miterlimit:2"><path style="fill:none" d="M0 0h24v24H0z"/><path d="M13.885 13.885c.521-.52.782-1.149.782-1.885s-.261-1.365-.782-1.885A2.567 2.567 0 0 0 12 9.333c-.736 0-1.365.261-1.885.782A2.567 2.567 0 0 0 9.333 12c0 .736.261 1.365.782 1.885.52.521 1.149.782 1.885.782s1.365-.261 1.885-.782zm1.021-4.791c.799.798 1.198 1.767 1.198 2.906 0 1.139-.399 2.108-1.198 2.906-.798.799-1.767 1.198-2.906 1.198-1.139 0-2.108-.399-2.906-1.198-.799-.798-1.198-1.767-1.198-2.906 0-1.139.399-2.108 1.198-2.906.798-.799 1.767-1.198 2.906-1.198 1.139 0 2.108.399 2.906 1.198zm2.042-2.042a.925.925 0 0 1 .281.677c0 .264-.094.49-.281.677a.922.922 0 0 1-.677.282.92.92 0 0 1-.677-.282.92.92 0 0 1-.281-.677c0-.264.093-.489.281-.677a.924.924 0 0 1 .677-.281c.264 0 .489.094.677.281zm-4.151-1.62L12 5.438l-.797-.006a65.405 65.405 0 0 0-1.099 0c-.25.004-.585.014-1.005.032a8.21 8.21 0 0 0-1.073.104 4.228 4.228 0 0 0-.745.192 2.696 2.696 0 0 0-.916.605 2.696 2.696 0 0 0-.605.916c-.076.202-.14.45-.192.745a8.21 8.21 0 0 0-.104 1.073c-.018.42-.028.755-.032 1.005-.003.25-.003.616 0 1.099l.005.797-.005.797c-.003.483-.003.849 0 1.099.004.25.014.585.032 1.005.017.42.052.778.104 1.073.052.295.116.543.192.745.139.347.341.653.605.916.263.264.569.466.916.605.202.076.45.14.745.192a8.21 8.21 0 0 0 1.073.104c.42.018.755.028 1.005.032.25.003.616.003 1.099 0l.797-.005.797.005c.483.003.849.003 1.099 0 .25-.004.585-.014 1.005-.032a8.21 8.21 0 0 0 1.073-.104c.295-.052.543-.116.745-.192.347-.139.653-.341.916-.605.264-.263.466-.569.605-.916.076-.202.14-.45.192-.745a8.21 8.21 0 0 0 .104-1.073c.018-.42.028-.755.032-1.005.003-.25.003-.616 0-1.099L18.563 12l.005-.797c.003-.483.003-.849 0-1.099-.004-.25-.014-.585-.032-1.005a8.21 8.21 0 0 0-.104-1.073 4.228 4.228 0 0 0-.192-.745 2.696 2.696 0 0 0-.605-.916 2.696 2.696 0 0 0-.916-.605 4.228 4.228 0 0 0-.745-.192 8.21 8.21 0 0 0-1.073-.104c-.42-.018-.755-.028-1.005-.032-.25-.003-.616-.003-1.099 0zm7.151 3.266C19.983 9.309 20 10.41 20 12s-.017 2.691-.052 3.302c-.07 1.445-.5 2.563-1.292 3.354-.791.792-1.909 1.222-3.354 1.292-.611.035-1.712.052-3.302.052s-2.691-.017-3.302-.052c-1.445-.07-2.563-.5-3.354-1.292-.792-.791-1.222-1.909-1.292-3.354C4.017 14.691 4 13.59 4 12s.017-2.691.052-3.302c.07-1.445.5-2.563 1.292-3.354.791-.792 1.909-1.222 3.354-1.292C9.309 4.017 10.41 4 12 4s2.691.017 3.302.052c1.445.07 2.563.5 3.354 1.292.792.791 1.222 1.909 1.292 3.354z" style="fill-rule:nonzero"/></svg>