<svg viewBox="0 0 24 24" xmlns="http://www.w3.org/2000/svg" xml:space="preserve" style="fill-rule:evenodd;clip-rule:evenodd;stroke-linejoin:round;stroke-miterlimit:2"><path style="fill:none" d="M0 0h24v24H0z"/><path d="M6.5 21H3c-.55 0-1-.45-1-1V10c0-.55.45-1 1-1h3.5c.55 0 1 .45 1 1v10c0 .55-.45 1-1 1zm7.25-18h-3.5c-.55 0-1 .45-1 1v16c0 .55.45 1 1 1h3.5c.55 0 1-.45 1-1V4c0-.55-.45-1-1-1zM21 11h-3.5c-.55 0-1 .45-1 1v8c0 .55.45 1 1 1H21c.55 0 1-.45 1-1v-8c0-.55-.45-1-1-1z" style="fill-rule:nonzero"/></svg>