<svg viewBox="0 0 25 25" xmlns="http://www.w3.org/2000/svg" xml:space="preserve" style="fill-rule:evenodd;clip-rule:evenodd;stroke-linejoin:round;stroke-miterlimit:2"><path style="fill:none" d="M.403.398h24v24h-24z"/><path d="M5.716 5.398h6c.55 0 1-.45 1-1s-.45-1-1-1h-6c-1.1 0-2 .9-2 2v14c0 1.1.9 2 2 2h6c.55 0 1-.45 1-1s-.45-1-1-1h-6v-14z" style="fill-rule:nonzero"/><path d="m20.858 11.823-4.584-4.584c-.526-.526-1.413-.165-1.413.575v1.941H9.992a.789.789 0 0 0-.789.789v3.675c0 .454.368.822.822.822h4.836v1.941c0 .74.887 1.101 1.397.576l4.584-4.585a.807.807 0 0 0 .016-1.15z" style="fill-rule:nonzero"/></svg>