<svg viewBox="0 0 25 24" xmlns="http://www.w3.org/2000/svg" xml:space="preserve" style="fill-rule:evenodd;clip-rule:evenodd;stroke-linejoin:round;stroke-miterlimit:2"><path style="fill:none" d="M.48 0h24v24h-24z"/><path d="M20.48 2.708h-16c-1.1 0-1.99.9-1.99 2l-.01 15.58c0 .89 1.08 1.34 1.71.71l2.29-2.29h14c1.1 0 2-.9 2-2v-12c0-1.1-.9-2-2-2zm-13 7h10c.55 0 1 .45 1 1s-.45 1-1 1h-10c-.55 0-1-.45-1-1s.45-1 1-1zm6 5h-6c-.55 0-1-.45-1-1s.45-1 1-1h6c.55 0 1 .45 1 1s-.45 1-1 1zm4-6h-10c-.55 0-1-.45-1-1s.45-1 1-1h10c.55 0 1 .45 1 1s-.45 1-1 1z" style="fill-rule:nonzero"/></svg>