<svg viewBox="0 0 24 24" xmlns="http://www.w3.org/2000/svg" xml:space="preserve" style="fill-rule:evenodd;clip-rule:evenodd;stroke-linejoin:round;stroke-miterlimit:2"><path style="fill:none" d="M0 0h24v24H0z"/><path d="M11.999 14.5c1.66 0 3-1.34 3-3v-6c0-1.66-1.34-3-3-3s-3 1.34-3 3v6c0 1.66 1.34 3 3 3z" style="fill-rule:nonzero"/><path d="M17.909 11.5c-.49 0-.9.36-.98.85a5.007 5.007 0 0 1-4.93 4.15c-2.47 0-4.52-1.79-4.93-4.15a.998.998 0 0 0-.98-.85c-.61 0-1.09.54-1 1.14.49 3 2.89 5.34 5.91 5.78v2.08c0 .55.45 1 1 1s1-.45 1-1v-2.08c3.02-.44 5.42-2.78 5.91-5.78.1-.6-.39-1.14-1-1.14z" style="fill-rule:nonzero"/></svg>