<svg viewBox="0 0 24 25" xmlns="http://www.w3.org/2000/svg" xml:space="preserve" style="fill-rule:evenodd;clip-rule:evenodd;stroke-linejoin:round;stroke-miterlimit:2"><path style="fill:none" d="M0 .398h24v24H0z"/><path d="m6.206 18.149-2.303-6.873a1.5 1.5 0 0 1 .593-2.878l.078.002 2.388-2.406c-.002-.029-.002-.059-.002-.089a1.5 1.5 0 1 1 1.5 1.5l-.078-.002-2.388 2.406.002.089c0 .27-.071.524-.196.743l2.302 6.872a1.5 1.5 0 1 1-1.896.636zm3.614-1.91a.788.788 0 0 0 .968.968l5.989-1.619a.835.835 0 0 0 .527-.429l1.523-3.019a.772.772 0 0 0-.143-.893l-2.889-2.889a.797.797 0 0 0-.922-.148l-3.015 1.521a.806.806 0 0 0-.416.509L9.82 16.239zm3.957-4.896a1.348 1.348 0 1 1 1.907 1.905 1.348 1.348 0 0 1-1.907-1.905zm6.911-1.314a.447.447 0 0 0 0-.631l-3.111-3.113a.374.374 0 0 0-.529 0l-.642.642a.441.441 0 0 0-.001.625l3.102 3.103a.393.393 0 0 0 .555 0l.626-.626z"/></svg>