<svg viewBox="0 0 24 24" xmlns="http://www.w3.org/2000/svg" xml:space="preserve" style="fill-rule:evenodd;clip-rule:evenodd;stroke-linejoin:round;stroke-miterlimit:2"><path style="fill:none" d="M0 0h24v24H0z"/><path d="M11.088 7.771a3.034 3.034 0 0 1-3.02 3.02 3.034 3.034 0 0 1-3.02-3.02 3.034 3.034 0 0 1 3.02-3.02 3.034 3.034 0 0 1 3.02 3.02zm4.833-3.02a3.034 3.034 0 0 0-3.02 3.02 3.034 3.034 0 0 0 3.02 3.02 3.034 3.034 0 0 0 3.02-3.02 3.034 3.034 0 0 0-3.02-3.02zm.4 7.249a4.699 4.699 0 0 0-4.339 2.577A4.723 4.723 0 0 0 7.643 12c-4.019 0-5.3 3.774-5.618 7.249h19.937C21.619 15.775 20.341 12 16.322 12h-.001z"/></svg>