<svg viewBox="0 0 25 24" xmlns="http://www.w3.org/2000/svg" xml:space="preserve" style="fill-rule:evenodd;clip-rule:evenodd;stroke-linejoin:round;stroke-miterlimit:2"><path style="fill:none" d="M.48 0h24v24h-24z"/><path d="M18.48 7V4c0-.55-.45-1-1-1h-10c-.55 0-1 .45-1 1v3h12zM19.48 8h-14c-1.66 0-3 1.34-3 3v5c0 .55.45 1 1 1h3v2c0 1.1.9 2 2 2h8c1.1 0 2-.9 2-2v-2h3c.55 0 1-.45 1-1v-5c0-1.66-1.34-3-3-3zm-3 11h-8v-4h8v4zm2-6.5c-.55 0-1-.45-1-1s.45-1 1-1 1 .45 1 1-.45 1-1 1z" style="fill-rule:nonzero"/></svg>