<svg viewBox="0 0 24 24" xmlns="http://www.w3.org/2000/svg" xml:space="preserve" style="fill-rule:evenodd;clip-rule:evenodd;stroke-linejoin:round;stroke-miterlimit:2"><path style="fill:none" d="M0 0h24v24H0z"/><path d="M10.01 6.35C13.71 5.01 18 7.71 18 12h-1.79c-.45 0-.67.54-.35.85l2.79 2.79c.2.2.51.2.71 0l2.79-2.79a.5.5 0 0 0-.36-.85H20c0-5.76-5.78-9.39-10.79-7.48-.63.24-.78 1.08-.3 1.56l.08.08c.26.26.66.32 1.02.19zM13.98 17.64C10.14 19.01 6 16.17 6 12h1.79c.45 0 .67-.54.35-.85L5.35 8.36c-.2-.2-.51-.2-.71 0l-2.79 2.79a.5.5 0 0 0 .35.85H4c0 5.76 5.78 9.39 10.79 7.48.63-.24.78-1.08.3-1.56l-.07-.07c-.27-.27-.67-.33-1.04-.21z" style="fill-rule:nonzero"/></svg>