<svg viewBox="0 0 24 24" xmlns="http://www.w3.org/2000/svg" xml:space="preserve" style="fill-rule:evenodd;clip-rule:evenodd;stroke-linejoin:round;stroke-miterlimit:2"><path style="fill:none" d="M0 0h24v24H0z"/><path d="M11.99 2C6.47 2 2 6.48 2 12s4.47 10 9.99 10C17.52 22 22 17.52 22 12S17.52 2 11.99 2zM12 20c-4.42 0-8-3.58-8-8s3.58-8 8-8 8 3.58 8 8-3.58 8-8 8zm.5-12.571A.429.429 0 0 0 12.071 7h-.66a.411.411 0 0 0-.411.411v5.372c0 .134.071.259.186.329l4.7 2.82c.201.12.463.056.585-.145l.342-.56a.357.357 0 0 0-.122-.49l-3.978-2.361a.434.434 0 0 1-.213-.373V7.429z" style="fill-rule:nonzero"/></svg>