<svg viewBox="0 0 24 24" xmlns="http://www.w3.org/2000/svg" xml:space="preserve" style="fill-rule:evenodd;clip-rule:evenodd;stroke-linejoin:round;stroke-miterlimit:2"><path style="fill:none" d="M0 0h24v24H0z"/><path d="M16.909 5.873A2.932 2.932 0 0 1 19.349 4c.959 0 1.411.847 1.02 1.873a2.899 2.899 0 0 1-2.438 1.871c-.961 0-1.42-.82-1.022-1.871zM10.441 8.256a2.93 2.93 0 0 1 2.441-1.873c.958 0 1.41.846 1.02 1.873a2.902 2.902 0 0 1-2.439 1.871c-.961 0-1.42-.82-1.022-1.871zM5.733 18.128A2.9 2.9 0 0 1 3.292 20c-.958 0-1.42-.816-1.02-1.872a2.932 2.932 0 0 1 2.439-1.872c.959 0 1.411.846 1.022 1.872zM6.356 14.553c-.958 0-1.419-.816-1.02-1.872a2.935 2.935 0 0 1 2.439-1.872c.959 0 1.411.846 1.02 1.872a2.9 2.9 0 0 1-2.439 1.872zM21.694 18.978h-.204l-14.439-.123a.138.138 0 0 1-.158-.114c-.015-.109.133-.161.133-.161l10.11-1.256s-2.977-5.54-2.985-5.622c-.044-.194.135-.267.276-.171.141.096 6.142 6.028 7.315 7.188l.082.085c.159.195-.13.174-.13.174z" style="fill-rule:nonzero"/></svg>