<svg viewBox="0 0 25 25" xmlns="http://www.w3.org/2000/svg" xml:space="preserve" style="fill-rule:evenodd;clip-rule:evenodd;stroke-linejoin:round;stroke-miterlimit:2"><path style="fill:none" d="M.701.398h24v24h-24z"/><path d="M18.701 21.398c.55 0 1-.45 1-1v-5h-2v5c0 .55.45 1 1 1zm-12 0c.55 0 1-.45 1-1v-9h-2v9c0 .55.45 1 1 1zm14-10h-1v-7c0-.55-.45-1-1-1s-1 .45-1 1v7h-1c-.55 0-1 .45-1 1s.45 1 1 1h4c.55 0 1-.45 1-1s-.45-1-1-1zm-10 6h1v3c0 .55.45 1 1 1s1-.45 1-1v-3h1c.55 0 1-.45 1-1s-.45-1-1-1h-4c-.55 0-1 .45-1 1s.45 1 1 1zm2-14c-.55 0-1 .45-1 1v9h2v-9c0-.55-.45-1-1-1zm-3 5c0-.55-.45-1-1-1h-1v-3c0-.55-.45-1-1-1s-1 .45-1 1v3h-1c-.55 0-1 .45-1 1s.45 1 1 1h4c.55 0 1-.45 1-1z" style="fill-rule:nonzero"/></svg>