<svg viewBox="0 0 24 24" xmlns="http://www.w3.org/2000/svg" xml:space="preserve" style="fill-rule:evenodd;clip-rule:evenodd;stroke-linejoin:round;stroke-miterlimit:2"><path style="fill:none" d="M0 0h24v24H0z"/><path d="M19.388 7.425a6.37 6.37 0 0 1-1.519 1.566 8.617 8.617 0 0 1-.347 2.826 8.816 8.816 0 0 1-1.083 2.33 9.137 9.137 0 0 1-1.73 1.973c-.668.572-1.475 1.028-2.418 1.369A8.844 8.844 0 0 1 9.263 18a8.41 8.41 0 0 1-4.65-1.359c.218.025.462.037.731.037a5.925 5.925 0 0 0 3.759-1.294 2.95 2.95 0 0 1-1.762-.604 2.963 2.963 0 0 1-1.069-1.496c.206.032.397.047.572.047.269 0 .534-.034.797-.103a2.98 2.98 0 0 1-1.739-1.045 2.924 2.924 0 0 1-.689-1.927v-.037c.425.237.881.365 1.368.384a3.028 3.028 0 0 1-.984-1.078 2.95 2.95 0 0 1-.366-1.444c0-.55.138-1.059.413-1.528a8.573 8.573 0 0 0 2.761 2.236 8.448 8.448 0 0 0 3.483.933 3.37 3.37 0 0 1-.075-.694 2.917 2.917 0 0 1 .885-2.142A2.919 2.919 0 0 1 14.841 6a2.92 2.92 0 0 1 2.212.956 5.94 5.94 0 0 0 1.922-.731 2.94 2.94 0 0 1-1.331 1.669 6.046 6.046 0 0 0 1.743-.469z" style="fill-rule:nonzero"/></svg>