<svg viewBox="0 0 24 24" xmlns="http://www.w3.org/2000/svg" xml:space="preserve" style="fill-rule:evenodd;clip-rule:evenodd;stroke-linejoin:round;stroke-miterlimit:2"><path style="fill:none" d="M0 0h24v24H0z"/><path d="M5.173 10.908c3.901-3.881 10.233-3.881 14.124.02a10.037 10.037 0 0 1 2.391 3.822c.21.61-.26 1.25-.911 1.25h-.1c-.42 0-.77-.28-.91-.67a7.926 7.926 0 0 0-1.88-2.991c-3.111-3.111-8.183-3.121-11.304-.02l1.971 1.97c.63.631.18 1.711-.711 1.711H3.262c-.55 0-1-.45-1-1v-4.592c0-.89 1.08-1.34 1.71-.71l1.201 1.21z" style="fill-rule:nonzero"/></svg>