<svg viewBox="0 0 24 24" xmlns="http://www.w3.org/2000/svg" xml:space="preserve" style="fill-rule:evenodd;clip-rule:evenodd;stroke-linejoin:round;stroke-miterlimit:2"><path style="fill:none" d="M0 0h24v24H0z"/><path d="m12 5.537 2.577 2.577a1.044 1.044 0 1 0 1.477-1.477l-3.321-3.331a1.044 1.044 0 0 0-1.477 0l-3.32 3.331a1.042 1.042 0 0 0 0 1.477 1.042 1.042 0 0 0 1.477 0L12 5.537zm0 12.926-2.577-2.577a1.044 1.044 0 1 0-1.477 1.477l3.321 3.331a1.044 1.044 0 0 0 1.477 0l3.32-3.321a1.044 1.044 0 1 0-1.477-1.477L12 18.463z" style="fill-rule:nonzero"/></svg>