<svg viewBox="0 0 24 24" xmlns="http://www.w3.org/2000/svg" xml:space="preserve" style="fill-rule:evenodd;clip-rule:evenodd;stroke-linejoin:round;stroke-miterlimit:2"><path style="fill:none" d="M0 0h24v24H0z"/><path d="M14.508 4.308 12 6.816 9.492 4.308a1.048 1.048 0 0 0-1.485 0 1.062 1.062 0 0 0 0 1.496l3.245 3.246a1.05 1.05 0 0 0 1.486 0l3.245-3.246a1.062 1.062 0 0 0 0-1.496 1.046 1.046 0 0 0-1.475 0zM9.492 19.692 12 17.184l2.508 2.508a1.048 1.048 0 0 0 1.485 0 1.062 1.062 0 0 0 0-1.496l-3.245-3.246a1.05 1.05 0 0 0-1.486 0l-3.245 3.246a1.062 1.062 0 0 0 0 1.496c.401.411 1.075.4 1.475 0z" style="fill-rule:nonzero"/></svg>