<svg viewBox="0 0 24 25" xmlns="http://www.w3.org/2000/svg" xml:space="preserve" style="fill-rule:evenodd;clip-rule:evenodd;stroke-linejoin:round;stroke-miterlimit:2"><path style="fill:red" d="M0 .398h24v24H0z"/><path d="M11 8.398v4c0 .27.11.52.29.71l2.79 2.79a.996.996 0 1 0 1.41-1.41l-2.5-2.5v-3.59c0-.55-.45-1-1-1a1 1 0 0 0-.99 1zm9.15-3.15-1.31 1.31a8.963 8.963 0 0 0-6.6-3.16c-4.89-.12-9.1 3.86-9.24 8.74a9.003 9.003 0 0 0 17.72 2.5c.16-.63-.33-1.24-.98-1.24-.45 0-.85.3-.96.73a7.014 7.014 0 0 1-8.05 5.16c-2.78-.49-5.04-2.71-5.58-5.47-.89-4.48 2.53-8.42 6.85-8.42 2.18 0 4.12 1.02 5.41 2.59l-1.55 1.55c-.32.32-.1.86.35.86h4.29c.28 0 .5-.22.5-.5v-4.29a.5.5 0 0 0-.85-.36z" style="fill-rule:nonzero"/></svg>