<svg viewBox="0 0 24 24" xmlns="http://www.w3.org/2000/svg" xml:space="preserve" style="fill-rule:evenodd;clip-rule:evenodd;stroke-linejoin:round;stroke-miterlimit:2"><path style="fill:none" d="M0 0h24v24H0z"/><path d="M20.466 11.539h-.47v-.47a.471.471 0 0 0-.47-.47.472.472 0 0 0-.47.47v.47h-3.76v-.47a.472.472 0 0 0-.47-.47.471.471 0 0 0-.47.47v.47h-.471a.936.936 0 0 0-.935.94l-.005 6.581c0 .517.419.94.94.94h6.581c.517 0 .94-.423.94-.94v-6.581a.943.943 0 0 0-.94-.94zm0 7.521h-6.581v-4.701h6.581v4.701zm-5.17-3.761h1.41c.258 0 .47.212.47.471v1.41c0 .258-.212.47-.47.47h-1.41a.471.471 0 0 1-.47-.47v-1.41c0-.259.211-.471.47-.471zM3.536 19.077a.945.945 0 0 1-.942-.942V16.58c0-.971.48-1.894 1.31-2.384a12.127 12.127 0 0 1 6.228-1.715h.967v6.596H3.536z" style="fill-rule:nonzero"/><circle cx="10.132" cy="7.769" r="3.769"/></svg>