<svg viewBox="0 0 24 24" xmlns="http://www.w3.org/2000/svg" xml:space="preserve" style="fill-rule:evenodd;clip-rule:evenodd;stroke-linejoin:round;stroke-miterlimit:2"><path style="fill:none" d="M0 0h24v24H0z"/><path d="M12 4.5c-4.69 0-8.74 2.74-10.65 6.7-.24.5-.24 1.1 0 1.6 1.91 3.96 5.96 6.7 10.65 6.7s8.74-2.74 10.65-6.7c.24-.5.24-1.1 0-1.6C20.74 7.24 16.69 4.5 12 4.5zm0 12c-2.48 0-4.5-2.02-4.5-4.5S9.52 7.5 12 7.5s4.5 2.02 4.5 4.5-2.02 4.5-4.5 4.5z" style="fill-rule:nonzero"/><circle cx="12" cy="12" r="2.7"/></svg>