<svg viewBox="0 0 24 24" xmlns="http://www.w3.org/2000/svg" xml:space="preserve" style="fill-rule:evenodd;clip-rule:evenodd;stroke-linejoin:round;stroke-miterlimit:2"><path style="fill:none" d="M0 0h24v24H0z"/><path d="m21.025 19.193-4.08-4.08a7.54 7.54 0 0 0 1.511-4.536C18.456 6.399 15.057 3 10.879 3 6.7 3 3.301 6.399 3.301 10.577s3.399 7.578 7.578 7.578a7.546 7.546 0 0 0 4.535-1.511l4.08 4.08a1.085 1.085 0 0 0 1.531-1.531zM5.466 10.577c0-2.969 2.443-5.412 5.413-5.412 2.969 0 5.412 2.443 5.412 5.412s-2.443 5.413-5.412 5.413c-2.968-.004-5.409-2.445-5.413-5.413z" style="fill-rule:nonzero"/></svg>