<?xml version="1.0" encoding="UTF-8" standalone="no"?><!DOCTYPE svg PUBLIC "-//W3C//DTD SVG 1.1//EN" "http://www.w3.org/Graphics/SVG/1.1/DTD/svg11.dtd"><svg width="100%" height="100%" viewBox="0 0 24 24" version="1.1" xmlns="http://www.w3.org/2000/svg" xmlns:xlink="http://www.w3.org/1999/xlink" xml:space="preserve" xmlns:serif="http://www.serif.com/" style="fill-rule:evenodd;clip-rule:evenodd;stroke-linejoin:round;stroke-miterlimit:2;"><rect id="ac_unit" x="0" y="0" width="24" height="24" style="fill:none;"/><path d="M21,11l-3.17,0l2.54,-2.54c0.39,-0.39 0.39,-1.02 0,-1.41c-0.39,-0.39 -1.03,-0.39 -1.42,0l-3.95,3.95l-2,0l0,-2l3.95,-3.95c0.39,-0.39 0.39,-1.03 0,-1.42c-0.39,-0.39 -1.02,-0.39 -1.41,0l-2.54,2.54l0,-3.17c0,-0.55 -0.45,-1 -1,-1c-0.55,0 -1,0.45 -1,1l0,3.17l-2.54,-2.54c-0.39,-0.39 -1.02,-0.39 -1.41,0c-0.39,0.39 -0.39,1.03 0,1.42l3.95,3.95l0,2l-2,0l-3.95,-3.95c-0.39,-0.39 -1.03,-0.39 -1.42,0c-0.39,0.39 -0.39,1.02 0,1.41l2.54,2.54l-3.17,0c-0.55,0 -1,0.45 -1,1c0,0.55 0.45,1 1,1l3.17,0l-2.54,2.54c-0.39,0.39 -0.39,1.02 0,1.41c0.39,0.39 1.03,0.39 1.42,0l3.95,-3.95l2,0l0,2l-3.95,3.95c-0.39,0.39 -0.39,1.03 0,1.42c0.39,0.39 1.02,0.39 1.41,0l2.54,-2.54l0,3.17c0,0.55 0.45,1 1,1c0.55,0 1,-0.45 1,-1l0,-3.17l2.54,2.54c0.39,0.39 1.02,0.39 1.41,0c0.39,-0.39 0.39,-1.03 0,-1.42l-3.95,-3.95l0,-2l2,0l3.95,3.95c0.39,0.39 1.03,0.39 1.42,0c0.39,-0.39 0.39,-1.02 0,-1.41l-2.54,-2.54l3.17,0c0.55,0 1,-0.45 1,-1c0,-0.55 -0.45,-1 -1,-1Z" style="fill-rule:nonzero;"/></svg>