<?xml version="1.0" encoding="UTF-8" standalone="no"?><!DOCTYPE svg PUBLIC "-//W3C//DTD SVG 1.1//EN" "http://www.w3.org/Graphics/SVG/1.1/DTD/svg11.dtd"><svg width="100%" height="100%" viewBox="0 0 25 24" version="1.1" xmlns="http://www.w3.org/2000/svg" xmlns:xlink="http://www.w3.org/1999/xlink" xml:space="preserve" xmlns:serif="http://www.serif.com/" style="fill-rule:evenodd;clip-rule:evenodd;stroke-linejoin:round;stroke-miterlimit:2;"><rect id="account_balance" x="0.432" y="0" width="24" height="24" style="fill:none;"/><path d="M4.7,11.505l0,3.856c0,0.801 0.646,1.447 1.447,1.447c0.8,-0 1.446,-0.646 1.446,-1.447l-0,-3.856c-0,-0.801 -0.646,-1.447 -1.446,-1.447c-0.801,0 -1.447,0.646 -1.447,1.447Zm5.786,-0l-0,3.856c-0,0.801 0.646,1.447 1.446,1.447c0.8,-0 1.446,-0.646 1.446,-1.447l0,-3.856c0,-0.801 -0.646,-1.447 -1.446,-1.447c-0.8,0 -1.446,0.646 -1.446,1.447Zm-6.268,10.124l15.428,-0c0.8,-0 1.446,-0.646 1.446,-1.447c-0,-0.8 -0.646,-1.446 -1.446,-1.446l-15.428,0c-0.8,0 -1.446,0.646 -1.446,1.446c-0,0.801 0.646,1.447 1.446,1.447Zm12.053,-10.124l-0,3.856c-0,0.801 0.646,1.447 1.446,1.447c0.8,-0 1.446,-0.646 1.446,-1.447l0,-3.856c0,-0.801 -0.646,-1.447 -1.446,-1.447c-0.8,0 -1.446,0.646 -1.446,1.447Zm-5.236,-9.652l-7.617,4.011c-0.395,0.202 -0.646,0.617 -0.646,1.061c-0,0.665 0.54,1.205 1.205,1.205l15.919,-0c0.656,-0 1.196,-0.54 1.196,-1.205c-0,-0.444 -0.251,-0.859 -0.646,-1.061l-7.617,-4.011c-0.56,-0.299 -1.235,-0.299 -1.794,-0Z" style="fill-rule:nonzero;"/></svg>