<?xml version="1.0" encoding="UTF-8" standalone="no"?><!DOCTYPE svg PUBLIC "-//W3C//DTD SVG 1.1//EN" "http://www.w3.org/Graphics/SVG/1.1/DTD/svg11.dtd"><svg width="100%" height="100%" viewBox="0 0 24 24" version="1.1" xmlns="http://www.w3.org/2000/svg" xmlns:xlink="http://www.w3.org/1999/xlink" xml:space="preserve" xmlns:serif="http://www.serif.com/" style="fill-rule:evenodd;clip-rule:evenodd;stroke-linejoin:round;stroke-miterlimit:2;"><rect id="add" x="0" y="0" width="24" height="24" style="fill:none;"/><g id="add1" serif:id="add"><g><path d="M18,13l-5,0l0,5c0,0.55 -0.45,1 -1,1c-0.55,0 -1,-0.45 -1,-1l0,-5l-5,0c-0.55,0 -1,-0.45 -1,-1c0,-0.55 0.45,-1 1,-1l5,0l0,-5c0,-0.55 0.45,-1 1,-1c0.55,0 1,0.45 1,1l0,5l5,0c0.55,0 1,0.45 1,1c0,0.55 -0.45,1 -1,1Z" style="fill-rule:nonzero;"/></g></g></svg>