<?xml version="1.0" encoding="UTF-8" standalone="no"?><!DOCTYPE svg PUBLIC "-//W3C//DTD SVG 1.1//EN" "http://www.w3.org/Graphics/SVG/1.1/DTD/svg11.dtd"><svg width="100%" height="100%" viewBox="0 0 24 24" version="1.1" xmlns="http://www.w3.org/2000/svg" xmlns:xlink="http://www.w3.org/1999/xlink" xml:space="preserve" xmlns:serif="http://www.serif.com/" style="fill-rule:evenodd;clip-rule:evenodd;stroke-linejoin:round;stroke-miterlimit:2;"><rect id="apartment" x="0" y="0" width="24" height="24" style="fill:none;"/><g><path d="M17,11l0,-6c0,-1.1 -0.9,-2 -2,-2l-6,0c-1.1,0 -2,0.9 -2,2l0,2l-2,0c-1.1,0 -2,0.9 -2,2l0,10c0,1.1 0.9,2 2,2l6,0l0,-4l2,0l0,4l6,0c1.1,0 2,-0.9 2,-2l0,-6c0,-1.1 -0.9,-2 -2,-2l-2,0Zm-10,8l-2,0l0,-2l2,0l0,2Zm0,-4l-2,0l0,-2l2,0l0,2Zm0,-4l-2,0l0,-2l2,0l0,2Zm4,4l-2,0l0,-2l2,0l0,2Zm0,-4l-2,0l0,-2l2,0l0,2Zm0,-4l-2,0l0,-2l2,0l0,2Zm4,8l-2,0l0,-2l2,0l0,2Zm0,-4l-2,0l0,-2l2,0l0,2Zm0,-4l-2,0l0,-2l2,0l0,2Zm4,12l-2,0l0,-2l2,0l0,2Zm0,-4l-2,0l0,-2l2,0l0,2Z" style="fill-rule:nonzero;"/></g></svg>