<?xml version="1.0" encoding="UTF-8" standalone="no"?><!DOCTYPE svg PUBLIC "-//W3C//DTD SVG 1.1//EN" "http://www.w3.org/Graphics/SVG/1.1/DTD/svg11.dtd"><svg width="100%" height="100%" viewBox="0 0 25 24" version="1.1" xmlns="http://www.w3.org/2000/svg" xmlns:xlink="http://www.w3.org/1999/xlink" xml:space="preserve" xmlns:serif="http://www.serif.com/" style="fill-rule:evenodd;clip-rule:evenodd;stroke-linejoin:round;stroke-miterlimit:2;"><rect id="apps" x="0.554" y="0" width="24" height="24" style="fill:none;"/><g><path d="M6.554,8c1.1,0 2,-0.9 2,-2c-0,-1.1 -0.9,-2 -2,-2c-1.1,0 -2,0.9 -2,2c-0,1.1 0.9,2 2,2Zm6,12c1.1,0 2,-0.9 2,-2c-0,-1.1 -0.9,-2 -2,-2c-1.1,0 -2,0.9 -2,2c-0,1.1 0.9,2 2,2Zm-6,0c1.1,0 2,-0.9 2,-2c-0,-1.1 -0.9,-2 -2,-2c-1.1,0 -2,0.9 -2,2c-0,1.1 0.9,2 2,2Zm-0,-6c1.1,0 2,-0.9 2,-2c-0,-1.1 -0.9,-2 -2,-2c-1.1,0 -2,0.9 -2,2c-0,1.1 0.9,2 2,2Zm6,0c1.1,0 2,-0.9 2,-2c-0,-1.1 -0.9,-2 -2,-2c-1.1,0 -2,0.9 -2,2c-0,1.1 0.9,2 2,2Zm4,-8c-0,1.1 0.9,2 2,2c1.1,0 2,-0.9 2,-2c-0,-1.1 -0.9,-2 -2,-2c-1.1,0 -2,0.9 -2,2Zm-4,2c1.1,0 2,-0.9 2,-2c-0,-1.1 -0.9,-2 -2,-2c-1.1,0 -2,0.9 -2,2c-0,1.1 0.9,2 2,2Zm6,6c1.1,0 2,-0.9 2,-2c-0,-1.1 -0.9,-2 -2,-2c-1.1,0 -2,0.9 -2,2c-0,1.1 0.9,2 2,2Zm-0,6c1.1,0 2,-0.9 2,-2c-0,-1.1 -0.9,-2 -2,-2c-1.1,0 -2,0.9 -2,2c-0,1.1 0.9,2 2,2Z" style="fill-rule:nonzero;"/></g></svg>