<?xml version="1.0" encoding="UTF-8" standalone="no"?><!DOCTYPE svg PUBLIC "-//W3C//DTD SVG 1.1//EN" "http://www.w3.org/Graphics/SVG/1.1/DTD/svg11.dtd"><svg width="100%" height="100%" viewBox="0 0 24 24" version="1.1" xmlns="http://www.w3.org/2000/svg" xmlns:xlink="http://www.w3.org/1999/xlink" xml:space="preserve" xmlns:serif="http://www.serif.com/" style="fill-rule:evenodd;clip-rule:evenodd;stroke-linejoin:round;stroke-miterlimit:2;"><rect id="appt_requested_circle" x="0" y="0" width="24" height="24" style="fill:none;"/><path d="M12,2c-5.52,0 -10,4.48 -10,10c0,5.52 4.48,10 10,10c5.52,0 10,-4.48 10,-10c0,-5.52 -4.48,-10 -10,-10Zm1.707,14.613l3.494,-6.058c0.172,-0.299 0.263,-0.639 0.263,-0.985c0,-1.081 -0.889,-1.97 -1.97,-1.97l-6.988,-0c-1.081,-0 -1.97,0.889 -1.97,1.97c-0,0.346 0.091,0.686 0.264,0.986c-0.001,-0.001 3.493,6.057 3.493,6.057c0.351,0.61 1.003,0.987 1.707,0.987c0.704,-0 1.356,-0.377 1.708,-0.987l-0.001,0Zm-4.848,-7.013c-0.062,0 -0.12,0.033 -0.151,0.087c-0.031,0.054 -0.031,0.12 0,0.174c0.549,0.952 2.444,4.239 3.081,5.344c0.044,0.075 0.124,0.122 0.211,0.122c0.087,-0 0.167,-0.047 0.211,-0.122c0.616,-1.069 2.41,-4.18 3.023,-5.244c0.043,-0.074 0.043,-0.166 0,-0.241c-0.043,-0.074 -0.122,-0.12 -0.208,-0.12c-1.27,-0 -5.067,-0 -6.167,-0Z"/></svg>