<?xml version="1.0" encoding="UTF-8" standalone="no"?><!DOCTYPE svg PUBLIC "-//W3C//DTD SVG 1.1//EN" "http://www.w3.org/Graphics/SVG/1.1/DTD/svg11.dtd"><svg width="100%" height="100%" viewBox="0 0 24 24" version="1.1" xmlns="http://www.w3.org/2000/svg" xmlns:xlink="http://www.w3.org/1999/xlink" xml:space="preserve" xmlns:serif="http://www.serif.com/" style="fill-rule:evenodd;clip-rule:evenodd;stroke-linejoin:round;stroke-miterlimit:2;"><rect id="appt_cancelled_alt" x="0" y="0" width="24" height="24" style="fill:none;"/><path d="M14.9,3l-5.8,0c-0.53,0 -1.04,0.21 -1.42,0.59l-4.1,4.1c-0.37,0.37 -0.58,0.88 -0.58,1.41l-0,5.8c-0,0.53 0.21,1.04 0.59,1.41l4.1,4.1c0.37,0.38 0.88,0.59 1.41,0.59l5.8,0c0.53,0 1.04,-0.21 1.41,-0.59l4.1,-4.1c0.38,-0.37 0.59,-0.88 0.59,-1.41l-0,-5.8c-0,-0.53 -0.21,-1.04 -0.59,-1.41l-4.1,-4.1c-0.37,-0.38 -0.88,-0.59 -1.41,-0.59Zm2.105,9.002c0,0.552 -0.445,0.998 -0.997,0.998l-8.011,0.007c-0.552,-0 -0.997,-0.446 -0.997,-0.997c-0,-0.552 0.445,-0.997 0.997,-0.997l7.997,-0.008c0.559,-0.007 1.011,0.446 1.011,0.997Z" style="fill-rule:nonzero;"/></svg>