<?xml version="1.0" encoding="UTF-8" standalone="no"?><!DOCTYPE svg PUBLIC "-//W3C//DTD SVG 1.1//EN" "http://www.w3.org/Graphics/SVG/1.1/DTD/svg11.dtd"><svg width="100%" height="100%" viewBox="0 0 24 24" version="1.1" xmlns="http://www.w3.org/2000/svg" xmlns:xlink="http://www.w3.org/1999/xlink" xml:space="preserve" xmlns:serif="http://www.serif.com/" style="fill-rule:evenodd;clip-rule:evenodd;stroke-linejoin:round;stroke-miterlimit:2;"><rect id="appt_confirmed_circle" x="0" y="0" width="24" height="24" style="fill:none;"/><path d="M12,2c-5.52,0 -10,4.48 -10,10c0,5.52 4.48,10 10,10c5.52,0 10,-4.48 10,-10c0,-5.52 -4.48,-10 -10,-10Zm4.95,8.23l-5.66,5.66c-0.39,0.39 -1.02,0.39 -1.41,0l-2.83,-2.83c-0.39,-0.39 -0.39,-1.02 0,-1.41c0.39,-0.39 1.02,-0.39 1.41,0l2.12,2.12l4.95,-4.95c0.39,-0.39 1.02,-0.39 1.41,0c0.4,0.39 0.4,1.02 0.01,1.41Z" style="fill-rule:nonzero;"/></svg>