<?xml version="1.0" encoding="UTF-8" standalone="no"?><!DOCTYPE svg PUBLIC "-//W3C//DTD SVG 1.1//EN" "http://www.w3.org/Graphics/SVG/1.1/DTD/svg11.dtd"><svg width="100%" height="100%" viewBox="0 0 24 24" version="1.1" xmlns="http://www.w3.org/2000/svg" xmlns:xlink="http://www.w3.org/1999/xlink" xml:space="preserve" xmlns:serif="http://www.serif.com/" style="fill-rule:evenodd;clip-rule:evenodd;stroke-linejoin:round;stroke-miterlimit:2;"><rect id="arrow_exchange" x="0" y="0" width="24" height="24" style="fill:none;"/><g><path d="M21.65,7.65l-2.79,-2.79c-0.32,-0.32 -0.86,-0.1 -0.86,0.35l-0,1.79l-14,0c-0.55,0 -1,0.45 -1,1c-0,0.55 0.45,1 1,1l14,0l-0,1.79c-0,0.45 0.54,0.67 0.85,0.35l2.79,-2.79c0.2,-0.19 0.2,-0.51 0.01,-0.7Z" style="fill-rule:nonzero;"/><path d="M20,15l-14,0l0,-1.79c0,-0.45 -0.54,-0.67 -0.85,-0.35l-2.79,2.79c-0.2,0.19 -0.2,0.51 -0.01,0.7l2.79,2.79c0.32,0.32 0.86,0.1 0.86,-0.35l-0,-1.79l14,0c0.55,0 1,-0.45 1,-1c0,-0.55 -0.45,-1 -1,-1Z" style="fill-rule:nonzero;"/></g></svg>