<?xml version="1.0" encoding="UTF-8" standalone="no"?><!DOCTYPE svg PUBLIC "-//W3C//DTD SVG 1.1//EN" "http://www.w3.org/Graphics/SVG/1.1/DTD/svg11.dtd"><svg width="100%" height="100%" viewBox="0 0 24 24" version="1.1" xmlns="http://www.w3.org/2000/svg" xmlns:xlink="http://www.w3.org/1999/xlink" xml:space="preserve" xmlns:serif="http://www.serif.com/" style="fill-rule:evenodd;clip-rule:evenodd;stroke-linejoin:round;stroke-miterlimit:2;"><rect id="arrow_backward" x="0" y="0" width="24" height="24" style="fill:none;"/><g><path d="M19,11l-11.17,0l4.88,-4.88c0.39,-0.39 0.39,-1.03 0,-1.42c-0.39,-0.39 -1.02,-0.39 -1.41,0l-6.59,6.59c-0.39,0.39 -0.39,1.02 0,1.41l6.59,6.59c0.39,0.39 1.02,0.39 1.41,0c0.39,-0.39 0.39,-1.02 0,-1.41l-4.88,-4.88l11.17,0c0.55,0 1,-0.45 1,-1c0,-0.55 -0.45,-1 -1,-1Z" style="fill-rule:nonzero;"/></g></svg>