<?xml version="1.0" encoding="UTF-8" standalone="no"?><!DOCTYPE svg PUBLIC "-//W3C//DTD SVG 1.1//EN" "http://www.w3.org/Graphics/SVG/1.1/DTD/svg11.dtd"><svg width="100%" height="100%" viewBox="0 0 24 25" version="1.1" xmlns="http://www.w3.org/2000/svg" xmlns:xlink="http://www.w3.org/1999/xlink" xml:space="preserve" xmlns:serif="http://www.serif.com/" style="fill-rule:evenodd;clip-rule:evenodd;stroke-linejoin:round;stroke-miterlimit:2;"><rect id="assignment_late" x="0" y="0.398" width="24" height="24" style="fill:none;"/><g><path d="M18.3,5.198l-3.762,0c-0.378,-1.044 -1.368,-1.8 -2.538,-1.8c-1.17,0 -2.16,0.756 -2.538,1.8l-3.762,0c-0.99,0 -1.8,0.81 -1.8,1.8l-0,12.6c-0,0.99 0.81,1.8 1.8,1.8l12.6,0c0.99,0 1.8,-0.81 1.8,-1.8l-0,-12.6c-0,-0.99 -0.81,-1.8 -1.8,-1.8Zm-6.3,-0.225c0.369,0 0.675,0.306 0.675,0.675c-0,0.369 -0.306,0.675 -0.675,0.675c-0.369,0 -0.675,-0.306 -0.675,-0.675c-0,-0.369 0.306,-0.675 0.675,-0.675Zm-0,9.225c-0.495,0 -0.9,-0.405 -0.9,-0.9l-0,-3.6c-0,-0.495 0.405,-0.9 0.9,-0.9c0.495,0 0.9,0.405 0.9,0.9l-0,3.6c-0,0.495 -0.405,0.9 -0.9,0.9Zm0.9,2.7c-0,0.495 -0.405,0.9 -0.9,0.9c-0.495,0 -0.9,-0.405 -0.9,-0.9c-0,-0.495 0.405,-0.9 0.9,-0.9c0.495,0 0.9,0.405 0.9,0.9Z" style="fill-rule:nonzero;"/></g></svg>