<?xml version="1.0" encoding="UTF-8" standalone="no"?><!DOCTYPE svg PUBLIC "-//W3C//DTD SVG 1.1//EN" "http://www.w3.org/Graphics/SVG/1.1/DTD/svg11.dtd"><svg width="100%" height="100%" viewBox="0 0 24 24" version="1.1" xmlns="http://www.w3.org/2000/svg" xmlns:xlink="http://www.w3.org/1999/xlink" xml:space="preserve" xmlns:serif="http://www.serif.com/" style="fill-rule:evenodd;clip-rule:evenodd;stroke-linejoin:round;stroke-miterlimit:2;"><rect id="attachment_alt" x="0" y="0" width="24" height="24" style="fill:none;"/><g><path d="M18.951,11.117l-6.774,6.774c-1.478,1.478 -3.875,1.711 -5.487,0.382c-1.846,-1.521 -1.945,-4.264 -0.29,-5.919l7.325,-7.325c0.927,-0.927 2.433,-1.103 3.444,-0.276c1.167,0.954 1.23,2.673 0.191,3.712l-6.717,6.718c-0.389,0.389 -1.026,0.389 -1.415,-0c-0.389,-0.389 -0.389,-1.026 0,-1.415l6.187,-6.187c0.29,-0.29 0.29,-0.77 0,-1.06c-0.289,-0.29 -0.77,-0.29 -1.06,-0l-6.088,6.088c-0.927,0.926 -1.103,2.432 -0.276,3.443c0.954,1.167 2.673,1.231 3.712,0.191l6.597,-6.597c1.478,-1.478 1.712,-3.875 0.382,-5.487c-1.52,-1.846 -4.264,-1.945 -5.918,-0.29l-7.262,7.262c-2.03,2.029 -2.362,5.332 -0.53,7.545c2.114,2.538 5.869,2.673 8.145,0.396l6.895,-6.895c0.29,-0.289 0.29,-0.77 -0,-1.06c-0.29,-0.29 -0.771,-0.29 -1.061,-0Z" style="fill-rule:nonzero;"/></g></svg>