<?xml version="1.0" encoding="UTF-8" standalone="no"?><!DOCTYPE svg PUBLIC "-//W3C//DTD SVG 1.1//EN" "http://www.w3.org/Graphics/SVG/1.1/DTD/svg11.dtd"><svg width="100%" height="100%" viewBox="0 0 24 24" version="1.1" xmlns="http://www.w3.org/2000/svg" xmlns:xlink="http://www.w3.org/1999/xlink" xml:space="preserve" xmlns:serif="http://www.serif.com/" style="fill-rule:evenodd;clip-rule:evenodd;stroke-linejoin:round;stroke-miterlimit:2;"><rect id="attachment" x="0" y="0" width="24" height="24" style="fill:none;"/><g><path d="M15.5,6.75l0,9.58c0,2.09 -1.53,3.95 -3.61,4.15c-2.38,0.23 -4.39,-1.64 -4.39,-3.98l-0,-10.36c-0,-1.31 0.94,-2.5 2.24,-2.63c1.5,-0.15 2.76,1.02 2.76,2.49l-0,9.5c-0,0.55 -0.45,1 -1,1c-0.55,0 -1,-0.45 -1,-1l-0,-8.75c-0,-0.41 -0.34,-0.75 -0.75,-0.75c-0.41,0 -0.75,0.34 -0.75,0.75l-0,8.61c-0,1.31 0.94,2.5 2.24,2.63c1.5,0.15 2.76,-1.02 2.76,-2.49l-0,-9.33c-0,-2.09 -1.53,-3.95 -3.61,-4.15c-2.38,-0.23 -4.39,1.64 -4.39,3.98l-0,10.27c-0,2.87 2.1,5.44 4.96,5.71c3.29,0.3 6.04,-2.26 6.04,-5.48l-0,-9.75c-0,-0.41 -0.34,-0.75 -0.75,-0.75c-0.41,0 -0.75,0.34 -0.75,0.75Z" style="fill-rule:nonzero;"/></g></svg>