<?xml version="1.0" encoding="UTF-8" standalone="no"?><!DOCTYPE svg PUBLIC "-//W3C//DTD SVG 1.1//EN" "http://www.w3.org/Graphics/SVG/1.1/DTD/svg11.dtd"><svg width="100%" height="100%" viewBox="0 0 24 24" version="1.1" xmlns="http://www.w3.org/2000/svg" xmlns:xlink="http://www.w3.org/1999/xlink" xml:space="preserve" xmlns:serif="http://www.serif.com/" style="fill-rule:evenodd;clip-rule:evenodd;stroke-linejoin:round;stroke-miterlimit:2;"><rect id="bathtub" x="0" y="0" width="24" height="24" style="fill:none;"/><g><circle cx="7" cy="7" r="2"/><path d="M21,13l-1,0l0,-8.17c0,-1.56 -1.27,-2.83 -2.83,-2.83c-0.75,0 -1.47,0.3 -2,0.83l-1.25,1.25c-0.16,-0.05 -0.33,-0.08 -0.51,-0.08c-0.4,0 -0.77,0.12 -1.08,0.32l2.76,2.76c0.2,-0.31 0.32,-0.68 0.32,-1.08c-0,-0.18 -0.03,-0.34 -0.07,-0.51l1.25,-1.25c0.15,-0.15 0.36,-0.24 0.58,-0.24c0.46,0 0.83,0.37 0.83,0.83l0,8.17l-6.85,0c-0.3,-0.21 -0.57,-0.45 -0.82,-0.72l-1.4,-1.55c-0.19,-0.21 -0.43,-0.38 -0.69,-0.5c-0.31,-0.15 -0.65,-0.23 -1,-0.23c-1.24,0.01 -2.24,1.01 -2.24,2.25l0,0.75l-2,0c-0.55,0 -1,0.45 -1,1l0,5c0,1.1 0.9,2 2,2c0,0.55 0.45,1 1,1l14,0c0.55,0 1,-0.45 1,-1c1.1,0 2,-0.9 2,-2l0,-5c0,-0.55 -0.45,-1 -1,-1Z" style="fill-rule:nonzero;"/></g></svg>