<?xml version="1.0" encoding="UTF-8" standalone="no"?><!DOCTYPE svg PUBLIC "-//W3C//DTD SVG 1.1//EN" "http://www.w3.org/Graphics/SVG/1.1/DTD/svg11.dtd"><svg width="100%" height="100%" viewBox="0 0 24 24" version="1.1" xmlns="http://www.w3.org/2000/svg" xmlns:xlink="http://www.w3.org/1999/xlink" xml:space="preserve" xmlns:serif="http://www.serif.com/" style="fill-rule:evenodd;clip-rule:evenodd;stroke-linejoin:round;stroke-miterlimit:2;"><rect id="bed" x="0" y="0" width="24" height="24" style="fill:none;"/><g><path d="M7,13.5c1.66,0 3,-1.34 3,-3c0,-1.66 -1.34,-3 -3,-3c-1.66,0 -3,1.34 -3,3c0,1.66 1.34,3 3,3Zm12,-7l-6,0c-1.1,0 -2,0.9 -2,2l0,6l-8,0l0,-9c0,-0.55 -0.45,-1 -1,-1c-0.55,0 -1,0.45 -1,1l0,13c0,0.55 0.45,1 1,1c0.55,0 1,-0.45 1,-1l0,-2l18,0l0,2c0,0.55 0.45,1 1,1c0.55,0 1,-0.45 1,-1l0,-8c0,-2.21 -1.79,-4 -4,-4Z" style="fill-rule:nonzero;"/></g></svg>