<?xml version="1.0" encoding="UTF-8" standalone="no"?><!DOCTYPE svg PUBLIC "-//W3C//DTD SVG 1.1//EN" "http://www.w3.org/Graphics/SVG/1.1/DTD/svg11.dtd"><svg width="100%" height="100%" viewBox="0 0 24 25" version="1.1" xmlns="http://www.w3.org/2000/svg" xmlns:xlink="http://www.w3.org/1999/xlink" xml:space="preserve" xmlns:serif="http://www.serif.com/" style="fill-rule:evenodd;clip-rule:evenodd;stroke-linejoin:round;stroke-miterlimit:2;"><rect id="build_tool" x="0" y="0.398" width="24" height="24" style="fill:none;"/><g><path d="M19.65,16.508l-5.03,-5.03c0.42,-1.14 0.53,-2.43 0.13,-3.78c-0.61,-2.08 -2.34,-3.72 -4.45,-4.17c-1.69,-0.35 -3.29,0.01 -4.56,0.84l3.64,3.64l-1.77,1.77l-3.64,-3.64c-0.83,1.27 -1.19,2.87 -0.83,4.56c0.45,2.12 2.09,3.85 4.16,4.45c1.36,0.4 2.65,0.29 3.78,-0.13l5.03,5.03c0.98,0.98 2.56,0.98 3.54,0c0.97,-0.98 0.97,-2.56 -0,-3.54Z" style="fill-rule:nonzero;"/></g></svg>