<?xml version="1.0" encoding="UTF-8" standalone="no"?><!DOCTYPE svg PUBLIC "-//W3C//DTD SVG 1.1//EN" "http://www.w3.org/Graphics/SVG/1.1/DTD/svg11.dtd"><svg width="100%" height="100%" viewBox="0 0 24 24" version="1.1" xmlns="http://www.w3.org/2000/svg" xmlns:xlink="http://www.w3.org/1999/xlink" xml:space="preserve" xmlns:serif="http://www.serif.com/" style="fill-rule:evenodd;clip-rule:evenodd;stroke-linejoin:round;stroke-miterlimit:2;"><rect id="bus" x="0" y="0" width="24" height="24" style="fill:none;"/><g><path d="M12,2c-4,0 -8,0.5 -8,4l0,9.5c0,0.95 0.38,1.81 1,2.44l0,1.56c0,0.83 0.67,1.5 1.5,1.5c0.83,0 1.5,-0.67 1.5,-1.5l0,-0.5l8,0l0,0.5c0,0.82 0.67,1.5 1.5,1.5c0.82,0 1.5,-0.67 1.5,-1.5l0,-1.56c0.62,-0.63 1,-1.49 1,-2.44l0,-9.5c0,-3.5 -3.58,-4 -8,-4Zm-3.5,14c-0.83,0 -1.5,-0.67 -1.5,-1.5c0,-0.83 0.67,-1.5 1.5,-1.5c0.83,0 1.5,0.67 1.5,1.5c0,0.83 -0.67,1.5 -1.5,1.5Zm7,0c-0.83,0 -1.5,-0.67 -1.5,-1.5c0,-0.83 0.67,-1.5 1.5,-1.5c0.83,0 1.5,0.67 1.5,1.5c0,0.83 -0.67,1.5 -1.5,1.5Zm2.5,-6l-12,0l0,-3l12,0l0,3Z" style="fill-rule:nonzero;"/></g></svg>