<?xml version="1.0" encoding="UTF-8" standalone="no"?><!DOCTYPE svg PUBLIC "-//W3C//DTD SVG 1.1//EN" "http://www.w3.org/Graphics/SVG/1.1/DTD/svg11.dtd"><svg width="100%" height="100%" viewBox="0 0 24 24" version="1.1" xmlns="http://www.w3.org/2000/svg" xmlns:xlink="http://www.w3.org/1999/xlink" xml:space="preserve" xmlns:serif="http://www.serif.com/" style="fill-rule:evenodd;clip-rule:evenodd;stroke-linejoin:round;stroke-miterlimit:2;"><rect id="calendar_alt" x="0" y="0" width="24" height="24" style="fill:none;"/><g><path id="Path_670" d="M19.55,3.959l-1.6,0l0,1.527c-0.007,0.787 -0.655,1.429 -1.441,1.429c-0.006,0 -0.012,0 -0.018,0l-1.4,0c-0.005,0 -0.01,0 -0.016,0c-0.786,0 -1.434,-0.643 -1.442,-1.429l0,-1.525l-3.265,0l0,1.525c-0.007,0.787 -0.655,1.429 -1.441,1.429c-0.006,0 -0.012,0 -0.018,0l-1.4,0c-0.006,0 -0.012,0 -0.018,0c-0.786,0 -1.434,-0.642 -1.442,-1.429l0,-1.525l-1.6,0c-0.005,0 -0.011,0 -0.017,0c-0.902,0 -1.646,0.737 -1.656,1.639l0,3.24c0.002,0.199 0.166,0.362 0.365,0.362c0.002,0 0.003,0 0.004,0l17.7,0c0.002,0 0.003,0 0.005,0c0.199,0 0.363,-0.163 0.364,-0.362l0,-3.24c-0.002,-0.9 -0.743,-1.639 -1.643,-1.639c-0.01,0 -0.02,0 -0.03,0l0.009,-0.002Z"/><path id="Path_671" d="M19.628,18.878c-0.005,0.434 -0.366,0.786 -0.8,0.782l-13.635,0c-0.433,0.004 -0.794,-0.348 -0.8,-0.782l0,-7.432c-0.001,-0.199 -0.165,-0.362 -0.364,-0.362c-0.002,0 -0.003,0 -0.005,0l-0.875,0c-0.001,0 -0.002,0 -0.004,0c-0.199,0 -0.363,0.163 -0.365,0.362l0,7.432c0.007,1.298 1.077,2.363 2.375,2.363c0.013,-0 0.026,-0 0.038,-0.001l13.618,0c0.009,0 0.017,0 0.026,0c1.3,0 2.373,-1.062 2.386,-2.363l0,-7.432c-0.001,-0.199 -0.165,-0.362 -0.364,-0.362c-0.002,0 -0.003,0 -0.005,0l-0.856,0c-0.001,0 -0.002,0 -0.004,0c-0.199,0 -0.363,0.163 -0.365,0.362l-0.001,7.433Z"/><path id="Path_672" d="M6.716,13.919l2.154,0c0.249,-0.003 0.453,-0.207 0.456,-0.457l0,-1.791c-0.003,-0.249 -0.207,-0.453 -0.456,-0.457l-2.154,0c-0.25,0.004 -0.454,0.208 -0.457,0.457l-0,1.791c0.009,0.247 0.209,0.448 0.457,0.458l-0,-0.001Z"/><path id="Path_673" d="M15.134,13.919l2.154,0c0.25,-0.003 0.454,-0.207 0.457,-0.457l0,-1.791c-0.003,-0.249 -0.207,-0.453 -0.457,-0.457l-2.154,0c-0.249,0.004 -0.453,0.208 -0.457,0.457l0,1.791c0,0.002 0,0.004 0,0.006c0,0.248 0.204,0.452 0.452,0.452c0.002,0 0.004,0 0.005,0l0,-0.001Z"/><path id="Path_674" d="M14.677,17.307c0.004,0.25 0.208,0.454 0.457,0.457l2.154,0c0.25,-0.003 0.454,-0.207 0.457,-0.457l0,-1.791c-0.003,-0.249 -0.207,-0.453 -0.457,-0.457l-2.154,0c-0.249,0.004 -0.453,0.208 -0.457,0.457l0,1.791Z"/><path id="Path_675" d="M10.917,13.919l2.154,0c0.249,-0.003 0.453,-0.207 0.457,-0.457l-0,-1.791c-0.004,-0.249 -0.208,-0.453 -0.457,-0.457l-2.154,0c-0.25,0.004 -0.454,0.208 -0.457,0.457l-0,1.791c0.009,0.247 0.209,0.448 0.457,0.458l-0,-0.001Z"/><path id="Path_676" d="M6.277,17.307c0.004,0.25 0.208,0.454 0.457,0.457l2.154,0c0.25,-0.003 0.454,-0.207 0.457,-0.457l0,-1.791c-0.003,-0.249 -0.207,-0.453 -0.457,-0.457l-2.172,0c-0.249,0.004 -0.453,0.208 -0.457,0.457l0,1.792l0.018,-0.001Z"/><path id="Path_677" d="M10.478,17.307c0.003,0.25 0.207,0.454 0.457,0.457l2.153,0c0.25,-0.003 0.454,-0.207 0.457,-0.457l0,-1.791c-0.003,-0.249 -0.207,-0.453 -0.457,-0.457l-2.172,0c-0.25,0.004 -0.454,0.208 -0.457,0.457l-0,1.792l0.019,-0.001Z"/><path id="Path_678" d="M7.511,5.961l1.372,0c0.001,0 0.002,0 0.004,0c0.258,0 0.472,-0.213 0.472,-0.472c-0,-0.001 -0,-0.002 -0,-0.004l-0,-2.154c-0.001,-0.313 -0.259,-0.571 -0.572,-0.572l-1.2,0c-0.314,0.001 -0.572,0.259 -0.573,0.572l0,2.134c0,0.275 0.226,0.5 0.5,0.5l-0.003,-0.004Z"/><path id="Path_679" d="M15.12,5.961l1.372,0c0.002,0 0.003,0 0.005,0c0.258,0 0.472,-0.213 0.472,-0.472c-0,-0.001 -0,-0.002 -0.001,-0.004l0,-2.154c-0,-0.313 -0.258,-0.571 -0.572,-0.572l-1.2,0c-0.313,0.001 -0.571,0.259 -0.572,0.572l0,2.134c0.009,0.271 0.23,0.492 0.5,0.5l-0.004,-0.004Z"/></g></svg>