<?xml version="1.0" encoding="UTF-8" standalone="no"?><!DOCTYPE svg PUBLIC "-//W3C//DTD SVG 1.1//EN" "http://www.w3.org/Graphics/SVG/1.1/DTD/svg11.dtd"><svg width="100%" height="100%" viewBox="0 0 24 24" version="1.1" xmlns="http://www.w3.org/2000/svg" xmlns:xlink="http://www.w3.org/1999/xlink" xml:space="preserve" xmlns:serif="http://www.serif.com/" style="fill-rule:evenodd;clip-rule:evenodd;stroke-linejoin:round;stroke-miterlimit:2;"><rect id="calendar" x="0" y="0" width="24" height="24" style="fill:none;"/><g><g><path d="M19,4l-1,0l0,-1c0,-0.55 -0.45,-1 -1,-1c-0.55,0 -1,0.45 -1,1l0,1l-8,0l0,-1c0,-0.55 -0.45,-1 -1,-1c-0.55,0 -1,0.45 -1,1l0,1l-1,0c-1.11,0 -1.99,0.9 -1.99,2l-0.01,14c0,1.1 0.89,2 2,2l14,0c1.1,0 2,-0.9 2,-2l0,-14c0,-1.1 -0.9,-2 -2,-2Zm0,16l-14,0l0,-10l14,0l0,10Z" style="fill-rule:nonzero;"/></g><g><path id="Path_672" d="M6.714,14.414l2.154,-0c0.249,-0.004 0.453,-0.208 0.457,-0.457l-0.001,-1.791c-0.003,-0.249 -0.207,-0.453 -0.456,-0.457l-2.154,-0c-0.25,0.004 -0.454,0.208 -0.457,0.457l-0,1.791c0.009,0.247 0.209,0.448 0.457,0.458l-0,-0.001Z"/><path id="Path_673" d="M15.132,14.414l2.154,-0c0.25,-0.004 0.454,-0.208 0.457,-0.457l0,-1.791c-0.003,-0.249 -0.207,-0.453 -0.457,-0.457l-2.154,-0c-0.249,0.004 -0.453,0.208 -0.457,0.457l0,1.791c0,0.002 0,0.004 0,0.006c0,0.248 0.204,0.452 0.452,0.452c0.002,-0 0.004,-0 0.005,-0l0,-0.001Z"/><path id="Path_674" d="M14.676,17.802c0.003,0.249 0.207,0.453 0.456,0.457l2.154,-0c0.25,-0.004 0.454,-0.208 0.457,-0.457l0,-1.791c-0.003,-0.249 -0.207,-0.453 -0.457,-0.457l-2.154,-0c-0.249,0.004 -0.453,0.208 -0.457,0.457l0,1.791Z"/><path id="Path_675" d="M10.915,14.414l2.153,-0c0.25,-0.004 0.454,-0.208 0.457,-0.457l0,-1.791c-0.003,-0.249 -0.207,-0.453 -0.457,-0.457l-2.153,-0c-0.25,0.004 -0.454,0.208 -0.457,0.457l-0,1.791c0.009,0.247 0.209,0.448 0.457,0.458l-0,-0.001Z"/><path id="Path_676" d="M6.276,17.802c0.003,0.249 0.207,0.453 0.457,0.457l2.153,-0c0.25,-0.004 0.454,-0.208 0.457,-0.457l0,-1.791c-0.003,-0.249 -0.207,-0.453 -0.457,-0.457l-2.171,-0c-0.25,0.004 -0.454,0.208 -0.457,0.457l-0,1.792l0.018,-0.001Z"/><path id="Path_677" d="M10.475,17.802c0.004,0.249 0.208,0.453 0.457,0.457l2.154,-0c0.25,-0.004 0.454,-0.208 0.457,-0.457l0,-1.791c-0.003,-0.249 -0.207,-0.453 -0.457,-0.457l-2.173,-0c-0.249,0.004 -0.453,0.208 -0.456,0.457l-0,1.792l0.018,-0.001Z"/></g></g></svg>