<?xml version="1.0" encoding="UTF-8" standalone="no"?><!DOCTYPE svg PUBLIC "-//W3C//DTD SVG 1.1//EN" "http://www.w3.org/Graphics/SVG/1.1/DTD/svg11.dtd"><svg width="100%" height="100%" viewBox="0 0 24 24" version="1.1" xmlns="http://www.w3.org/2000/svg" xmlns:xlink="http://www.w3.org/1999/xlink" xml:space="preserve" xmlns:serif="http://www.serif.com/" style="fill-rule:evenodd;clip-rule:evenodd;stroke-linejoin:round;stroke-miterlimit:2;"><rect id="calendar_today" x="0" y="0" width="24" height="24" style="fill:none;"/><g><path d="M19,4l-1,0l0,-1c0,-0.55 -0.45,-1 -1,-1c-0.55,0 -1,0.45 -1,1l0,1l-8,0l0,-1c0,-0.55 -0.45,-1 -1,-1c-0.55,0 -1,0.45 -1,1l0,1l-1,0c-1.11,0 -1.99,0.9 -1.99,2l-0.01,14c0,1.1 0.89,2 2,2l14,0c1.1,0 2,-0.9 2,-2l0,-14c0,-1.1 -0.9,-2 -2,-2Zm0,16l-14,0l0,-10l14,0l0,10Zm-11,-8l3,0c0.55,0 1,0.45 1,1l0,3c0,0.55 -0.45,1 -1,1l-3,0c-0.55,0 -1,-0.45 -1,-1l0,-3c0,-0.55 0.45,-1 1,-1Z" style="fill-rule:nonzero;"/></g></svg>