<?xml version="1.0" encoding="UTF-8" standalone="no"?><!DOCTYPE svg PUBLIC "-//W3C//DTD SVG 1.1//EN" "http://www.w3.org/Graphics/SVG/1.1/DTD/svg11.dtd"><svg width="100%" height="100%" viewBox="0 0 24 24" version="1.1" xmlns="http://www.w3.org/2000/svg" xmlns:xlink="http://www.w3.org/1999/xlink" xml:space="preserve" xmlns:serif="http://www.serif.com/" style="fill-rule:evenodd;clip-rule:evenodd;stroke-linejoin:round;stroke-miterlimit:2;"><rect id="car" x="0" y="0" width="24" height="24" style="fill:none;"/><g><path d="M18.92,5.01c-0.2,-0.59 -0.76,-1.01 -1.42,-1.01l-11,0c-0.66,0 -1.21,0.42 -1.42,1.01l-2.08,5.99l0,7.5c0,0.83 0.67,1.5 1.5,1.5c0.83,0 1.5,-0.67 1.5,-1.5l0,-0.5l12,0l0,0.5c0,0.82 0.67,1.5 1.5,1.5c0.82,0 1.5,-0.67 1.5,-1.5l0,-7.5l-2.08,-5.99Zm-11.42,9.99c-0.83,0 -1.5,-0.67 -1.5,-1.5c-0,-0.83 0.67,-1.5 1.5,-1.5c0.83,0 1.5,0.67 1.5,1.5c-0,0.83 -0.67,1.5 -1.5,1.5Zm9,0c-0.83,0 -1.5,-0.67 -1.5,-1.5c0,-0.83 0.67,-1.5 1.5,-1.5c0.83,0 1.5,0.67 1.5,1.5c0,0.83 -0.67,1.5 -1.5,1.5Zm-10.69,-6l1.04,-3l10.29,0l1.04,3l-12.37,0Z" style="fill-rule:nonzero;"/></g></svg>