<?xml version="1.0" encoding="UTF-8" standalone="no"?><!DOCTYPE svg PUBLIC "-//W3C//DTD SVG 1.1//EN" "http://www.w3.org/Graphics/SVG/1.1/DTD/svg11.dtd"><svg width="100%" height="100%" viewBox="0 0 25 24" version="1.1" xmlns="http://www.w3.org/2000/svg" xmlns:xlink="http://www.w3.org/1999/xlink" xml:space="preserve" xmlns:serif="http://www.serif.com/" style="fill-rule:evenodd;clip-rule:evenodd;stroke-linejoin:round;stroke-miterlimit:2;"><rect id="chart_line" x="0.134" y="0" width="24" height="24" style="fill:none;"/><path id="Path_10260" d="M22.234,8.348c-0.001,-0.488 -0.204,-0.955 -0.559,-1.289c-0.335,-0.356 -0.803,-0.559 -1.291,-0.559c-0.489,0.001 -0.955,0.203 -1.289,0.559c-0.356,0.334 -0.559,0.801 -0.559,1.289c0.003,0.161 0.032,0.321 0.086,0.473l-3.266,3.223c-0.155,-0.036 -0.314,-0.051 -0.472,-0.044c-0.159,-0.007 -0.318,0.007 -0.473,0.043l-2.32,-2.32c0.036,-0.155 0.05,-0.314 0.043,-0.473c-0.001,-0.488 -0.204,-0.955 -0.559,-1.289c-0.334,-0.357 -0.801,-0.56 -1.289,-0.561c-0.483,-0.002 -0.945,0.201 -1.268,0.559c-0.345,0.34 -0.539,0.805 -0.537,1.289c-0.008,0.159 0.007,0.318 0.043,0.473l-4.167,4.17c-0.155,-0.036 -0.315,-0.05 -0.473,-0.043c-0.485,-0.001 -0.949,0.192 -1.289,0.537c-0.359,0.323 -0.563,0.784 -0.561,1.267c0,0.488 0.203,0.955 0.559,1.289c0.334,0.356 0.802,0.559 1.291,0.559c0.488,-0.001 0.954,-0.203 1.289,-0.559c0.356,-0.334 0.559,-0.801 0.561,-1.289c-0.004,-0.161 -0.033,-0.321 -0.086,-0.473l4.166,-4.167c0.152,0.054 0.311,0.083 0.473,0.086c0.161,-0.003 0.321,-0.032 0.473,-0.086l2.363,2.363c-0.054,0.152 -0.083,0.312 -0.086,0.473c-0.003,0.483 0.201,0.944 0.559,1.268c0.34,0.345 0.804,0.538 1.289,0.537c0.484,0.001 0.948,-0.192 1.289,-0.537c0.358,-0.324 0.562,-0.785 0.56,-1.268c-0.004,-0.161 -0.033,-0.321 -0.086,-0.473l3.266,-3.266c0.14,0.035 0.285,0.049 0.43,0.043l0.043,-0c0.484,0.001 0.948,-0.192 1.289,-0.537c0.357,-0.324 0.56,-0.785 0.558,-1.267Z" style="fill-rule:nonzero;"/></svg>