<?xml version="1.0" encoding="UTF-8" standalone="no"?><!DOCTYPE svg PUBLIC "-//W3C//DTD SVG 1.1//EN" "http://www.w3.org/Graphics/SVG/1.1/DTD/svg11.dtd"><svg width="100%" height="100%" viewBox="0 0 25 24" version="1.1" xmlns="http://www.w3.org/2000/svg" xmlns:xlink="http://www.w3.org/1999/xlink" xml:space="preserve" xmlns:serif="http://www.serif.com/" style="fill-rule:evenodd;clip-rule:evenodd;stroke-linejoin:round;stroke-miterlimit:2;"><rect id="chart_bar" x="0.92" y="0" width="24" height="24" style="fill:none;"/><path id="Path_10258" d="M10.657,20.229c-0,0.204 0.081,0.401 0.226,0.545c0.144,0.145 0.34,0.226 0.545,0.226c0.818,-0 2.105,-0 2.939,-0c0.451,-0 0.816,-0.365 0.816,-0.815c-0,-2.998 -0,-13.389 -0,-16.376c-0,-0.214 -0.085,-0.42 -0.237,-0.572c-0.152,-0.152 -0.358,-0.237 -0.572,-0.237c-0.818,0 -2.074,-0 -2.896,-0c-0.454,-0 -0.821,0.368 -0.821,0.821c-0,3.018 -0,13.474 -0,16.408Zm-6.737,0.009c0,0.202 0.081,0.396 0.223,0.539c0.143,0.143 0.337,0.223 0.539,0.223c0.819,-0 2.116,-0 2.954,-0c0.448,-0 0.811,-0.363 0.811,-0.811c0,-1.711 0,-5.672 0,-7.38c0,-0.215 -0.085,-0.421 -0.237,-0.572c-0.151,-0.152 -0.357,-0.237 -0.571,-0.237c-0.815,-0 -2.067,-0 -2.889,-0c-0.22,0 -0.431,0.087 -0.587,0.243c-0.155,0.155 -0.243,0.366 -0.243,0.586c0,1.737 0,5.733 0,7.409Zm14.303,-11.606c-0.22,-0 -0.431,0.087 -0.587,0.243c-0.155,0.155 -0.243,0.366 -0.243,0.586c0,2.263 0,8.523 0,10.744c0,0.211 0.084,0.413 0.233,0.562c0.149,0.149 0.351,0.233 0.562,0.233c0.827,-0 2.114,-0 2.939,-0c0.438,-0 0.792,-0.355 0.792,-0.792c0,-2.215 0,-8.462 0,-10.735c0,-0.465 -0.376,-0.841 -0.84,-0.841c-0.816,-0 -2.045,-0 -2.856,-0Z" style="fill-rule:nonzero;"/></svg>