<?xml version="1.0" encoding="UTF-8" standalone="no"?><!DOCTYPE svg PUBLIC "-//W3C//DTD SVG 1.1//EN" "http://www.w3.org/Graphics/SVG/1.1/DTD/svg11.dtd"><svg width="100%" height="100%" viewBox="0 0 25 24" version="1.1" xmlns="http://www.w3.org/2000/svg" xmlns:xlink="http://www.w3.org/1999/xlink" xml:space="preserve" xmlns:serif="http://www.serif.com/" style="fill-rule:evenodd;clip-rule:evenodd;stroke-linejoin:round;stroke-miterlimit:2;"><rect id="check_card" x="0.791" y="0" width="24" height="24" style="fill:none;"/><g><path id="Path_10263" d="M16.298,16.714l-0,1.1c0.001,0.102 0.084,0.185 0.186,0.186l1.1,0c0.044,-0.002 0.086,-0.02 0.118,-0.051l3.941,-3.94l-1.351,-1.354l-3.943,3.942c-0.034,0.03 -0.052,0.073 -0.051,0.117Zm6.393,-4.262l-0.846,-0.846c-0.141,-0.135 -0.366,-0.135 -0.507,-0l-0.66,0.659l1.353,1.353l0.66,-0.66c0.133,-0.14 0.134,-0.364 0,-0.505l0,-0.001Z" style="fill-rule:nonzero;"/><path d="M14.626,16l6.35,-6.349l0,-1.984c0,-0.915 -0.752,-1.667 -1.667,-1.667c0,0 -15,0 -15,0c-0.914,0 -1.666,0.752 -1.666,1.667l-0,6.666c-0,0.915 0.752,1.667 1.666,1.667l10.317,0Zm-9.835,-1.605l5.283,0c0.386,0 0.7,-0.313 0.7,-0.7c0,-0.386 -0.314,-0.7 -0.7,-0.7l-5.283,0c-0.386,0 -0.7,0.314 -0.7,0.7c0,0.387 0.314,0.7 0.7,0.7Zm0,-2.695l9.305,0c0.387,0 0.7,-0.314 0.7,-0.7c0,-0.386 -0.313,-0.7 -0.7,-0.7l-9.305,-0c-0.386,0 -0.7,0.314 -0.7,0.7c0,0.386 0.314,0.7 0.7,0.7Zm0,-2.712l3,0c0.387,0 0.7,-0.313 0.7,-0.7c0,-0.386 -0.313,-0.7 -0.7,-0.7l-3,0c-0.386,0 -0.7,0.314 -0.7,0.7c0,0.387 0.314,0.7 0.7,0.7Z"/></g></svg>