<?xml version="1.0" encoding="UTF-8" standalone="no"?><!DOCTYPE svg PUBLIC "-//W3C//DTD SVG 1.1//EN" "http://www.w3.org/Graphics/SVG/1.1/DTD/svg11.dtd"><svg width="100%" height="100%" viewBox="0 0 24 24" version="1.1" xmlns="http://www.w3.org/2000/svg" xmlns:xlink="http://www.w3.org/1999/xlink" xml:space="preserve" xmlns:serif="http://www.serif.com/" style="fill-rule:evenodd;clip-rule:evenodd;stroke-linejoin:round;stroke-miterlimit:2;"><rect id="checkbox" x="0" y="0" width="24" height="24" style="fill:none;"/><path d="M19,3l-14,0c-1.1,0 -2,0.9 -2,2l0,14c0,1.1 0.9,2 2,2l14,0c1.1,0 2,-0.9 2,-2l0,-14c0,-1.1 -0.9,-2 -2,-2Zm-9.12,12.54l-2.83,-2.83c-0.39,-0.39 -0.39,-1.02 0,-1.41c0.39,-0.39 1.02,-0.39 1.41,-0l2.12,2.12l4.95,-4.95c0.39,-0.39 1.02,-0.39 1.41,-0c0.39,0.39 0.39,1.02 0,1.41l-5.66,5.66c-0.38,0.39 -1.01,0.39 -1.4,-0Z" style="fill-rule:nonzero;"/></svg>