<?xml version="1.0" encoding="UTF-8" standalone="no"?><!DOCTYPE svg PUBLIC "-//W3C//DTD SVG 1.1//EN" "http://www.w3.org/Graphics/SVG/1.1/DTD/svg11.dtd"><svg width="100%" height="100%" viewBox="0 0 24 25" version="1.1" xmlns="http://www.w3.org/2000/svg" xmlns:xlink="http://www.w3.org/1999/xlink" xml:space="preserve" xmlns:serif="http://www.serif.com/" style="fill-rule:evenodd;clip-rule:evenodd;stroke-linejoin:round;stroke-miterlimit:2;"><rect id="clipboard_feedback" x="0" y="0.398" width="24" height="24" style="fill:none;"/><g><path id="Path_10039" d="M10.158,4.997l-0,-0.646c0.056,-0.756 0.721,-1.335 1.478,-1.286l0.729,-0c0.757,-0.05 1.422,0.529 1.477,1.285l0,0.647l1.477,-0c0.377,-0.023 0.707,0.266 0.734,0.642l-0,0.645c-0.026,0.378 -0.356,0.668 -0.734,0.644l-6.638,-0c-0.377,0.023 -0.707,-0.267 -0.734,-0.644l0,-0.645c0.026,-0.377 0.357,-0.666 0.734,-0.642l1.477,-0Zm6.632,0.643l0.739,0c0.756,-0.047 1.418,0.533 1.471,1.289l-0,13.513c-0.051,0.757 -0.715,1.338 -1.472,1.29l-11.056,-0c-0.757,0.047 -1.42,-0.533 -1.472,-1.29l-0,-13.513c0.051,-0.757 0.715,-1.339 1.472,-1.29l0.739,0l0,0.641c0.054,0.757 0.718,1.338 1.475,1.29l6.629,0c0.757,0.049 1.422,-0.533 1.475,-1.29l-0,-0.641l-0,0.001Zm-4.79,-0.643c0.189,0.011 0.354,-0.133 0.368,-0.322c-0.014,-0.189 -0.179,-0.333 -0.368,-0.322c-0.189,-0.011 -0.354,0.133 -0.368,0.322c0.014,0.189 0.179,0.333 0.368,0.322Zm-1.107,5.796l-0,0.643l5.893,0l-0,-0.643l-5.893,0Zm-3.685,-0.643l0,1.932l2.211,-0l-0,-1.932l-2.211,-0Zm0.737,0.643l0,0.643l0.738,0l-0,-0.643l-0.738,0Zm-0.737,2.575l0,1.932l2.211,-0l-0,-1.932l-2.211,-0Zm0.737,0.643l0,0.643l0.738,0l-0,-0.643l-0.738,-0Zm2.948,-0l-0,0.643l5.893,0l-0,-0.643l-5.893,-0Zm-3.685,2.574l0,1.933l2.211,-0l-0,-1.933l-2.211,0Zm0.737,0.644l0,0.643l0.738,0l-0,-0.643l-0.738,-0Zm2.948,-0l-0,0.643l5.893,0l-0,-0.643l-5.893,-0Z"/></g></svg>