<?xml version="1.0" encoding="UTF-8" standalone="no"?><!DOCTYPE svg PUBLIC "-//W3C//DTD SVG 1.1//EN" "http://www.w3.org/Graphics/SVG/1.1/DTD/svg11.dtd"><svg width="100%" height="100%" viewBox="0 0 24 24" version="1.1" xmlns="http://www.w3.org/2000/svg" xmlns:xlink="http://www.w3.org/1999/xlink" xml:space="preserve" xmlns:serif="http://www.serif.com/" style="fill-rule:evenodd;clip-rule:evenodd;stroke-linejoin:round;stroke-miterlimit:2;"><rect id="commenting" x="0" y="0" width="24" height="24" style="fill:none;"/><path d="M8.871,11.771c0.266,-0.266 0.399,-0.587 0.399,-0.963c-0,-0.376 -0.133,-0.697 -0.399,-0.963c-0.266,-0.266 -0.587,-0.399 -0.963,-0.399c-0.376,0 -0.697,0.133 -0.962,0.399c-0.266,0.266 -0.399,0.587 -0.399,0.963c-0,0.376 0.133,0.697 0.399,0.963c0.265,0.266 0.586,0.399 0.962,0.399c0.376,-0 0.697,-0.133 0.963,-0.399Zm4.085,-0c0.266,-0.266 0.399,-0.587 0.399,-0.963c-0,-0.376 -0.133,-0.697 -0.399,-0.963c-0.266,-0.266 -0.587,-0.399 -0.963,-0.399c-0.376,0 -0.697,0.133 -0.963,0.399c-0.266,0.266 -0.399,0.587 -0.399,0.963c0,0.376 0.133,0.697 0.399,0.963c0.266,0.266 0.587,0.399 0.963,0.399c0.376,-0 0.697,-0.133 0.963,-0.399Zm4.084,-0c0.266,-0.266 0.399,-0.587 0.399,-0.963c0,-0.376 -0.133,-0.697 -0.399,-0.963c-0.265,-0.266 -0.586,-0.399 -0.962,-0.399c-0.376,0 -0.697,0.133 -0.963,0.399c-0.266,0.266 -0.399,0.587 -0.399,0.963c0,0.376 0.133,0.697 0.399,0.963c0.266,0.266 0.587,0.399 0.963,0.399c0.376,-0 0.697,-0.133 0.962,-0.399Zm3.208,-4.383c0.851,1.046 1.276,2.186 1.276,3.42c0,1.234 -0.425,2.374 -1.276,3.42c-0.851,1.046 -2.007,1.872 -3.468,2.478c-1.461,0.607 -3.057,0.91 -4.787,0.91c-0.78,-0 -1.528,-0.064 -2.244,-0.192c-1.227,1.227 -2.77,2.039 -4.628,2.436c-0.369,0.071 -0.673,0.117 -0.915,0.139c-0.085,0.007 -0.163,-0.015 -0.234,-0.064c-0.071,-0.05 -0.117,-0.114 -0.138,-0.192c-0.028,-0.106 0.043,-0.237 0.213,-0.393l0.521,-0.479c0.05,-0.05 0.133,-0.14 0.25,-0.271c0.117,-0.131 0.202,-0.243 0.255,-0.335c0.054,-0.092 0.126,-0.224 0.218,-0.394c0.093,-0.17 0.164,-0.34 0.213,-0.51c0.05,-0.171 0.101,-0.374 0.154,-0.612c0.054,-0.238 0.098,-0.495 0.133,-0.771c-1.035,-0.639 -1.849,-1.406 -2.441,-2.303c-0.592,-0.897 -0.888,-1.853 -0.888,-2.867c-0,-1.234 0.425,-2.374 1.276,-3.42c0.851,-1.046 2.007,-1.872 3.468,-2.479c1.461,-0.606 3.057,-0.909 4.787,-0.909c1.73,-0 3.326,0.303 4.787,0.909c1.461,0.607 2.617,1.433 3.468,2.479Z" style="fill-rule:nonzero;"/></svg>