<?xml version="1.0" encoding="UTF-8" standalone="no"?><!DOCTYPE svg PUBLIC "-//W3C//DTD SVG 1.1//EN" "http://www.w3.org/Graphics/SVG/1.1/DTD/svg11.dtd"><svg width="100%" height="100%" viewBox="0 0 24 24" version="1.1" xmlns="http://www.w3.org/2000/svg" xmlns:xlink="http://www.w3.org/1999/xlink" xml:space="preserve" xmlns:serif="http://www.serif.com/" style="fill-rule:evenodd;clip-rule:evenodd;stroke-linejoin:round;stroke-miterlimit:2;"><rect id="credit_card" x="0" y="0" width="24" height="24" style="fill:none;"/><g><path d="M20,4l-16,0c-1.11,0 -1.99,0.89 -1.99,2l-0.01,12c0,1.11 0.89,2 2,2l16,0c1.11,0 2,-0.89 2,-2l0,-12c0,-1.11 -0.89,-2 -2,-2Zm0,14l-16,0l0,-6l16,0l0,6Zm0,-10l-16,0l0,-2l16,0l0,2Z" style="fill-rule:nonzero;"/></g></svg>