<?xml version="1.0" encoding="UTF-8" standalone="no"?><!DOCTYPE svg PUBLIC "-//W3C//DTD SVG 1.1//EN" "http://www.w3.org/Graphics/SVG/1.1/DTD/svg11.dtd"><svg width="100%" height="100%" viewBox="0 0 24 24" version="1.1" xmlns="http://www.w3.org/2000/svg" xmlns:xlink="http://www.w3.org/1999/xlink" xml:space="preserve" xmlns:serif="http://www.serif.com/" style="fill-rule:evenodd;clip-rule:evenodd;stroke-linejoin:round;stroke-miterlimit:2;"><rect id="dashboard" x="0" y="0" width="24" height="24" style="fill:none;"/><path d="M4,13l6,0c0.55,0 1,-0.45 1,-1l0,-8c0,-0.55 -0.45,-1 -1,-1l-6,0c-0.55,0 -1,0.45 -1,1l0,8c0,0.55 0.45,1 1,1Zm0,8l6,0c0.55,0 1,-0.45 1,-1l0,-4c0,-0.55 -0.45,-1 -1,-1l-6,0c-0.55,0 -1,0.45 -1,1l0,4c0,0.55 0.45,1 1,1Zm10,0l6,0c0.55,0 1,-0.45 1,-1l0,-8c0,-0.55 -0.45,-1 -1,-1l-6,0c-0.55,0 -1,0.45 -1,1l0,8c0,0.55 0.45,1 1,1Zm-1,-17l0,4c0,0.55 0.45,1 1,1l6,0c0.55,0 1,-0.45 1,-1l0,-4c0,-0.55 -0.45,-1 -1,-1l-6,0c-0.55,0 -1,0.45 -1,1Z" style="fill-rule:nonzero;"/></svg>