<?xml version="1.0" encoding="UTF-8" standalone="no"?><!DOCTYPE svg PUBLIC "-//W3C//DTD SVG 1.1//EN" "http://www.w3.org/Graphics/SVG/1.1/DTD/svg11.dtd"><svg width="100%" height="100%" viewBox="0 0 24 24" version="1.1" xmlns="http://www.w3.org/2000/svg" xmlns:xlink="http://www.w3.org/1999/xlink" xml:space="preserve" xmlns:serif="http://www.serif.com/" style="fill-rule:evenodd;clip-rule:evenodd;stroke-linejoin:round;stroke-miterlimit:2;"><rect id="delete" x="0" y="0" width="24" height="24" style="fill:none;"/><path d="M6,19c0,1.1 0.9,2 2,2l8,0c1.1,0 2,-0.9 2,-2l0,-12l-12,0l0,12Zm12,-15l-2.5,0l-0.71,-0.71c-0.18,-0.18 -0.44,-0.29 -0.7,-0.29l-4.18,0c-0.26,0 -0.52,0.11 -0.7,0.29l-0.71,0.71l-2.5,0c-0.55,0 -1,0.45 -1,1c0,0.55 0.45,1 1,1l12,0c0.55,0 1,-0.45 1,-1c0,-0.55 -0.45,-1 -1,-1Z" style="fill-rule:nonzero;"/></svg>