<?xml version="1.0" encoding="UTF-8" standalone="no"?><!DOCTYPE svg PUBLIC "-//W3C//DTD SVG 1.1//EN" "http://www.w3.org/Graphics/SVG/1.1/DTD/svg11.dtd"><svg width="100%" height="100%" viewBox="0 0 24 24" version="1.1" xmlns="http://www.w3.org/2000/svg" xmlns:xlink="http://www.w3.org/1999/xlink" xml:space="preserve" xmlns:serif="http://www.serif.com/" style="fill-rule:evenodd;clip-rule:evenodd;stroke-linejoin:round;stroke-miterlimit:2;"><rect id="desktop_mac" x="0" y="0" width="24" height="24" style="fill:none;"/><g><g><path d="M20,3l-16,0c-1.1,0 -2,0.9 -2,2l0,12c0,1.1 0.9,2 2,2l6,0l-1.29,1.29c-0.63,0.63 -0.19,1.71 0.7,1.71l5.17,0c0.89,0 1.34,-1.08 0.71,-1.71l-1.29,-1.29l6,0c1.1,0 2,-0.9 2,-2l0,-12c0,-1.1 -0.9,-2 -2,-2Zm0,11l-16,0l0,-9l16,0l0,9Z" style="fill-rule:nonzero;"/></g></g></svg>