<?xml version="1.0" encoding="UTF-8" standalone="no"?><!DOCTYPE svg PUBLIC "-//W3C//DTD SVG 1.1//EN" "http://www.w3.org/Graphics/SVG/1.1/DTD/svg11.dtd"><svg width="100%" height="100%" viewBox="0 0 24 24" version="1.1" xmlns="http://www.w3.org/2000/svg" xmlns:xlink="http://www.w3.org/1999/xlink" xml:space="preserve" xmlns:serif="http://www.serif.com/" style="fill-rule:evenodd;clip-rule:evenodd;stroke-linejoin:round;stroke-miterlimit:2;"><rect id="direction_arrow_right" x="0" y="0" width="24" height="24" style="fill:none;"/><path d="M21.41,10.59l-7.99,-8c-0.78,-0.78 -2.05,-0.78 -2.83,0l-8.01,8c-0.78,0.78 -0.78,2.05 0,2.83l8.01,8c0.78,0.78 2.05,0.78 2.83,0l7.99,-8c0.79,-0.79 0.79,-2.05 0,-2.83Zm-4.76,0.76l-2.29,2.29c-0.32,0.32 -0.85,0.09 -0.85,-0.35l0,-1.29l-3.51,0l0,2c0,0.55 -0.45,1 -1,1c-0.55,0 -1,-0.45 -1,-1l0,-3c0,-0.55 0.45,-1 1,-1l4.5,0l0,-1.29c0,-0.45 0.54,-0.67 0.85,-0.35l2.29,2.29c0.2,0.19 0.2,0.51 0.01,0.7Z" style="fill-rule:nonzero;"/></svg>