<?xml version="1.0" encoding="UTF-8" standalone="no"?><!DOCTYPE svg PUBLIC "-//W3C//DTD SVG 1.1//EN" "http://www.w3.org/Graphics/SVG/1.1/DTD/svg11.dtd"><svg width="100%" height="100%" viewBox="0 0 24 24" version="1.1" xmlns="http://www.w3.org/2000/svg" xmlns:xlink="http://www.w3.org/1999/xlink" xml:space="preserve" xmlns:serif="http://www.serif.com/" style="fill-rule:evenodd;clip-rule:evenodd;stroke-linejoin:round;stroke-miterlimit:2;"><rect id="draw_circle_center" x="0" y="0" width="24" height="24" style="fill:none;"/><path d="M5.285,10.02c0.67,-2.272 2.463,-4.065 4.735,-4.735c-0.013,-0.093 -0.02,-0.188 -0.02,-0.285c-0,-1.104 0.896,-2 2,-2c1.104,0 2,0.896 2,2c-0,0.097 -0.007,0.192 -0.02,0.285c2.272,0.67 4.065,2.463 4.735,4.735c0.093,-0.013 0.188,-0.02 0.285,-0.02c1.104,-0 2,0.896 2,2c-0,1.104 -0.896,2 -2,2c-0.097,0 -0.192,-0.007 -0.285,-0.02c-0.67,2.272 -2.463,4.065 -4.735,4.735c0.013,0.093 0.02,0.188 0.02,0.285c-0,1.104 -0.896,2 -2,2c-1.104,-0 -2,-0.896 -2,-2c-0,-0.097 0.007,-0.192 0.02,-0.285c-2.272,-0.669 -4.065,-2.463 -4.735,-4.735c-0.093,0.013 -0.188,0.02 -0.285,0.02c-1.104,0 -2,-0.896 -2,-2c0,-1.104 0.896,-2 2,-2c0.097,0 0.192,0.007 0.285,0.02Zm5.715,8.98c-0,-0.552 0.448,-1 1,-1c0.552,-0 1,0.448 1,1c-0,0.552 -0.448,1 -1,1c-0.552,-0 -1,-0.448 -1,-1Zm-4.787,-5.41c0.559,2.034 2.163,3.638 4.197,4.197c0.366,-0.478 0.942,-0.787 1.59,-0.787c0.648,-0 1.224,0.309 1.59,0.787c2.035,-0.559 3.638,-2.163 4.197,-4.197c-0.478,-0.366 -0.787,-0.942 -0.787,-1.59c-0,-0.648 0.309,-1.224 0.787,-1.59c-0.559,-2.034 -2.163,-3.638 -4.197,-4.197c-0.366,0.478 -0.942,0.787 -1.59,0.787c-0.648,0 -1.224,-0.309 -1.59,-0.787c-2.034,0.559 -3.638,2.163 -4.197,4.197c0.478,0.366 0.787,0.942 0.787,1.59c0,0.648 -0.309,1.224 -0.787,1.59Zm5.787,-3.59c-1.104,-0 -2,0.896 -2,2c0,1.104 0.896,2 2,2c1.104,0 2,-0.896 2,-2c0,-1.104 -0.896,-2 -2,-2Zm0,1c0.552,0 1,0.448 1,1c0,0.552 -0.448,1 -1,1c-0.552,-0 -1,-0.448 -1,-1c0,-0.552 0.448,-1 1,-1Zm-7,0c0.552,0 1,0.448 1,1c0,0.552 -0.448,1 -1,1c-0.552,-0 -1,-0.448 -1,-1c0,-0.552 0.448,-1 1,-1Zm14,0c0.552,0 1,0.448 1,1c-0,0.552 -0.448,1 -1,1c-0.552,-0 -1,-0.448 -1,-1c-0,-0.552 0.448,-1 1,-1Zm-8,-6c-0,-0.552 0.448,-1 1,-1c0.552,0 1,0.448 1,1c-0,0.552 -0.448,1 -1,1c-0.552,0 -1,-0.448 -1,-1Z"/></svg>