<?xml version="1.0" encoding="UTF-8" standalone="no"?><!DOCTYPE svg PUBLIC "-//W3C//DTD SVG 1.1//EN" "http://www.w3.org/Graphics/SVG/1.1/DTD/svg11.dtd"><svg width="100%" height="100%" viewBox="0 0 24 24" version="1.1" xmlns="http://www.w3.org/2000/svg" xmlns:xlink="http://www.w3.org/1999/xlink" xml:space="preserve" xmlns:serif="http://www.serif.com/" style="fill-rule:evenodd;clip-rule:evenodd;stroke-linejoin:round;stroke-miterlimit:2;"><rect id="envelope_alt" x="0" y="0" width="24" height="24" style="fill:none;"/><path id="Path_680" d="M3.261,6c-0.435,0 -0.789,0.353 -0.789,0.789c0,2.179 0,8.261 0,10.43c0,0.207 0.083,0.406 0.229,0.552c0.146,0.147 0.345,0.229 0.552,0.229c3.083,0 14.391,0 17.487,0c0.209,0 0.409,-0.083 0.557,-0.231c0.148,-0.148 0.231,-0.348 0.231,-0.557c-0,-2.18 -0,-8.275 -0,-10.438c-0,-0.428 -0.347,-0.774 -0.774,-0.774l-17.493,0Zm9.198,6.546l-5.708,-4.364l11.47,0l-5.762,4.364Zm-4.627,-0.747l-3.608,2.929l0,-5.455l3.608,2.526Zm2.221,1.293l1.652,1.136c0.219,0.144 0.476,0.223 0.739,0.227c0.263,-0.004 0.519,-0.083 0.738,-0.227l1.479,-1.046l3.298,2.637l-11.318,-0l3.412,-2.727Zm6.116,-1.309l3.996,-2.513l-0,5.455l-3.996,-2.942Z"/></svg>