<?xml version="1.0" encoding="UTF-8" standalone="no"?><!DOCTYPE svg PUBLIC "-//W3C//DTD SVG 1.1//EN" "http://www.w3.org/Graphics/SVG/1.1/DTD/svg11.dtd"><svg width="100%" height="100%" viewBox="0 0 25 24" version="1.1" xmlns="http://www.w3.org/2000/svg" xmlns:xlink="http://www.w3.org/1999/xlink" xml:space="preserve" xmlns:serif="http://www.serif.com/" style="fill-rule:evenodd;clip-rule:evenodd;stroke-linejoin:round;stroke-miterlimit:2;"><rect id="envelope_open" x="0.548" y="0" width="24" height="24" style="fill:none;"/><g><path d="M22.548,8.844c-0,-0.72 -0.38,-1.35 -0.95,-1.7l-8.04,-4.71c-0.62,-0.37 -1.4,-0.37 -2.02,-0l-8.04,4.71c-0.57,0.35 -0.95,0.98 -0.95,1.7l-0,11c-0,1.1 0.9,2 2,2l16,-0c1.1,-0 2,-0.9 2,-2l-0,-11Zm-11.06,4.34l-7.2,-4.5l7.75,-4.54c0.31,-0.18 0.7,-0.18 1.01,-0l7.75,4.54l-7.2,4.5c-0.64,0.4 -1.46,0.4 -2.11,-0Z" style="fill-rule:nonzero;"/></g></svg>