<?xml version="1.0" encoding="UTF-8" standalone="no"?><!DOCTYPE svg PUBLIC "-//W3C//DTD SVG 1.1//EN" "http://www.w3.org/Graphics/SVG/1.1/DTD/svg11.dtd"><svg width="100%" height="100%" viewBox="0 0 24 24" version="1.1" xmlns="http://www.w3.org/2000/svg" xmlns:xlink="http://www.w3.org/1999/xlink" xml:space="preserve" xmlns:serif="http://www.serif.com/" style="fill-rule:evenodd;clip-rule:evenodd;stroke-linejoin:round;stroke-miterlimit:2;"><rect id="explore" x="0" y="0" width="24" height="24" style="fill:none;"/><g><path d="M12,11c-0.55,0 -1,0.45 -1,1c0,0.55 0.45,1 1,1c0.55,0 1,-0.45 1,-1c0,-0.55 -0.45,-1 -1,-1Zm0,-9c-5.52,0 -10,4.48 -10,10c0,5.52 4.48,10 10,10c5.52,0 10,-4.48 10,-10c0,-5.52 -4.48,-10 -10,-10Zm1.86,12.34l-6.62,3.08c-0.42,0.2 -0.86,-0.24 -0.66,-0.66l3.08,-6.62c0.1,-0.21 0.27,-0.39 0.48,-0.48l6.62,-3.08c0.42,-0.2 0.86,0.24 0.66,0.66l-3.08,6.62c-0.1,0.21 -0.27,0.38 -0.48,0.48Z" style="fill-rule:nonzero;"/></g></svg>