<?xml version="1.0" encoding="UTF-8" standalone="no"?><!DOCTYPE svg PUBLIC "-//W3C//DTD SVG 1.1//EN" "http://www.w3.org/Graphics/SVG/1.1/DTD/svg11.dtd"><svg width="100%" height="100%" viewBox="0 0 24 24" version="1.1" xmlns="http://www.w3.org/2000/svg" xmlns:xlink="http://www.w3.org/1999/xlink" xml:space="preserve" xmlns:serif="http://www.serif.com/" style="fill-rule:evenodd;clip-rule:evenodd;stroke-linejoin:round;stroke-miterlimit:2;"><rect id="facebook" x="0" y="0" width="24" height="24" style="fill:none;"/><path d="M16.154,4.115l-0,2.539l-1.51,-0c-0.551,-0 -0.923,0.115 -1.115,0.346c-0.192,0.231 -0.289,0.577 -0.289,1.038l0,1.818l2.818,-0l-0.375,2.846l-2.443,-0l0,7.298l-2.942,0l0,-7.298l-2.452,-0l0,-2.846l2.452,-0l0,-2.096c0,-1.193 0.333,-2.117 1,-2.774c0.667,-0.657 1.555,-0.986 2.664,-0.986c0.942,0 1.673,0.038 2.192,0.115Z" style="fill-rule:nonzero;"/></svg>