<?xml version="1.0" encoding="UTF-8" standalone="no"?><!DOCTYPE svg PUBLIC "-//W3C//DTD SVG 1.1//EN" "http://www.w3.org/Graphics/SVG/1.1/DTD/svg11.dtd"><svg width="100%" height="100%" viewBox="0 0 24 24" version="1.1" xmlns="http://www.w3.org/2000/svg" xmlns:xlink="http://www.w3.org/1999/xlink" xml:space="preserve" xmlns:serif="http://www.serif.com/" style="fill-rule:evenodd;clip-rule:evenodd;stroke-linejoin:round;stroke-miterlimit:2;"><rect id="favorite_border" x="0" y="0" width="24" height="24" style="fill:none;"/><path d="M19.66,3.99c-2.64,-1.8 -5.9,-0.96 -7.66,1.1c-1.76,-2.06 -5.02,-2.91 -7.66,-1.1c-1.4,0.96 -2.28,2.58 -2.34,4.29c-0.14,3.88 3.3,6.99 8.55,11.76l0.1,0.09c0.76,0.69 1.93,0.69 2.69,-0.01l0.11,-0.1c5.25,-4.76 8.68,-7.87 8.55,-11.75c-0.06,-1.7 -0.94,-3.32 -2.34,-4.28Zm-7.56,14.56l-0.1,0.1l-0.1,-0.1c-4.76,-4.31 -7.9,-7.16 -7.9,-10.05c0,-2 1.5,-3.5 3.5,-3.5c1.54,0 3.04,0.99 3.57,2.36l1.87,0c0.52,-1.37 2.02,-2.36 3.56,-2.36c2,0 3.5,1.5 3.5,3.5c0,2.89 -3.14,5.74 -7.9,10.05Z" style="fill-rule:nonzero;"/></svg>