<?xml version="1.0" encoding="UTF-8" standalone="no"?><!DOCTYPE svg PUBLIC "-//W3C//DTD SVG 1.1//EN" "http://www.w3.org/Graphics/SVG/1.1/DTD/svg11.dtd"><svg width="100%" height="100%" viewBox="0 0 24 24" version="1.1" xmlns="http://www.w3.org/2000/svg" xmlns:xlink="http://www.w3.org/1999/xlink" xml:space="preserve" xmlns:serif="http://www.serif.com/" style="fill-rule:evenodd;clip-rule:evenodd;stroke-linejoin:round;stroke-miterlimit:2;"><rect id="fiber_new" x="0" y="0" width="24" height="24" style="fill:none;"/><g><path d="M19,5l-14,0c-0.971,0 -1.741,0.779 -1.741,1.75l-0.009,10.5c0,0.971 0.779,1.75 1.75,1.75l14,0c0.971,0 1.75,-0.779 1.75,-1.75l0,-10.5c0,-0.971 -0.779,-1.75 -1.75,-1.75Zm-10.063,8.934c0.001,0.376 -0.314,0.691 -0.691,0.691c-0.218,-0 -0.428,-0.105 -0.56,-0.289l-2.03,-2.774l0,2.52c0,0.307 -0.245,0.543 -0.542,0.543c-0.298,-0 -0.551,-0.245 -0.551,-0.542l-0,-4.017c-0,-0.376 0.315,-0.691 0.691,-0.691l0.044,0c0.227,0 0.437,0.105 0.568,0.289l1.978,2.774l-0,-2.521c-0,-0.297 0.245,-0.542 0.551,-0.542c0.306,0 0.543,0.245 0.543,0.543l-0,4.016Zm4.375,-3.999c-0,0.306 -0.245,0.543 -0.543,0.543l-1.645,-0l0,0.98l1.645,-0c0.306,-0 0.543,0.245 0.543,0.542l-0,0.009c-0,0.306 -0.245,0.542 -0.543,0.542l-1.645,0l0,0.972l1.645,-0c0.306,-0 0.543,0.245 0.543,0.542c-0,0.306 -0.245,0.543 -0.543,0.543l-2.214,-0c-0.411,-0 -0.743,-0.333 -0.743,-0.744l-0,-3.763c-0,-0.393 0.332,-0.726 0.743,-0.726l2.214,0c0.306,0 0.543,0.245 0.543,0.543l-0,0.017Zm6.125,3.815c-0,0.481 -0.394,0.875 -0.875,0.875l-3.5,0c-0.482,0 -0.875,-0.394 -0.875,-0.875l-0,-3.832c-0,-0.298 0.245,-0.543 0.542,-0.543c0.298,0 0.543,0.245 0.543,0.543l-0,3.403l0.988,0l0,-2.537c0,-0.306 0.245,-0.543 0.543,-0.543c0.297,0 0.542,0.245 0.542,0.543l0,2.529l0.98,-0l0,-3.395c0,-0.307 0.245,-0.543 0.543,-0.543c0.297,0 0.542,0.245 0.542,0.543l0,3.832l0.027,0Z" style="fill-rule:nonzero;"/></g></svg>