<?xml version="1.0" encoding="UTF-8" standalone="no"?><!DOCTYPE svg PUBLIC "-//W3C//DTD SVG 1.1//EN" "http://www.w3.org/Graphics/SVG/1.1/DTD/svg11.dtd"><svg width="100%" height="100%" viewBox="0 0 24 24" version="1.1" xmlns="http://www.w3.org/2000/svg" xmlns:xlink="http://www.w3.org/1999/xlink" xml:space="preserve" xmlns:serif="http://www.serif.com/" style="fill-rule:evenodd;clip-rule:evenodd;stroke-linejoin:round;stroke-miterlimit:2;"><rect id="file" x="0" y="0" width="24" height="24" style="fill:none;"/><g><path d="M6,2c-1.1,0 -1.99,0.9 -1.99,2l-0.01,16c0,1.1 0.89,2 1.99,2l12.01,0c1.1,0 2,-0.9 2,-2l0,-11.17c0,-0.53 -0.21,-1.04 -0.59,-1.41l-4.83,-4.83c-0.37,-0.38 -0.88,-0.59 -1.41,-0.59l-7.17,0Zm7,6l0,-4.5l5.5,5.5l-4.5,0c-0.55,0 -1,-0.45 -1,-1Z" style="fill-rule:nonzero;"/></g></svg>