<?xml version="1.0" encoding="UTF-8" standalone="no"?><!DOCTYPE svg PUBLIC "-//W3C//DTD SVG 1.1//EN" "http://www.w3.org/Graphics/SVG/1.1/DTD/svg11.dtd"><svg width="100%" height="100%" viewBox="0 0 24 24" version="1.1" xmlns="http://www.w3.org/2000/svg" xmlns:xlink="http://www.w3.org/1999/xlink" xml:space="preserve" xmlns:serif="http://www.serif.com/" style="fill-rule:evenodd;clip-rule:evenodd;stroke-linejoin:round;stroke-miterlimit:2;"><rect id="flag" x="0" y="0" width="24" height="24" style="fill:none;"/><g><path d="M14.4,6l-0.24,-1.2c-0.09,-0.46 -0.5,-0.8 -0.98,-0.8l-7.18,0c-0.55,0 -1,0.45 -1,1l0,15c0,0.55 0.45,1 1,1c0.55,0 1,-0.45 1,-1l0,-6l5.6,0l0.24,1.2c0.09,0.47 0.5,0.8 0.98,0.8l5.18,0c0.55,0 1,-0.45 1,-1l0,-8c0,-0.55 -0.45,-1 -1,-1l-4.6,0Z" style="fill-rule:nonzero;"/></g></svg>