<?xml version="1.0" encoding="UTF-8" standalone="no"?><!DOCTYPE svg PUBLIC "-//W3C//DTD SVG 1.1//EN" "http://www.w3.org/Graphics/SVG/1.1/DTD/svg11.dtd"><svg width="100%" height="100%" viewBox="0 0 24 24" version="1.1" xmlns="http://www.w3.org/2000/svg" xmlns:xlink="http://www.w3.org/1999/xlink" xml:space="preserve" xmlns:serif="http://www.serif.com/" style="fill-rule:evenodd;clip-rule:evenodd;stroke-linejoin:round;stroke-miterlimit:2;"><rect id="flag_border" x="0" y="0" width="24" height="24" style="fill:none;"/><path d="M14.256,6c-0.157,-0 -0.3,-0.089 -0.371,-0.229c-0.146,-0.292 -0.403,-0.808 -0.603,-1.207c-0.173,-0.346 -0.526,-0.564 -0.912,-0.564c-1.388,0 -4.717,0 -6.384,0c-0.261,-0 -0.512,0.104 -0.697,0.289c-0.185,0.185 -0.289,0.436 -0.289,0.697c0,3.01 0,12.051 -0,15.042c0,0.537 0.435,0.972 0.972,0.972c0.018,0 0.036,0 0.054,0c0.538,-0 0.974,-0.436 0.974,-0.974c0,-1.566 0,-4.574 0,-5.64c0,-0.213 0.173,-0.386 0.386,-0.386c0.989,0 3.593,-0 4.383,-0c0.142,0 0.271,0.08 0.334,0.207c0.147,0.294 0.422,0.844 0.629,1.257c0.164,0.329 0.5,0.536 0.867,0.536c1.208,0 3.945,0 5.418,0c0.261,0 0.511,-0.104 0.695,-0.288c0.184,-0.184 0.288,-0.434 0.288,-0.695c0,-1.919 0,-6.144 0,-8.05c-0,-0.534 -0.433,-0.967 -0.967,-0.967c-1.413,0 -3.964,0 -4.777,0Zm3.744,7.555c0,0.118 -0.047,0.231 -0.13,0.315c-0.084,0.083 -0.197,0.13 -0.315,0.13c-0.855,0 -2.698,-0 -3.334,0c-0.135,-0 -0.259,-0.077 -0.32,-0.198c-0.147,-0.294 -0.429,-0.859 -0.639,-1.278c-0.161,-0.321 -0.489,-0.524 -0.848,-0.524c-1.231,0 -4.059,0 -5.057,0c-0.197,-0 -0.357,-0.16 -0.357,-0.357c0,-1.057 0,-4.165 0,-5.258c0,-0.213 0.172,-0.385 0.385,-0.385c0.986,-0 3.58,-0 4.378,-0c0.145,0 0.278,0.082 0.343,0.212c0.145,0.29 0.411,0.821 0.615,1.23c0.171,0.342 0.521,0.558 0.903,0.558c1.054,0 3.153,0 4.005,0c0.205,0 0.371,0.166 0.371,0.371c0,1.052 0,4.047 0,5.184Z" style="fill-rule:nonzero;"/></svg>