<?xml version="1.0" encoding="UTF-8" standalone="no"?><!DOCTYPE svg PUBLIC "-//W3C//DTD SVG 1.1//EN" "http://www.w3.org/Graphics/SVG/1.1/DTD/svg11.dtd"><svg width="100%" height="100%" viewBox="0 0 24 25" version="1.1" xmlns="http://www.w3.org/2000/svg" xmlns:xlink="http://www.w3.org/1999/xlink" xml:space="preserve" xmlns:serif="http://www.serif.com/" style="fill-rule:evenodd;clip-rule:evenodd;stroke-linejoin:round;stroke-miterlimit:2;"><rect id="folder_shared" x="0" y="0.398" width="24" height="24" style="fill:none;"/><path d="M20,6.398l-8,0l-1.41,-1.41c-0.38,-0.38 -0.89,-0.59 -1.42,-0.59l-5.17,0c-1.1,0 -1.99,0.9 -1.99,2l-0.01,12c0,1.1 0.9,2 2,2l16,0c1.1,0 2,-0.9 2,-2l0,-10c0,-1.1 -0.9,-2 -2,-2Zm-5,3c1.1,0 2,0.9 2,2c0,1.1 -0.9,2 -2,2c-1.1,0 -2,-0.9 -2,-2c0,-1.1 0.9,-2 2,-2Zm4,8l-8,0l0,-0.57c0,-0.81 0.48,-1.53 1.22,-1.85c0.85,-0.37 1.79,-0.58 2.78,-0.58c0.99,0 1.93,0.21 2.78,0.58c0.74,0.32 1.22,1.04 1.22,1.85l0,0.57Z" style="fill-rule:nonzero;"/></svg>