<?xml version="1.0" encoding="UTF-8" standalone="no"?><!DOCTYPE svg PUBLIC "-//W3C//DTD SVG 1.1//EN" "http://www.w3.org/Graphics/SVG/1.1/DTD/svg11.dtd"><svg width="100%" height="100%" viewBox="0 0 24 24" version="1.1" xmlns="http://www.w3.org/2000/svg" xmlns:xlink="http://www.w3.org/1999/xlink" xml:space="preserve" xmlns:serif="http://www.serif.com/" style="fill-rule:evenodd;clip-rule:evenodd;stroke-linejoin:round;stroke-miterlimit:2;"><rect id="format_list_bulleted" x="0" y="0" width="24" height="24" style="fill:none;"/><g><path d="M4,10.5c-0.83,0 -1.5,0.67 -1.5,1.5c0,0.83 0.67,1.5 1.5,1.5c0.83,0 1.5,-0.67 1.5,-1.5c0,-0.83 -0.67,-1.5 -1.5,-1.5Zm0,-6c-0.83,0 -1.5,0.67 -1.5,1.5c0,0.83 0.67,1.5 1.5,1.5c0.83,0 1.5,-0.67 1.5,-1.5c0,-0.83 -0.67,-1.5 -1.5,-1.5Zm0,12c-0.83,0 -1.5,0.68 -1.5,1.5c0,0.82 0.68,1.5 1.5,1.5c0.82,0 1.5,-0.68 1.5,-1.5c0,-0.82 -0.67,-1.5 -1.5,-1.5Zm4,2.5l12,0c0.55,0 1,-0.45 1,-1c0,-0.55 -0.45,-1 -1,-1l-12,0c-0.55,0 -1,0.45 -1,1c0,0.55 0.45,1 1,1Zm0,-6l12,0c0.55,0 1,-0.45 1,-1c0,-0.55 -0.45,-1 -1,-1l-12,0c-0.55,0 -1,0.45 -1,1c0,0.55 0.45,1 1,1Zm-1,-7c0,0.55 0.45,1 1,1l12,0c0.55,0 1,-0.45 1,-1c0,-0.55 -0.45,-1 -1,-1l-12,0c-0.55,0 -1,0.45 -1,1Z" style="fill-rule:nonzero;"/></g></svg>