<?xml version="1.0" encoding="UTF-8" standalone="no"?><!DOCTYPE svg PUBLIC "-//W3C//DTD SVG 1.1//EN" "http://www.w3.org/Graphics/SVG/1.1/DTD/svg11.dtd"><svg width="100%" height="100%" viewBox="0 0 25 24" version="1.1" xmlns="http://www.w3.org/2000/svg" xmlns:xlink="http://www.w3.org/1999/xlink" xml:space="preserve" xmlns:serif="http://www.serif.com/" style="fill-rule:evenodd;clip-rule:evenodd;stroke-linejoin:round;stroke-miterlimit:2;"><rect id="forward" x="0.48" y="0" width="24" height="24" style="fill:none;"/><g><path d="M20.77,10.29l-3.59,-3.59c-0.62,-0.62 -1.7,-0.18 -1.7,0.71l-0,2.59l-7,0c-2.76,0 -5,2.24 -5,5l-0,3c-0,0.55 0.45,1 1,1c0.55,0 1,-0.45 1,-1l-0,-3c-0,-1.65 1.35,-3 3,-3l7,0l-0,2.59c-0,0.89 1.08,1.34 1.71,0.71l3.59,-3.59c0.38,-0.39 0.38,-1.03 -0.01,-1.42Z" style="fill-rule:nonzero;"/></g></svg>