<?xml version="1.0" encoding="UTF-8" standalone="no"?><!DOCTYPE svg PUBLIC "-//W3C//DTD SVG 1.1//EN" "http://www.w3.org/Graphics/SVG/1.1/DTD/svg11.dtd"><svg width="100%" height="100%" viewBox="0 0 24 24" version="1.1" xmlns="http://www.w3.org/2000/svg" xmlns:xlink="http://www.w3.org/1999/xlink" xml:space="preserve" xmlns:serif="http://www.serif.com/" style="fill-rule:evenodd;clip-rule:evenodd;stroke-linejoin:round;stroke-miterlimit:2;"><rect id="google" x="0" y="0" width="24" height="24" style="fill:none;"/><path d="M12.161,10.854l7.553,0c0.083,0.465 0.125,0.91 0.125,1.333c-0,1.507 -0.316,2.853 -0.948,4.037c-0.632,1.184 -1.533,2.109 -2.704,2.776c-1.17,0.667 -2.512,1 -4.026,1c-1.09,-0 -2.128,-0.21 -3.114,-0.63c-0.986,-0.42 -1.837,-0.988 -2.552,-1.703c-0.715,-0.716 -1.283,-1.566 -1.703,-2.552c-0.42,-0.987 -0.631,-2.025 -0.631,-3.115c0,-1.09 0.211,-2.128 0.631,-3.115c0.42,-0.986 0.988,-1.836 1.703,-2.552c0.715,-0.715 1.566,-1.283 2.552,-1.703c0.986,-0.42 2.024,-0.63 3.114,-0.63c2.084,-0 3.872,0.698 5.365,2.094l-2.177,2.093c-0.854,-0.826 -1.917,-1.239 -3.188,-1.239c-0.895,-0 -1.724,0.226 -2.484,0.677c-0.76,0.451 -1.363,1.064 -1.807,1.839c-0.445,0.774 -0.667,1.619 -0.667,2.536c0,0.917 0.222,1.762 0.667,2.536c0.444,0.775 1.047,1.388 1.807,1.839c0.76,0.451 1.589,0.677 2.484,0.677c0.605,0 1.16,-0.083 1.667,-0.25c0.507,-0.167 0.924,-0.375 1.25,-0.625c0.327,-0.25 0.611,-0.535 0.854,-0.854c0.243,-0.32 0.422,-0.622 0.537,-0.906c0.114,-0.285 0.192,-0.556 0.234,-0.813l-4.542,0l0,-2.75Z" style="fill-rule:nonzero;"/></svg>