<?xml version="1.0" encoding="UTF-8" standalone="no"?><!DOCTYPE svg PUBLIC "-//W3C//DTD SVG 1.1//EN" "http://www.w3.org/Graphics/SVG/1.1/DTD/svg11.dtd"><svg width="100%" height="100%" viewBox="0 0 25 24" version="1.1" xmlns="http://www.w3.org/2000/svg" xmlns:xlink="http://www.w3.org/1999/xlink" xml:space="preserve" xmlns:serif="http://www.serif.com/" style="fill-rule:evenodd;clip-rule:evenodd;stroke-linejoin:round;stroke-miterlimit:2;"><rect id="groups" x="0.154" y="0" width="24" height="24" style="fill:none;"/><path d="M12.154,11.625c1.358,0 2.558,0.325 3.533,0.75c0.9,0.4 1.467,1.3 1.467,2.275l-0,2.517c-0,0.458 -0.375,0.833 -0.834,0.833l-8.333,0c-0.458,0 -0.833,-0.375 -0.833,-0.833l-0,-2.509c-0,-0.983 0.566,-1.883 1.466,-2.275c0.975,-0.433 2.175,-0.758 3.534,-0.758Zm-6.667,0.208c0.917,0 1.667,-0.75 1.667,-1.666c-0,-0.917 -0.75,-1.667 -1.667,-1.667c-0.917,0 -1.667,0.75 -1.667,1.667c0,0.916 0.75,1.666 1.667,1.666Zm0.942,0.917c-0.309,-0.05 -0.617,-0.083 -0.942,-0.083c-0.825,-0 -1.608,0.175 -2.317,0.483c-0.616,0.267 -1.016,0.867 -1.016,1.542l-0,2.475c-0,0.458 0.375,0.833 0.833,0.833l2.917,0l-0,-3.342c-0,-0.691 0.191,-1.341 0.525,-1.908Zm12.391,-0.917c0.917,0 1.667,-0.75 1.667,-1.666c-0,-0.917 -0.75,-1.667 -1.667,-1.667c-0.916,0 -1.666,0.75 -1.666,1.667c-0,0.916 0.75,1.666 1.666,1.666Zm3.334,2.859c-0,-0.675 -0.4,-1.275 -1.017,-1.542c-0.708,-0.308 -1.492,-0.483 -2.317,-0.483c-0.325,-0 -0.633,0.033 -0.941,0.083c0.333,0.567 0.525,1.217 0.525,1.908l-0,3.342l2.916,0c0.459,0 0.834,-0.375 0.834,-0.833l-0,-2.475Zm-10,-8.692c1.383,-0 2.5,1.117 2.5,2.5c-0,1.383 -1.117,2.5 -2.5,2.5c-1.384,-0 -2.5,-1.117 -2.5,-2.5c-0,-1.383 1.116,-2.5 2.5,-2.5Z" style="fill-rule:nonzero;"/></svg>