<?xml version="1.0" encoding="UTF-8" standalone="no"?><!DOCTYPE svg PUBLIC "-//W3C//DTD SVG 1.1//EN" "http://www.w3.org/Graphics/SVG/1.1/DTD/svg11.dtd"><svg width="100%" height="100%" viewBox="0 0 25 24" version="1.1" xmlns="http://www.w3.org/2000/svg" xmlns:xlink="http://www.w3.org/1999/xlink" xml:space="preserve" xmlns:serif="http://www.serif.com/" style="fill-rule:evenodd;clip-rule:evenodd;stroke-linejoin:round;stroke-miterlimit:2;"><rect id="headset_mic" x="0.343" y="0" width="24" height="24" style="fill:none;"/><g><path d="M12.343,2c-4.97,0 -9,4.03 -9,9l0,7c0,1.1 0.9,2 2,2l2,0c1.1,0 2,-0.9 2,-2l0,-4c0,-1.1 -0.9,-2 -2,-2l-2,0l0,-1c0,-3.87 3.13,-7 7,-7c3.87,0 7,3.13 7,7l0,1l-2,0c-1.1,0 -2,0.9 -2,2l0,4c0,1.1 0.9,2 2,2l2,0l0,1l-6,0c-0.55,0 -1,0.45 -1,1c0,0.55 0.45,1 1,1l6,0c1.1,0 2,-0.9 2,-2l0,-10c0,-4.97 -4.03,-9 -9,-9Z" style="fill-rule:nonzero;"/></g></svg>