<?xml version="1.0" encoding="UTF-8" standalone="no"?><!DOCTYPE svg PUBLIC "-//W3C//DTD SVG 1.1//EN" "http://www.w3.org/Graphics/SVG/1.1/DTD/svg11.dtd"><svg width="100%" height="100%" viewBox="0 0 24 24" version="1.1" xmlns="http://www.w3.org/2000/svg" xmlns:xlink="http://www.w3.org/1999/xlink" xml:space="preserve" xmlns:serif="http://www.serif.com/" style="fill-rule:evenodd;clip-rule:evenodd;stroke-linejoin:round;stroke-miterlimit:2;"><rect id="help_circle" x="0" y="0" width="24" height="24" style="fill:none;"/><path d="M12,2c-5.52,0 -10,4.48 -10,10c0,5.52 4.48,10 10,10c5.52,0 10,-4.48 10,-10c0,-5.52 -4.48,-10 -10,-10Zm-0.15,16c-0.7,0 -1.26,-0.56 -1.26,-1.26c0,-0.71 0.56,-1.25 1.26,-1.25c0.71,0 1.25,0.54 1.25,1.25c0,0.69 -0.54,1.26 -1.25,1.26Zm3.01,-7.4c-0.76,1.11 -1.48,1.46 -1.87,2.17c-0.09,0.17 -0.15,0.31 -0.19,0.59c-0.06,0.46 -0.43,0.82 -0.9,0.82l-0.04,0c-0.53,0 -0.95,-0.45 -0.9,-0.98c0.03,-0.33 0.11,-0.68 0.3,-1c0.49,-0.87 1.42,-1.39 1.96,-2.16c0.57,-0.81 0.25,-2.33 -1.37,-2.33c-0.74,0 -1.21,0.39 -1.51,0.85c-0.22,0.34 -0.68,0.46 -1.07,0.3c-0.5,-0.21 -0.72,-0.83 -0.41,-1.29c0.61,-0.91 1.63,-1.57 2.97,-1.57c1.48,0 2.49,0.67 3.01,1.52c0.44,0.72 0.7,2.07 0.02,3.08Z" style="fill-rule:nonzero;"/></svg>