<?xml version="1.0" encoding="UTF-8" standalone="no"?><!DOCTYPE svg PUBLIC "-//W3C//DTD SVG 1.1//EN" "http://www.w3.org/Graphics/SVG/1.1/DTD/svg11.dtd"><svg width="100%" height="100%" viewBox="0 0 24 24" version="1.1" xmlns="http://www.w3.org/2000/svg" xmlns:xlink="http://www.w3.org/1999/xlink" xml:space="preserve" xmlns:serif="http://www.serif.com/" style="fill-rule:evenodd;clip-rule:evenodd;stroke-linejoin:round;stroke-miterlimit:2;"><rect id="hoa" x="0" y="0" width="24" height="24" style="fill:none;"/><g><path d="M21.864,6.677c-0,-0.374 -0.303,-0.677 -0.677,-0.677l-18.388,-0c-0.374,-0 -0.677,0.303 -0.677,0.677l0,10.646c0,0.374 0.303,0.677 0.677,0.677l18.388,-0c0.374,-0 0.677,-0.303 0.677,-0.677l-0,-10.646Zm-18.387,0.678l-0,9.29l17.032,0l0,-9.29l-17.032,-0Z"/><path d="M5.231,14.419l0,-4.849l0.979,0l0,1.909l1.919,-0l-0,-1.909l0.979,0l-0,4.849l-0.979,0l-0,-2.12l-1.919,0l0,2.12l-0.979,0Z" style="fill-rule:nonzero;"/><path d="M9.921,12.025c0,-0.494 0.074,-0.909 0.222,-1.244c0.11,-0.247 0.261,-0.469 0.452,-0.665c0.19,-0.196 0.399,-0.342 0.626,-0.437c0.302,-0.128 0.651,-0.191 1.046,-0.191c0.714,-0 1.286,0.221 1.715,0.664c0.429,0.444 0.643,1.06 0.643,1.849c-0,0.783 -0.213,1.396 -0.638,1.838c-0.426,0.442 -0.995,0.663 -1.707,0.663c-0.721,0 -1.295,-0.22 -1.72,-0.66c-0.426,-0.44 -0.639,-1.046 -0.639,-1.817Zm1.009,-0.034c0,0.55 0.127,0.966 0.381,1.249c0.253,0.283 0.575,0.425 0.966,0.425c0.39,0 0.71,-0.14 0.96,-0.422c0.251,-0.281 0.376,-0.702 0.376,-1.265c-0,-0.555 -0.122,-0.97 -0.366,-1.243c-0.243,-0.274 -0.567,-0.411 -0.97,-0.411c-0.404,0 -0.729,0.139 -0.976,0.415c-0.247,0.277 -0.371,0.695 -0.371,1.252Z" style="fill-rule:nonzero;"/><path d="M19.762,14.419l-1.065,0l-0.424,-1.101l-1.938,-0l-0.4,1.101l-1.039,0l1.889,-4.849l1.035,0l1.942,4.849Zm-1.803,-1.918l-0.668,-1.8l-0.655,1.8l1.323,-0Z" style="fill-rule:nonzero;"/><rect x="2.316" y="6.194" width="19.355" height="11.613" style="fill:none;"/></g></svg>