<?xml version="1.0" encoding="UTF-8" standalone="no"?><!DOCTYPE svg PUBLIC "-//W3C//DTD SVG 1.1//EN" "http://www.w3.org/Graphics/SVG/1.1/DTD/svg11.dtd"><svg width="100%" height="100%" viewBox="0 0 24 24" version="1.1" xmlns="http://www.w3.org/2000/svg" xmlns:xlink="http://www.w3.org/1999/xlink" xml:space="preserve" xmlns:serif="http://www.serif.com/" style="fill-rule:evenodd;clip-rule:evenodd;stroke-linejoin:round;stroke-miterlimit:2;"><rect id="home_plus" x="0" y="0" width="24" height="24" style="fill:none;"/><path d="M4.588,20.624c0,0.099 0.04,0.195 0.11,0.266c0.071,0.07 0.167,0.11 0.267,0.11c2.049,-0 11.857,-0 14.023,-0c0.112,0 0.22,-0.045 0.3,-0.124c0.079,-0.08 0.124,-0.188 0.124,-0.3c-0,-1.456 -0,-6.239 -0,-7.651c-0,-0.218 0.177,-0.396 0.396,-0.396c0.451,0 1.206,0 1.816,0c0.153,0 0.29,-0.094 0.345,-0.237c0.055,-0.143 0.016,-0.305 -0.098,-0.408c-2.118,-1.906 -8.281,-7.453 -9.614,-8.653c-0.146,-0.131 -0.368,-0.131 -0.514,-0c-1.339,1.205 -7.548,6.794 -9.641,8.677c-0.109,0.099 -0.147,0.255 -0.094,0.393c0.053,0.137 0.185,0.228 0.333,0.228l1.833,0c0.229,0 0.414,0.186 0.414,0.415c0,1.452 0,6.29 0,7.68Zm6.353,-7.565l0,-3.177c0,-0.584 0.475,-1.058 1.059,-1.058c0.584,-0 1.059,0.474 1.059,1.058l-0,3.177l3.176,-0c0.585,-0 1.059,0.474 1.059,1.059c0,0.584 -0.474,1.058 -1.059,1.058l-3.176,0l-0,3.177c-0,0.584 -0.475,1.059 -1.059,1.059c-0.584,-0 -1.059,-0.475 -1.059,-1.059l0,-3.177l-3.176,0c-0.585,0 -1.059,-0.474 -1.059,-1.058c-0,-0.585 0.474,-1.059 1.059,-1.059l3.176,-0Z" style="fill-rule:nonzero;"/></svg>