<?xml version="1.0" encoding="UTF-8" standalone="no"?><!DOCTYPE svg PUBLIC "-//W3C//DTD SVG 1.1//EN" "http://www.w3.org/Graphics/SVG/1.1/DTD/svg11.dtd"><svg width="100%" height="100%" viewBox="0 0 24 24" version="1.1" xmlns="http://www.w3.org/2000/svg" xmlns:xlink="http://www.w3.org/1999/xlink" xml:space="preserve" xmlns:serif="http://www.serif.com/" style="fill-rule:evenodd;clip-rule:evenodd;stroke-linejoin:round;stroke-miterlimit:2;"><rect id="home" x="0" y="0" width="24" height="24" style="fill:none;"/><path d="M9.47,21c0.109,0 0.214,-0.043 0.292,-0.121c0.077,-0.077 0.12,-0.182 0.12,-0.291c0,-1.158 0,-4.427 0,-5.553c0,-0.214 0.174,-0.388 0.388,-0.388c0.816,0 2.701,0 3.49,0c0.198,0 0.358,0.16 0.358,0.358c-0,1.094 -0,4.395 -0,5.572c-0,0.234 0.189,0.423 0.423,0.423c1.007,-0 3.534,-0 4.493,-0c0.209,-0 0.378,-0.169 0.378,-0.378c-0,-1.643 -0,-8.093 -0,-8.093l2.139,0c0.165,0 0.313,-0.101 0.372,-0.255c0.059,-0.154 0.017,-0.328 -0.106,-0.439c-2.152,-1.937 -8.158,-7.342 -9.534,-8.58c-0.161,-0.145 -0.405,-0.145 -0.566,-0c-1.388,1.249 -7.488,6.739 -9.59,8.631c-0.114,0.102 -0.153,0.264 -0.098,0.407c0.055,0.142 0.192,0.236 0.345,0.236c0.628,0 1.413,0 1.859,0c0.196,0 0.355,0.159 0.355,0.355c0,1.379 0,6.37 0,7.757c0,0.095 0.038,0.186 0.106,0.254c0.067,0.067 0.158,0.105 0.254,0.105c0.948,-0 3.516,-0 4.522,-0Z" style="fill-rule:nonzero;"/></svg>