<?xml version="1.0" encoding="UTF-8" standalone="no"?><!DOCTYPE svg PUBLIC "-//W3C//DTD SVG 1.1//EN" "http://www.w3.org/Graphics/SVG/1.1/DTD/svg11.dtd"><svg width="100%" height="100%" viewBox="0 0 24 25" version="1.1" xmlns="http://www.w3.org/2000/svg" xmlns:xlink="http://www.w3.org/1999/xlink" xml:space="preserve" xmlns:serif="http://www.serif.com/" style="fill-rule:evenodd;clip-rule:evenodd;stroke-linejoin:round;stroke-miterlimit:2;"><rect id="home_repair_service" x="0" y="0.398" width="24" height="24" style="fill:none;"/><g><g><path d="M16.375,15.898c-0.481,0 -0.875,-0.394 -0.875,-0.875l-7,0c0,0.481 -0.394,0.875 -0.875,0.875c-0.481,0 -0.875,-0.394 -0.875,-0.875l-3.5,0l0,2.625c0,0.963 0.787,1.75 1.75,1.75l14,0c0.962,0 1.75,-0.787 1.75,-1.75l-0,-2.625l-3.5,0c0,0.481 -0.394,0.875 -0.875,0.875Z" style="fill-rule:nonzero;"/></g><path d="M19,8.898l-2.625,0l0,-1.75c0,-0.962 -0.788,-1.75 -1.75,-1.75l-5.25,0c-0.963,0 -1.75,0.788 -1.75,1.75l-0,1.75l-2.625,0c-0.963,0 -1.75,0.788 -1.75,1.75l0,3.5l3.5,0l-0,-0.875c-0,-0.481 0.394,-0.875 0.875,-0.875c0.481,0 0.875,0.394 0.875,0.875l0,0.875l7,0l-0,-0.875c-0,-0.481 0.394,-0.875 0.875,-0.875c0.481,0 0.875,0.394 0.875,0.875l0,0.875l3.5,0l-0,-3.5c-0,-0.962 -0.788,-1.75 -1.75,-1.75Zm-4.375,0l-5.25,0l0,-1.75l5.25,0l-0,1.75Z" style="fill-rule:nonzero;"/></g></svg>