<?xml version="1.0" encoding="UTF-8" standalone="no"?><!DOCTYPE svg PUBLIC "-//W3C//DTD SVG 1.1//EN" "http://www.w3.org/Graphics/SVG/1.1/DTD/svg11.dtd"><svg width="100%" height="100%" viewBox="0 0 24 24" version="1.1" xmlns="http://www.w3.org/2000/svg" xmlns:xlink="http://www.w3.org/1999/xlink" xml:space="preserve" xmlns:serif="http://www.serif.com/" style="fill-rule:evenodd;clip-rule:evenodd;stroke-linejoin:round;stroke-miterlimit:2;"><rect id="home_work" x="0" y="0" width="24" height="24" style="fill:none;"/><g><path d="M8.411,5.861c-0.146,-0.098 -0.336,-0.098 -0.482,-0c-1.11,0.74 -5.714,3.809 -6.73,4.486c-0.124,0.083 -0.199,0.223 -0.199,0.372c0,1.36 0,8.114 0,9.866c0,0.11 0.044,0.215 0.122,0.293c0.078,0.078 0.183,0.122 0.293,0.122c0.939,0 3.216,0 4.162,0c0.112,0 0.22,-0.045 0.299,-0.124c0.079,-0.079 0.124,-0.187 0.124,-0.299c0,-1.4 0,-5.869 0,-7.2c0,-0.208 0.169,-0.377 0.377,-0.377c0.763,-0 2.479,-0 3.244,0c0.1,-0 0.197,0.04 0.268,0.111c0.071,0.071 0.111,0.168 0.111,0.268c0,1.347 0,5.886 -0,7.238c-0,0.102 0.04,0.199 0.112,0.271c0.072,0.072 0.169,0.112 0.271,0.112c0.942,-0 3.361,-0 4.267,-0c0.193,-0 0.35,-0.157 0.35,-0.35c-0,-1.678 -0,-8.873 -0,-10.192c-0,-0.13 -0.065,-0.251 -0.173,-0.323c-0.931,-0.62 -5.333,-3.553 -6.416,-4.274Z" style="fill-rule:nonzero;"/><path d="M10.437,3c-0.116,-0 -0.227,0.046 -0.309,0.128c-0.082,0.082 -0.128,0.193 -0.128,0.309c0,0.287 -0,0.649 0,0.871c0,0.126 0.063,0.244 0.169,0.314c0.482,0.321 1.831,1.218 1.831,1.218l1.73,1.16l1.27,0l0,0.85l2,1.34l0,1.427c-0,0.102 0.04,0.199 0.112,0.271c0.072,0.072 0.169,0.112 0.271,0.112c0.58,0 1.617,0 1.617,0l0,2l-1.586,0c-0.109,-0 -0.215,0.044 -0.293,0.121c-0.077,0.078 -0.121,0.184 -0.121,0.293l-0,1.22c-0,0.097 0.039,0.19 0.107,0.259c0.069,0.068 0.162,0.107 0.259,0.107l1.634,0l-0,2l-1.642,0c-0.198,0 -0.358,0.16 -0.358,0.358c-0,0.742 -0,2.448 -0,3.233c-0,0.109 0.043,0.213 0.12,0.289c0.076,0.077 0.18,0.12 0.289,0.12c1.088,-0 4.049,-0 5.161,0c0.237,-0 0.43,-0.193 0.43,-0.43c-0,-2.474 -0,-14.859 -0,-17.191c0,-0.209 -0.17,-0.379 -0.379,-0.379c-1.878,0 -10.178,-0 -12.184,-0Zm8.563,6l-2,-0l-0,-2l2,-0l-0,2Z" style="fill-rule:nonzero;"/></g></svg>