<?xml version="1.0" encoding="UTF-8" standalone="no"?><!DOCTYPE svg PUBLIC "-//W3C//DTD SVG 1.1//EN" "http://www.w3.org/Graphics/SVG/1.1/DTD/svg11.dtd"><svg width="100%" height="100%" viewBox="0 0 24 24" version="1.1" xmlns="http://www.w3.org/2000/svg" xmlns:xlink="http://www.w3.org/1999/xlink" xml:space="preserve" xmlns:serif="http://www.serif.com/" style="fill-rule:evenodd;clip-rule:evenodd;stroke-linejoin:round;stroke-miterlimit:2;"><rect id="icon_firm" x="0" y="0" width="24" height="24" style="fill:none;"/><path d="M11.756,6l-5.306,-0c-0.103,-0 -0.191,0.036 -0.264,0.109c-0.073,0.073 -0.109,0.161 -0.109,0.264l0,11.563l6.051,-0l0,-11.563c0,-0.103 -0.036,-0.191 -0.109,-0.264c-0.073,-0.073 -0.16,-0.109 -0.263,-0.109Zm-1.889,1.734c0,-0.025 0.011,-0.049 0.032,-0.07c0.022,-0.022 0.045,-0.032 0.071,-0.032l1.105,-0c0.034,-0 0.06,0.01 0.077,0.032c0.017,0.021 0.026,0.045 0.026,0.07l-0,1.105c-0,0.026 -0.009,0.05 -0.026,0.071c-0.017,0.021 -0.043,0.032 -0.077,0.032l-1.105,0c-0.026,0 -0.049,-0.011 -0.071,-0.032c-0.021,-0.021 -0.032,-0.045 -0.032,-0.071l0,-1.105Zm0,2.943c0,-0.026 0.011,-0.05 0.032,-0.071c0.022,-0.021 0.045,-0.032 0.071,-0.032l1.105,-0c0.034,-0 0.06,0.011 0.077,0.032c0.017,0.021 0.026,0.045 0.026,0.071l-0,1.105c-0,0.025 -0.009,0.049 -0.026,0.07c-0.017,0.022 -0.043,0.032 -0.077,0.032l-1.105,0c-0.026,0 -0.049,-0.01 -0.071,-0.032c-0.021,-0.021 -0.032,-0.045 -0.032,-0.07l0,-1.105Zm-1.593,4.021c0,0.026 -0.011,0.049 -0.032,0.071c-0.021,0.021 -0.045,0.032 -0.071,0.032l-1.105,-0c-0.025,-0 -0.049,-0.011 -0.07,-0.032c-0.022,-0.022 -0.032,-0.045 -0.032,-0.071l-0,-1.105c-0,-0.026 0.01,-0.049 0.032,-0.071c0.021,-0.021 0.045,-0.032 0.07,-0.032l1.105,0c0.026,0 0.05,0.011 0.071,0.032c0.021,0.022 0.032,0.045 0.032,0.071l0,1.105Zm0,-2.916c0,0.025 -0.011,0.049 -0.032,0.07c-0.021,0.022 -0.045,0.032 -0.071,0.032l-1.105,0c-0.025,0 -0.049,-0.01 -0.07,-0.032c-0.022,-0.021 -0.032,-0.045 -0.032,-0.07l-0,-1.105c-0,-0.026 0.01,-0.05 0.032,-0.071c0.021,-0.021 0.045,-0.032 0.07,-0.032l1.105,-0c0.026,-0 0.05,0.011 0.071,0.032c0.021,0.021 0.032,0.045 0.032,0.071l0,1.105Zm0,-2.943c0,0.026 -0.011,0.05 -0.032,0.071c-0.021,0.021 -0.045,0.032 -0.071,0.032l-1.105,0c-0.025,0 -0.049,-0.011 -0.07,-0.032c-0.022,-0.021 -0.032,-0.045 -0.032,-0.071l-0,-1.105c-0,-0.025 0.01,-0.049 0.032,-0.07c0.021,-0.022 0.045,-0.032 0.07,-0.032l1.105,-0c0.026,-0 0.05,0.01 0.071,0.032c0.021,0.021 0.032,0.045 0.032,0.07l0,1.105Zm2.904,5.859c-0,0.026 -0.009,0.049 -0.026,0.071c-0.017,0.021 -0.043,0.032 -0.077,0.032l-1.105,-0c-0.026,-0 -0.049,-0.011 -0.071,-0.032c-0.021,-0.022 -0.032,-0.045 -0.032,-0.071l0,-1.105c0,-0.026 0.011,-0.049 0.032,-0.071c0.022,-0.021 0.045,-0.032 0.071,-0.032l1.105,0c0.034,0 0.06,0.011 0.077,0.032c0.017,0.022 0.026,0.045 0.026,0.071l-0,1.105Zm6.372,-3.546l-4.535,0c-0.103,0 -0.191,0.036 -0.263,0.109c-0.073,0.073 -0.11,0.161 -0.11,0.264l0,6.475l1.619,-0l0,-2.904c0,-0.025 0.011,-0.049 0.032,-0.07c0.022,-0.022 0.045,-0.032 0.071,-0.032l1.824,-0c0.035,-0 0.06,0.01 0.078,0.032c0.017,0.021 0.025,0.045 0.025,0.07l0,2.904l1.632,-0l-0,-6.475c-0,-0.103 -0.036,-0.191 -0.109,-0.264c-0.073,-0.073 -0.161,-0.109 -0.264,-0.109Z" style="fill-rule:nonzero;"/></svg>