<?xml version="1.0" encoding="UTF-8" standalone="no"?><!DOCTYPE svg PUBLIC "-//W3C//DTD SVG 1.1//EN" "http://www.w3.org/Graphics/SVG/1.1/DTD/svg11.dtd"><svg width="100%" height="100%" viewBox="0 0 24 24" version="1.1" xmlns="http://www.w3.org/2000/svg" xmlns:xlink="http://www.w3.org/1999/xlink" xml:space="preserve" xmlns:serif="http://www.serif.com/" style="fill-rule:evenodd;clip-rule:evenodd;stroke-linejoin:round;stroke-miterlimit:2;"><rect id="icon_groupareas" x="0" y="0" width="24" height="24" style="fill:none;"/><path d="M12,18l-0.787,-0.775l-0.475,-0.525c-0.084,-0.1 -0.173,-0.204 -0.269,-0.312c-0.096,-0.109 -0.194,-0.225 -0.294,-0.35l-0.587,-0.775c-0.2,-0.267 -0.4,-0.546 -0.6,-0.838c-0.1,-0.133 -0.198,-0.277 -0.294,-0.431c-0.096,-0.154 -0.186,-0.311 -0.269,-0.469l-0.025,-0.037c-0.167,-0.325 -0.325,-0.663 -0.475,-1.013c-0.067,-0.192 -0.129,-0.377 -0.187,-0.556c-0.059,-0.179 -0.105,-0.352 -0.138,-0.519c-0.033,-0.175 -0.058,-0.344 -0.075,-0.506c-0.017,-0.163 -0.025,-0.319 -0.025,-0.469c0,-0.3 0.027,-0.594 0.081,-0.881c0.054,-0.288 0.136,-0.561 0.244,-0.819c0.108,-0.267 0.246,-0.519 0.413,-0.756c0.166,-0.238 0.362,-0.465 0.587,-0.681c0.208,-0.209 0.435,-0.394 0.681,-0.557c0.246,-0.162 0.502,-0.298 0.769,-0.406c0.525,-0.217 1.098,-0.325 1.719,-0.325c0.621,0 1.198,0.108 1.731,0.325c0.267,0.108 0.523,0.244 0.769,0.406c0.246,0.163 0.477,0.352 0.694,0.569c0.216,0.208 0.408,0.431 0.575,0.669c0.166,0.237 0.304,0.489 0.412,0.756c0.108,0.258 0.19,0.531 0.244,0.819c0.054,0.287 0.081,0.581 0.081,0.881c0,0.158 -0.01,0.319 -0.031,0.481c-0.021,0.163 -0.048,0.332 -0.081,0.507c-0.042,0.166 -0.092,0.339 -0.15,0.518c-0.059,0.179 -0.13,0.361 -0.213,0.544c-0.15,0.358 -0.304,0.692 -0.462,1c-0.167,0.317 -0.342,0.617 -0.525,0.9c-0.092,0.142 -0.186,0.281 -0.282,0.419c-0.096,0.137 -0.198,0.277 -0.306,0.419c-0.1,0.133 -0.204,0.27 -0.312,0.412c-0.109,0.142 -0.225,0.283 -0.35,0.425c-0.217,0.275 -0.405,0.504 -0.563,0.688c-0.175,0.2 -0.312,0.35 -0.412,0.45l-0.813,0.812Zm0.013,-10.937c-0.242,-0 -0.473,0.02 -0.694,0.062c-0.221,0.042 -0.431,0.104 -0.631,0.188c-0.2,0.075 -0.392,0.175 -0.575,0.3c-0.184,0.125 -0.359,0.27 -0.525,0.437c-0.342,0.333 -0.592,0.692 -0.75,1.075c-0.084,0.2 -0.146,0.408 -0.188,0.625c-0.042,0.217 -0.062,0.442 -0.062,0.675c-0,0.117 0.006,0.24 0.018,0.369c0.013,0.129 0.036,0.26 0.069,0.394c0.025,0.141 0.06,0.285 0.106,0.431c0.046,0.146 0.098,0.298 0.157,0.456c0.083,0.192 0.16,0.365 0.231,0.519c0.071,0.154 0.148,0.306 0.231,0.456l-0.025,-0.05c0.083,0.15 0.167,0.294 0.25,0.431c0.083,0.138 0.175,0.269 0.275,0.394l-0.012,-0.012c0.1,0.141 0.197,0.279 0.293,0.412c0.096,0.133 0.19,0.267 0.282,0.4l0.575,0.763c0.091,0.108 0.181,0.214 0.268,0.318c0.088,0.104 0.173,0.202 0.257,0.294c0.075,0.092 0.15,0.177 0.225,0.256c0.075,0.079 0.145,0.152 0.212,0.219l0.025,-0.025c0.05,-0.058 0.104,-0.119 0.163,-0.181c0.058,-0.063 0.125,-0.136 0.2,-0.219c0.158,-0.183 0.345,-0.408 0.562,-0.675c0.225,-0.267 0.433,-0.533 0.625,-0.8c0.192,-0.258 0.375,-0.521 0.55,-0.787c0.083,-0.117 0.163,-0.244 0.238,-0.382c0.075,-0.137 0.15,-0.277 0.225,-0.418c0.075,-0.142 0.15,-0.29 0.225,-0.444c0.075,-0.154 0.145,-0.315 0.212,-0.481c0.067,-0.159 0.125,-0.311 0.175,-0.457c0.05,-0.146 0.092,-0.289 0.125,-0.431c0.025,-0.133 0.046,-0.262 0.063,-0.387c0.016,-0.125 0.025,-0.246 0.025,-0.363c-0,-0.233 -0.021,-0.458 -0.063,-0.675c-0.042,-0.217 -0.104,-0.425 -0.187,-0.625c-0.075,-0.192 -0.175,-0.377 -0.3,-0.556c-0.125,-0.179 -0.275,-0.352 -0.45,-0.519c-0.334,-0.333 -0.7,-0.579 -1.1,-0.737c-0.2,-0.084 -0.409,-0.146 -0.625,-0.188c-0.217,-0.042 -0.442,-0.062 -0.675,-0.062Zm-0.9,2.275l1.975,-0.038c0.108,0 0.2,-0.037 0.275,-0.112c0.075,-0.075 0.112,-0.163 0.112,-0.263c0,-0.108 -0.037,-0.2 -0.112,-0.275c-0.075,-0.075 -0.167,-0.112 -0.275,-0.112l-1.975,0.025c-0.109,-0 -0.2,0.037 -0.275,0.112c-0.075,0.075 -0.113,0.167 -0.113,0.275c0,0.108 0.038,0.2 0.113,0.275c0.075,0.075 0.166,0.113 0.275,0.113Zm-0,1.987l1.975,-0.025c0.108,0 0.2,-0.04 0.275,-0.119c0.075,-0.079 0.112,-0.168 0.112,-0.268c0,-0.109 -0.037,-0.2 -0.112,-0.275c-0.075,-0.075 -0.167,-0.113 -0.275,-0.113l-1.975,0.025c-0.109,0 -0.2,0.038 -0.275,0.113c-0.075,0.075 -0.113,0.166 -0.113,0.275c0,0.108 0.038,0.2 0.113,0.275c0.075,0.075 0.166,0.112 0.275,0.112Zm-0,1.988l1.837,-0.025c0.108,-0 0.223,-0.038 0.344,-0.113c0.121,-0.075 0.181,-0.167 0.181,-0.275c0,-0.108 -0.037,-0.2 -0.112,-0.275c-0.075,-0.075 -0.167,-0.112 -0.275,-0.112l-1.975,0.025c-0.109,-0 -0.2,0.037 -0.275,0.112c-0.075,0.075 -0.113,0.167 -0.113,0.275c0,0.108 0.038,0.2 0.113,0.275c0.075,0.075 0.166,0.113 0.275,0.113Z" style="fill-rule:nonzero;"/></svg>