<?xml version="1.0" encoding="UTF-8" standalone="no"?><!DOCTYPE svg PUBLIC "-//W3C//DTD SVG 1.1//EN" "http://www.w3.org/Graphics/SVG/1.1/DTD/svg11.dtd"><svg width="100%" height="100%" viewBox="0 0 24 24" version="1.1" xmlns="http://www.w3.org/2000/svg" xmlns:xlink="http://www.w3.org/1999/xlink" xml:space="preserve" xmlns:serif="http://www.serif.com/" style="fill-rule:evenodd;clip-rule:evenodd;stroke-linejoin:round;stroke-miterlimit:2;"><rect id="icon_agnt_churn" x="0" y="0" width="24" height="24" style="fill:none;"/><path d="M18.549,14.994c-0.219,-0.611 -0.515,-1.167 -0.889,-1.668c-0.374,-0.501 -0.834,-0.934 -1.381,-1.299c-0.355,-0.246 -0.729,-0.433 -1.121,-0.56c-0.383,-0.128 -0.772,-0.205 -1.169,-0.233c-0.396,-0.027 -0.786,0 -1.169,0.082c-0.392,0.082 -0.77,0.219 -1.134,0.411l-4.457,-0c-0.165,-0 -0.306,0.057 -0.424,0.17c-0.119,0.114 -0.178,0.253 -0.178,0.417c-0,0.165 0.059,0.306 0.178,0.424c0.118,0.119 0.259,0.178 0.424,0.178l2.939,0c-0.201,0.219 -0.385,0.453 -0.554,0.704c-0.168,0.251 -0.321,0.513 -0.458,0.786l-0.013,0.041l-2.653,0c-0.164,0 -0.303,0.057 -0.417,0.171c-0.114,0.114 -0.171,0.258 -0.171,0.431c0,0.164 0.057,0.303 0.171,0.417c0.114,0.114 0.253,0.171 0.417,0.171l2.201,-0c-0.045,0.136 -0.086,0.289 -0.123,0.458c-0.036,0.168 -0.068,0.344 -0.095,0.526l-0.014,0.041l-2.98,0c-0.165,0 -0.306,0.059 -0.424,0.178c-0.119,0.118 -0.178,0.26 -0.178,0.424c-0,0.164 0.059,0.303 0.178,0.417c0.118,0.114 0.259,0.171 0.424,0.171l2.857,-0l-0,0.205c0.465,0.337 0.964,0.54 1.497,0.608c0.533,0.068 1.064,0.139 1.593,0.212c0.146,0.027 0.294,0.05 0.444,0.068c0.151,0.019 0.303,0.037 0.458,0.055l2.817,0c0.419,-0.055 0.838,-0.107 1.257,-0.157c0.42,-0.05 0.834,-0.116 1.244,-0.198c0.256,-0.055 0.504,-0.142 0.746,-0.26c0.241,-0.119 0.485,-0.228 0.731,-0.328l0,-0.821c-0.091,-0.373 -0.178,-0.749 -0.26,-1.128c-0.082,-0.378 -0.187,-0.749 -0.314,-1.114Zm-2.721,-9.133c0.283,0.292 0.497,0.62 0.643,0.985c0.146,0.364 0.218,0.736 0.218,1.114c0,0.378 -0.072,0.75 -0.218,1.114c-0.146,0.356 -0.36,0.679 -0.643,0.971c-0.292,0.292 -0.62,0.51 -0.984,0.656c-0.365,0.137 -0.736,0.205 -1.115,0.205c-0.378,0 -0.749,-0.068 -1.114,-0.205c-0.355,-0.146 -0.679,-0.364 -0.97,-0.656c-0.292,-0.292 -0.511,-0.615 -0.657,-0.971c-0.136,-0.364 -0.205,-0.736 -0.205,-1.114c0,-0.378 0.069,-0.75 0.205,-1.114c0.146,-0.365 0.365,-0.693 0.657,-0.985c0.291,-0.282 0.615,-0.496 0.97,-0.642c0.365,-0.146 0.736,-0.219 1.114,-0.219c0.379,0 0.75,0.073 1.115,0.219c0.364,0.146 0.692,0.36 0.984,0.642Z" style="fill-rule:nonzero;"/></svg>