<?xml version="1.0" encoding="UTF-8" standalone="no"?><!DOCTYPE svg PUBLIC "-//W3C//DTD SVG 1.1//EN" "http://www.w3.org/Graphics/SVG/1.1/DTD/svg11.dtd"><svg width="100%" height="100%" viewBox="0 0 24 24" version="1.1" xmlns="http://www.w3.org/2000/svg" xmlns:xlink="http://www.w3.org/1999/xlink" xml:space="preserve" xmlns:serif="http://www.serif.com/" style="fill-rule:evenodd;clip-rule:evenodd;stroke-linejoin:round;stroke-miterlimit:2;"><rect id="icon_magnifyglass" x="0" y="0" width="24" height="24" style="fill:none;"/><path d="M15.067,18l3.253,0l-4.067,-4.507c0.276,-0.382 0.491,-0.806 0.647,-1.273c0.156,-0.467 0.233,-0.958 0.233,-1.473c0,-0.658 -0.124,-1.271 -0.373,-1.84c-0.249,-0.578 -0.587,-1.083 -1.013,-1.514c-0.427,-0.431 -0.929,-0.771 -1.507,-1.02c-0.569,-0.249 -1.182,-0.373 -1.84,-0.373c-0.649,0 -1.262,0.124 -1.84,0.373c-0.569,0.249 -1.069,0.589 -1.5,1.02c-0.431,0.431 -0.771,0.936 -1.02,1.514c-0.24,0.569 -0.36,1.182 -0.36,1.84c0,0.657 0.12,1.275 0.36,1.853c0.249,0.578 0.589,1.08 1.02,1.507c0.431,0.426 0.931,0.764 1.5,1.013c0.578,0.249 1.191,0.373 1.84,0.373c0.373,0 0.733,-0.042 1.08,-0.126c0.347,-0.085 0.676,-0.203 0.987,-0.354l-0.027,0.014l2.627,2.973Zm-7.574,-7.253c0,-0.4 0.076,-0.778 0.227,-1.134c0.151,-0.355 0.358,-0.664 0.62,-0.926c0.262,-0.263 0.571,-0.474 0.927,-0.634c0.355,-0.151 0.733,-0.226 1.133,-0.226c0.4,-0 0.778,0.075 1.133,0.226c0.356,0.16 0.665,0.371 0.927,0.634c0.262,0.262 0.469,0.571 0.62,0.926c0.151,0.356 0.227,0.734 0.227,1.134c-0,0.409 -0.076,0.791 -0.227,1.146c-0.151,0.347 -0.358,0.654 -0.62,0.92c-0.262,0.267 -0.571,0.476 -0.927,0.627c-0.355,0.151 -0.733,0.227 -1.133,0.227c-0.4,-0 -0.778,-0.076 -1.133,-0.227c-0.356,-0.151 -0.665,-0.36 -0.927,-0.627c-0.262,-0.266 -0.469,-0.573 -0.62,-0.92c-0.151,-0.355 -0.227,-0.737 -0.227,-1.146Z" style="fill-rule:nonzero;"/></svg>