<?xml version="1.0" encoding="UTF-8" standalone="no"?><!DOCTYPE svg PUBLIC "-//W3C//DTD SVG 1.1//EN" "http://www.w3.org/Graphics/SVG/1.1/DTD/svg11.dtd"><svg width="100%" height="100%" viewBox="0 0 24 24" version="1.1" xmlns="http://www.w3.org/2000/svg" xmlns:xlink="http://www.w3.org/1999/xlink" xml:space="preserve" xmlns:serif="http://www.serif.com/" style="fill-rule:evenodd;clip-rule:evenodd;stroke-linejoin:round;stroke-miterlimit:2;"><rect id="icon_mls" x="0" y="0" width="24" height="24" style="fill:none;"/><path d="M9.611,12.019l2.556,2.777l2.537,-2.777l-2.537,-2.815l-2.556,2.815Zm3.593,0.074c-0,0.296 -0.099,0.552 -0.297,0.768c-0.197,0.216 -0.432,0.324 -0.703,0.324c-0.272,0 -0.506,-0.108 -0.704,-0.324c-0.198,-0.216 -0.296,-0.472 -0.296,-0.768c-0,-0.309 0.098,-0.571 0.296,-0.787c0.198,-0.216 0.432,-0.325 0.704,-0.325c0.271,0 0.506,0.109 0.703,0.325c0.198,0.216 0.297,0.478 0.297,0.787Zm6.24,-4l0,-2.778l-2.37,0.037c-0.691,0.049 -1.228,0.204 -1.611,0.463c-0.383,0.259 -0.574,0.389 -0.574,0.389l-2.445,2.685l2.834,3.13l-2.834,3.092l2.834,3.093c-0,-0 0.114,0.08 0.342,0.24c0.229,0.161 0.559,0.241 0.991,0.241l2.815,0l-0,-2.074c-0,0 -0.012,-0.305 -0.037,-0.917c-0.025,-0.611 -0.229,-1.071 -0.611,-1.379l-2.074,-2.296l1.87,-2.093c0.333,-0.259 0.562,-0.63 0.685,-1.111c0.124,-0.482 0.185,-0.722 0.185,-0.722Zm-11.777,10.907l-3.093,-0l0,-2.389c-0.012,-0.086 0.006,-0.444 0.056,-1.074c0.049,-0.63 0.277,-1.117 0.685,-1.463l1.87,-2.055l-1.648,-1.852c-0.37,-0.297 -0.627,-0.701 -0.768,-1.213c-0.142,-0.513 -0.213,-0.781 -0.213,-0.806l-0,-3.148l2.685,0.037c0.728,0.062 1.296,0.228 1.703,0.5c0.408,0.272 0.618,0.414 0.63,0.426l0.019,0.018l2.37,2.612l-0.389,0.444l-2.37,-2.593c-0.037,-0.037 -0.232,-0.163 -0.584,-0.379c-0.351,-0.216 -0.824,-0.355 -1.416,-0.417l-2.093,-0.018l0,2.426c0.037,0.185 0.117,0.456 0.241,0.814c0.123,0.358 0.302,0.63 0.537,0.815l0.018,0l2.074,2.334l-2.314,2.537c-0.26,0.209 -0.417,0.546 -0.473,1.009c-0.055,0.463 -0.077,0.799 -0.064,1.009l-0,1.796l2.537,0c0.37,0 0.651,-0.064 0.842,-0.194c0.192,-0.13 0.293,-0.195 0.306,-0.195l2.815,-3.092l0.407,0.444l-2.833,3.093c-0.013,0.012 -0.148,0.111 -0.408,0.296c-0.259,0.185 -0.636,0.278 -1.129,0.278Z" style="fill-rule:nonzero;"/></svg>