<?xml version="1.0" encoding="UTF-8" standalone="no"?><!DOCTYPE svg PUBLIC "-//W3C//DTD SVG 1.1//EN" "http://www.w3.org/Graphics/SVG/1.1/DTD/svg11.dtd"><svg width="100%" height="100%" viewBox="0 0 24 24" version="1.1" xmlns="http://www.w3.org/2000/svg" xmlns:xlink="http://www.w3.org/1999/xlink" xml:space="preserve" xmlns:serif="http://www.serif.com/" style="fill-rule:evenodd;clip-rule:evenodd;stroke-linejoin:round;stroke-miterlimit:2;"><rect id="icon_officegroup" x="0" y="0" width="24" height="24" style="fill:none;"/><path d="M12.547,14.219l-2.406,0.047c-0.146,-0 -0.271,0.052 -0.375,0.156c-0.105,0.104 -0.157,0.229 -0.157,0.375c0,0.156 0.052,0.286 0.157,0.39c0.104,0.105 0.229,0.157 0.375,0.157l2.406,-0.047c0.146,-0 0.271,-0.052 0.375,-0.156c0.104,-0.105 0.156,-0.23 0.156,-0.375c0,-0.157 -0.052,-0.287 -0.156,-0.391c-0.104,-0.104 -0.229,-0.156 -0.375,-0.156Zm1.312,-2.766l-3.718,0c-0.146,0 -0.271,0.052 -0.375,0.156c-0.105,0.105 -0.157,0.23 -0.157,0.375c0,0.157 0.052,0.287 0.157,0.391c0.104,0.104 0.229,0.156 0.375,0.156l3.718,0c0.146,0 0.271,-0.052 0.375,-0.156c0.105,-0.104 0.157,-0.234 0.157,-0.391c-0,-0.145 -0.052,-0.27 -0.157,-0.375c-0.104,-0.104 -0.229,-0.156 -0.375,-0.156Zm-0.656,-2.797l-3.062,0c-0.146,0 -0.271,0.052 -0.375,0.157c-0.105,0.104 -0.157,0.234 -0.157,0.39c0,0.146 0.052,0.271 0.157,0.375c0.104,0.104 0.229,0.156 0.375,0.156l3.062,0c0.156,0 0.287,-0.052 0.391,-0.156c0.104,-0.104 0.156,-0.229 0.156,-0.375c-0,-0.156 -0.052,-0.286 -0.156,-0.39c-0.104,-0.105 -0.235,-0.157 -0.391,-0.157Zm4.766,10.344l-11.938,0l0,-14l11.938,0l-0,14Zm-10.563,-1.375l9.188,0l-0,-11.25l-9.188,0l0,11.25Z" style="fill-rule:nonzero;"/></svg>