<?xml version="1.0" encoding="UTF-8" standalone="no"?><!DOCTYPE svg PUBLIC "-//W3C//DTD SVG 1.1//EN" "http://www.w3.org/Graphics/SVG/1.1/DTD/svg11.dtd"><svg width="100%" height="100%" viewBox="0 0 24 24" version="1.1" xmlns="http://www.w3.org/2000/svg" xmlns:xlink="http://www.w3.org/1999/xlink" xml:space="preserve" xmlns:serif="http://www.serif.com/" style="fill-rule:evenodd;clip-rule:evenodd;stroke-linejoin:round;stroke-miterlimit:2;"><rect id="icon_closeactivity" x="0" y="0" width="24" height="24" style="fill:none;"/><path d="M18.311,11.209c-0.493,-0.434 -0.985,-0.867 -1.477,-1.301c-0.504,-0.445 -1.002,-0.885 -1.494,-1.318c-0.492,-0.434 -0.985,-0.873 -1.477,-1.319c-0.492,-0.433 -0.984,-0.873 -1.476,-1.318c-0.153,-0.14 -0.282,-0.211 -0.387,-0.211c-0.105,0 -0.234,0.071 -0.387,0.211c-0.351,0.317 -0.703,0.633 -1.054,0.949c-0.352,0.317 -0.704,0.63 -1.055,0.941c-0.352,0.31 -0.703,0.624 -1.055,0.94c-0.363,0.317 -0.72,0.627 -1.072,0.932c-0.34,0.293 -0.68,0.583 -1.02,0.87c-0.339,0.287 -0.685,0.571 -1.037,0.853l0,0.123c0.118,0.117 0.229,0.237 0.334,0.36c0.106,0.123 0.217,0.255 0.334,0.395c0.516,-0.457 1.026,-0.908 1.53,-1.353c0.503,-0.434 1.004,-0.873 1.503,-1.318c0.498,-0.446 0.993,-0.885 1.485,-1.319c0.504,-0.445 1.002,-0.885 1.494,-1.318c0.504,0.433 1.002,0.873 1.494,1.318c0.492,0.434 0.987,0.87 1.485,1.31c0.499,0.439 1,0.882 1.503,1.327c0.504,0.445 1.008,0.891 1.512,1.336l0.686,-0.738l-0,-0.123c-0.071,-0.036 -0.135,-0.071 -0.194,-0.106c-0.058,-0.035 -0.117,-0.076 -0.175,-0.123Zm-1.952,0.58c-0.492,-0.445 -0.984,-0.888 -1.476,-1.327c-0.492,-0.44 -0.99,-0.876 -1.494,-1.31c-0.223,-0.199 -0.451,-0.401 -0.686,-0.606c-0.234,-0.205 -0.469,-0.413 -0.703,-0.624c-0.375,0.328 -0.744,0.656 -1.107,0.984c-0.375,0.328 -0.747,0.654 -1.117,0.976c-0.369,0.322 -0.735,0.647 -1.098,0.975c-0.364,0.329 -0.727,0.651 -1.09,0.967c-0.059,0.059 -0.114,0.135 -0.167,0.229c-0.053,0.093 -0.079,0.187 -0.079,0.281c-0.012,0.902 -0.018,1.808 -0.018,2.716c0,0.908 0.006,1.819 0.018,2.733c-0,0.082 0.047,0.176 0.14,0.281c0.094,0.106 0.176,0.159 0.247,0.159c0.445,0.023 0.896,0.032 1.353,0.026c0.457,-0.006 0.932,-0.009 1.424,-0.009c-0,-0.398 0.003,-0.785 0.009,-1.16c0.006,-0.375 0.003,-0.744 -0.009,-1.107c-0.012,-0.223 0.026,-0.384 0.114,-0.484c0.088,-0.099 0.243,-0.143 0.466,-0.132c0.305,0.012 0.603,0.018 0.896,0.018c0.293,0 0.586,-0.006 0.879,-0.018c0.235,-0.011 0.402,0.027 0.501,0.115c0.1,0.088 0.144,0.255 0.132,0.501c-0.012,0.375 -0.015,0.747 -0.009,1.116c0.006,0.369 0.009,0.753 0.009,1.151l1.318,0c0.434,0 0.868,0.006 1.301,0.018c0.211,-0 0.358,-0.047 0.44,-0.141c0.082,-0.094 0.123,-0.246 0.123,-0.457c-0.012,-0.867 -0.015,-1.737 -0.009,-2.61c0.006,-0.873 0.003,-1.743 -0.009,-2.611c0,-0.117 -0.029,-0.237 -0.088,-0.36c-0.058,-0.123 -0.129,-0.22 -0.211,-0.29Zm-7.435,-5.273l-1.547,-0l-0,2.39c0.199,-0.187 0.39,-0.366 0.571,-0.536c0.182,-0.17 0.372,-0.325 0.572,-0.466c0.257,-0.187 0.404,-0.398 0.439,-0.633c0.035,-0.234 0.023,-0.486 -0.035,-0.755Z" style="fill-rule:nonzero;"/></svg>