<?xml version="1.0" encoding="UTF-8" standalone="no"?><!DOCTYPE svg PUBLIC "-//W3C//DTD SVG 1.1//EN" "http://www.w3.org/Graphics/SVG/1.1/DTD/svg11.dtd"><svg width="100%" height="100%" viewBox="0 0 24 24" version="1.1" xmlns="http://www.w3.org/2000/svg" xmlns:xlink="http://www.w3.org/1999/xlink" xml:space="preserve" xmlns:serif="http://www.serif.com/" style="fill-rule:evenodd;clip-rule:evenodd;stroke-linejoin:round;stroke-miterlimit:2;"><rect id="icon_download" x="0" y="0" width="24" height="24" style="fill:none;"/><path d="M19.983,14.328c-0.311,0.701 -0.612,1.39 -0.905,2.069c-0.294,0.678 -0.589,1.35 -0.888,2.017c-0.092,0.23 -0.187,0.457 -0.285,0.681c-0.098,0.224 -0.198,0.445 -0.302,0.664c-0.034,0.046 -0.08,0.094 -0.137,0.146c-0.058,0.052 -0.115,0.078 -0.173,0.078c-1.046,0.011 -2.098,0.017 -3.155,0.017l-9.5,-0l0.069,-0.276c0.345,-0.85 0.687,-1.704 1.026,-2.56c0.339,-0.857 0.675,-1.71 1.008,-2.561c0.046,-0.103 0.101,-0.181 0.164,-0.232c0.063,-0.052 0.158,-0.078 0.285,-0.078c4.161,0.012 8.321,0.017 12.482,0.017l0.138,0c0.046,0 0.104,0.006 0.173,0.018Zm-2.862,-0.638l-9.914,-0c-0.333,-0 -0.552,0.037 -0.655,0.112c-0.104,0.074 -0.213,0.267 -0.328,0.577c-0.184,0.437 -0.362,0.88 -0.534,1.328c-0.184,0.437 -0.365,0.879 -0.543,1.327c-0.179,0.449 -0.36,0.903 -0.544,1.363c-0.183,0.459 -0.367,0.925 -0.551,1.396c-0.012,-0.103 -0.02,-0.184 -0.026,-0.241c-0.006,-0.058 -0.009,-0.109 -0.009,-0.155l0,-14.328c0,-0.414 0.075,-0.695 0.224,-0.845c0.15,-0.149 0.431,-0.224 0.845,-0.224l1.302,-0c0.431,-0 0.865,0.006 1.302,0.017c0.103,0 0.201,0.017 0.293,0.052c0.092,0.034 0.178,0.075 0.258,0.121c0.299,0.218 0.598,0.439 0.897,0.663c0.299,0.225 0.592,0.452 0.879,0.681c0.058,0.046 0.112,0.104 0.164,0.173c0.052,0.069 0.083,0.132 0.095,0.19c0.011,0.344 0.014,0.686 0.008,1.025c-0.005,0.339 -0.008,0.693 -0.008,1.061l-2.862,-0l4.034,4.603l4,-4.586l-2.81,-0l-0,-2.259l4.483,0l-0,7.949Z" style="fill-rule:nonzero;"/></svg>