<?xml version="1.0" encoding="UTF-8" standalone="no"?><!DOCTYPE svg PUBLIC "-//W3C//DTD SVG 1.1//EN" "http://www.w3.org/Graphics/SVG/1.1/DTD/svg11.dtd"><svg width="100%" height="100%" viewBox="0 0 24 24" version="1.1" xmlns="http://www.w3.org/2000/svg" xmlns:xlink="http://www.w3.org/1999/xlink" xml:space="preserve" xmlns:serif="http://www.serif.com/" style="fill-rule:evenodd;clip-rule:evenodd;stroke-linejoin:round;stroke-miterlimit:2;"><rect id="icon_mvb_warning" x="0" y="0" width="24" height="24" style="fill:none;"/><path d="M18.416,16.813c-0.014,-0.057 -0.031,-0.11 -0.053,-0.159c-0.021,-0.05 -0.046,-0.096 -0.074,-0.138l0,0.021c-0.593,-1.088 -1.187,-2.177 -1.781,-3.265c-1.229,-2.247 -2.459,-4.502 -3.689,-6.763c-0.085,-0.156 -0.194,-0.279 -0.328,-0.371c-0.135,-0.092 -0.301,-0.138 -0.499,-0.138c-0.183,-0 -0.342,0.046 -0.477,0.138c-0.134,0.092 -0.244,0.215 -0.328,0.371c-0.566,1.032 -1.124,2.056 -1.675,3.074c-1.004,1.823 -2,3.647 -2.99,5.47c-0.155,0.283 -0.307,0.562 -0.455,0.837c-0.149,0.276 -0.301,0.548 -0.456,0.817c-0.057,0.127 -0.085,0.254 -0.085,0.381c-0,0.128 0.035,0.255 0.106,0.382c0.085,0.184 0.205,0.318 0.36,0.403c0.156,0.085 0.332,0.127 0.53,0.127l11.174,-0l-0.022,-0c0.283,-0.042 0.502,-0.187 0.658,-0.435c0.155,-0.247 0.183,-0.498 0.084,-0.752Zm-7.335,-6.827c-0,-0.099 0.024,-0.173 0.074,-0.223c0.049,-0.049 0.124,-0.074 0.223,-0.074l1.25,0c0.099,0 0.174,0.025 0.223,0.074c0.049,0.05 0.074,0.117 0.074,0.202l0,1.293c0,0.099 -0.021,0.17 -0.063,0.212c-0.043,0.042 -0.121,0.064 -0.234,0.064l-1.272,-0c-0.099,-0 -0.169,-0.022 -0.212,-0.064c-0.042,-0.042 -0.063,-0.113 -0.063,-0.212l-0,-1.272Zm1.675,6.169l-1.506,0c-0.099,0 -0.173,-0.024 -0.222,-0.074c-0.05,-0.049 -0.067,-0.123 -0.053,-0.222c-0,-0.255 0.007,-0.513 0.021,-0.774c0.014,-0.262 0.028,-0.527 0.042,-0.795c0.014,-0.537 0.029,-1.074 0.043,-1.612c0.014,-0.056 0.035,-0.102 0.063,-0.137c0.029,-0.036 0.071,-0.06 0.127,-0.075l1.432,0c0.021,0 0.038,0.007 0.053,0.022c0.056,-0 0.099,0.017 0.127,0.053c0.028,0.035 0.042,0.081 0.042,0.137c0.014,0.523 0.032,1.05 0.053,1.58c0.021,0.53 0.039,1.064 0.053,1.601c0.014,0.099 -0.003,0.173 -0.053,0.222c-0.049,0.05 -0.123,0.074 -0.222,0.074Z" style="fill-rule:nonzero;"/></svg>