<?xml version="1.0" encoding="UTF-8" standalone="no"?><!DOCTYPE svg PUBLIC "-//W3C//DTD SVG 1.1//EN" "http://www.w3.org/Graphics/SVG/1.1/DTD/svg11.dtd"><svg width="100%" height="100%" viewBox="0 0 24 24" version="1.1" xmlns="http://www.w3.org/2000/svg" xmlns:xlink="http://www.w3.org/1999/xlink" xml:space="preserve" xmlns:serif="http://www.serif.com/" style="fill-rule:evenodd;clip-rule:evenodd;stroke-linejoin:round;stroke-miterlimit:2;"><rect id="icon_starfilled" x="0" y="0" width="24" height="24" style="fill:none;"/><path d="M18.459,10.548c-0.026,-0.077 -0.07,-0.14 -0.134,-0.191c-0.064,-0.051 -0.134,-0.085 -0.21,-0.102l-3.962,-0.548l-1.771,-3.478c-0.034,-0.068 -0.085,-0.123 -0.153,-0.165c-0.068,-0.043 -0.144,-0.064 -0.229,-0.064c-0.085,0 -0.161,0.021 -0.229,0.064c-0.068,0.042 -0.119,0.097 -0.153,0.165l-1.771,3.478l-3.962,0.548c-0.102,0.017 -0.186,0.066 -0.254,0.146c-0.068,0.081 -0.102,0.176 -0.102,0.287c-0,0.059 0.01,0.115 0.032,0.166c0.021,0.05 0.053,0.097 0.095,0.14l2.854,2.7l-0.676,3.809l0,0.077c0,0.119 0.043,0.218 0.128,0.299c0.085,0.081 0.187,0.121 0.306,0.121c0.033,-0 0.065,-0.004 0.095,-0.013c0.03,-0.008 0.062,-0.017 0.096,-0.025l3.541,-1.809l3.541,1.809c0.034,0.008 0.066,0.017 0.096,0.025c0.03,0.009 0.062,0.013 0.095,0.013c0.119,-0 0.221,-0.04 0.306,-0.121c0.085,-0.081 0.128,-0.18 0.128,-0.299l-0,-0.045c-0,-0.013 -0.005,-0.023 -0.013,-0.032l0.013,0l-0.676,-3.809l2.854,-2.7c0.042,-0.043 0.074,-0.09 0.095,-0.14c0.022,-0.051 0.032,-0.107 0.032,-0.166l0,-0.07c0,-0.021 -0.004,-0.045 -0.012,-0.07Z" style="fill-rule:nonzero;"/></svg>