<?xml version="1.0" encoding="UTF-8" standalone="no"?><!DOCTYPE svg PUBLIC "-//W3C//DTD SVG 1.1//EN" "http://www.w3.org/Graphics/SVG/1.1/DTD/svg11.dtd"><svg width="100%" height="100%" viewBox="0 0 24 24" version="1.1" xmlns="http://www.w3.org/2000/svg" xmlns:xlink="http://www.w3.org/1999/xlink" xml:space="preserve" xmlns:serif="http://www.serif.com/" style="fill-rule:evenodd;clip-rule:evenodd;stroke-linejoin:round;stroke-miterlimit:2;"><rect id="icon_datapoints" x="0" y="0" width="24" height="24" style="fill:none;"/><path d="M5.225,16.553c-0,0.642 0.228,1.194 0.684,1.656c0.456,0.462 1.005,0.693 1.647,0.693c0.654,-0 1.209,-0.231 1.665,-0.693c0.456,-0.462 0.684,-1.014 0.684,-1.656l-0,-0.093c-0,-0.028 -0.006,-0.059 -0.017,-0.093l1.554,-0.743c0.214,0.214 0.465,0.386 0.752,0.515c0.288,0.13 0.6,0.195 0.938,0.195c0.642,-0 1.194,-0.228 1.656,-0.685c0.462,-0.456 0.692,-1.01 0.692,-1.664c0,-0.462 -0.123,-0.878 -0.371,-1.25c-0.248,-0.372 -0.563,-0.653 -0.946,-0.845l0.236,-2.129c0.53,-0.112 0.969,-0.38 1.318,-0.802c0.349,-0.423 0.524,-0.915 0.524,-1.479c-0,-0.653 -0.228,-1.208 -0.685,-1.664c-0.456,-0.456 -1.01,-0.684 -1.664,-0.684c-0.642,-0 -1.194,0.228 -1.655,0.684c-0.462,0.456 -0.693,1.011 -0.693,1.664c-0,0.496 0.141,0.941 0.422,1.335c0.282,0.394 0.637,0.676 1.065,0.845l-0.22,2.011c-0.574,0.078 -1.056,0.337 -1.445,0.777c-0.388,0.439 -0.582,0.952 -0.582,1.537c-0,0.079 0.002,0.155 0.008,0.228c0.006,0.074 0.014,0.144 0.025,0.211l0,-0.016l-1.419,0.692c-0.214,-0.27 -0.481,-0.487 -0.802,-0.65c-0.321,-0.163 -0.668,-0.245 -1.04,-0.245c-0.642,-0 -1.191,0.231 -1.647,0.693c-0.456,0.461 -0.684,1.013 -0.684,1.655Zm7.502,-9.073c-0,-0.326 0.112,-0.602 0.337,-0.827c0.226,-0.226 0.502,-0.338 0.828,-0.338c0.327,-0 0.603,0.112 0.828,0.338c0.225,0.225 0.338,0.501 0.338,0.827c0,0.327 -0.113,0.603 -0.338,0.828c-0.225,0.226 -0.501,0.338 -0.828,0.338c-0.326,0 -0.602,-0.112 -0.828,-0.338c-0.225,-0.225 -0.337,-0.501 -0.337,-0.828Zm-5.171,7.908c0.327,-0 0.606,0.112 0.837,0.337c0.231,0.226 0.346,0.502 0.346,0.828c0,0.327 -0.115,0.603 -0.346,0.828c-0.231,0.225 -0.51,0.338 -0.837,0.338c-0.315,0 -0.588,-0.113 -0.819,-0.338c-0.231,-0.225 -0.346,-0.501 -0.346,-0.828c-0,-0.326 0.115,-0.602 0.346,-0.828c0.231,-0.225 0.504,-0.337 0.819,-0.337Zm12.199,2.939c-0.101,-0.09 -0.211,-0.157 -0.329,-0.202c-0.119,-0.045 -0.257,-0.068 -0.414,-0.068l-9.31,0c-0.236,0.349 -0.549,0.631 -0.937,0.845c-0.389,0.214 -0.809,0.321 -1.259,0.321c-0.732,-0 -1.357,-0.262 -1.876,-0.786c-0.518,-0.524 -0.777,-1.152 -0.777,-1.884c0,-0.45 0.102,-0.864 0.304,-1.241c0.203,-0.378 0.473,-0.685 0.811,-0.921l0,-9.377c0,-0.147 -0.022,-0.279 -0.067,-0.397c-0.045,-0.119 -0.113,-0.228 -0.203,-0.33c-0.101,-0.09 -0.211,-0.16 -0.329,-0.211c-0.119,-0.051 -0.245,-0.076 -0.381,-0.076c-0.157,-0 -0.295,0.023 -0.414,0.068c-0.118,0.045 -0.228,0.112 -0.329,0.202c-0.09,0.102 -0.161,0.214 -0.211,0.338c-0.051,0.124 -0.076,0.259 -0.076,0.406l-0,14.986l15.054,-0c0.146,-0 0.278,-0.023 0.397,-0.068c0.118,-0.045 0.228,-0.118 0.329,-0.219c0.101,-0.09 0.178,-0.195 0.228,-0.313c0.051,-0.118 0.076,-0.245 0.076,-0.38c0,-0.146 -0.025,-0.276 -0.076,-0.389c-0.05,-0.112 -0.121,-0.214 -0.211,-0.304Z" style="fill-rule:nonzero;"/></svg>