<?xml version="1.0" encoding="UTF-8" standalone="no"?><!DOCTYPE svg PUBLIC "-//W3C//DTD SVG 1.1//EN" "http://www.w3.org/Graphics/SVG/1.1/DTD/svg11.dtd"><svg width="100%" height="100%" viewBox="0 0 24 24" version="1.1" xmlns="http://www.w3.org/2000/svg" xmlns:xlink="http://www.w3.org/1999/xlink" xml:space="preserve" xmlns:serif="http://www.serif.com/" style="fill-rule:evenodd;clip-rule:evenodd;stroke-linejoin:round;stroke-miterlimit:2;"><rect id="icon_searchpresets" x="0" y="0" width="24" height="24" style="fill:none;"/><path d="M10.108,12.237l-0.946,0.161c-0.208,-0.423 -0.436,-0.661 -0.685,-0.715c-0.249,-0.054 -0.523,0.072 -0.821,0.379l-0.772,-0.535c0.166,-0.432 0.178,-0.761 0.037,-0.99c-0.141,-0.228 -0.431,-0.334 -0.871,-0.317c-0.025,-0.141 -0.05,-0.284 -0.075,-0.43c-0.025,-0.145 -0.046,-0.292 -0.062,-0.441c-0,-0.017 0.008,-0.038 0.025,-0.063c0.016,-0.025 0.037,-0.041 0.062,-0.049c0.373,-0.158 0.583,-0.372 0.629,-0.642c0.045,-0.269 -0.09,-0.545 -0.405,-0.827l0.573,-0.797c0.157,0.116 0.315,0.185 0.473,0.205c0.157,0.021 0.315,-0.018 0.473,-0.118c0.157,-0.091 0.261,-0.214 0.311,-0.367c0.05,-0.154 0.058,-0.33 0.025,-0.529l0.958,-0.162c0.166,0.432 0.38,0.678 0.641,0.741c0.262,0.062 0.554,-0.065 0.878,-0.38l0.772,0.548c-0.224,0.357 -0.247,0.674 -0.069,0.952c0.179,0.278 0.471,0.396 0.878,0.355l0.162,0.946c-0.39,0.091 -0.629,0.294 -0.716,0.61c-0.087,0.315 0.031,0.61 0.355,0.884l-0.548,0.771c-0.398,-0.232 -0.728,-0.238 -0.99,-0.018c-0.261,0.22 -0.359,0.496 -0.292,0.828Zm-2.303,-2.229c0.224,0.357 0.539,0.583 0.946,0.679c0.407,0.095 0.784,0.031 1.133,-0.193c0.357,-0.224 0.583,-0.54 0.678,-0.946c0.096,-0.407 0.031,-0.789 -0.193,-1.146c-0.224,-0.356 -0.537,-0.582 -0.94,-0.678c-0.402,-0.095 -0.782,-0.031 -1.139,0.193c-0.215,0.133 -0.39,0.313 -0.522,0.542c-0.133,0.228 -0.2,0.475 -0.2,0.74c0,0.15 0.021,0.293 0.063,0.43c0.041,0.137 0.099,0.263 0.174,0.379Zm10.282,7.992l-2.128,-4.456c0.323,-0.258 0.605,-0.559 0.846,-0.903c0.241,-0.344 0.423,-0.72 0.548,-1.126l-0,-0.025c0.166,-0.548 0.215,-1.092 0.149,-1.631c-0.058,-0.539 -0.212,-1.039 -0.461,-1.5c-0.248,-0.461 -0.58,-0.865 -0.995,-1.214c-0.415,-0.34 -0.892,-0.593 -1.432,-0.759c-0.174,-0.05 -0.359,-0.089 -0.554,-0.118c-0.195,-0.029 -0.396,-0.044 -0.604,-0.044c-0.24,0 -0.473,0.019 -0.697,0.056c-0.224,0.037 -0.439,0.093 -0.647,0.168l0.025,-0.012l0.772,1.419c0.074,-0.017 0.159,-0.031 0.255,-0.044c0.095,-0.012 0.189,-0.018 0.28,-0.018c0.133,-0 0.259,0.01 0.38,0.031c0.12,0.02 0.238,0.047 0.354,0.081l-0.024,-0c0.34,0.099 0.634,0.253 0.883,0.46c0.258,0.216 0.463,0.467 0.617,0.753c0.153,0.287 0.251,0.596 0.292,0.928c0.033,0.323 0,0.655 -0.1,0.995c-0.099,0.332 -0.253,0.627 -0.46,0.884c-0.216,0.258 -0.465,0.463 -0.747,0.616c-0.282,0.154 -0.589,0.252 -0.921,0.293c-0.332,0.042 -0.664,0.012 -0.996,-0.087c-0.174,-0.05 -0.334,-0.116 -0.479,-0.199c-0.145,-0.083 -0.28,-0.175 -0.405,-0.274l-1.444,0.784c0.374,0.423 0.822,0.757 1.345,1.002c0.522,0.245 1.083,0.367 1.68,0.367c0.116,0 0.232,-0.006 0.349,-0.018c0.116,-0.013 0.228,-0.027 0.336,-0.044l-0.025,0l1.68,3.635l2.328,-0Z" style="fill-rule:nonzero;"/></svg>