<?xml version="1.0" encoding="UTF-8" standalone="no"?><!DOCTYPE svg PUBLIC "-//W3C//DTD SVG 1.1//EN" "http://www.w3.org/Graphics/SVG/1.1/DTD/svg11.dtd"><svg width="100%" height="100%" viewBox="0 0 24 24" version="1.1" xmlns="http://www.w3.org/2000/svg" xmlns:xlink="http://www.w3.org/1999/xlink" xml:space="preserve" xmlns:serif="http://www.serif.com/" style="fill-rule:evenodd;clip-rule:evenodd;stroke-linejoin:round;stroke-miterlimit:2;"><rect id="icon_startoutline" x="0" y="0" width="24" height="24" style="fill:none;"/><path d="M15.732,18c-0.033,-0 -0.065,-0.004 -0.095,-0.013c-0.03,-0.008 -0.062,-0.017 -0.096,-0.025l-3.541,-1.809l-3.541,1.809c-0.034,0.008 -0.066,0.017 -0.096,0.025c-0.03,0.009 -0.062,0.013 -0.095,0.013c-0.119,-0 -0.221,-0.04 -0.306,-0.121c-0.085,-0.081 -0.128,-0.18 -0.128,-0.299l0,-0.045c0,-0.013 0.005,-0.023 0.013,-0.032l-0.013,0l0.676,-3.809l-2.854,-2.7c-0.042,-0.043 -0.074,-0.09 -0.095,-0.14c-0.022,-0.051 -0.032,-0.107 -0.032,-0.166c-0,-0.111 0.034,-0.206 0.102,-0.287c0.068,-0.08 0.152,-0.129 0.254,-0.146l3.962,-0.548l1.771,-3.478c0.034,-0.068 0.085,-0.123 0.153,-0.165c0.068,-0.043 0.144,-0.064 0.229,-0.064c0.085,-0 0.161,0.021 0.229,0.064c0.068,0.042 0.119,0.097 0.153,0.165l1.771,3.478l3.962,0.548c0.102,0.017 0.186,0.066 0.254,0.146c0.068,0.081 0.102,0.176 0.102,0.287c0,0.059 -0.01,0.115 -0.032,0.166c-0.021,0.05 -0.053,0.097 -0.095,0.14l-2.854,2.7l0.676,3.809l-0,0.077c-0,0.119 -0.043,0.218 -0.128,0.299c-0.085,0.081 -0.187,0.121 -0.306,0.121Zm-3.732,-2.752c0.034,0 0.068,0.005 0.102,0.013c0.034,0.009 0.064,0.017 0.089,0.026l2.981,1.516l-0.573,-3.185l-0,-0.077c-0,-0.059 0.012,-0.116 0.038,-0.172c0.025,-0.055 0.055,-0.099 0.089,-0.133l2.382,-2.255l-3.299,-0.459c-0.068,-0.017 -0.13,-0.044 -0.185,-0.083c-0.055,-0.038 -0.1,-0.087 -0.134,-0.146l-1.49,-2.93l-1.49,2.93c-0.034,0.059 -0.079,0.108 -0.134,0.146c-0.055,0.039 -0.117,0.066 -0.185,0.083l-3.299,0.459l2.382,2.255c0.034,0.034 0.064,0.078 0.089,0.133c0.026,0.056 0.038,0.113 0.038,0.172l0,0.077l-0.573,3.185l2.981,-1.516c0.025,-0.009 0.055,-0.017 0.089,-0.026c0.034,-0.008 0.068,-0.013 0.102,-0.013Z" style="fill-rule:nonzero;"/></svg>