<?xml version="1.0" encoding="UTF-8" standalone="no"?><!DOCTYPE svg PUBLIC "-//W3C//DTD SVG 1.1//EN" "http://www.w3.org/Graphics/SVG/1.1/DTD/svg11.dtd"><svg width="100%" height="100%" viewBox="0 0 24 24" version="1.1" xmlns="http://www.w3.org/2000/svg" xmlns:xlink="http://www.w3.org/1999/xlink" xml:space="preserve" xmlns:serif="http://www.serif.com/" style="fill-rule:evenodd;clip-rule:evenodd;stroke-linejoin:round;stroke-miterlimit:2;"><rect id="icon_account" x="0" y="0" width="24" height="24" style="fill:none;"/><path d="M18.053,17.985c-0.029,-0.175 -0.037,-0.325 -0.022,-0.449c0.015,-0.124 0.117,-0.23 0.307,-0.318c0.088,-0.044 0.165,-0.139 0.23,-0.285c0.066,-0.147 0.084,-0.271 0.055,-0.373c-0.014,-0.102 -0.077,-0.212 -0.186,-0.329c-0.11,-0.117 -0.216,-0.183 -0.318,-0.197c-0.117,-0.015 -0.241,-0.026 -0.373,-0.033c-0.132,-0.008 -0.271,-0.011 -0.417,-0.011c-0.131,-0 -0.263,0.003 -0.394,0.011c-0.132,0.007 -0.264,0.018 -0.395,0.033l0.022,-0c-0.103,0.014 -0.209,0.076 -0.318,0.186c-0.11,0.11 -0.172,0.216 -0.187,0.318c-0.029,0.102 -0.014,0.223 0.044,0.362c0.059,0.139 0.132,0.245 0.219,0.318c0.161,0.146 0.26,0.245 0.297,0.296c0.036,0.051 0.04,0.201 0.01,0.449l-8.575,0l0,-0.57c0.03,-0.029 0.066,-0.051 0.11,-0.066c0.044,-0.014 0.08,-0.036 0.11,-0.065c0.161,-0.073 0.277,-0.176 0.351,-0.307c0.073,-0.132 0.073,-0.271 -0,-0.417c-0.044,-0.117 -0.125,-0.227 -0.242,-0.329c-0.117,-0.102 -0.226,-0.161 -0.329,-0.175c-0.234,-0.044 -0.471,-0.063 -0.712,-0.055c-0.242,0.007 -0.479,0.018 -0.713,0.033c-0.176,-0 -0.322,0.051 -0.439,0.153c-0.117,0.102 -0.168,0.234 -0.153,0.395c-0,0.117 0.04,0.234 0.12,0.351c0.081,0.117 0.158,0.234 0.231,0.351c0.014,0.029 0.047,0.051 0.098,0.065c0.051,0.015 0.099,0.03 0.143,0.044l-0,0.614c-0.468,0 -0.936,0.004 -1.404,0.011c-0.468,0.008 -0.935,-0.003 -1.403,-0.033c-0.337,-0.014 -0.614,-0.149 -0.834,-0.405c-0.219,-0.256 -0.329,-0.567 -0.329,-0.932l0,-9.233c0,-0.439 0.139,-0.779 0.417,-1.02c0.278,-0.241 0.651,-0.362 1.119,-0.362c3.962,-0.015 7.924,-0.015 11.886,-0l3.663,-0c0.541,-0 0.943,0.128 1.206,0.384c0.263,0.256 0.395,0.654 0.395,1.195l-0,8.86c-0,0.512 -0.132,0.896 -0.395,1.152c-0.263,0.255 -0.651,0.383 -1.162,0.383c-0.278,0.015 -0.56,0.019 -0.845,0.011c-0.285,-0.007 -0.581,-0.011 -0.888,-0.011Zm-13.268,-7.347l13.86,0l0,-0.614l-13.86,0l-0,0.614Zm13.882,0.702l-13.86,0l-0,0.636l13.86,0l0,-0.636Zm-13.904,1.338c0.014,0.117 0.025,0.23 0.033,0.34c0.007,0.11 0.011,0.208 0.011,0.296l13.86,0l0,-0.636l-13.904,0Zm0.022,-3.377l13.86,-0l0,-0.614l-13.86,-0l-0,0.614Z" style="fill-rule:nonzero;"/></svg>