<?xml version="1.0" encoding="UTF-8" standalone="no"?><!DOCTYPE svg PUBLIC "-//W3C//DTD SVG 1.1//EN" "http://www.w3.org/Graphics/SVG/1.1/DTD/svg11.dtd"><svg width="100%" height="100%" viewBox="0 0 24 24" version="1.1" xmlns="http://www.w3.org/2000/svg" xmlns:xlink="http://www.w3.org/1999/xlink" xml:space="preserve" xmlns:serif="http://www.serif.com/" style="fill-rule:evenodd;clip-rule:evenodd;stroke-linejoin:round;stroke-miterlimit:2;"><rect id="icon_barchart" x="0" y="0" width="24" height="24" style="fill:none;"/><path d="M18.778,17.523c-0.088,-0.079 -0.184,-0.138 -0.287,-0.177c-0.104,-0.039 -0.224,-0.059 -0.362,-0.059l-11.401,-0l-0,-11.386c-0,-0.128 -0.02,-0.244 -0.059,-0.347c-0.04,-0.104 -0.104,-0.2 -0.192,-0.288c-0.079,-0.089 -0.17,-0.155 -0.273,-0.2c-0.104,-0.044 -0.215,-0.066 -0.333,-0.066c-0.138,0 -0.258,0.02 -0.362,0.059c-0.103,0.039 -0.199,0.103 -0.287,0.192c-0.079,0.089 -0.141,0.185 -0.185,0.288c-0.044,0.103 -0.067,0.224 -0.067,0.362l0,13.099l13.159,0c0.128,-0 0.243,-0.02 0.347,-0.059c0.103,-0.039 0.199,-0.103 0.288,-0.192c0.088,-0.089 0.155,-0.185 0.199,-0.288c0.044,-0.103 0.067,-0.214 0.067,-0.332c-0,-0.118 -0.023,-0.229 -0.067,-0.333c-0.044,-0.103 -0.106,-0.194 -0.185,-0.273Zm-3.485,-8.447l2.127,-0l-0,7.281l-2.127,-0l0,-7.281Zm-3.5,-2.319l2.127,0l-0,9.6l-2.127,-0l0,-9.6Zm-3.485,4.017l2.127,0l-0,5.583l-2.127,-0l0,-5.583Z" style="fill-rule:nonzero;"/></svg>