<?xml version="1.0" encoding="UTF-8" standalone="no"?><!DOCTYPE svg PUBLIC "-//W3C//DTD SVG 1.1//EN" "http://www.w3.org/Graphics/SVG/1.1/DTD/svg11.dtd"><svg width="100%" height="100%" viewBox="0 0 24 24" version="1.1" xmlns="http://www.w3.org/2000/svg" xmlns:xlink="http://www.w3.org/1999/xlink" xml:space="preserve" xmlns:serif="http://www.serif.com/" style="fill-rule:evenodd;clip-rule:evenodd;stroke-linejoin:round;stroke-miterlimit:2;"><rect id="icon_linechart" x="0" y="0" width="24" height="24" style="fill:none;"/><path d="M19.747,18.312c-0.101,-0.09 -0.211,-0.157 -0.329,-0.202c-0.118,-0.045 -0.256,-0.068 -0.414,-0.068l-13.029,0l-0,-13.012c-0,-0.147 -0.023,-0.279 -0.068,-0.397c-0.045,-0.118 -0.118,-0.228 -0.219,-0.329c-0.09,-0.101 -0.194,-0.177 -0.312,-0.228c-0.119,-0.051 -0.245,-0.076 -0.38,-0.076c-0.158,-0 -0.296,0.023 -0.414,0.068c-0.118,0.045 -0.228,0.118 -0.329,0.219c-0.09,0.101 -0.16,0.211 -0.211,0.329c-0.05,0.118 -0.076,0.256 -0.076,0.414l0,14.97l15.038,-0c0.146,-0 0.279,-0.023 0.397,-0.068c0.118,-0.045 0.228,-0.118 0.329,-0.219c0.101,-0.101 0.177,-0.211 0.228,-0.329c0.05,-0.118 0.076,-0.245 0.076,-0.38c-0,-0.135 -0.026,-0.261 -0.076,-0.38c-0.051,-0.118 -0.121,-0.222 -0.211,-0.312Zm-9.198,-1.823c-0.147,0 -0.279,-0.028 -0.397,-0.084c-0.118,-0.056 -0.217,-0.129 -0.295,-0.219l-3.46,-3.865c-0.068,-0.079 -0.124,-0.172 -0.169,-0.279c-0.045,-0.107 -0.068,-0.216 -0.068,-0.329c0,-0.259 0.093,-0.478 0.279,-0.658c0.185,-0.18 0.402,-0.27 0.65,-0.27c0.146,-0 0.278,0.025 0.396,0.076c0.118,0.05 0.217,0.126 0.296,0.228l2.666,2.97l3.882,-5.705c0.09,-0.123 0.203,-0.225 0.338,-0.303c0.135,-0.079 0.281,-0.119 0.438,-0.119c0.147,0 0.285,0.037 0.414,0.11c0.129,0.073 0.239,0.166 0.329,0.279l2.836,3.848c0.056,0.079 0.101,0.166 0.135,0.261c0.033,0.096 0.05,0.194 0.05,0.296c0,0.259 -0.09,0.478 -0.27,0.658c-0.18,0.18 -0.399,0.27 -0.658,0.27c-0.158,0 -0.301,-0.034 -0.43,-0.101c-0.13,-0.068 -0.234,-0.158 -0.313,-0.27l0,-0.017l-2.059,-2.785l-3.831,5.603c-0.079,0.113 -0.18,0.206 -0.304,0.279c-0.124,0.073 -0.259,0.115 -0.405,0.126l-0.05,0Z" style="fill-rule:nonzero;"/></svg>