<?xml version="1.0" encoding="UTF-8" standalone="no"?><!DOCTYPE svg PUBLIC "-//W3C//DTD SVG 1.1//EN" "http://www.w3.org/Graphics/SVG/1.1/DTD/svg11.dtd"><svg width="100%" height="100%" viewBox="0 0 24 24" version="1.1" xmlns="http://www.w3.org/2000/svg" xmlns:xlink="http://www.w3.org/1999/xlink" xml:space="preserve" xmlns:serif="http://www.serif.com/" style="fill-rule:evenodd;clip-rule:evenodd;stroke-linejoin:round;stroke-miterlimit:2;"><rect id="icon_summary" x="0" y="0" width="24" height="24" style="fill:none;"/><path d="M15.374,13.41c-0.089,0.09 -0.151,0.185 -0.185,0.285c-0.033,0.101 -0.05,0.213 -0.05,0.336c0.011,0.537 0.017,1.075 0.017,1.612l-0,1.611c-0,0.347 -0.081,0.599 -0.244,0.756c-0.162,0.156 -0.411,0.235 -0.747,0.235c-2.271,0.011 -4.543,0.011 -6.815,-0c-0.336,-0 -0.585,-0.082 -0.747,-0.244c-0.162,-0.162 -0.243,-0.411 -0.243,-0.747l-0,-6.698c-0,-0.749 -0.006,-1.499 -0.017,-2.249c-0.011,-0.526 0.084,-0.879 0.285,-1.058c0.202,-0.179 0.537,-0.257 1.007,-0.235c0.258,0.023 0.518,0.031 0.781,0.026c0.263,-0.006 0.529,-0.009 0.797,-0.009l0,-0.755l-1.98,-0c-0.482,0.011 -0.873,0.17 -1.175,0.478c-0.303,0.308 -0.454,0.702 -0.454,1.184l0,9.4c0,0.481 0.154,0.879 0.462,1.192c0.308,0.313 0.702,0.47 1.183,0.47l7,-0c0.493,-0 0.89,-0.154 1.192,-0.462c0.302,-0.307 0.453,-0.702 0.453,-1.183l0,-4.482l-0.067,-0.017c-0.078,0.101 -0.154,0.196 -0.226,0.285c-0.073,0.09 -0.149,0.18 -0.227,0.269Zm-3.844,-8.041c-0.235,-0.246 -0.49,-0.369 -0.764,-0.369c-0.274,-0 -0.529,0.129 -0.764,0.386c-0.19,0.235 -0.327,0.49 -0.411,0.764c-0.084,0.274 -0.131,0.568 -0.143,0.881l2.619,0c0.034,-0.257 -0.003,-0.548 -0.109,-0.873c-0.106,-0.324 -0.249,-0.587 -0.428,-0.789Zm0.319,1.948l-2.166,-0c-0.246,-0 -0.484,0.083 -0.713,0.251c-0.229,0.168 -0.389,0.375 -0.478,0.621l4.566,0c-0.112,-0.268 -0.277,-0.481 -0.496,-0.637c-0.218,-0.157 -0.456,-0.235 -0.713,-0.235Zm2.384,-0.286c0.313,0 0.548,0.079 0.705,0.235c0.156,0.157 0.235,0.397 0.235,0.722l-0,0.705l0.067,0.017c0.101,-0.123 0.201,-0.244 0.302,-0.361c0.101,-0.118 0.201,-0.243 0.302,-0.378c0.023,-0.033 0.039,-0.078 0.05,-0.134c0.012,-0.056 0.017,-0.106 0.017,-0.151c-0.033,-0.336 -0.168,-0.641 -0.403,-0.915c-0.235,-0.274 -0.526,-0.422 -0.873,-0.445c-0.38,-0.033 -0.763,-0.045 -1.149,-0.033c-0.386,0.011 -0.775,0.016 -1.167,0.016l-0,0.722c0.324,0 0.643,-0.003 0.957,-0.008c0.313,-0.006 0.632,-0.003 0.957,0.008Zm-0.303,8.31l-6.311,-0l-0,0.402l6.311,0l0,-0.402Zm-6.328,-0.806l6.312,-0l-0,-0.403l-6.312,-0l-0,0.403Zm0.017,2.4l6.295,0l-0,-0.403l-6.295,0l-0,0.403Zm3.642,-3.592l0,-0.403l-3.642,0l-0,0.403l3.642,-0Zm0,-1.612l-3.642,0l-0,0.42l3.642,0l0,-0.42Zm-3.659,-0.789l3.659,0l0,-0.419l-3.659,-0l-0,0.419Zm0.017,-1.208l3.642,-0l0,-0.403l-3.642,-0l-0,0.403Zm10.777,-1.158l-1.175,-0.957l-2.955,3.592l-1.662,-1.528l-1.024,1.125c0.47,0.437 0.943,0.873 1.419,1.31c0.475,0.436 0.943,0.872 1.401,1.309c0.023,-0.023 0.04,-0.034 0.051,-0.034c0.011,0 0.017,-0.005 0.017,-0.017c0.134,-0.156 0.263,-0.31 0.386,-0.461c0.123,-0.151 0.246,-0.299 0.369,-0.445c0.034,-0.022 0.062,-0.05 0.084,-0.084c0.022,-0.033 0.045,-0.067 0.067,-0.101l0.386,-0.47l0.42,-0.52l0.621,-0.772c0.224,-0.258 0.442,-0.518 0.655,-0.781c0.212,-0.263 0.43,-0.529 0.654,-0.797c0.045,-0.056 0.09,-0.115 0.135,-0.176c0.044,-0.062 0.095,-0.126 0.151,-0.193Z" style="fill-rule:nonzero;"/></svg>