<?xml version="1.0" encoding="UTF-8" standalone="no"?><!DOCTYPE svg PUBLIC "-//W3C//DTD SVG 1.1//EN" "http://www.w3.org/Graphics/SVG/1.1/DTD/svg11.dtd"><svg width="100%" height="100%" viewBox="0 0 24 24" version="1.1" xmlns="http://www.w3.org/2000/svg" xmlns:xlink="http://www.w3.org/1999/xlink" xml:space="preserve" xmlns:serif="http://www.serif.com/" style="fill-rule:evenodd;clip-rule:evenodd;stroke-linejoin:round;stroke-miterlimit:2;"><rect id="icon_offmarket" x="0" y="0" width="24" height="24" style="fill:none;"/><path d="M11.764,5.099c0.066,-0.066 0.144,-0.099 0.234,-0.099c0.089,0 0.167,0.033 0.234,0.099l7.801,7.022c0.057,0.047 0.092,0.106 0.106,0.177c0.015,0.071 0.012,0.139 -0.007,0.206c-0.028,0.075 -0.073,0.132 -0.134,0.17c-0.062,0.038 -0.13,0.056 -0.206,0.056l-1.986,0l0,5.915c0,0.095 -0.035,0.178 -0.106,0.249c-0.071,0.071 -0.154,0.106 -0.249,0.106l-3.872,0c-0.104,-0 -0.189,-0.035 -0.255,-0.106c-0.066,-0.071 -0.099,-0.154 -0.099,-0.249l-0,-4.34l-2.44,-0l-0,4.34c-0,0.095 -0.036,0.178 -0.107,0.249c-0.071,0.071 -0.153,0.106 -0.248,0.106l-3.886,0c-0.095,-0 -0.178,-0.035 -0.249,-0.106c-0.07,-0.071 -0.106,-0.154 -0.106,-0.249l0,-5.915l-1.986,0c-0.075,0 -0.142,-0.018 -0.198,-0.056c-0.057,-0.038 -0.1,-0.095 -0.128,-0.17c-0.028,-0.067 -0.033,-0.135 -0.014,-0.206c0.019,-0.071 0.052,-0.13 0.099,-0.177l7.802,-7.022Zm-6.639,6.936l1.419,0c0.094,0 0.177,0.034 0.248,0.1c0.071,0.066 0.106,0.151 0.106,0.255l0,5.901l3.178,-0l-0,-4.341c-0,-0.094 0.033,-0.175 0.099,-0.241c0.066,-0.066 0.151,-0.099 0.255,-0.099l3.149,-0c0.095,-0 0.175,0.033 0.241,0.099c0.066,0.066 0.1,0.147 0.1,0.241l-0,4.341l3.177,-0l-0,-5.901c-0,-0.104 0.035,-0.189 0.106,-0.255c0.071,-0.066 0.154,-0.1 0.248,-0.1l1.433,0l-6.879,-6.212l-6.88,6.212Z" style="fill-rule:nonzero;"/></svg>