<?xml version="1.0" encoding="UTF-8" standalone="no"?><!DOCTYPE svg PUBLIC "-//W3C//DTD SVG 1.1//EN" "http://www.w3.org/Graphics/SVG/1.1/DTD/svg11.dtd"><svg width="100%" height="100%" viewBox="0 0 24 24" version="1.1" xmlns="http://www.w3.org/2000/svg" xmlns:xlink="http://www.w3.org/1999/xlink" xml:space="preserve" xmlns:serif="http://www.serif.com/" style="fill-rule:evenodd;clip-rule:evenodd;stroke-linejoin:round;stroke-miterlimit:2;"><rect id="icon_mobile" x="0" y="0" width="24" height="24" style="fill:none;"/><path d="M8.832,17.052l-0,-10.129c-0,-0.341 0.068,-0.58 0.205,-0.717c0.138,-0.137 0.381,-0.206 0.73,-0.206l4.466,0c0.341,0 0.582,0.069 0.723,0.206c0.142,0.137 0.212,0.376 0.212,0.717l0,10.129c0,0.349 -0.07,0.595 -0.212,0.736c-0.141,0.141 -0.386,0.212 -0.736,0.212l-4.44,0c-0.35,-0 -0.595,-0.069 -0.736,-0.206c-0.142,-0.137 -0.212,-0.384 -0.212,-0.742Zm6.012,-1.958l0,-7.31c0,-0.25 -0.044,-0.418 -0.131,-0.505c-0.087,-0.088 -0.251,-0.131 -0.493,-0.131l-4.44,-0c-0.242,-0 -0.406,0.045 -0.493,0.137c-0.087,0.091 -0.131,0.258 -0.131,0.499l-0,7.31c-0,0.257 0.044,0.43 0.131,0.517c0.087,0.088 0.256,0.131 0.505,0.131l4.416,0c0.249,0 0.418,-0.043 0.505,-0.131c0.087,-0.087 0.131,-0.26 0.131,-0.517Zm-2.158,1.721c0,-0.2 -0.066,-0.364 -0.2,-0.493c-0.133,-0.129 -0.299,-0.189 -0.498,-0.181c-0.2,0 -0.364,0.067 -0.493,0.2c-0.129,0.133 -0.189,0.299 -0.181,0.499c-0,0.2 0.066,0.364 0.2,0.493c0.133,0.129 0.299,0.189 0.498,0.181c0.192,-0 0.354,-0.069 0.487,-0.206c0.133,-0.138 0.195,-0.302 0.187,-0.493Z" style="fill-rule:nonzero;"/></svg>