<?xml version="1.0" encoding="UTF-8" standalone="no"?><!DOCTYPE svg PUBLIC "-//W3C//DTD SVG 1.1//EN" "http://www.w3.org/Graphics/SVG/1.1/DTD/svg11.dtd"><svg width="100%" height="100%" viewBox="0 0 24 24" version="1.1" xmlns="http://www.w3.org/2000/svg" xmlns:xlink="http://www.w3.org/1999/xlink" xml:space="preserve" xmlns:serif="http://www.serif.com/" style="fill-rule:evenodd;clip-rule:evenodd;stroke-linejoin:round;stroke-miterlimit:2;"><rect id="icon_currentlistings" x="0" y="0" width="24" height="24" style="fill:none;"/><path d="M16.307,9.432l-1.037,-1.107c-0.411,0.293 -0.821,0.586 -1.231,0.879c-0.41,0.293 -0.814,0.586 -1.213,0.879c-0.398,0.293 -0.803,0.586 -1.213,0.879c-0.398,0.293 -0.797,0.586 -1.195,0.879c-0.07,0.047 -0.141,0.114 -0.211,0.202c-0.07,0.088 -0.111,0.167 -0.123,0.237c-0.059,0.235 -0.111,0.463 -0.158,0.686c-0.047,0.222 -0.094,0.451 -0.141,0.685l-3.305,0l-1.441,1.037l4.518,0c-0.071,0.305 -0.141,0.61 -0.211,0.914c-0.071,0.305 -0.135,0.61 -0.194,0.914l-1.547,0l-1.441,1.055l3.059,0c0.011,0 0.02,0.003 0.026,0.009c0.006,0.006 0.015,0.009 0.026,0.009c0.411,0.023 0.827,0.032 1.248,0.026c0.422,-0.006 0.856,-0.009 1.301,-0.009c0.082,-0.363 0.164,-0.712 0.246,-1.046c0.082,-0.334 0.153,-0.665 0.211,-0.993c0.035,-0.199 0.103,-0.345 0.202,-0.439c0.1,-0.094 0.255,-0.135 0.466,-0.123c0.27,0.011 0.539,0.017 0.809,0.017c0.269,0 0.545,-0.006 0.826,-0.017c0.211,-0 0.354,0.041 0.431,0.123c0.076,0.082 0.085,0.234 0.026,0.457c-0.082,0.328 -0.158,0.659 -0.228,0.993c-0.071,0.334 -0.147,0.683 -0.229,1.046c0.422,-0 0.832,-0.003 1.23,-0.009c0.399,-0.006 0.797,-0.003 1.196,0.009c0.199,0.012 0.345,-0.024 0.439,-0.106c0.094,-0.082 0.158,-0.222 0.194,-0.421c0.164,-0.786 0.334,-1.571 0.509,-2.356c0.176,-0.785 0.346,-1.57 0.51,-2.355c0.024,-0.094 0.021,-0.197 -0.009,-0.308c-0.029,-0.111 -0.073,-0.202 -0.132,-0.272c-0.363,-0.399 -0.729,-0.794 -1.098,-1.187c-0.369,-0.393 -0.741,-0.788 -1.116,-1.187Zm-3.604,-2.373l-1.424,-0.017c-0.082,0.351 -0.161,0.703 -0.237,1.055c-0.076,0.351 -0.155,0.72 -0.237,1.107c0.222,-0.164 0.433,-0.322 0.633,-0.475c0.199,-0.152 0.404,-0.293 0.615,-0.422c0.269,-0.164 0.445,-0.351 0.527,-0.562c0.082,-0.211 0.123,-0.439 0.123,-0.686Zm7.735,4.237l-2.224,-2.364c-0.369,-0.393 -0.735,-0.789 -1.099,-1.187c-0.375,-0.398 -0.744,-0.797 -1.107,-1.195c-0.106,-0.118 -0.208,-0.176 -0.308,-0.176c-0.099,-0 -0.231,0.058 -0.395,0.176c-0.387,0.293 -0.774,0.58 -1.16,0.861c-0.387,0.281 -0.777,0.563 -1.169,0.844c-0.393,0.281 -0.783,0.562 -1.169,0.844c-0.387,0.281 -0.774,0.562 -1.161,0.843c-0.07,0.047 -0.137,0.091 -0.202,0.132c-0.064,0.041 -0.126,0.085 -0.184,0.132l-5.537,-0l-1.442,1.037l6.996,0c0.434,-0.316 0.868,-0.633 1.301,-0.949c0.434,-0.305 0.864,-0.612 1.292,-0.923c0.428,-0.311 0.859,-0.624 1.292,-0.94c0.422,-0.305 0.85,-0.616 1.283,-0.932c0.375,0.398 0.75,0.797 1.125,1.195c0.364,0.399 0.733,0.794 1.108,1.187c0.375,0.392 0.75,0.788 1.125,1.186c0.363,0.399 0.738,0.797 1.125,1.196c0.129,-0.118 0.258,-0.229 0.386,-0.334c0.129,-0.106 0.258,-0.211 0.387,-0.317c0,-0.023 0.003,-0.044 0.009,-0.061c0.006,-0.018 0.009,-0.033 0.009,-0.044c-0.047,-0.035 -0.097,-0.068 -0.15,-0.097c-0.052,-0.029 -0.096,-0.067 -0.132,-0.114Z" style="fill-rule:nonzero;"/></svg>