<?xml version="1.0" encoding="UTF-8" standalone="no"?><!DOCTYPE svg PUBLIC "-//W3C//DTD SVG 1.1//EN" "http://www.w3.org/Graphics/SVG/1.1/DTD/svg11.dtd"><svg width="100%" height="100%" viewBox="0 0 24 24" version="1.1" xmlns="http://www.w3.org/2000/svg" xmlns:xlink="http://www.w3.org/1999/xlink" xml:space="preserve" xmlns:serif="http://www.serif.com/" style="fill-rule:evenodd;clip-rule:evenodd;stroke-linejoin:round;stroke-miterlimit:2;"><rect id="icon_trends" x="0" y="0" width="24" height="24" style="fill:none;"/><path d="M18.778,17.527c0.081,0.081 0.141,0.172 0.182,0.273c0.04,0.101 0.06,0.212 0.06,0.333c0,0.121 -0.023,0.232 -0.07,0.332c-0.048,0.101 -0.111,0.192 -0.192,0.273c-0.081,0.094 -0.175,0.161 -0.282,0.201c-0.108,0.041 -0.222,0.061 -0.343,0.061l-13.153,-0l-0,-13.112c-0,-0.121 0.02,-0.236 0.06,-0.343c0.041,-0.108 0.101,-0.202 0.182,-0.283c0.094,-0.094 0.192,-0.161 0.292,-0.201c0.101,-0.041 0.219,-0.061 0.353,-0.061c0.121,-0 0.232,0.024 0.333,0.071c0.101,0.047 0.199,0.111 0.293,0.191c0.08,0.094 0.141,0.192 0.181,0.293c0.041,0.101 0.061,0.212 0.061,0.333l-0,11.397l11.398,0c0.134,0 0.252,0.02 0.353,0.061c0.1,0.04 0.198,0.101 0.292,0.181Zm-0.242,-11.054c0.027,0.148 0.027,0.285 0,0.413c-0.027,0.128 -0.081,0.259 -0.161,0.394l-3.631,5.527c-0.095,0.134 -0.202,0.245 -0.323,0.333c-0.121,0.087 -0.269,0.144 -0.444,0.171c-0.161,0 -0.313,-0.027 -0.454,-0.08c-0.141,-0.054 -0.266,-0.142 -0.373,-0.263l-0.968,-0.968l-2.623,3.974c-0.215,0.309 -0.504,0.464 -0.867,0.464c-0.121,0 -0.232,-0.013 -0.333,-0.04c-0.101,-0.027 -0.199,-0.068 -0.293,-0.121c-0.107,-0.081 -0.198,-0.175 -0.272,-0.283c-0.074,-0.107 -0.124,-0.228 -0.151,-0.363c-0.027,-0.148 -0.027,-0.286 -0,-0.413c0.027,-0.128 0.08,-0.253 0.161,-0.374l3.369,-4.982c0.161,-0.283 0.41,-0.444 0.746,-0.484c0.162,-0 0.313,0.026 0.454,0.08c0.141,0.054 0.266,0.128 0.373,0.222l0.868,0.868l0.484,-0.464l2.582,-3.974c0.081,-0.108 0.175,-0.202 0.283,-0.283c0.107,-0.081 0.228,-0.134 0.363,-0.161c0.134,-0.041 0.269,-0.047 0.403,-0.02c0.135,0.026 0.262,0.087 0.383,0.181c0.121,0.067 0.216,0.155 0.283,0.262c0.067,0.108 0.114,0.236 0.141,0.384Z" style="fill-rule:nonzero;"/></svg>