<?xml version="1.0" encoding="UTF-8" standalone="no"?><!DOCTYPE svg PUBLIC "-//W3C//DTD SVG 1.1//EN" "http://www.w3.org/Graphics/SVG/1.1/DTD/svg11.dtd"><svg width="100%" height="100%" viewBox="0 0 24 24" version="1.1" xmlns="http://www.w3.org/2000/svg" xmlns:xlink="http://www.w3.org/1999/xlink" xml:space="preserve" xmlns:serif="http://www.serif.com/" style="fill-rule:evenodd;clip-rule:evenodd;stroke-linejoin:round;stroke-miterlimit:2;"><rect id="insert_chart" x="0" y="0" width="24" height="24" style="fill:none;"/><path d="M17.444,5l-10.888,-0c-0.856,-0 -1.556,0.7 -1.556,1.556l0,10.888c0,0.856 0.7,1.556 1.556,1.556l10.888,-0c0.856,-0 1.556,-0.7 1.556,-1.556l0,-10.888c0,-0.856 -0.7,-1.556 -1.556,-1.556Zm-8.555,10.889c-0.428,-0 -0.778,-0.35 -0.778,-0.778l0,-3.889c0,-0.428 0.35,-0.778 0.778,-0.778c0.428,0 0.778,0.35 0.778,0.778l-0,3.889c-0,0.428 -0.35,0.778 -0.778,0.778Zm3.111,-0c-0.428,-0 -0.778,-0.35 -0.778,-0.778l0,-6.222c0,-0.428 0.35,-0.778 0.778,-0.778c0.428,0 0.778,0.35 0.778,0.778l-0,6.222c-0,0.428 -0.35,0.778 -0.778,0.778Zm3.111,-0c-0.428,-0 -0.778,-0.35 -0.778,-0.778l0,-1.555c0,-0.428 0.35,-0.778 0.778,-0.778c0.428,-0 0.778,0.35 0.778,0.778l-0,1.555c-0,0.428 -0.35,0.778 -0.778,0.778Z" style="fill-rule:nonzero;"/></svg>