<?xml version="1.0" encoding="UTF-8" standalone="no"?><!DOCTYPE svg PUBLIC "-//W3C//DTD SVG 1.1//EN" "http://www.w3.org/Graphics/SVG/1.1/DTD/svg11.dtd"><svg width="100%" height="100%" viewBox="0 0 24 24" version="1.1" xmlns="http://www.w3.org/2000/svg" xmlns:xlink="http://www.w3.org/1999/xlink" xml:space="preserve" xmlns:serif="http://www.serif.com/" style="fill-rule:evenodd;clip-rule:evenodd;stroke-linejoin:round;stroke-miterlimit:2;"><rect id="instagram" x="0" y="0" width="24" height="24" style="fill:none;"/><path d="M13.885,13.885c0.521,-0.52 0.782,-1.149 0.782,-1.885c-0,-0.736 -0.261,-1.365 -0.782,-1.885c-0.52,-0.521 -1.149,-0.782 -1.885,-0.782c-0.736,0 -1.365,0.261 -1.885,0.782c-0.521,0.52 -0.782,1.149 -0.782,1.885c0,0.736 0.261,1.365 0.782,1.885c0.52,0.521 1.149,0.782 1.885,0.782c0.736,-0 1.365,-0.261 1.885,-0.782Zm1.021,-4.791c0.799,0.798 1.198,1.767 1.198,2.906c0,1.139 -0.399,2.108 -1.198,2.906c-0.798,0.799 -1.767,1.198 -2.906,1.198c-1.139,0 -2.108,-0.399 -2.906,-1.198c-0.799,-0.798 -1.198,-1.767 -1.198,-2.906c-0,-1.139 0.399,-2.108 1.198,-2.906c0.798,-0.799 1.767,-1.198 2.906,-1.198c1.139,-0 2.108,0.399 2.906,1.198Zm2.042,-2.042c0.187,0.188 0.281,0.413 0.281,0.677c0,0.264 -0.094,0.49 -0.281,0.677c-0.188,0.188 -0.413,0.282 -0.677,0.282c-0.264,-0 -0.49,-0.094 -0.677,-0.282c-0.188,-0.187 -0.281,-0.413 -0.281,-0.677c-0,-0.264 0.093,-0.489 0.281,-0.677c0.187,-0.187 0.413,-0.281 0.677,-0.281c0.264,-0 0.489,0.094 0.677,0.281Zm-4.151,-1.62c-0.483,0.004 -0.748,0.006 -0.797,0.006c-0.049,-0 -0.314,-0.002 -0.797,-0.006c-0.483,-0.003 -0.849,-0.003 -1.099,0c-0.25,0.004 -0.585,0.014 -1.005,0.032c-0.42,0.017 -0.778,0.052 -1.073,0.104c-0.295,0.052 -0.543,0.116 -0.745,0.192c-0.347,0.139 -0.653,0.341 -0.916,0.605c-0.264,0.263 -0.466,0.569 -0.605,0.916c-0.076,0.202 -0.14,0.45 -0.192,0.745c-0.052,0.295 -0.087,0.653 -0.104,1.073c-0.018,0.42 -0.028,0.755 -0.032,1.005c-0.003,0.25 -0.003,0.616 0,1.099c0.004,0.483 0.005,0.748 0.005,0.797c0,0.049 -0.001,0.314 -0.005,0.797c-0.003,0.483 -0.003,0.849 0,1.099c0.004,0.25 0.014,0.585 0.032,1.005c0.017,0.42 0.052,0.778 0.104,1.073c0.052,0.295 0.116,0.543 0.192,0.745c0.139,0.347 0.341,0.653 0.605,0.916c0.263,0.264 0.569,0.466 0.916,0.605c0.202,0.076 0.45,0.14 0.745,0.192c0.295,0.052 0.653,0.087 1.073,0.104c0.42,0.018 0.755,0.028 1.005,0.032c0.25,0.003 0.616,0.003 1.099,-0c0.483,-0.004 0.748,-0.005 0.797,-0.005c0.049,-0 0.314,0.001 0.797,0.005c0.483,0.003 0.849,0.003 1.099,-0c0.25,-0.004 0.585,-0.014 1.005,-0.032c0.42,-0.017 0.778,-0.052 1.073,-0.104c0.295,-0.052 0.543,-0.116 0.745,-0.192c0.347,-0.139 0.653,-0.341 0.916,-0.605c0.264,-0.263 0.466,-0.569 0.605,-0.916c0.076,-0.202 0.14,-0.45 0.192,-0.745c0.052,-0.295 0.087,-0.653 0.104,-1.073c0.018,-0.42 0.028,-0.755 0.032,-1.005c0.003,-0.25 0.003,-0.616 -0,-1.099c-0.004,-0.483 -0.005,-0.748 -0.005,-0.797c-0,-0.049 0.001,-0.314 0.005,-0.797c0.003,-0.483 0.003,-0.849 -0,-1.099c-0.004,-0.25 -0.014,-0.585 -0.032,-1.005c-0.017,-0.42 -0.052,-0.778 -0.104,-1.073c-0.052,-0.295 -0.116,-0.543 -0.192,-0.745c-0.139,-0.347 -0.341,-0.653 -0.605,-0.916c-0.263,-0.264 -0.569,-0.466 -0.916,-0.605c-0.202,-0.076 -0.45,-0.14 -0.745,-0.192c-0.295,-0.052 -0.653,-0.087 -1.073,-0.104c-0.42,-0.018 -0.755,-0.028 -1.005,-0.032c-0.25,-0.003 -0.616,-0.003 -1.099,0Zm7.151,3.266c0.035,0.611 0.052,1.712 0.052,3.302c0,1.59 -0.017,2.691 -0.052,3.302c-0.07,1.445 -0.5,2.563 -1.292,3.354c-0.791,0.792 -1.909,1.222 -3.354,1.292c-0.611,0.035 -1.712,0.052 -3.302,0.052c-1.59,-0 -2.691,-0.017 -3.302,-0.052c-1.445,-0.07 -2.563,-0.5 -3.354,-1.292c-0.792,-0.791 -1.222,-1.909 -1.292,-3.354c-0.035,-0.611 -0.052,-1.712 -0.052,-3.302c-0,-1.59 0.017,-2.691 0.052,-3.302c0.07,-1.445 0.5,-2.563 1.292,-3.354c0.791,-0.792 1.909,-1.222 3.354,-1.292c0.611,-0.035 1.712,-0.052 3.302,-0.052c1.59,-0 2.691,0.017 3.302,0.052c1.445,0.07 2.563,0.5 3.354,1.292c0.792,0.791 1.222,1.909 1.292,3.354Z" style="fill-rule:nonzero;"/></svg>