<?xml version="1.0" encoding="UTF-8" standalone="no"?><!DOCTYPE svg PUBLIC "-//W3C//DTD SVG 1.1//EN" "http://www.w3.org/Graphics/SVG/1.1/DTD/svg11.dtd"><svg width="100%" height="100%" viewBox="0 0 25 24" version="1.1" xmlns="http://www.w3.org/2000/svg" xmlns:xlink="http://www.w3.org/1999/xlink" xml:space="preserve" xmlns:serif="http://www.serif.com/" style="fill-rule:evenodd;clip-rule:evenodd;stroke-linejoin:round;stroke-miterlimit:2;"><rect id="invoice" x="0.164" y="0" width="24" height="24" style="fill:none;"/><g><path id="Subtraction_8" d="M13.174,18.792l-7.658,0c-0.92,0.012 -1.687,-0.736 -1.699,-1.656l0.038,-13.485c0.004,-0.906 0.75,-1.65 1.656,-1.651l6.031,0c0.441,-0.004 0.867,0.166 1.183,0.473l4.06,4.06c0.319,0.311 0.504,0.737 0.512,1.183l0,6.948l-1.314,0c-0.252,0 -0.459,0.207 -0.459,0.459l0,1.91l-1.896,-0c-0.252,-0 -0.459,0.207 -0.459,0.458l0,1.296l0.005,0.005Zm-4.619,-5.007c-0.141,0.058 -0.252,0.173 -0.305,0.316c-0.054,0.15 -0.044,0.316 0.029,0.458c0.343,0.7 0.992,1.201 1.756,1.355l-0,0.602c0,0.289 0.238,0.526 0.526,0.527c0.289,-0.001 0.526,-0.238 0.527,-0.527l-0,-0.572c0.016,-0.005 0.033,-0.009 0.049,-0.011c1.09,-0.059 1.949,-0.981 1.932,-2.072c0,-1.061 -0.595,-1.743 -1.931,-2.207l-0.183,-0.062c-0.818,-0.275 -1.521,-0.515 -1.521,-1.167c-0,-0.683 0.777,-0.904 1.153,-0.904c0.405,-0.016 0.792,0.173 1.028,0.502c0.104,0.139 0.268,0.221 0.442,0.22c0.072,0.001 0.144,-0.014 0.211,-0.044c0.155,-0.054 0.276,-0.181 0.322,-0.339c0.051,-0.177 0.014,-0.368 -0.098,-0.514c-0.348,-0.441 -0.849,-0.736 -1.404,-0.825l-0,-0.577c-0.001,-0.289 -0.238,-0.527 -0.527,-0.527c-0.288,0 -0.526,0.238 -0.526,0.527l-0,0.601c-0.952,0.137 -1.675,0.945 -1.706,1.907c0,1.363 1.214,1.801 2.1,2.12l0.032,0.012c1.093,0.373 1.481,0.714 1.481,1.305c-0,0.71 -0.642,1.027 -1.28,1.027c-0.594,-0.007 -1.133,-0.36 -1.376,-0.902c-0.084,-0.172 -0.259,-0.28 -0.45,-0.28c-0.079,-0 -0.157,0.018 -0.227,0.054l-0.054,-0.003Zm3.739,-10.524l0,3.051c0.018,0.37 0.327,0.665 0.698,0.666l3.049,0l-3.747,-3.714l0,-0.003Z" style="fill-rule:nonzero;"/><path id="Union_5" d="M16.841,22c-0.251,0 -0.458,-0.207 -0.458,-0.459l-0,-1.834l-1.835,-0c-0.252,-0 -0.459,-0.207 -0.459,-0.459l0,-0.917c0,-0.252 0.207,-0.459 0.459,-0.459l1.835,-0l-0,-1.835c-0,-0.251 0.207,-0.458 0.458,-0.458l0.918,-0c0.251,-0 0.458,0.207 0.458,0.458l0,1.835l1.835,-0c0.252,-0 0.459,0.207 0.459,0.459l-0,0.917c-0,0.252 -0.207,0.459 -0.459,0.459l-1.835,-0l0,1.834c0,0.252 -0.207,0.459 -0.458,0.459l-0.918,0Z" style="fill-rule:nonzero;"/></g></svg>