<?xml version="1.0" encoding="UTF-8" standalone="no"?><!DOCTYPE svg PUBLIC "-//W3C//DTD SVG 1.1//EN" "http://www.w3.org/Graphics/SVG/1.1/DTD/svg11.dtd"><svg width="100%" height="100%" viewBox="0 0 24 25" version="1.1" xmlns="http://www.w3.org/2000/svg" xmlns:xlink="http://www.w3.org/1999/xlink" xml:space="preserve" xmlns:serif="http://www.serif.com/" style="fill-rule:evenodd;clip-rule:evenodd;stroke-linejoin:round;stroke-miterlimit:2;"><rect id="key_vpn" x="0" y="0.398" width="24" height="24" style="fill:none;"/><g><path d="M12.65,10.398c-0.95,-2.69 -3.75,-4.5 -6.88,-3.88c-2.29,0.46 -4.15,2.29 -4.63,4.58c-0.82,3.87 2.12,7.3 5.86,7.3c2.61,0 4.83,-1.67 5.65,-4l4.35,0l-0,2c-0,1.1 0.9,2 2,2c1.1,0 2,-0.9 2,-2l-0,-2c1.1,0 2,-0.9 2,-2c-0,-1.1 -0.9,-2 -2,-2l-8.35,0Zm-5.65,4c-1.1,0 -2,-0.9 -2,-2c-0,-1.1 0.9,-2 2,-2c1.1,0 2,0.9 2,2c-0,1.1 -0.9,2 -2,2Z" style="fill-rule:nonzero;"/></g></svg>