<?xml version="1.0" encoding="UTF-8" standalone="no"?><!DOCTYPE svg PUBLIC "-//W3C//DTD SVG 1.1//EN" "http://www.w3.org/Graphics/SVG/1.1/DTD/svg11.dtd"><svg width="100%" height="100%" viewBox="0 0 24 24" version="1.1" xmlns="http://www.w3.org/2000/svg" xmlns:xlink="http://www.w3.org/1999/xlink" xml:space="preserve" xmlns:serif="http://www.serif.com/" style="fill-rule:evenodd;clip-rule:evenodd;stroke-linejoin:round;stroke-miterlimit:2;"><rect id="language_globe" x="0" y="0" width="24" height="24" style="fill:none;"/><g><path d="M11.99,2c-5.52,0 -9.99,4.48 -9.99,10c0,5.52 4.47,10 9.99,10c5.53,0 10.01,-4.48 10.01,-10c0,-5.52 -4.48,-10 -10.01,-10Zm6.93,6l-2.95,0c-0.32,-1.25 -0.78,-2.45 -1.38,-3.56c1.84,0.63 3.37,1.91 4.33,3.56Zm-6.92,-3.96c0.83,1.2 1.48,2.53 1.91,3.96l-3.82,0c0.43,-1.43 1.08,-2.76 1.91,-3.96Zm-7.74,9.96c-0.16,-0.64 -0.26,-1.31 -0.26,-2c-0,-0.69 0.1,-1.36 0.26,-2l3.38,0c-0.08,0.66 -0.14,1.32 -0.14,2c-0,0.68 0.06,1.34 0.14,2l-3.38,0Zm0.82,2l2.95,0c0.32,1.25 0.78,2.45 1.38,3.56c-1.84,-0.63 -3.37,-1.9 -4.33,-3.56Zm2.95,-8l-2.95,0c0.96,-1.66 2.49,-2.93 4.33,-3.56c-0.6,1.11 -1.06,2.31 -1.38,3.56Zm3.97,11.96c-0.83,-1.2 -1.48,-2.53 -1.91,-3.96l3.82,0c-0.43,1.43 -1.08,2.76 -1.91,3.96Zm2.34,-5.96l-4.68,0c-0.09,-0.66 -0.16,-1.32 -0.16,-2c0,-0.68 0.07,-1.35 0.16,-2l4.68,0c0.09,0.65 0.16,1.32 0.16,2c0,0.68 -0.07,1.34 -0.16,2Zm0.25,5.56c0.6,-1.11 1.06,-2.31 1.38,-3.56l2.95,-0c-0.96,1.65 -2.49,2.93 -4.33,3.56Zm1.77,-5.56c0.08,-0.66 0.14,-1.32 0.14,-2c-0,-0.68 -0.06,-1.34 -0.14,-2l3.38,-0c0.16,0.64 0.26,1.31 0.26,2c-0,0.69 -0.1,1.36 -0.26,2l-3.38,-0Z" style="fill-rule:nonzero;"/></g></svg>