<?xml version="1.0" encoding="UTF-8" standalone="no"?><!DOCTYPE svg PUBLIC "-//W3C//DTD SVG 1.1//EN" "http://www.w3.org/Graphics/SVG/1.1/DTD/svg11.dtd"><svg width="100%" height="100%" viewBox="0 0 24 24" version="1.1" xmlns="http://www.w3.org/2000/svg" xmlns:xlink="http://www.w3.org/1999/xlink" xml:space="preserve" xmlns:serif="http://www.serif.com/" style="fill-rule:evenodd;clip-rule:evenodd;stroke-linejoin:round;stroke-miterlimit:2;"><rect id="laptop_mac" x="0" y="0" width="24" height="24" style="fill:none;"/><g><path d="M20,18c1.1,0 1.99,-0.9 1.99,-2l0.01,-11c0,-1.1 -0.9,-2 -2,-2l-16,0c-1.1,0 -2,0.9 -2,2l0,11c0,1.1 0.9,2 2,2l-4,0c0,1.1 0.9,2 2,2l20,0c1.1,0 2,-0.9 2,-2l-4,0Zm-16,-13l16,0l0,11l-16,0l0,-11Zm8,14c-0.55,0 -1,-0.45 -1,-1c0,-0.55 0.45,-1 1,-1c0.55,0 1,0.45 1,1c0,0.55 -0.45,1 -1,1Z" style="fill-rule:nonzero;"/></g></svg>