<?xml version="1.0" encoding="UTF-8" standalone="no"?><!DOCTYPE svg PUBLIC "-//W3C//DTD SVG 1.1//EN" "http://www.w3.org/Graphics/SVG/1.1/DTD/svg11.dtd"><svg width="100%" height="100%" viewBox="0 0 24 25" version="1.1" xmlns="http://www.w3.org/2000/svg" xmlns:xlink="http://www.w3.org/1999/xlink" xml:space="preserve" xmlns:serif="http://www.serif.com/" style="fill-rule:evenodd;clip-rule:evenodd;stroke-linejoin:round;stroke-miterlimit:2;"><rect id="light_bulb" x="0" y="0.398" width="24" height="24" style="fill:none;"/><path d="M14.625,8.648c0,0.102 -0.037,0.19 -0.111,0.264c-0.075,0.074 -0.162,0.111 -0.264,0.111c-0.102,0 -0.189,-0.037 -0.264,-0.111c-0.074,-0.074 -0.111,-0.162 -0.111,-0.264c0,-0.359 -0.211,-0.637 -0.633,-0.832c-0.422,-0.195 -0.836,-0.293 -1.242,-0.293c-0.102,0 -0.189,-0.037 -0.264,-0.111c-0.074,-0.074 -0.111,-0.162 -0.111,-0.264c-0,-0.101 0.037,-0.189 0.111,-0.264c0.075,-0.074 0.162,-0.111 0.264,-0.111c0.391,0 0.779,0.063 1.166,0.188c0.387,0.125 0.727,0.336 1.02,0.632c0.293,0.297 0.439,0.649 0.439,1.055Zm1.875,0c0,-0.562 -0.135,-1.086 -0.404,-1.57c-0.27,-0.485 -0.621,-0.881 -1.055,-1.19c-0.434,-0.308 -0.914,-0.55 -1.441,-0.726c-0.528,-0.176 -1.061,-0.264 -1.6,-0.264c-0.539,0 -1.072,0.088 -1.6,0.264c-0.527,0.176 -1.007,0.418 -1.441,0.726c-0.434,0.309 -0.785,0.705 -1.055,1.19c-0.269,0.484 -0.404,1.008 -0.404,1.57c-0,0.789 0.266,1.492 0.797,2.109l0.715,0.774c1,1.195 1.551,2.359 1.652,3.492l2.672,0c0.102,-1.133 0.652,-2.297 1.652,-3.492l0.715,-0.774c0.531,-0.617 0.797,-1.32 0.797,-2.109Zm1.5,0c0,1.211 -0.402,2.258 -1.207,3.141c-0.352,0.383 -0.643,0.722 -0.873,1.019c-0.231,0.297 -0.463,0.67 -0.697,1.119c-0.235,0.45 -0.368,0.87 -0.399,1.26c0.367,0.219 0.551,0.539 0.551,0.961c0,0.289 -0.098,0.539 -0.293,0.75c0.195,0.211 0.293,0.461 0.293,0.75c0,0.406 -0.176,0.723 -0.527,0.949c0.101,0.18 0.152,0.364 0.152,0.551c0,0.359 -0.123,0.637 -0.369,0.832c-0.246,0.195 -0.549,0.293 -0.908,0.293c-0.157,0.344 -0.391,0.617 -0.703,0.82c-0.313,0.204 -0.653,0.305 -1.02,0.305c-0.367,0 -0.707,-0.101 -1.02,-0.305c-0.312,-0.203 -0.546,-0.476 -0.703,-0.82c-0.359,0 -0.662,-0.098 -0.908,-0.293c-0.246,-0.195 -0.369,-0.473 -0.369,-0.832c-0,-0.187 0.051,-0.371 0.152,-0.551c-0.351,-0.226 -0.527,-0.543 -0.527,-0.949c-0,-0.289 0.098,-0.539 0.293,-0.75c-0.195,-0.211 -0.293,-0.461 -0.293,-0.75c-0,-0.422 0.184,-0.742 0.551,-0.961c-0.031,-0.39 -0.164,-0.81 -0.399,-1.26c-0.234,-0.449 -0.466,-0.822 -0.697,-1.119c-0.23,-0.297 -0.521,-0.636 -0.873,-1.019c-0.805,-0.883 -1.207,-1.93 -1.207,-3.141c-0,-0.773 0.174,-1.494 0.521,-2.162c0.348,-0.668 0.805,-1.223 1.372,-1.664c0.566,-0.441 1.207,-0.789 1.921,-1.043c0.715,-0.254 1.444,-0.381 2.186,-0.381c0.742,0 1.471,0.127 2.186,0.381c0.714,0.254 1.355,0.602 1.921,1.043c0.567,0.441 1.024,0.996 1.372,1.664c0.347,0.668 0.521,1.389 0.521,2.162Z" style="fill-rule:nonzero;"/></svg>