<?xml version="1.0" encoding="UTF-8" standalone="no"?><!DOCTYPE svg PUBLIC "-//W3C//DTD SVG 1.1//EN" "http://www.w3.org/Graphics/SVG/1.1/DTD/svg11.dtd"><svg width="100%" height="100%" viewBox="0 0 24 25" version="1.1" xmlns="http://www.w3.org/2000/svg" xmlns:xlink="http://www.w3.org/1999/xlink" xml:space="preserve" xmlns:serif="http://www.serif.com/" style="fill-rule:evenodd;clip-rule:evenodd;stroke-linejoin:round;stroke-miterlimit:2;"><rect id="link_remove" x="0" y="0.398" width="24" height="24" style="fill:none;"/><g><path d="M14,9.398l2.87,0c1.46,0 2.8,0.98 3.08,2.42c0.31,1.64 -0.74,3.11 -2.22,3.48l1.53,1.53c1.77,-0.91 2.95,-2.82 2.7,-5.01c-0.28,-2.56 -2.59,-4.42 -5.17,-4.42l-2.79,0c-0.55,0 -1,0.45 -1,1c-0,0.55 0.45,1 1,1Zm-10.49,-5.49c-0.39,-0.39 -1.02,-0.39 -1.41,0c-0.39,0.39 -0.39,1.02 -0,1.41l2.64,2.64c-1.77,0.91 -2.95,2.82 -2.7,5.01c0.28,2.57 2.59,4.43 5.17,4.43l2.79,0c0.55,0 1,-0.45 1,-1c-0,-0.55 -0.45,-1 -1,-1l-2.87,0c-1.46,0 -2.8,-0.98 -3.08,-2.42c-0.31,-1.64 0.75,-3.11 2.22,-3.48l2.12,2.12c-0.23,0.19 -0.39,0.46 -0.39,0.78c-0,0.55 0.45,1 1,1l1.17,0l8.9,8.9c0.39,0.39 1.02,0.39 1.41,0c0.39,-0.39 0.39,-1.02 -0,-1.41l-16.97,-16.98Zm10.49,7.49l1.71,1.71c0.18,-0.18 0.29,-0.43 0.29,-0.71c-0,-0.55 -0.45,-1 -1,-1l-1,0Z" style="fill-rule:nonzero;"/></g></svg>