<?xml version="1.0" encoding="UTF-8" standalone="no"?><!DOCTYPE svg PUBLIC "-//W3C//DTD SVG 1.1//EN" "http://www.w3.org/Graphics/SVG/1.1/DTD/svg11.dtd"><svg width="100%" height="100%" viewBox="0 0 24 24" version="1.1" xmlns="http://www.w3.org/2000/svg" xmlns:xlink="http://www.w3.org/1999/xlink" xml:space="preserve" xmlns:serif="http://www.serif.com/" style="fill-rule:evenodd;clip-rule:evenodd;stroke-linejoin:round;stroke-miterlimit:2;"><rect id="link_add" x="0" y="0" width="24" height="24" style="fill:none;"/><g><path d="M9,11l6,0c0.55,0 1,0.45 1,1c0,0.55 -0.45,1 -1,1l-6,0c-0.55,0 -1,-0.45 -1,-1c0,-0.55 0.45,-1 1,-1Zm11.93,1c0.62,0 1.07,-0.59 0.93,-1.19c-0.54,-2.19 -2.51,-3.81 -4.86,-3.81l-3.05,0c-0.52,0 -0.95,0.43 -0.95,0.95c0,0.52 0.43,0.95 0.95,0.95l3.05,0c1.45,0 2.67,1 3.01,2.34c0.11,0.44 0.47,0.76 0.92,0.76Zm-16.97,-0.62c0.28,-1.47 1.66,-2.48 3.16,-2.48l2.93,0c0.52,0 0.95,-0.43 0.95,-0.95c-0,-0.52 -0.43,-0.95 -0.95,-0.95l-2.83,0c-2.61,0 -4.94,1.91 -5.19,4.51c-0.29,2.98 2.05,5.49 4.97,5.49l3.05,0c0.52,0 0.95,-0.43 0.95,-0.95c-0,-0.52 -0.43,-0.95 -0.95,-0.95l-3.05,0c-1.91,-0 -3.42,-1.74 -3.04,-3.72Zm14.04,0.62c-0.55,0 -1,0.45 -1,1l-0,2l-2,0c-0.55,0 -1,0.45 -1,1c-0,0.55 0.45,1 1,1l2,0l-0,2c-0,0.55 0.45,1 1,1c0.55,0 1,-0.45 1,-1l-0,-2l2,0c0.55,0 1,-0.45 1,-1c-0,-0.55 -0.45,-1 -1,-1l-2,0l-0,-2c-0,-0.55 -0.45,-1 -1,-1Z" style="fill-rule:nonzero;"/></g></svg>