<?xml version="1.0" encoding="UTF-8" standalone="no"?><!DOCTYPE svg PUBLIC "-//W3C//DTD SVG 1.1//EN" "http://www.w3.org/Graphics/SVG/1.1/DTD/svg11.dtd"><svg width="100%" height="100%" viewBox="0 0 24 25" version="1.1" xmlns="http://www.w3.org/2000/svg" xmlns:xlink="http://www.w3.org/1999/xlink" xml:space="preserve" xmlns:serif="http://www.serif.com/" style="fill-rule:evenodd;clip-rule:evenodd;stroke-linejoin:round;stroke-miterlimit:2;"><rect id="link" x="0" y="0.398" width="24" height="24" style="fill:none;"/><g><path d="M17,7.398l-3,0c-0.55,0 -1,0.45 -1,1c0,0.55 0.45,1 1,1l3,0c1.65,0 3,1.35 3,3c0,1.65 -1.35,3 -3,3l-3,0c-0.55,0 -1,0.45 -1,1c0,0.55 0.45,1 1,1l3,0c2.76,0 5,-2.24 5,-5c0,-2.76 -2.24,-5 -5,-5Zm-9,5c0,0.55 0.45,1 1,1l6,0c0.55,0 1,-0.45 1,-1c0,-0.55 -0.45,-1 -1,-1l-6,0c-0.55,0 -1,0.45 -1,1Zm2,3l-3,0c-1.65,0 -3,-1.35 -3,-3c0,-1.65 1.35,-3 3,-3l3,0c0.55,0 1,-0.45 1,-1c0,-0.55 -0.45,-1 -1,-1l-3,0c-2.76,0 -5,2.24 -5,5c0,2.76 2.24,5 5,5l3,0c0.55,0 1,-0.45 1,-1c0,-0.55 -0.45,-1 -1,-1Z" style="fill-rule:nonzero;"/></g></svg>