<?xml version="1.0" encoding="UTF-8" standalone="no"?><!DOCTYPE svg PUBLIC "-//W3C//DTD SVG 1.1//EN" "http://www.w3.org/Graphics/SVG/1.1/DTD/svg11.dtd"><svg width="100%" height="100%" viewBox="0 0 24 24" version="1.1" xmlns="http://www.w3.org/2000/svg" xmlns:xlink="http://www.w3.org/1999/xlink" xml:space="preserve" xmlns:serif="http://www.serif.com/" style="fill-rule:evenodd;clip-rule:evenodd;stroke-linejoin:round;stroke-miterlimit:2;"><rect id="linkedin" x="0" y="0" width="24" height="24" style="fill:none;"/><path d="M8.004,9.549l0,9.451l-3.147,0l-0,-9.451l3.147,0Zm0.2,-2.918c0.007,0.464 -0.154,0.852 -0.481,1.163c-0.328,0.312 -0.758,0.468 -1.292,0.468l-0.02,-0c-0.521,-0 -0.941,-0.156 -1.258,-0.468c-0.318,-0.311 -0.477,-0.699 -0.477,-1.163c-0,-0.471 0.163,-0.86 0.491,-1.168c0.327,-0.309 0.755,-0.463 1.283,-0.463c0.527,0 0.95,0.154 1.268,0.463c0.318,0.308 0.48,0.697 0.486,1.168Zm11.12,6.952l0,5.417l-3.137,0l-0,-5.054c-0,-0.668 -0.129,-1.191 -0.387,-1.569c-0.257,-0.379 -0.659,-0.568 -1.206,-0.568c-0.401,0 -0.736,0.11 -1.006,0.329c-0.27,0.22 -0.472,0.491 -0.606,0.816c-0.07,0.19 -0.105,0.448 -0.105,0.772l0,5.274l-3.137,0c0.012,-2.537 0.019,-4.594 0.019,-6.17c-0,-1.577 -0.003,-2.518 -0.01,-2.823l-0.009,-0.458l3.137,0l0,1.373l-0.019,0c0.127,-0.203 0.258,-0.381 0.391,-0.534c0.134,-0.152 0.313,-0.318 0.539,-0.496c0.226,-0.178 0.502,-0.316 0.83,-0.414c0.327,-0.099 0.691,-0.148 1.092,-0.148c1.087,-0 1.961,0.361 2.622,1.082c0.662,0.722 0.992,1.779 0.992,3.171Z" style="fill-rule:nonzero;"/></svg>