<?xml version="1.0" encoding="UTF-8" standalone="no"?><!DOCTYPE svg PUBLIC "-//W3C//DTD SVG 1.1//EN" "http://www.w3.org/Graphics/SVG/1.1/DTD/svg11.dtd"><svg width="100%" height="100%" viewBox="0 0 24 24" version="1.1" xmlns="http://www.w3.org/2000/svg" xmlns:xlink="http://www.w3.org/1999/xlink" xml:space="preserve" xmlns:serif="http://www.serif.com/" style="fill-rule:evenodd;clip-rule:evenodd;stroke-linejoin:round;stroke-miterlimit:2;"><rect id="lock" x="0" y="0" width="24" height="24" style="fill:none;"/><path d="M18,8.5l-1,0l0,-2c0,-2.76 -2.24,-5 -5,-5c-2.76,0 -5,2.24 -5,5l0,2l-1,0c-1.1,0 -2,0.9 -2,2l0,10c0,1.1 0.9,2 2,2l12,0c1.1,0 2,-0.9 2,-2l0,-10c0,-1.1 -0.9,-2 -2,-2Zm-6,9c-1.1,0 -2,-0.9 -2,-2c0,-1.1 0.9,-2 2,-2c1.1,0 2,0.9 2,2c0,1.1 -0.9,2 -2,2Zm-3,-9l0,-2c0,-1.66 1.34,-3 3,-3c1.66,0 3,1.34 3,3l0,2l-6,0Z" style="fill-rule:nonzero;"/></svg>