<?xml version="1.0" encoding="UTF-8" standalone="no"?><!DOCTYPE svg PUBLIC "-//W3C//DTD SVG 1.1//EN" "http://www.w3.org/Graphics/SVG/1.1/DTD/svg11.dtd"><svg width="100%" height="100%" viewBox="0 0 24 25" version="1.1" xmlns="http://www.w3.org/2000/svg" xmlns:xlink="http://www.w3.org/1999/xlink" xml:space="preserve" xmlns:serif="http://www.serif.com/" style="fill-rule:evenodd;clip-rule:evenodd;stroke-linejoin:round;stroke-miterlimit:2;"><rect id="login" x="0" y="0.398" width="24" height="24" style="fill:none;"/><g><g><path d="M19,3.398l-6,0c-0.55,0 -1,0.45 -1,1c0,0.55 0.45,1 1,1l6,0l0,14l-6,0c-0.55,0 -1,0.45 -1,1c0,0.55 0.45,1 1,1l6,0c1.1,0 2,-0.9 2,-2l0,-14c0,-1.1 -0.9,-2 -2,-2Z" style="fill-rule:nonzero;"/></g><path d="M11,9.608l0,1.79l-7,0c-0.55,0 -1,0.45 -1,1c0,0.55 0.45,1 1,1l7,0l0,1.79c0,0.45 0.54,0.67 0.85,0.35l2.79,-2.79c0.2,-0.2 0.2,-0.51 0,-0.71l-2.79,-2.79c-0.31,-0.31 -0.85,-0.09 -0.85,0.36Z" style="fill-rule:nonzero;"/></g></svg>