<?xml version="1.0" encoding="UTF-8" standalone="no"?><!DOCTYPE svg PUBLIC "-//W3C//DTD SVG 1.1//EN" "http://www.w3.org/Graphics/SVG/1.1/DTD/svg11.dtd"><svg width="100%" height="100%" viewBox="0 0 25 25" version="1.1" xmlns="http://www.w3.org/2000/svg" xmlns:xlink="http://www.w3.org/1999/xlink" xml:space="preserve" xmlns:serif="http://www.serif.com/" style="fill-rule:evenodd;clip-rule:evenodd;stroke-linejoin:round;stroke-miterlimit:2;"><rect id="logout_alt" x="0.403" y="0.398" width="24" height="24" style="fill:none;"/><g><path d="M5.716,5.398l6,0c0.55,0 1,-0.45 1,-1c-0,-0.55 -0.45,-1 -1,-1l-6,0c-1.1,0 -2,0.9 -2,2l-0,14c-0,1.1 0.9,2 2,2l6,0c0.55,0 1,-0.45 1,-1c-0,-0.55 -0.45,-1 -1,-1l-6,0l-0,-14Z" style="fill-rule:nonzero;"/><path d="M20.858,11.823l-4.584,-4.584c-0.526,-0.526 -1.413,-0.165 -1.413,0.575l-0,1.941l-4.869,-0c-0.436,-0 -0.789,0.353 -0.789,0.789c-0,0.988 -0,2.672 -0,3.675c-0,0.454 0.368,0.822 0.822,0.822c1.569,0 4.836,0 4.836,0l-0,1.941c-0,0.74 0.887,1.101 1.397,0.576l4.584,-4.585c0.329,-0.312 0.329,-0.838 0.016,-1.15Z" style="fill-rule:nonzero;"/></g></svg>