<?xml version="1.0" encoding="UTF-8" standalone="no"?><!DOCTYPE svg PUBLIC "-//W3C//DTD SVG 1.1//EN" "http://www.w3.org/Graphics/SVG/1.1/DTD/svg11.dtd"><svg width="100%" height="100%" viewBox="0 0 24 24" version="1.1" xmlns="http://www.w3.org/2000/svg" xmlns:xlink="http://www.w3.org/1999/xlink" xml:space="preserve" xmlns:serif="http://www.serif.com/" style="fill-rule:evenodd;clip-rule:evenodd;stroke-linejoin:round;stroke-miterlimit:2;"><rect id="manage_accounts" x="0" y="0" width="24" height="24" style="fill:none;"/><g><path d="M10.889,12.494c-0.207,-0.009 -0.414,-0.018 -0.631,-0.018c-2.279,-0 -4.407,0.631 -6.224,1.714c-0.829,0.489 -1.309,1.412 -1.309,2.382l-0,1.554c-0,0.518 0.423,0.942 0.941,0.942l7.779,-0c-0.744,-1.064 -1.187,-2.364 -1.187,-3.767c0,-1.008 0.236,-1.95 0.631,-2.807Z" style="fill-rule:nonzero;"/><circle cx="10.258" cy="7.767" r="3.767"/><path d="M20.382,15.301c0,-0.207 -0.028,-0.396 -0.056,-0.594l0.791,-0.687c0.169,-0.151 0.207,-0.396 0.094,-0.593l-0.556,-0.961c-0.113,-0.198 -0.348,-0.282 -0.555,-0.207l-0.999,0.339c-0.301,-0.254 -0.64,-0.452 -1.017,-0.593l-0.207,-1.027c-0.047,-0.216 -0.235,-0.376 -0.461,-0.376l-1.112,-0c-0.226,-0 -0.414,0.16 -0.461,0.376l-0.207,1.027c-0.377,0.141 -0.716,0.339 -1.017,0.593l-0.999,-0.339c-0.216,-0.075 -0.442,0.019 -0.555,0.207l-0.556,0.961c-0.113,0.197 -0.075,0.442 0.094,0.593l0.791,0.687c-0.028,0.198 -0.056,0.387 -0.056,0.594c-0,0.207 0.028,0.395 0.056,0.593l-0.791,0.688c-0.169,0.15 -0.207,0.395 -0.094,0.593l0.556,0.96c0.113,0.198 0.348,0.283 0.555,0.208l0.999,-0.339c0.301,0.254 0.64,0.452 1.017,0.593l0.207,1.026c0.047,0.217 0.235,0.377 0.461,0.377l1.112,-0c0.226,-0 0.414,-0.16 0.461,-0.377l0.207,-1.026c0.377,-0.141 0.716,-0.339 1.017,-0.593l0.999,0.339c0.216,0.075 0.442,-0.019 0.555,-0.208l0.556,-0.96c0.113,-0.198 0.075,-0.443 -0.094,-0.593l-0.791,-0.688c0.028,-0.198 0.056,-0.386 0.056,-0.593Zm-3.531,1.883c-1.036,0 -1.884,-0.847 -1.884,-1.883c0,-1.036 0.848,-1.884 1.884,-1.884c1.035,0 1.883,0.848 1.883,1.884c0,1.036 -0.848,1.883 -1.883,1.883Z" style="fill-rule:nonzero;"/></g></svg>