<?xml version="1.0" encoding="UTF-8" standalone="no"?><!DOCTYPE svg PUBLIC "-//W3C//DTD SVG 1.1//EN" "http://www.w3.org/Graphics/SVG/1.1/DTD/svg11.dtd"><svg width="100%" height="100%" viewBox="0 0 24 24" version="1.1" xmlns="http://www.w3.org/2000/svg" xmlns:xlink="http://www.w3.org/1999/xlink" xml:space="preserve" xmlns:serif="http://www.serif.com/" style="fill-rule:evenodd;clip-rule:evenodd;stroke-linejoin:round;stroke-miterlimit:2;"><rect id="map" x="0" y="0" width="24" height="24" style="fill:none;"/><g><path d="M15,5.1l-5.35,-1.87c-0.42,-0.15 -0.88,-0.15 -1.3,-0.01l-4.67,1.57c-0.41,0.14 -0.68,0.52 -0.68,0.95l0,14.03c0,0.7 0.71,1.19 1.36,0.93l4.64,-1.8l5.35,1.87c0.42,0.15 0.88,0.15 1.3,0.01l4.67,-1.57c0.41,-0.14 0.68,-0.52 0.68,-0.95l0,-14.03c0,-0.7 -0.71,-1.19 -1.36,-0.93l-4.64,1.8Zm0,13.8l-6,-2.11l0,-11.68l6,2.11l0,11.68Z" style="fill-rule:nonzero;"/></g></svg>