<?xml version="1.0" encoding="UTF-8" standalone="no"?><!DOCTYPE svg PUBLIC "-//W3C//DTD SVG 1.1//EN" "http://www.w3.org/Graphics/SVG/1.1/DTD/svg11.dtd"><svg width="100%" height="100%" viewBox="0 0 25 24" version="1.1" xmlns="http://www.w3.org/2000/svg" xmlns:xlink="http://www.w3.org/1999/xlink" xml:space="preserve" xmlns:serif="http://www.serif.com/" style="fill-rule:evenodd;clip-rule:evenodd;stroke-linejoin:round;stroke-miterlimit:2;"><rect id="message_lines" x="0.48" y="0" width="24" height="24" style="fill:none;"/><g><path d="M20.48,2.708l-16,-0c-1.1,-0 -1.99,0.9 -1.99,2l-0.01,15.58c-0,0.89 1.08,1.34 1.71,0.71l2.29,-2.29l14,-0c1.1,-0 2,-0.9 2,-2l-0,-12c-0,-1.1 -0.9,-2 -2,-2Zm-13,7l10,-0c0.55,-0 1,0.45 1,1c-0,0.55 -0.45,1 -1,1l-10,-0c-0.55,-0 -1,-0.45 -1,-1c-0,-0.55 0.45,-1 1,-1Zm6,5l-6,-0c-0.55,-0 -1,-0.45 -1,-1c-0,-0.55 0.45,-1 1,-1l6,-0c0.55,-0 1,0.45 1,1c-0,0.55 -0.45,1 -1,1Zm4,-6l-10,-0c-0.55,-0 -1,-0.45 -1,-1c-0,-0.55 0.45,-1 1,-1l10,-0c0.55,-0 1,0.45 1,1c-0,0.55 -0.45,1 -1,1Z" style="fill-rule:nonzero;"/></g></svg>