<?xml version="1.0" encoding="UTF-8" standalone="no"?><!DOCTYPE svg PUBLIC "-//W3C//DTD SVG 1.1//EN" "http://www.w3.org/Graphics/SVG/1.1/DTD/svg11.dtd"><svg width="100%" height="100%" viewBox="0 0 24 24" version="1.1" xmlns="http://www.w3.org/2000/svg" xmlns:xlink="http://www.w3.org/1999/xlink" xml:space="preserve" xmlns:serif="http://www.serif.com/" style="fill-rule:evenodd;clip-rule:evenodd;stroke-linejoin:round;stroke-miterlimit:2;"><rect id="mic" x="0" y="0" width="24" height="24" style="fill:none;"/><g><path d="M11.999,14.5c1.66,0 3,-1.34 3,-3l-0,-6c-0,-1.66 -1.34,-3 -3,-3c-1.66,0 -3,1.34 -3,3l-0,6c-0,1.66 1.34,3 3,3Z" style="fill-rule:nonzero;"/><path d="M17.909,11.5c-0.49,0 -0.9,0.36 -0.98,0.85c-0.41,2.36 -2.46,4.15 -4.93,4.15c-2.47,0 -4.52,-1.79 -4.93,-4.15c-0.08,-0.49 -0.49,-0.85 -0.98,-0.85c-0.61,0 -1.09,0.54 -1,1.14c0.49,3 2.89,5.34 5.91,5.78l-0,2.08c-0,0.55 0.45,1 1,1c0.55,0 1,-0.45 1,-1l-0,-2.08c3.02,-0.44 5.42,-2.78 5.91,-5.78c0.1,-0.6 -0.39,-1.14 -1,-1.14Z" style="fill-rule:nonzero;"/></g></svg>