<?xml version="1.0" encoding="UTF-8" standalone="no"?><!DOCTYPE svg PUBLIC "-//W3C//DTD SVG 1.1//EN" "http://www.w3.org/Graphics/SVG/1.1/DTD/svg11.dtd"><svg width="100%" height="100%" viewBox="0 0 24 24" version="1.1" xmlns="http://www.w3.org/2000/svg" xmlns:xlink="http://www.w3.org/1999/xlink" xml:space="preserve" xmlns:serif="http://www.serif.com/" style="fill-rule:evenodd;clip-rule:evenodd;stroke-linejoin:round;stroke-miterlimit:2;"><rect id="monetization" x="0" y="0" width="24" height="24" style="fill:none;"/><path d="M12,2c-5.52,0 -10,4.48 -10,10c0,5.52 4.48,10 10,10c5.52,0 10,-4.48 10,-10c0,-5.52 -4.48,-10 -10,-10Zm0.84,15.77l0,0.39c0,0.46 -0.37,0.83 -0.83,0.83c-0.46,-0 -0.83,-0.37 -0.83,-0.83l0,-0.45c-1.54,-0.35 -2.33,-1.32 -2.73,-2.11c-0.23,-0.44 -0.01,-0.99 0.45,-1.18l0.07,-0.03c0.41,-0.17 0.87,-0 1.08,0.39c0.32,0.61 0.96,1.38 2.13,1.38c0.93,-0 1.98,-0.47 1.98,-1.6c0,-0.96 -0.7,-1.47 -2.28,-2.03c-1.42,-0.51 -3.35,-1.17 -3.35,-3.31c0,-1.81 1.52,-2.75 2.66,-2.97l0,-0.42c-0.02,-0.46 0.35,-0.83 0.81,-0.83c0.46,-0 0.83,0.37 0.83,0.83l0,0.39c1.1,0.18 1.78,0.76 2.19,1.28c0.35,0.45 0.18,1.1 -0.34,1.33c-0.36,0.15 -0.78,0.04 -1.02,-0.27c-0.28,-0.38 -0.78,-0.77 -1.61,-0.77c-0.7,-0 -1.81,0.37 -1.81,1.39c0,1.1 1.28,1.46 2.64,1.91c1.8,0.63 3.03,1.58 3.01,3.44c0.01,2.9 -3,3.23 -3.05,3.24Z" style="fill-rule:nonzero;"/></svg>