<?xml version="1.0" encoding="UTF-8" standalone="no"?><!DOCTYPE svg PUBLIC "-//W3C//DTD SVG 1.1//EN" "http://www.w3.org/Graphics/SVG/1.1/DTD/svg11.dtd"><svg width="100%" height="100%" viewBox="0 0 24 24" version="1.1" xmlns="http://www.w3.org/2000/svg" xmlns:xlink="http://www.w3.org/1999/xlink" xml:space="preserve" xmlns:serif="http://www.serif.com/" style="fill-rule:evenodd;clip-rule:evenodd;stroke-linejoin:round;stroke-miterlimit:2;"><rect id="moving" x="0" y="0" width="24" height="24" style="fill:none;"/><g><path d="M2.7,17.29c0.39,0.39 1.02,0.39 1.41,0l4.59,-4.59c0.39,-0.39 1.02,-0.39 1.41,0l1.17,1.17c1.17,1.17 3.07,1.17 4.24,0l4.18,-4.17l1.44,1.44c0.31,0.31 0.85,0.09 0.85,-0.35l0,-4.29c0.01,-0.28 -0.21,-0.5 -0.49,-0.5l-4.29,0c-0.45,0 -0.67,0.54 -0.35,0.85l1.44,1.44l-4.17,4.17c-0.39,0.39 -1.02,0.39 -1.41,0l-1.17,-1.17c-1.17,-1.17 -3.07,-1.17 -4.24,0l-4.61,4.59c-0.38,0.39 -0.38,1.03 -0,1.41Z" style="fill-rule:nonzero;"/></g></svg>