<?xml version="1.0" encoding="UTF-8" standalone="no"?><!DOCTYPE svg PUBLIC "-//W3C//DTD SVG 1.1//EN" "http://www.w3.org/Graphics/SVG/1.1/DTD/svg11.dtd"><svg width="100%" height="100%" viewBox="0 0 24 24" version="1.1" xmlns="http://www.w3.org/2000/svg" xmlns:xlink="http://www.w3.org/1999/xlink" xml:space="preserve" xmlns:serif="http://www.serif.com/" style="fill-rule:evenodd;clip-rule:evenodd;stroke-linejoin:round;stroke-miterlimit:2;"><rect id="notifications_off" x="0" y="0" width="24" height="24" style="fill:none;"/><g><path d="M18.006,9.904c-0,-2.79 -1.91,-5.14 -4.5,-5.8l-0,-0.7c-0,-0.83 -0.67,-1.5 -1.5,-1.5c-0.83,-0 -1.5,0.67 -1.5,1.5l-0,0.7c-0.86,0.22 -1.63,0.64 -2.29,1.18l9.79,9.79l-0,-5.17Zm-6,12c1.1,-0 2,-0.9 2,-2l-4,-0c-0,1.1 0.9,2 2,2Zm8.49,-1.51l-16.98,-16.98c-0.39,-0.39 -1.02,-0.39 -1.41,-0c-0.39,0.39 -0.39,1.02 -0,1.41l4,4c-0.06,0.36 -0.1,0.71 -0.1,1.08l-0,7l-1,-0c-0.55,-0 -1,0.45 -1,1c-0,0.55 0.45,1 1,1l11.17,-0l2.9,2.9c0.39,0.39 1.02,0.39 1.41,-0c0.4,-0.39 0.4,-1.02 0.01,-1.41Z" style="fill-rule:nonzero;"/></g></svg>