<?xml version="1.0" encoding="UTF-8" standalone="no"?><!DOCTYPE svg PUBLIC "-//W3C//DTD SVG 1.1//EN" "http://www.w3.org/Graphics/SVG/1.1/DTD/svg11.dtd"><svg width="100%" height="100%" viewBox="0 0 25 24" version="1.1" xmlns="http://www.w3.org/2000/svg" xmlns:xlink="http://www.w3.org/1999/xlink" xml:space="preserve" xmlns:serif="http://www.serif.com/" style="fill-rule:evenodd;clip-rule:evenodd;stroke-linejoin:round;stroke-miterlimit:2;"><rect id="notifications" x="0.343" y="0" width="24" height="24" style="fill:none;"/><g><path d="M18.343,17l0,-7c0,-2.79 -1.91,-5.14 -4.5,-5.8l0,-0.7c0,-0.83 -0.67,-1.5 -1.5,-1.5c-0.83,0 -1.5,0.67 -1.5,1.5l0,0.7c-2.59,0.66 -4.5,3.01 -4.5,5.8l0,7l-1,0c-0.55,0 -1,0.45 -1,1c0,0.55 0.45,1 1,1l14,0c0.55,0 1,-0.45 1,-1c0,-0.55 -0.45,-1 -1,-1l-1,0Z" style="fill-rule:nonzero;"/><path d="M12.343,22c1.1,0 2,-0.9 2,-2l-4,0c0,1.1 0.9,2 2,2Z" style="fill-rule:nonzero;"/></g></svg>