<?xml version="1.0" encoding="UTF-8" standalone="no"?><!DOCTYPE svg PUBLIC "-//W3C//DTD SVG 1.1//EN" "http://www.w3.org/Graphics/SVG/1.1/DTD/svg11.dtd"><svg width="100%" height="100%" viewBox="0 0 24 24" version="1.1" xmlns="http://www.w3.org/2000/svg" xmlns:xlink="http://www.w3.org/1999/xlink" xml:space="preserve" xmlns:serif="http://www.serif.com/" style="fill-rule:evenodd;clip-rule:evenodd;stroke-linejoin:round;stroke-miterlimit:2;"><rect id="offer" x="0" y="0" width="24" height="24" style="fill:none;"/><path d="M2.426,15.406c-0.041,-0.12 -0.021,-0.253 0.053,-0.356c0.074,-0.103 0.193,-0.165 0.32,-0.165c1.573,-0.002 6.091,-0.002 7.401,-0.002c0.199,-0 0.36,0.161 0.36,0.359c-0,0.703 -0,2.28 -0,3.298c-0,0.157 0.094,0.298 0.239,0.358c0.145,0.059 0.311,0.026 0.421,-0.085c1.364,-1.369 4.467,-4.486 5.719,-5.743c0.298,-0.298 0.298,-0.782 -0,-1.08c-1.269,-1.275 -4.443,-4.461 -5.776,-5.799c-0.101,-0.101 -0.253,-0.132 -0.385,-0.077c-0.132,0.055 -0.218,0.183 -0.218,0.326c-0,1.001 -0,2.614 -0,3.35c-0,0.214 -0.174,0.387 -0.388,0.387c-1.387,0 -6.101,0 -7.664,0c-0.126,0.001 -0.245,-0.056 -0.324,-0.155c-0.079,-0.098 -0.109,-0.226 -0.082,-0.349c1.055,-4.444 5.052,-7.755 9.816,-7.755c5.564,-0 10.082,4.517 10.082,10.082c0,5.565 -4.518,10.082 -10.082,10.082c-4.37,0 -8.093,-2.785 -9.492,-6.676Z"/></svg>