<?xml version="1.0" encoding="UTF-8" standalone="no"?><!DOCTYPE svg PUBLIC "-//W3C//DTD SVG 1.1//EN" "http://www.w3.org/Graphics/SVG/1.1/DTD/svg11.dtd"><svg width="100%" height="100%" viewBox="0 0 24 24" version="1.1" xmlns="http://www.w3.org/2000/svg" xmlns:xlink="http://www.w3.org/1999/xlink" xml:space="preserve" xmlns:serif="http://www.serif.com/" style="fill-rule:evenodd;clip-rule:evenodd;stroke-linejoin:round;stroke-miterlimit:2;"><rect id="parking_local" x="0" y="0" width="24" height="24" style="fill:none;"/><g><path d="M12.79,3l-4.79,0c-1.1,0 -2,0.9 -2,2l0,14c0,1.1 0.9,2 2,2c1.1,0 2,-0.9 2,-2l0,-4l3,0c3.57,0 6.42,-3.13 5.95,-6.79c-0.39,-3.02 -3.11,-5.21 -6.16,-5.21Zm0.41,8l-3.2,0l0,-4l3.2,0c1.1,0 2,0.9 2,2c0,1.1 -0.9,2 -2,2Z" style="fill-rule:nonzero;"/></g></svg>