<?xml version="1.0" encoding="UTF-8" standalone="no"?><!DOCTYPE svg PUBLIC "-//W3C//DTD SVG 1.1//EN" "http://www.w3.org/Graphics/SVG/1.1/DTD/svg11.dtd"><svg width="100%" height="100%" viewBox="0 0 24 25" version="1.1" xmlns="http://www.w3.org/2000/svg" xmlns:xlink="http://www.w3.org/1999/xlink" xml:space="preserve" xmlns:serif="http://www.serif.com/" style="fill-rule:evenodd;clip-rule:evenodd;stroke-linejoin:round;stroke-miterlimit:2;"><rect id="pen_nib_line" x="0" y="0.398" width="24" height="24" style="fill:none;"/><path d="M6.206,18.149l-2.303,-6.873c-0.533,-0.23 -0.907,-0.76 -0.907,-1.378c0,-0.828 0.672,-1.5 1.5,-1.5c0.026,0 0.052,0.001 0.078,0.002l2.388,-2.406c-0.002,-0.029 -0.002,-0.059 -0.002,-0.089c-0,-0.828 0.672,-1.5 1.5,-1.5c0.827,0 1.5,0.672 1.5,1.5c-0,0.828 -0.673,1.5 -1.5,1.5c-0.027,0 -0.052,-0.001 -0.078,-0.002l-2.388,2.406c0.001,0.03 0.002,0.059 0.002,0.089c0,0.27 -0.071,0.524 -0.196,0.743l2.302,6.872c0.534,0.23 0.907,0.761 0.907,1.378c0,0.828 -0.672,1.5 -1.5,1.5c-0.828,0 -1.5,-0.672 -1.5,-1.5c0,-0.27 0.072,-0.523 0.197,-0.742Zm3.614,-1.91c-0.074,0.273 0.004,0.564 0.204,0.764c0.2,0.2 0.492,0.278 0.764,0.204c1.806,-0.488 4.934,-1.334 5.989,-1.619c0.229,-0.062 0.42,-0.218 0.527,-0.429c0.341,-0.677 1.12,-2.221 1.523,-3.019c0.15,-0.298 0.092,-0.658 -0.143,-0.893l-2.889,-2.889c-0.243,-0.243 -0.615,-0.303 -0.922,-0.148c-0.807,0.407 -2.348,1.184 -3.015,1.521c-0.205,0.103 -0.356,0.288 -0.416,0.509c-0.282,1.044 -1.132,4.187 -1.622,5.999Zm3.957,-4.896c0.527,-0.527 1.381,-0.527 1.907,0c0.527,0.526 0.527,1.38 -0,1.905c-0.526,0.526 -1.38,0.526 -1.907,0c-0.528,-0.525 -0.528,-1.379 -0,-1.905Zm6.911,-1.314c0.174,-0.174 0.174,-0.457 0,-0.631c-0.715,-0.715 -2.447,-2.449 -3.111,-3.113c-0.07,-0.07 -0.165,-0.11 -0.264,-0.11c-0.1,0 -0.195,0.04 -0.265,0.11c-0.189,0.189 -0.444,0.443 -0.642,0.642c-0.083,0.083 -0.13,0.195 -0.13,0.312c0,0.118 0.047,0.23 0.129,0.313c0.709,0.709 2.428,2.429 3.102,3.103c0.073,0.073 0.173,0.115 0.277,0.115c0.104,-0 0.204,-0.041 0.278,-0.115c0.186,-0.186 0.432,-0.432 0.626,-0.626Z"/></svg>