<?xml version="1.0" encoding="UTF-8" standalone="no"?><!DOCTYPE svg PUBLIC "-//W3C//DTD SVG 1.1//EN" "http://www.w3.org/Graphics/SVG/1.1/DTD/svg11.dtd"><svg width="100%" height="100%" viewBox="0 0 24 25" version="1.1" xmlns="http://www.w3.org/2000/svg" xmlns:xlink="http://www.w3.org/1999/xlink" xml:space="preserve" xmlns:serif="http://www.serif.com/" style="fill-rule:evenodd;clip-rule:evenodd;stroke-linejoin:round;stroke-miterlimit:2;"><rect id="pen_nib" x="0" y="0.398" width="24" height="24" style="fill:none;"/><path d="M5.361,18.071c-0.074,0.273 0.004,0.565 0.204,0.764c0.199,0.2 0.491,0.278 0.764,0.204c2.172,-0.587 6.371,-1.722 7.62,-2.06c0.229,-0.062 0.42,-0.217 0.527,-0.429c0.407,-0.808 1.453,-2.88 1.936,-3.837c0.15,-0.298 0.092,-0.658 -0.143,-0.893l-3.674,-3.674c-0.243,-0.243 -0.615,-0.303 -0.922,-0.148c-0.968,0.489 -3.038,1.532 -3.834,1.934c-0.204,0.103 -0.355,0.288 -0.415,0.51c-0.334,1.234 -1.474,5.451 -2.063,7.629Zm4.874,-6.218c0.64,-0.64 1.675,-0.64 2.312,-0c0.64,0.637 0.64,1.672 0,2.31c-0.637,0.637 -1.672,0.637 -2.312,-0c-0.64,-0.638 -0.64,-1.673 -0,-2.31Zm8.448,-1.661c0.174,-0.174 0.174,-0.457 -0,-0.631c-0.84,-0.84 -3.118,-3.12 -3.896,-3.898c-0.07,-0.07 -0.165,-0.11 -0.265,-0.11c-0.099,0 -0.194,0.039 -0.264,0.11c-0.253,0.252 -0.634,0.633 -0.902,0.901c-0.173,0.172 -0.173,0.452 -0,0.625c0.832,0.833 3.095,3.096 3.886,3.888c0.153,0.153 0.401,0.153 0.555,0c0.252,-0.252 0.623,-0.622 0.886,-0.885Z"/></svg>