<?xml version="1.0" encoding="UTF-8" standalone="no"?><!DOCTYPE svg PUBLIC "-//W3C//DTD SVG 1.1//EN" "http://www.w3.org/Graphics/SVG/1.1/DTD/svg11.dtd"><svg width="100%" height="100%" viewBox="0 0 24 24" version="1.1" xmlns="http://www.w3.org/2000/svg" xmlns:xlink="http://www.w3.org/1999/xlink" xml:space="preserve" xmlns:serif="http://www.serif.com/" style="fill-rule:evenodd;clip-rule:evenodd;stroke-linejoin:round;stroke-miterlimit:2;"><rect id="people" x="0" y="0" width="24" height="24" style="fill:none;"/><g><path d="M15,8c0,-1.42 -0.5,-2.73 -1.33,-3.76c0.42,-0.14 0.86,-0.24 1.33,-0.24c2.21,0 4,1.79 4,4c0,2.21 -1.79,4 -4,4c-0.43,0 -0.84,-0.09 -1.23,-0.21c-0.03,-0.01 -0.06,-0.02 -0.1,-0.03c0.83,-1.03 1.33,-2.34 1.33,-3.76Zm1.66,5.13c1.37,0.93 2.34,2.19 2.34,3.87l0,3l4,0l0,-3c0,-2.18 -3.58,-3.47 -6.34,-3.87Zm-7.66,-9.13c2.21,0 4,1.79 4,4c0,2.21 -1.79,4 -4,4c-2.21,0 -4,-1.79 -4,-4c0,-2.21 1.79,-4 4,-4Zm0,9c2.67,0 8,1.34 8,4l0,3l-16,0l0,-3c0,-2.66 5.33,-4 8,-4Z" style="fill-rule:nonzero;"/></g></svg>