<?xml version="1.0" encoding="UTF-8" standalone="no"?><!DOCTYPE svg PUBLIC "-//W3C//DTD SVG 1.1//EN" "http://www.w3.org/Graphics/SVG/1.1/DTD/svg11.dtd"><svg width="100%" height="100%" viewBox="0 0 24 24" version="1.1" xmlns="http://www.w3.org/2000/svg" xmlns:xlink="http://www.w3.org/1999/xlink" xml:space="preserve" xmlns:serif="http://www.serif.com/" style="fill-rule:evenodd;clip-rule:evenodd;stroke-linejoin:round;stroke-miterlimit:2;"><rect id="people_contact" x="0" y="0" width="24" height="24" style="fill:none;"/><path id="Path_10040" d="M11.088,7.771c-0,1.657 -1.363,3.02 -3.02,3.02c-1.657,-0 -3.02,-1.363 -3.02,-3.02c-0,-1.657 1.363,-3.02 3.02,-3.02c1.657,-0 3.02,1.363 3.02,3.02Zm4.833,-3.02c-1.657,-0 -3.02,1.363 -3.02,3.02c-0,1.657 1.363,3.02 3.02,3.02c1.657,-0 3.02,-1.363 3.02,-3.02c-0,-1.657 -1.363,-3.02 -3.02,-3.02Zm0.4,7.249c-1.821,-0.058 -3.519,0.95 -4.339,2.577c-0.825,-1.623 -2.519,-2.629 -4.339,-2.577c-4.019,-0 -5.3,3.774 -5.618,7.249l19.937,-0c-0.343,-3.474 -1.621,-7.249 -5.64,-7.249l-0.001,-0Z"/></svg>