<?xml version="1.0" encoding="UTF-8" standalone="no"?><!DOCTYPE svg PUBLIC "-//W3C//DTD SVG 1.1//EN" "http://www.w3.org/Graphics/SVG/1.1/DTD/svg11.dtd"><svg width="100%" height="100%" viewBox="0 0 24 24" version="1.1" xmlns="http://www.w3.org/2000/svg" xmlns:xlink="http://www.w3.org/1999/xlink" xml:space="preserve" xmlns:serif="http://www.serif.com/" style="fill-rule:evenodd;clip-rule:evenodd;stroke-linejoin:round;stroke-miterlimit:2;"><rect id="person_add" x="0" y="0" width="24" height="24" style="fill:none;"/><path d="M15.39,14.56c-1.68,-0.86 -3.86,-1.56 -6.39,-1.56c-2.53,0 -4.71,0.7 -6.39,1.56c-1,0.51 -1.61,1.54 -1.61,2.66l0,2.78l16,0l0,-2.78c0,-1.12 -0.61,-2.15 -1.61,-2.66Zm-6.39,-2.56c2.21,0 4,-1.79 4,-4c0,-2.21 -1.79,-4 -4,-4c-2.21,0 -4,1.79 -4,4c0,2.21 1.79,4 4,4Zm11,-3l0,-2c0,-0.55 -0.45,-1 -1,-1c-0.55,0 -1,0.45 -1,1l0,2l-2,0c-0.55,0 -1,0.45 -1,1c0,0.55 0.45,1 1,1l2,0l0,2c0,0.55 0.45,1 1,1c0.55,0 1,-0.45 1,-1l0,-2l2,0c0.55,0 1,-0.45 1,-1c0,-0.55 -0.45,-1 -1,-1l-2,0Z" style="fill-rule:nonzero;"/></svg>