<?xml version="1.0" encoding="UTF-8" standalone="no"?><!DOCTYPE svg PUBLIC "-//W3C//DTD SVG 1.1//EN" "http://www.w3.org/Graphics/SVG/1.1/DTD/svg11.dtd"><svg width="100%" height="100%" viewBox="0 0 25 24" version="1.1" xmlns="http://www.w3.org/2000/svg" xmlns:xlink="http://www.w3.org/1999/xlink" xml:space="preserve" xmlns:serif="http://www.serif.com/" style="fill-rule:evenodd;clip-rule:evenodd;stroke-linejoin:round;stroke-miterlimit:2;"><rect id="person_error_circle" x="0.912" y="0" width="24" height="24" style="fill:none;"/><g><path d="M11.94,12.494c-0.208,-0.009 -0.415,-0.018 -0.631,-0.018c-2.279,-0 -4.408,0.631 -6.225,1.714c-0.829,0.489 -1.309,1.412 -1.309,2.382l-0,1.554c-0,0.518 0.424,0.942 0.941,0.942l7.779,-0c-0.744,-1.064 -1.186,-2.364 -1.186,-3.767c-0,-1.008 0.235,-1.95 0.631,-2.807Z" style="fill-rule:nonzero;"/><circle cx="11.166" cy="7.767" r="3.767"/><g><path d="M17.479,10.857c-2.524,0 -4.572,2.048 -4.572,4.572c0,2.523 2.048,4.571 4.572,4.571c2.523,0 4.571,-2.048 4.571,-4.571c0,-2.524 -2.048,-4.572 -4.571,-4.572Zm-0,5.029c-0.252,-0 -0.457,-0.206 -0.457,-0.457l-0,-1.829c-0,-0.251 0.205,-0.457 0.457,-0.457c0.251,-0 0.457,0.206 0.457,0.457l-0,1.829c-0,0.251 -0.206,0.457 -0.457,0.457Zm-0,1.828c-0.252,0 -0.457,-0.205 -0.457,-0.457c-0,-0.251 0.205,-0.457 0.457,-0.457c0.251,0 0.457,0.206 0.457,0.457c-0,0.252 -0.206,0.457 -0.457,0.457Z" style="fill-rule:nonzero;"/></g></g></svg>