<?xml version="1.0" encoding="UTF-8" standalone="no"?><!DOCTYPE svg PUBLIC "-//W3C//DTD SVG 1.1//EN" "http://www.w3.org/Graphics/SVG/1.1/DTD/svg11.dtd"><svg width="100%" height="100%" viewBox="0 0 24 24" version="1.1" xmlns="http://www.w3.org/2000/svg" xmlns:xlink="http://www.w3.org/1999/xlink" xml:space="preserve" xmlns:serif="http://www.serif.com/" style="fill-rule:evenodd;clip-rule:evenodd;stroke-linejoin:round;stroke-miterlimit:2;"><rect id="photo" x="0" y="0" width="24" height="24" style="fill:none;"/><g><path d="M19,3l-14,0c-1.1,0 -2,0.9 -2,2l0,14c0,1.1 0.9,2 2,2l14,0c1.1,0 2,-0.9 2,-2l0,-14c0,-1.1 -0.9,-2 -2,-2Zm-12.4,13.2l2,-2.67c0.2,-0.27 0.6,-0.27 0.8,-0l1.85,2.47l2.6,-3.47c0.2,-0.27 0.6,-0.27 0.8,-0l2.75,3.67c0.25,0.33 0.01,0.8 -0.4,0.8l-10,-0c-0.41,-0 -0.65,-0.47 -0.4,-0.8Z" style="fill-rule:nonzero;"/></g></svg>