<?xml version="1.0" encoding="UTF-8" standalone="no"?><!DOCTYPE svg PUBLIC "-//W3C//DTD SVG 1.1//EN" "http://www.w3.org/Graphics/SVG/1.1/DTD/svg11.dtd"><svg width="100%" height="100%" viewBox="0 0 24 24" version="1.1" xmlns="http://www.w3.org/2000/svg" xmlns:xlink="http://www.w3.org/1999/xlink" xml:space="preserve" xmlns:serif="http://www.serif.com/" style="fill-rule:evenodd;clip-rule:evenodd;stroke-linejoin:round;stroke-miterlimit:2;"><rect id="place" x="0" y="0" width="24" height="24" style="fill:none;"/><g><path d="M12,2c-4.2,0 -8,3.22 -8,8.2c0,3.18 2.45,6.92 7.34,11.23c0.38,0.33 0.95,0.33 1.33,0c4.88,-4.31 7.33,-8.05 7.33,-11.23c0,-4.98 -3.8,-8.2 -8,-8.2Zm0,10c-1.1,0 -2,-0.9 -2,-2c0,-1.1 0.9,-2 2,-2c1.1,0 2,0.9 2,2c0,1.1 -0.9,2 -2,2Z" style="fill-rule:nonzero;"/></g></svg>