<?xml version="1.0" encoding="UTF-8" standalone="no"?><!DOCTYPE svg PUBLIC "-//W3C//DTD SVG 1.1//EN" "http://www.w3.org/Graphics/SVG/1.1/DTD/svg11.dtd"><svg width="100%" height="100%" viewBox="0 0 24 24" version="1.1" xmlns="http://www.w3.org/2000/svg" xmlns:xlink="http://www.w3.org/1999/xlink" xml:space="preserve" xmlns:serif="http://www.serif.com/" style="fill-rule:evenodd;clip-rule:evenodd;stroke-linejoin:round;stroke-miterlimit:2;"><rect id="playlist_add_check" x="0" y="0" width="24" height="24" style="fill:none;"/><g><path d="M15.534,9.812l-11.435,-0c-0.524,-0 -0.953,0.429 -0.953,0.953c-0,0.524 0.429,0.953 0.953,0.953l11.435,-0c0.524,-0 0.953,-0.429 0.953,-0.953c0,-0.524 -0.429,-0.953 -0.953,-0.953Z" style="fill-rule:nonzero;"/><path d="M15.534,6l-11.435,0c-0.524,0 -0.953,0.429 -0.953,0.953c-0,0.524 0.429,0.953 0.953,0.953l11.435,-0c0.524,-0 0.953,-0.429 0.953,-0.953c0,-0.524 -0.429,-0.953 -0.953,-0.953Z" style="fill-rule:nonzero;"/><path d="M4.099,15.529l4.765,0c0.524,0 0.953,-0.428 0.953,-0.952c-0,-0.525 -0.429,-0.953 -0.953,-0.953l-4.765,-0c-0.524,-0 -0.953,0.428 -0.953,0.953c-0,0.524 0.429,0.952 0.953,0.952Z" style="fill-rule:nonzero;"/><path d="M19.232,12.328l-3.374,3.373l-1.343,-1.344c-0.372,-0.371 -0.972,-0.371 -1.344,0c-0.372,0.372 -0.372,0.972 -0,1.344l2.02,2.02c0.372,0.372 0.972,0.372 1.344,0l4.04,-4.04c0.372,-0.372 0.372,-0.972 0,-1.344c-0.371,-0.381 -0.972,-0.381 -1.343,-0.009Z" style="fill-rule:nonzero;"/></g></svg>