<?xml version="1.0" encoding="UTF-8" standalone="no"?><!DOCTYPE svg PUBLIC "-//W3C//DTD SVG 1.1//EN" "http://www.w3.org/Graphics/SVG/1.1/DTD/svg11.dtd"><svg width="100%" height="100%" viewBox="0 0 25 25" version="1.1" xmlns="http://www.w3.org/2000/svg" xmlns:xlink="http://www.w3.org/1999/xlink" xml:space="preserve" xmlns:serif="http://www.serif.com/" style="fill-rule:evenodd;clip-rule:evenodd;stroke-linejoin:round;stroke-miterlimit:2;"><rect id="power_button" x="0.466" y="0.398" width="24" height="24" style="fill:none;"/><g><path d="M12.466,3.398c-0.55,0 -1,0.45 -1,1l-0,8c-0,0.55 0.45,1 1,1c0.55,0 1,-0.45 1,-1l-0,-8c-0,-0.55 -0.45,-1 -1,-1Zm5.14,2.86c-0.39,0.39 -0.38,1 -0.01,1.39c1.13,1.2 1.83,2.8 1.87,4.57c0.09,3.83 -3.08,7.13 -6.91,7.17c-3.91,0.06 -7.09,-3.09 -7.09,-6.99c-0,-1.84 0.71,-3.51 1.87,-4.76c0.37,-0.39 0.37,-1 -0.01,-1.38c-0.4,-0.4 -1.05,-0.39 -1.43,0.02c-1.45,1.54 -2.36,3.59 -2.43,5.86c-0.14,4.88 3.83,9.1 8.71,9.25c5.1,0.16 9.29,-3.93 9.29,-9c-0,-2.37 -0.92,-4.51 -2.42,-6.11c-0.38,-0.41 -1.04,-0.42 -1.44,-0.02Z" style="fill-rule:nonzero;"/></g></svg>