<?xml version="1.0" encoding="UTF-8" standalone="no"?><!DOCTYPE svg PUBLIC "-//W3C//DTD SVG 1.1//EN" "http://www.w3.org/Graphics/SVG/1.1/DTD/svg11.dtd"><svg width="100%" height="100%" viewBox="0 0 25 24" version="1.1" xmlns="http://www.w3.org/2000/svg" xmlns:xlink="http://www.w3.org/1999/xlink" xml:space="preserve" xmlns:serif="http://www.serif.com/" style="fill-rule:evenodd;clip-rule:evenodd;stroke-linejoin:round;stroke-miterlimit:2;"><rect id="printer" x="0.48" y="0" width="24" height="24" style="fill:none;"/><g><path d="M18.48,7l-0,-3c-0,-0.55 -0.45,-1 -1,-1l-10,0c-0.55,0 -1,0.45 -1,1l-0,3l12,0Z" style="fill-rule:nonzero;"/><path d="M19.48,8l-14,0c-1.66,0 -3,1.34 -3,3l-0,5c-0,0.55 0.45,1 1,1l3,0l-0,2c-0,1.1 0.9,2 2,2l8,0c1.1,0 2,-0.9 2,-2l-0,-2l3,0c0.55,0 1,-0.45 1,-1l-0,-5c-0,-1.66 -1.34,-3 -3,-3Zm-3,11l-8,0l-0,-4l8,0l-0,4Zm2,-6.5c-0.55,0 -1,-0.45 -1,-1c-0,-0.55 0.45,-1 1,-1c0.55,0 1,0.45 1,1c-0,0.55 -0.45,1 -1,1Z" style="fill-rule:nonzero;"/></g></svg>