<?xml version="1.0" encoding="UTF-8" standalone="no"?><!DOCTYPE svg PUBLIC "-//W3C//DTD SVG 1.1//EN" "http://www.w3.org/Graphics/SVG/1.1/DTD/svg11.dtd"><svg width="100%" height="100%" viewBox="0 0 24 24" version="1.1" xmlns="http://www.w3.org/2000/svg" xmlns:xlink="http://www.w3.org/1999/xlink" xml:space="preserve" xmlns:serif="http://www.serif.com/" style="fill-rule:evenodd;clip-rule:evenodd;stroke-linejoin:round;stroke-miterlimit:2;"><rect id="refresh_alt" x="0" y="0" width="24" height="24" style="fill:none;"/><g><path d="M17.65,6.35c-1.63,-1.63 -3.94,-2.57 -6.48,-2.31c-3.67,0.37 -6.69,3.35 -7.1,7.02c-0.55,4.85 3.2,8.94 7.93,8.94c3.19,0 5.93,-1.87 7.21,-4.56c0.32,-0.67 -0.16,-1.44 -0.9,-1.44c-0.37,0 -0.72,0.2 -0.88,0.53c-1.13,2.43 -3.84,3.97 -6.8,3.31c-2.22,-0.49 -4.01,-2.3 -4.48,-4.52c-0.84,-3.88 2.11,-7.32 5.85,-7.32c1.66,0 3.14,0.69 4.22,1.78l-1.51,1.51c-0.63,0.63 -0.19,1.71 0.7,1.71l3.59,0c0.55,0 1,-0.45 1,-1l0,-3.59c0,-0.89 -1.08,-1.34 -1.71,-0.71l-0.64,0.65Z" style="fill-rule:nonzero;"/></g></svg>