<?xml version="1.0" encoding="UTF-8" standalone="no"?><!DOCTYPE svg PUBLIC "-//W3C//DTD SVG 1.1//EN" "http://www.w3.org/Graphics/SVG/1.1/DTD/svg11.dtd"><svg width="100%" height="100%" viewBox="0 0 24 24" version="1.1" xmlns="http://www.w3.org/2000/svg" xmlns:xlink="http://www.w3.org/1999/xlink" xml:space="preserve" xmlns:serif="http://www.serif.com/" style="fill-rule:evenodd;clip-rule:evenodd;stroke-linejoin:round;stroke-miterlimit:2;"><rect id="refresh" x="0" y="0" width="24" height="24" style="fill:none;"/><g><path d="M10.01,6.35c3.7,-1.34 7.99,1.36 7.99,5.65l-1.79,0c-0.45,0 -0.67,0.54 -0.35,0.85l2.79,2.79c0.2,0.2 0.51,0.2 0.71,0l2.79,-2.79c0.31,-0.31 0.09,-0.85 -0.36,-0.85l-1.79,0c0,-5.76 -5.78,-9.39 -10.79,-7.48c-0.63,0.24 -0.78,1.08 -0.3,1.56l0.08,0.08c0.26,0.26 0.66,0.32 1.02,0.19Z" style="fill-rule:nonzero;"/><path d="M13.98,17.64c-3.84,1.37 -7.98,-1.47 -7.98,-5.64l1.79,0c0.45,0 0.67,-0.54 0.35,-0.85l-2.79,-2.79c-0.2,-0.2 -0.51,-0.2 -0.71,0l-2.79,2.79c-0.31,0.31 -0.09,0.85 0.35,0.85l1.8,0c0,5.76 5.78,9.39 10.79,7.48c0.63,-0.24 0.78,-1.08 0.3,-1.56l-0.07,-0.07c-0.27,-0.27 -0.67,-0.33 -1.04,-0.21Z" style="fill-rule:nonzero;"/></g></svg>