<?xml version="1.0" encoding="UTF-8" standalone="no"?><!DOCTYPE svg PUBLIC "-//W3C//DTD SVG 1.1//EN" "http://www.w3.org/Graphics/SVG/1.1/DTD/svg11.dtd"><svg width="100%" height="100%" viewBox="0 0 24 24" version="1.1" xmlns="http://www.w3.org/2000/svg" xmlns:xlink="http://www.w3.org/1999/xlink" xml:space="preserve" xmlns:serif="http://www.serif.com/" style="fill-rule:evenodd;clip-rule:evenodd;stroke-linejoin:round;stroke-miterlimit:2;"><rect id="remove_circle_outline" x="-0" y="0" width="24" height="24" style="fill:none;"/><g><path d="M7,12c-0,0.55 0.45,1 1,1l8,0c0.55,0 1,-0.45 1,-1c-0,-0.55 -0.45,-1 -1,-1l-8,0c-0.55,0 -1,0.45 -1,1Zm5,-10c-5.52,0 -10,4.48 -10,10c-0,5.52 4.48,10 10,10c5.52,0 10,-4.48 10,-10c-0,-5.52 -4.48,-10 -10,-10Zm-0,18c-4.41,0 -8,-3.59 -8,-8c-0,-4.41 3.59,-8 8,-8c4.41,0 8,3.59 8,8c-0,4.41 -3.59,8 -8,8Z" style="fill-rule:nonzero;"/></g></svg>