<?xml version="1.0" encoding="UTF-8" standalone="no"?><!DOCTYPE svg PUBLIC "-//W3C//DTD SVG 1.1//EN" "http://www.w3.org/Graphics/SVG/1.1/DTD/svg11.dtd"><svg width="100%" height="100%" viewBox="0 0 25 24" version="1.1" xmlns="http://www.w3.org/2000/svg" xmlns:xlink="http://www.w3.org/1999/xlink" xml:space="preserve" xmlns:serif="http://www.serif.com/" style="fill-rule:evenodd;clip-rule:evenodd;stroke-linejoin:round;stroke-miterlimit:2;"><rect id="rss_feed" x="0.48" y="0" width="24" height="24" style="fill:none;"/><g><circle cx="5.48" cy="19" r="2"/><path d="M4.83,7.06c6.64,0.64 11.95,5.94 12.58,12.58c0.07,0.77 0.72,1.35 1.49,1.35c0.88,0 1.59,-0.76 1.5,-1.63c-0.77,-8.09 -7.2,-14.52 -15.29,-15.29c-0.87,-0.08 -1.63,0.63 -1.63,1.51c-0,0.77 0.58,1.41 1.35,1.48Z" style="fill-rule:nonzero;"/><path d="M3.48,11.62c-0,0.75 0.56,1.36 1.3,1.48c3.37,0.55 6.04,3.22 6.6,6.59c0.12,0.74 0.73,1.3 1.48,1.3c0.93,-0 1.63,-0.84 1.48,-1.75c-0.75,-4.67 -4.44,-8.36 -9.11,-9.11c-0.91,-0.14 -1.75,0.56 -1.75,1.49Z" style="fill-rule:nonzero;"/></g></svg>