<?xml version="1.0" encoding="UTF-8" standalone="no"?><!DOCTYPE svg PUBLIC "-//W3C//DTD SVG 1.1//EN" "http://www.w3.org/Graphics/SVG/1.1/DTD/svg11.dtd"><svg width="100%" height="100%" viewBox="0 0 24 24" version="1.1" xmlns="http://www.w3.org/2000/svg" xmlns:xlink="http://www.w3.org/1999/xlink" xml:space="preserve" xmlns:serif="http://www.serif.com/" style="fill-rule:evenodd;clip-rule:evenodd;stroke-linejoin:round;stroke-miterlimit:2;"><rect id="save" x="0" y="0" width="24" height="24" style="fill:none;"/><g><path d="M16.17,3l-11.17,0c-1.1,0 -2,0.9 -2,2l-0,14c-0,1.1 0.9,2 2,2l14,0c1.1,0 2,-0.9 2,-2l0,-11.17c0,-0.53 -0.21,-1.04 -0.59,-1.41l-2.83,-2.83c-0.37,-0.38 -0.88,-0.59 -1.41,-0.59Zm-4.17,15c-1.66,0 -3,-1.34 -3,-3c0,-1.66 1.34,-3 3,-3c1.66,0 3,1.34 3,3c0,1.66 -1.34,3 -3,3Zm2,-8l-7,0c-0.55,0 -1,-0.45 -1,-1l0,-2c0,-0.55 0.45,-1 1,-1l7,0c0.55,0 1,0.45 1,1l0,2c0,0.55 -0.45,1 -1,1Z" style="fill-rule:nonzero;"/></g></svg>