<?xml version="1.0" encoding="UTF-8" standalone="no"?><!DOCTYPE svg PUBLIC "-//W3C//DTD SVG 1.1//EN" "http://www.w3.org/Graphics/SVG/1.1/DTD/svg11.dtd"><svg width="100%" height="100%" viewBox="0 0 24 24" version="1.1" xmlns="http://www.w3.org/2000/svg" xmlns:xlink="http://www.w3.org/1999/xlink" xml:space="preserve" xmlns:serif="http://www.serif.com/" style="fill-rule:evenodd;clip-rule:evenodd;stroke-linejoin:round;stroke-miterlimit:2;"><rect id="schedule_border" x="0" y="0" width="24" height="24" style="fill:none;"/><path d="M11.99,2c-5.52,0 -9.99,4.48 -9.99,10c0,5.52 4.47,10 9.99,10c5.53,0 10.01,-4.48 10.01,-10c0,-5.52 -4.48,-10 -10.01,-10Zm0.01,18c-4.42,0 -8,-3.58 -8,-8c0,-4.42 3.58,-8 8,-8c4.42,0 8,3.58 8,8c0,4.42 -3.58,8 -8,8Zm0.5,-12.571c-0,-0.237 -0.192,-0.429 -0.429,-0.429c-0.207,0 -0.455,0 -0.66,0c-0.227,-0 -0.411,0.184 -0.411,0.411c0,1.17 0,4.49 0,5.372c-0,0.134 0.071,0.259 0.186,0.329c0.765,0.459 3.671,2.202 4.7,2.82c0.201,0.12 0.463,0.056 0.585,-0.145c0.109,-0.178 0.238,-0.39 0.342,-0.56c0.049,-0.081 0.064,-0.179 0.041,-0.271c-0.023,-0.092 -0.082,-0.171 -0.163,-0.219c-0.858,-0.509 -3.25,-1.929 -3.978,-2.361c-0.132,-0.078 -0.213,-0.22 -0.213,-0.373c-0,-0.83 -0,-3.52 0,-4.574Z" style="fill-rule:nonzero;"/></svg>