<?xml version="1.0" encoding="UTF-8" standalone="no"?><!DOCTYPE svg PUBLIC "-//W3C//DTD SVG 1.1//EN" "http://www.w3.org/Graphics/SVG/1.1/DTD/svg11.dtd"><svg width="100%" height="100%" viewBox="0 0 24 24" version="1.1" xmlns="http://www.w3.org/2000/svg" xmlns:xlink="http://www.w3.org/1999/xlink" xml:space="preserve" xmlns:serif="http://www.serif.com/" style="fill-rule:evenodd;clip-rule:evenodd;stroke-linejoin:round;stroke-miterlimit:2;"><rect id="schedule" x="0" y="0" width="24" height="24" style="fill:none;"/><path d="M11.99,2c-5.52,0 -9.99,4.48 -9.99,10c0,5.52 4.47,10 9.99,10c5.53,0 10.01,-4.48 10.01,-10c0,-5.52 -4.48,-10 -10.01,-10Zm4.01,14c-0.39,0.39 -1.02,0.39 -1.41,0l-3.29,-3.29c-0.19,-0.19 -0.3,-0.44 -0.3,-0.71l0,-4c0,-0.55 0.45,-1 1,-1c0.55,0 1,0.45 1,1l0,3.59l3,3c0.39,0.39 0.39,1.02 0,1.41Z" style="fill-rule:nonzero;"/></svg>