<?xml version="1.0" encoding="UTF-8" standalone="no"?><!DOCTYPE svg PUBLIC "-//W3C//DTD SVG 1.1//EN" "http://www.w3.org/Graphics/SVG/1.1/DTD/svg11.dtd"><svg width="100%" height="100%" viewBox="0 0 24 24" version="1.1" xmlns="http://www.w3.org/2000/svg" xmlns:xlink="http://www.w3.org/1999/xlink" xml:space="preserve" xmlns:serif="http://www.serif.com/" style="fill-rule:evenodd;clip-rule:evenodd;stroke-linejoin:round;stroke-miterlimit:2;"><rect id="search" x="0" y="0" width="24" height="24" style="fill:none;"/><path d="M20.29,18.88l-5.56,-5.56c1.13,-1.55 1.63,-3.58 0.98,-5.74c-0.68,-2.23 -2.57,-3.98 -4.85,-4.44c-4.65,-0.94 -8.66,3.08 -7.72,7.72c0.46,2.29 2.21,4.18 4.44,4.85c2.16,0.65 4.19,0.15 5.74,-0.98l5.56,5.56c0.39,0.39 1.02,0.39 1.41,0c0.39,-0.39 0.39,-1.02 -0,-1.41Zm-15.29,-9.38c-0,-2.49 2.01,-4.5 4.5,-4.5c2.49,0 4.5,2.01 4.5,4.5c-0,2.49 -2.01,4.5 -4.5,4.5c-2.49,0 -4.5,-2.01 -4.5,-4.5Z" style="fill-rule:nonzero;"/></svg>