<?xml version="1.0" encoding="UTF-8" standalone="no"?><!DOCTYPE svg PUBLIC "-//W3C//DTD SVG 1.1//EN" "http://www.w3.org/Graphics/SVG/1.1/DTD/svg11.dtd"><svg width="100%" height="100%" viewBox="0 0 24 24" version="1.1" xmlns="http://www.w3.org/2000/svg" xmlns:xlink="http://www.w3.org/1999/xlink" xml:space="preserve" xmlns:serif="http://www.serif.com/" style="fill-rule:evenodd;clip-rule:evenodd;stroke-linejoin:round;stroke-miterlimit:2;"><rect id="settings" x="0" y="0" width="24" height="24" style="fill:none;"/><path d="M19.5,12c0,-0.23 -0.01,-0.45 -0.03,-0.68l1.86,-1.41c0.4,-0.3 0.51,-0.86 0.26,-1.3l-1.87,-3.23c-0.25,-0.44 -0.79,-0.62 -1.25,-0.42l-2.15,0.91c-0.37,-0.26 -0.76,-0.49 -1.17,-0.68l-0.29,-2.31c-0.06,-0.5 -0.49,-0.88 -0.99,-0.88l-3.73,0c-0.51,0 -0.94,0.38 -1,0.88l-0.29,2.31c-0.41,0.19 -0.8,0.42 -1.17,0.68l-2.15,-0.91c-0.46,-0.2 -1,-0.02 -1.25,0.42l-1.87,3.24c-0.25,0.44 -0.14,0.99 0.26,1.3l1.86,1.41c-0.02,0.22 -0.03,0.44 -0.03,0.67c-0,0.23 0.01,0.45 0.03,0.68l-1.86,1.41c-0.4,0.3 -0.51,0.86 -0.26,1.3l1.87,3.23c0.25,0.44 0.79,0.62 1.25,0.42l2.15,-0.91c0.37,0.26 0.76,0.49 1.17,0.68l0.29,2.31c0.06,0.5 0.49,0.88 0.99,0.88l3.73,0c0.5,0 0.93,-0.38 0.99,-0.88l0.29,-2.31c0.41,-0.19 0.8,-0.42 1.17,-0.68l2.15,0.91c0.46,0.2 1,0.02 1.25,-0.42l1.87,-3.23c0.25,-0.44 0.14,-0.99 -0.26,-1.3l-1.86,-1.41c0.03,-0.23 0.04,-0.45 0.04,-0.68Zm-7.46,3.5c-1.93,0 -3.5,-1.57 -3.5,-3.5c0,-1.93 1.57,-3.5 3.5,-3.5c1.93,0 3.5,1.57 3.5,3.5c0,1.93 -1.57,3.5 -3.5,3.5Z" style="fill-rule:nonzero;"/></svg>