<?xml version="1.0" encoding="UTF-8" standalone="no"?><!DOCTYPE svg PUBLIC "-//W3C//DTD SVG 1.1//EN" "http://www.w3.org/Graphics/SVG/1.1/DTD/svg11.dtd"><svg width="100%" height="100%" viewBox="0 0 24 24" version="1.1" xmlns="http://www.w3.org/2000/svg" xmlns:xlink="http://www.w3.org/1999/xlink" xml:space="preserve" xmlns:serif="http://www.serif.com/" style="fill-rule:evenodd;clip-rule:evenodd;stroke-linejoin:round;stroke-miterlimit:2;"><rect id="share" x="0" y="0" width="24" height="24" style="fill:none;"/><g><path d="M18,16c-0.79,0 -1.5,0.31 -2.03,0.81l-7.06,-4.11c0.05,-0.23 0.09,-0.46 0.09,-0.7c0,-0.24 -0.04,-0.47 -0.09,-0.7l7.05,-4.11c0.53,0.5 1.25,0.81 2.04,0.81c1.66,0 3,-1.34 3,-3c0,-1.66 -1.34,-3 -3,-3c-1.66,0 -3,1.34 -3,3c0,0.24 0.04,0.48 0.09,0.7l-7.05,4.11c-0.54,-0.5 -1.25,-0.81 -2.04,-0.81c-1.66,0 -3,1.34 -3,3c0,1.66 1.34,3 3,3c0.79,0 1.5,-0.31 2.04,-0.81l7.05,4.12c-0.05,0.22 -0.09,0.45 -0.09,0.69c0,1.66 1.34,3 3,3c1.66,0 3,-1.34 3,-3c0,-1.66 -1.34,-3 -3,-3Z" style="fill-rule:nonzero;"/></g></svg>