<?xml version="1.0" encoding="UTF-8" standalone="no"?><!DOCTYPE svg PUBLIC "-//W3C//DTD SVG 1.1//EN" "http://www.w3.org/Graphics/SVG/1.1/DTD/svg11.dtd"><svg width="100%" height="100%" viewBox="0 0 24 24" version="1.1" xmlns="http://www.w3.org/2000/svg" xmlns:xlink="http://www.w3.org/1999/xlink" xml:space="preserve" xmlns:serif="http://www.serif.com/" style="fill-rule:evenodd;clip-rule:evenodd;stroke-linejoin:round;stroke-miterlimit:2;"><rect id="share_ios" x="0" y="0" width="24" height="24" style="fill:none;"/><g><path d="M18,8l-2,0c-0.55,0 -1,0.45 -1,1c0,0.55 0.45,1 1,1l2,0l0,11l-12,0l0,-11l2,0c0.55,0 1,-0.45 1,-1c0,-0.55 -0.45,-1 -1,-1l-2,0c-1.1,0 -2,0.9 -2,2l0,11c0,1.1 0.9,2 2,2l12,0c1.1,0 2,-0.9 2,-2l0,-11c0,-1.1 -0.9,-2 -2,-2Z" style="fill-rule:nonzero;"/><path d="M12,16c0.55,0 1,-0.45 1,-1l0,-10l1.79,0c0.45,0 0.67,-0.54 0.35,-0.85l-2.79,-2.79c-0.2,-0.2 -0.51,-0.2 -0.71,0l-2.79,2.79c-0.31,0.31 -0.09,0.85 0.36,0.85l1.79,0l0,10c0,0.55 0.45,1 1,1Z" style="fill-rule:nonzero;"/></g></svg>