<?xml version="1.0" encoding="UTF-8" standalone="no"?><!DOCTYPE svg PUBLIC "-//W3C//DTD SVG 1.1//EN" "http://www.w3.org/Graphics/SVG/1.1/DTD/svg11.dtd"><svg width="100%" height="100%" viewBox="0 0 24 24" version="1.1" xmlns="http://www.w3.org/2000/svg" xmlns:xlink="http://www.w3.org/1999/xlink" xml:space="preserve" xmlns:serif="http://www.serif.com/" style="fill-rule:evenodd;clip-rule:evenodd;stroke-linejoin:round;stroke-miterlimit:2;"><rect id="shopping_cart" x="0" y="0" width="24" height="24" style="fill:none;"/><g><path d="M15.55,13c1.22,0 1.74,-1.01 1.75,-1.03l3.55,-6.44c0.23,-0.45 0.18,-0.84 -0.01,-1.11c-0.18,-0.26 -0.51,-0.42 -0.84,-0.42l-14.79,0l-0.67,-1.43c-0.16,-0.35 -0.52,-0.57 -0.9,-0.57l-1.64,0c-0.55,0 -1,0.45 -1,1c0,0.55 0.45,1 1,1l1,0l3.6,7.59l-1.35,2.44c-0.73,1.34 0.23,2.97 1.75,2.97l11,0c0.55,0 1,-0.45 1,-1c0,-0.55 -0.45,-1 -1,-1l-11,0l1.1,-2l7.45,0Z" style="fill-rule:nonzero;"/><circle cx="7" cy="20" r="2"/><circle cx="17" cy="20" r="2"/></g></svg>