<?xml version="1.0" encoding="UTF-8" standalone="no"?><!DOCTYPE svg PUBLIC "-//W3C//DTD SVG 1.1//EN" "http://www.w3.org/Graphics/SVG/1.1/DTD/svg11.dtd"><svg width="100%" height="100%" viewBox="0 0 24 24" version="1.1" xmlns="http://www.w3.org/2000/svg" xmlns:xlink="http://www.w3.org/1999/xlink" xml:space="preserve" xmlns:serif="http://www.serif.com/" style="fill-rule:evenodd;clip-rule:evenodd;stroke-linejoin:round;stroke-miterlimit:2;"><rect id="spinner" x="0" y="0" width="24" height="24" style="fill:none;"/><g><path d="M13.004,18.575c-0.277,-0.278 -0.612,-0.416 -1.004,-0.416c-0.392,-0 -0.727,0.138 -1.004,0.416c-0.278,0.277 -0.417,0.612 -0.417,1.004c0,0.392 0.139,0.727 0.417,1.005c0.277,0.277 0.612,0.416 1.004,0.416c0.392,0 0.727,-0.139 1.004,-0.416c0.278,-0.278 0.417,-0.613 0.417,-1.005c-0,-0.392 -0.139,-0.727 -0.417,-1.004Zm-5.128,-2.122c-0.277,-0.277 -0.612,-0.416 -1.004,-0.416c-0.393,0 -0.727,0.139 -1.005,0.416c-0.277,0.278 -0.416,0.613 -0.416,1.005c-0,0.385 0.14,0.718 0.421,0.999c0.282,0.281 0.615,0.422 1,0.422c0.392,-0 0.727,-0.139 1.004,-0.417c0.278,-0.277 0.416,-0.612 0.416,-1.004c0,-0.392 -0.138,-0.727 -0.416,-1.005Zm10.673,1.005c0,-0.392 -0.139,-0.727 -0.416,-1.005c-0.278,-0.277 -0.612,-0.416 -1.005,-0.416c-0.392,0 -0.727,0.139 -1.004,0.416c-0.278,0.278 -0.416,0.613 -0.416,1.005c-0,0.392 0.138,0.727 0.416,1.004c0.277,0.278 0.612,0.417 1.004,0.417c0.385,-0 0.718,-0.141 1,-0.422c0.281,-0.281 0.421,-0.614 0.421,-0.999Zm-12.794,-6.133c-0.278,-0.277 -0.613,-0.416 -1.005,-0.416c-0.392,-0 -0.727,0.139 -1.004,0.416c-0.278,0.278 -0.416,0.612 -0.416,1.005c-0,0.392 0.138,0.727 0.416,1.004c0.277,0.277 0.612,0.416 1.004,0.416c0.392,0 0.727,-0.139 1.005,-0.416c0.277,-0.277 0.416,-0.612 0.416,-1.004c-0,-0.393 -0.139,-0.727 -0.416,-1.005Zm14.499,0c-0.277,-0.277 -0.612,-0.416 -1.004,-0.416c-0.392,-0 -0.727,0.139 -1.005,0.416c-0.277,0.278 -0.416,0.612 -0.416,1.005c0,0.392 0.139,0.727 0.416,1.004c0.278,0.277 0.613,0.416 1.005,0.416c0.392,0 0.727,-0.139 1.004,-0.416c0.278,-0.277 0.416,-0.612 0.416,-1.004c0,-0.393 -0.138,-0.727 -0.416,-1.005Zm-0.716,-4.124c-0,-0.66 -0.237,-1.226 -0.71,-1.699c-0.473,-0.474 -1.04,-0.71 -1.7,-0.71c-0.667,-0 -1.235,0.237 -1.705,0.71c-0.469,0.473 -0.704,1.04 -0.704,1.699c0,0.667 0.235,1.235 0.705,1.705c0.469,0.47 1.038,0.704 1.704,0.704c0.66,0 1.227,-0.234 1.7,-0.704c0.473,-0.47 0.71,-1.038 0.71,-1.705Zm-11.43,-1.236c-0.343,-0.343 -0.755,-0.514 -1.236,-0.514c-0.482,-0 -0.894,0.171 -1.237,0.514c-0.342,0.343 -0.514,0.755 -0.514,1.236c0,0.481 0.172,0.894 0.514,1.236c0.343,0.343 0.755,0.514 1.237,0.514c0.481,0 0.893,-0.171 1.236,-0.514c0.343,-0.342 0.514,-0.755 0.514,-1.236c-0,-0.481 -0.171,-0.893 -0.514,-1.236Zm5.365,-2.358c-0.404,-0.405 -0.895,-0.607 -1.473,-0.607c-0.578,0 -1.069,0.202 -1.473,0.607c-0.404,0.404 -0.607,0.895 -0.607,1.473c0,0.577 0.203,1.068 0.607,1.473c0.404,0.404 0.895,0.606 1.473,0.606c0.578,0 1.069,-0.202 1.473,-0.606c0.404,-0.405 0.607,-0.896 0.607,-1.473c-0,-0.578 -0.203,-1.069 -0.607,-1.473Z" style="fill-rule:nonzero;"/></g></svg>