<?xml version="1.0" encoding="UTF-8" standalone="no"?><!DOCTYPE svg PUBLIC "-//W3C//DTD SVG 1.1//EN" "http://www.w3.org/Graphics/SVG/1.1/DTD/svg11.dtd"><svg width="100%" height="100%" viewBox="0 0 24 24" version="1.1" xmlns="http://www.w3.org/2000/svg" xmlns:xlink="http://www.w3.org/1999/xlink" xml:space="preserve" xmlns:serif="http://www.serif.com/" style="fill-rule:evenodd;clip-rule:evenodd;stroke-linejoin:round;stroke-miterlimit:2;"><rect id="st_logo_pictogram" x="0" y="0" width="24" height="24" style="fill:none;"/><g><path id="Path_Copy" d="M16.909,5.873c0.393,-1.034 1.34,-1.761 2.44,-1.873c0.959,-0 1.411,0.847 1.02,1.873c-0.386,1.037 -1.336,1.766 -2.438,1.871c-0.961,0 -1.42,-0.82 -1.022,-1.871Z" style="fill-rule:nonzero;"/><path id="Path_Copy_2" d="M10.441,8.256c0.393,-1.035 1.34,-1.761 2.441,-1.873c0.958,-0 1.41,0.846 1.02,1.873c-0.387,1.037 -1.337,1.766 -2.439,1.871c-0.961,0 -1.42,-0.82 -1.022,-1.871Z" style="fill-rule:nonzero;"/><path id="Path_Copy_3" d="M5.733,18.128c-0.387,1.039 -1.337,1.767 -2.441,1.872c-0.958,-0 -1.42,-0.816 -1.02,-1.872c0.393,-1.033 1.339,-1.76 2.439,-1.872c0.959,-0 1.411,0.846 1.022,1.872Z" style="fill-rule:nonzero;"/><path id="Path_Copy_4" d="M6.356,14.553c-0.958,0 -1.419,-0.816 -1.02,-1.872c0.394,-1.033 1.339,-1.759 2.439,-1.872c0.959,-0 1.411,0.846 1.02,1.872c-0.387,1.038 -1.336,1.767 -2.439,1.872Z" style="fill-rule:nonzero;"/><path id="Path_Copy_5" d="M21.694,18.978l-0.204,-0l-14.439,-0.123c-0.074,0.012 -0.146,-0.039 -0.158,-0.114c-0.015,-0.109 0.133,-0.161 0.133,-0.161l10.11,-1.256c0,0 -2.977,-5.54 -2.985,-5.622c-0.044,-0.194 0.135,-0.267 0.276,-0.171c0.141,0.096 6.142,6.028 7.315,7.188l0.082,0.085c0.159,0.195 -0.13,0.174 -0.13,0.174Z" style="fill-rule:nonzero;"/></g></svg>