<?xml version="1.0" encoding="UTF-8" standalone="no"?><!DOCTYPE svg PUBLIC "-//W3C//DTD SVG 1.1//EN" "http://www.w3.org/Graphics/SVG/1.1/DTD/svg11.dtd"><svg width="100%" height="100%" viewBox="0 0 24 24" version="1.1" xmlns="http://www.w3.org/2000/svg" xmlns:xlink="http://www.w3.org/1999/xlink" xml:space="preserve" xmlns:serif="http://www.serif.com/" style="fill-rule:evenodd;clip-rule:evenodd;stroke-linejoin:round;stroke-miterlimit:2;"><rect id="star" x="0" y="0" width="24" height="24" style="fill:none;"/><path d="M14.43,10l-1.47,-4.84c-0.29,-0.95 -1.63,-0.95 -1.91,0l-1.48,4.84l-4.45,0c-0.97,0 -1.37,1.25 -0.58,1.81l3.64,2.6l-1.43,4.61c-0.29,0.93 0.79,1.68 1.56,1.09l3.69,-2.8l3.69,2.81c0.77,0.59 1.85,-0.16 1.56,-1.09l-1.43,-4.61l3.64,-2.6c0.79,-0.57 0.39,-1.81 -0.58,-1.81l-4.45,0l0,-0.01Z" style="fill-rule:nonzero;"/></svg>