<?xml version="1.0" encoding="UTF-8" standalone="no"?><!DOCTYPE svg PUBLIC "-//W3C//DTD SVG 1.1//EN" "http://www.w3.org/Graphics/SVG/1.1/DTD/svg11.dtd"><svg width="100%" height="100%" viewBox="0 0 24 24" version="1.1" xmlns="http://www.w3.org/2000/svg" xmlns:xlink="http://www.w3.org/1999/xlink" xml:space="preserve" xmlns:serif="http://www.serif.com/" style="fill-rule:evenodd;clip-rule:evenodd;stroke-linejoin:round;stroke-miterlimit:2;"><rect id="store" x="0" y="0" width="24" height="24" style="fill:none;"/><g><path d="M5,6l14,0c0.55,0 1,-0.45 1,-1c0,-0.55 -0.45,-1 -1,-1l-14,0c-0.55,0 -1,0.45 -1,1c0,0.55 0.45,1 1,1Zm15.16,1.8c-0.09,-0.46 -0.5,-0.8 -0.98,-0.8l-14.36,0c-0.48,0 -0.89,0.34 -0.98,0.8l-1,5c-0.12,0.62 0.35,1.2 0.98,1.2l0.18,0l0,5c0,0.55 0.45,1 1,1l8,0c0.55,0 1,-0.45 1,-1l0,-5l4,0l0,5c0,0.55 0.45,1 1,1c0.55,0 1,-0.45 1,-1l0,-5l0.18,0c0.63,0 1.1,-0.58 0.98,-1.2l-1,-5Zm-8.16,10.2l-6,0l0,-4l6,0l0,4Z" style="fill-rule:nonzero;"/></g></svg>