<?xml version="1.0" encoding="UTF-8" standalone="no"?><!DOCTYPE svg PUBLIC "-//W3C//DTD SVG 1.1//EN" "http://www.w3.org/Graphics/SVG/1.1/DTD/svg11.dtd"><svg width="100%" height="100%" viewBox="0 0 24 24" version="1.1" xmlns="http://www.w3.org/2000/svg" xmlns:xlink="http://www.w3.org/1999/xlink" xml:space="preserve" xmlns:serif="http://www.serif.com/" style="fill-rule:evenodd;clip-rule:evenodd;stroke-linejoin:round;stroke-miterlimit:2;"><rect id="store_add" x="0" y="0" width="24" height="24" style="fill:none;"/><g><path d="M3,2.5l13,0c0.55,0 1,0.45 1,1c0,0.55 -0.45,1 -1,1l-13,0c-0.55,0 -1,-0.45 -1,-1c0,-0.55 0.45,-1 1,-1Z" style="fill-rule:nonzero;"/><path d="M16,15.5c0.55,0 1,-0.45 1,-1l0,-2c0.55,0 1,-0.45 1,-1l0,-0.9c0,-0.07 -0.01,-0.13 -0.02,-0.2l-0.82,-4.1c-0.09,-0.46 -0.5,-0.8 -0.98,-0.8l-13.36,-0c-0.48,-0 -0.89,0.34 -0.98,0.8l-0.82,4.1c-0.01,0.07 -0.02,0.13 -0.02,0.2l-0,0.9c-0,0.55 0.45,1 1,1l0,5c0,0.55 0.45,1 1,1l7,0c0.55,0 1,-0.45 1,-1l0,-5l4,0l0,2c0,0.55 0.45,1 1,1Zm-7,1l-5,0l0,-4l5,0l0,4Z" style="fill-rule:nonzero;"/><path d="M22,16.5l-2,0l0,-2c0,-0.55 -0.45,-1 -1,-1c-0.55,0 -1,0.45 -1,1l0,2l-2,0c-0.55,0 -1,0.45 -1,1c0,0.55 0.45,1 1,1l2,0l0,2c0,0.55 0.45,1 1,1c0.55,0 1,-0.45 1,-1l0,-2l2,0c0.55,0 1,-0.45 1,-1c0,-0.55 -0.45,-1 -1,-1Z" style="fill-rule:nonzero;"/></g></svg>