<?xml version="1.0" encoding="UTF-8" standalone="no"?><!DOCTYPE svg PUBLIC "-//W3C//DTD SVG 1.1//EN" "http://www.w3.org/Graphics/SVG/1.1/DTD/svg11.dtd"><svg width="100%" height="100%" viewBox="0 0 24 25" version="1.1" xmlns="http://www.w3.org/2000/svg" xmlns:xlink="http://www.w3.org/1999/xlink" xml:space="preserve" xmlns:serif="http://www.serif.com/" style="fill-rule:evenodd;clip-rule:evenodd;stroke-linejoin:round;stroke-miterlimit:2;"><rect id="support" x="0" y="0.398" width="24" height="24" style="fill:none;"/><g><path d="M12,2.398c-5.52,0 -10,4.48 -10,10c0,5.52 4.48,10 10,10c5.52,0 10,-4.48 10,-10c0,-5.52 -4.48,-10 -10,-10Zm7.46,7.12l-2.78,1.15c-0.51,-1.36 -1.58,-2.44 -2.95,-2.94l1.15,-2.78c2.1,0.8 3.77,2.47 4.58,4.57Zm-7.46,5.88c-1.66,0 -3,-1.34 -3,-3c0,-1.66 1.34,-3 3,-3c1.66,0 3,1.34 3,3c0,1.66 -1.34,3 -3,3Zm-2.87,-10.46l1.17,2.78c-1.38,0.5 -2.47,1.59 -2.98,2.97l-2.78,-1.16c0.81,-2.11 2.48,-3.78 4.59,-4.59Zm-4.59,10.33l2.78,-1.15c0.51,1.38 1.59,2.46 2.97,2.96l-1.17,2.78c-2.1,-0.81 -3.77,-2.48 -4.58,-4.59Zm10.34,4.59l-1.15,-2.78c1.37,-0.51 2.45,-1.59 2.95,-2.97l2.78,1.17c-0.81,2.1 -2.48,3.77 -4.58,4.58Z" style="fill-rule:nonzero;"/></g></svg>