<?xml version="1.0" encoding="UTF-8" standalone="no"?><!DOCTYPE svg PUBLIC "-//W3C//DTD SVG 1.1//EN" "http://www.w3.org/Graphics/SVG/1.1/DTD/svg11.dtd"><svg width="100%" height="100%" viewBox="0 0 24 24" version="1.1" xmlns="http://www.w3.org/2000/svg" xmlns:xlink="http://www.w3.org/1999/xlink" xml:space="preserve" xmlns:serif="http://www.serif.com/" style="fill-rule:evenodd;clip-rule:evenodd;stroke-linejoin:round;stroke-miterlimit:2;"><rect id="sync" x="0" y="0" width="24" height="24" style="fill:none;"/><g><path d="M4,12c0,2.21 0.9,4.2 2.35,5.65l-1.5,1.5c-0.31,0.31 -0.09,0.85 0.36,0.85l4.29,0c0.28,0 0.5,-0.22 0.5,-0.5l0,-4.29c0,-0.45 -0.54,-0.67 -0.85,-0.35l-1.38,1.38c-1.09,-1.09 -1.77,-2.59 -1.77,-4.24c0,-2.39 1.41,-4.45 3.43,-5.41c0.34,-0.16 0.57,-0.48 0.57,-0.85l0,-0.18c0,-0.68 -0.71,-1.11 -1.33,-0.83c-2.75,1.27 -4.67,4.04 -4.67,7.27Z" style="fill-rule:nonzero;"/><path d="M18.79,4l-4.29,0c-0.28,0 -0.5,0.22 -0.5,0.5l0,4.29c0,0.45 0.54,0.67 0.85,0.35l1.38,-1.38c1.09,1.09 1.77,2.59 1.77,4.24c0,2.39 -1.41,4.45 -3.43,5.41c-0.34,0.16 -0.57,0.48 -0.57,0.85l0,0.18c0,0.68 0.71,1.11 1.33,0.83c2.75,-1.27 4.67,-4.04 4.67,-7.27c0,-2.21 -0.9,-4.2 -2.35,-5.65l1.5,-1.5c0.31,-0.31 0.09,-0.85 -0.36,-0.85Z" style="fill-rule:nonzero;"/></g></svg>