<?xml version="1.0" encoding="UTF-8" standalone="no"?><!DOCTYPE svg PUBLIC "-//W3C//DTD SVG 1.1//EN" "http://www.w3.org/Graphics/SVG/1.1/DTD/svg11.dtd"><svg width="100%" height="100%" viewBox="0 0 24 24" version="1.1" xmlns="http://www.w3.org/2000/svg" xmlns:xlink="http://www.w3.org/1999/xlink" xml:space="preserve" xmlns:serif="http://www.serif.com/" style="fill-rule:evenodd;clip-rule:evenodd;stroke-linejoin:round;stroke-miterlimit:2;"><rect id="thermostat" x="0" y="0" width="24" height="24" style="fill:none;"/><path d="M15,13l0,-8c0,-1.66 -1.34,-3 -3,-3c-1.66,0 -3,1.34 -3,3l0,8c-1.21,0.91 -2,2.37 -2,4c0,2.76 2.24,5 5,5c2.76,0 5,-2.24 5,-5c0,-1.63 -0.79,-3.09 -2,-4Zm-4,-2l0,-6c0,-0.55 0.45,-1 1,-1c0.55,0 1,0.45 1,1l0,1l-1,0l0,1l1,0l0,2l-1,0l0,1l1,0l0,1l-2,0Z" style="fill-rule:nonzero;"/></svg>