<?xml version="1.0" encoding="UTF-8" standalone="no"?><!DOCTYPE svg PUBLIC "-//W3C//DTD SVG 1.1//EN" "http://www.w3.org/Graphics/SVG/1.1/DTD/svg11.dtd"><svg width="100%" height="100%" viewBox="0 0 24 24" version="1.1" xmlns="http://www.w3.org/2000/svg" xmlns:xlink="http://www.w3.org/1999/xlink" xml:space="preserve" xmlns:serif="http://www.serif.com/" style="fill-rule:evenodd;clip-rule:evenodd;stroke-linejoin:round;stroke-miterlimit:2;"><rect id="thermostat_alt" x="0" y="0" width="24" height="24" style="fill:none;"/><path d="M11.994,20.977c2.2,0 3.99,-1.77 3.99,-3.947c0,-1.515 -0.894,-2.914 -2.277,-3.566c-0,0 -0.192,-0.09 -0.355,-0.167c-0.138,-0.065 -0.226,-0.203 -0.226,-0.356l0,-9.51c0,-0.238 -0.193,-0.432 -0.432,-0.432c-0.42,0 -1.051,0 -1.452,0c-0.101,0 -0.197,0.04 -0.268,0.111c-0.071,0.071 -0.111,0.167 -0.111,0.268l0,9.568c0,0.149 -0.086,0.285 -0.221,0.349c-0.164,0.077 -0.359,0.169 -0.359,0.169c-1.383,0.651 -2.277,2.051 -2.277,3.566c-0,2.177 1.789,3.947 3.988,3.947m0,1.011c-2.761,0 -4.999,-2.219 -4.999,-4.958c-0,-1.978 1.168,-3.685 2.857,-4.481l0,-9.535c0,-0.566 0.46,-1.026 1.026,-1.026c0.696,0 1.61,0 2.294,0c0.256,0 0.501,0.102 0.683,0.283c0.181,0.181 0.283,0.427 0.283,0.683c-0,2.608 -0,9.595 -0,9.595c1.689,0.796 2.857,2.503 2.857,4.481c0,2.739 -2.239,4.958 -5.001,4.958Z" style="fill-rule:nonzero;"/><circle id="Ellipse_172" cx="11.994" cy="16.987" r="2.5"/></svg>