<?xml version="1.0" encoding="UTF-8" standalone="no"?><!DOCTYPE svg PUBLIC "-//W3C//DTD SVG 1.1//EN" "http://www.w3.org/Graphics/SVG/1.1/DTD/svg11.dtd"><svg width="100%" height="100%" viewBox="0 0 24 24" version="1.1" xmlns="http://www.w3.org/2000/svg" xmlns:xlink="http://www.w3.org/1999/xlink" xml:space="preserve" xmlns:serif="http://www.serif.com/" style="fill-rule:evenodd;clip-rule:evenodd;stroke-linejoin:round;stroke-miterlimit:2;"><rect id="thumb_up" x="0" y="0" width="24" height="24" style="fill:none;"/><g><path d="M13.12,2.06l-5.54,5.54c-0.37,0.37 -0.58,0.88 -0.58,1.41l-0,9.99c-0,1.1 0.9,2 2,2l9,0c0.8,0 1.52,-0.48 1.84,-1.21l3.26,-7.61c0.84,-1.98 -0.61,-4.18 -2.76,-4.18l-5.65,0l0.95,-4.58c0.1,-0.5 -0.05,-1.01 -0.41,-1.37c-0.59,-0.58 -1.53,-0.58 -2.11,0.01Zm-10.12,18.94c1.1,0 2,-0.9 2,-2l0,-8c0,-1.1 -0.9,-2 -2,-2c-1.1,0 -2,0.9 -2,2l0,8c0,1.1 0.9,2 2,2Z" style="fill-rule:nonzero;"/></g></svg>