<?xml version="1.0" encoding="UTF-8" standalone="no"?><!DOCTYPE svg PUBLIC "-//W3C//DTD SVG 1.1//EN" "http://www.w3.org/Graphics/SVG/1.1/DTD/svg11.dtd"><svg width="100%" height="100%" viewBox="0 0 24 24" version="1.1" xmlns="http://www.w3.org/2000/svg" xmlns:xlink="http://www.w3.org/1999/xlink" xml:space="preserve" xmlns:serif="http://www.serif.com/" style="fill-rule:evenodd;clip-rule:evenodd;stroke-linejoin:round;stroke-miterlimit:2;"><rect id="train" x="0" y="0" width="24" height="24" style="fill:none;"/><g><path d="M4,7.961l0.015,-0.32c0.244,-2.912 3.505,-3.544 7.015,-3.631l-0.03,-0.01l0.75,-1.5l-4,0c-0.41,0 -0.75,-0.34 -0.75,-0.75c-0,-0.41 0.34,-0.75 0.75,-0.75l8.5,0c0.41,0 0.75,0.34 0.75,0.75c0,0.41 -0.34,0.75 -0.75,0.75l-2.5,0l-0.75,1.51c3.623,0.077 6.493,0.651 6.939,3.245l0.061,0.707l0,9.538c0,1.93 -1.57,3.5 -3.5,3.5l0.49,0.49c0.56,0.56 0.17,1.51 -0.62,1.51l-0.01,0c-0.23,0 -0.45,-0.09 -0.62,-0.26l-1.74,-1.74l-4,0l-1.75,1.74c-0.16,0.17 -0.39,0.26 -0.62,0.26c-0.78,0 -1.18,-0.95 -0.62,-1.51l0.49,-0.49c-1.93,0 -3.5,-1.57 -3.5,-3.5l0,-9.539Zm4.5,10.039c-0.83,0 -1.5,-0.67 -1.5,-1.5c0,-0.83 0.67,-1.5 1.5,-1.5c0.83,0 1.5,0.67 1.5,1.5c0,0.83 -0.67,1.5 -1.5,1.5Zm7,0c-0.83,0 -1.5,-0.67 -1.5,-1.5c0,-0.83 0.67,-1.5 1.5,-1.5c0.83,0 1.5,0.67 1.5,1.5c0,0.83 -0.67,1.5 -1.5,1.5Zm-4.5,-6l-5,0l0,-3l5,0l0,3Zm7,0l-5,0l0,-3l5,0l0,3Z"/></g></svg>