<?xml version="1.0" encoding="UTF-8" standalone="no"?><!DOCTYPE svg PUBLIC "-//W3C//DTD SVG 1.1//EN" "http://www.w3.org/Graphics/SVG/1.1/DTD/svg11.dtd"><svg width="100%" height="100%" viewBox="0 0 24 24" version="1.1" xmlns="http://www.w3.org/2000/svg" xmlns:xlink="http://www.w3.org/1999/xlink" xml:space="preserve" xmlns:serif="http://www.serif.com/" style="fill-rule:evenodd;clip-rule:evenodd;stroke-linejoin:round;stroke-miterlimit:2;"><rect id="trending_up" x="0" y="0" width="24" height="24" style="fill:none;"/><g><path d="M16.85,6.85l1.44,1.44l-4.88,4.88l-3.29,-3.29c-0.39,-0.39 -1.02,-0.39 -1.41,-0l-6,6.01c-0.39,0.39 -0.39,1.02 0,1.41c0.39,0.39 1.02,0.39 1.41,-0l5.29,-5.3l3.29,3.29c0.39,0.39 1.02,0.39 1.41,0l5.59,-5.58l1.44,1.44c0.31,0.31 0.85,0.09 0.85,-0.35l-0,-4.3c0.01,-0.28 -0.21,-0.5 -0.49,-0.5l-4.29,0c-0.45,0 -0.67,0.54 -0.36,0.85Z" style="fill-rule:nonzero;"/></g></svg>