<?xml version="1.0" encoding="UTF-8" standalone="no"?><!DOCTYPE svg PUBLIC "-//W3C//DTD SVG 1.1//EN" "http://www.w3.org/Graphics/SVG/1.1/DTD/svg11.dtd"><svg width="100%" height="100%" viewBox="0 0 25 25" version="1.1" xmlns="http://www.w3.org/2000/svg" xmlns:xlink="http://www.w3.org/1999/xlink" xml:space="preserve" xmlns:serif="http://www.serif.com/" style="fill-rule:evenodd;clip-rule:evenodd;stroke-linejoin:round;stroke-miterlimit:2;"><rect id="tune" x="0.701" y="0.398" width="24" height="24" style="fill:none;"/><path d="M18.701,21.398c0.55,0 1,-0.45 1,-1l-0,-5l-2,0l-0,5c-0,0.55 0.45,1 1,1Zm-12,0c0.55,0 1,-0.45 1,-1l-0,-9l-2,0l-0,9c-0,0.55 0.45,1 1,1Zm14,-10l-1,0l-0,-7c-0,-0.55 -0.45,-1 -1,-1c-0.55,0 -1,0.45 -1,1l-0,7l-1,0c-0.55,0 -1,0.45 -1,1c-0,0.55 0.45,1 1,1l4,0c0.55,0 1,-0.45 1,-1c-0,-0.55 -0.45,-1 -1,-1Zm-10,6l1,0l-0,3c-0,0.55 0.45,1 1,1c0.55,0 1,-0.45 1,-1l-0,-3l1,0c0.55,0 1,-0.45 1,-1c-0,-0.55 -0.45,-1 -1,-1l-4,0c-0.55,0 -1,0.45 -1,1c-0,0.55 0.45,1 1,1Zm2,-14c-0.55,0 -1,0.45 -1,1l-0,9l2,0l-0,-9c-0,-0.55 -0.45,-1 -1,-1Zm-3,5c-0,-0.55 -0.45,-1 -1,-1l-1,0l-0,-3c-0,-0.55 -0.45,-1 -1,-1c-0.55,0 -1,0.45 -1,1l-0,3l-1,0c-0.55,0 -1,0.45 -1,1c-0,0.55 0.45,1 1,1l4,0c0.55,0 1,-0.45 1,-1Z" style="fill-rule:nonzero;"/></svg>