<?xml version="1.0" encoding="UTF-8" standalone="no"?><!DOCTYPE svg PUBLIC "-//W3C//DTD SVG 1.1//EN" "http://www.w3.org/Graphics/SVG/1.1/DTD/svg11.dtd"><svg width="100%" height="100%" viewBox="0 0 24 24" version="1.1" xmlns="http://www.w3.org/2000/svg" xmlns:xlink="http://www.w3.org/1999/xlink" xml:space="preserve" xmlns:serif="http://www.serif.com/" style="fill-rule:evenodd;clip-rule:evenodd;stroke-linejoin:round;stroke-miterlimit:2;"><rect id="twitter" x="0" y="0" width="24" height="24" style="fill:none;"/><path d="M19.388,7.425c-0.419,0.612 -0.925,1.134 -1.519,1.566c0.006,0.087 0.009,0.218 0.009,0.393c0,0.813 -0.119,1.624 -0.356,2.433c-0.238,0.81 -0.599,1.586 -1.083,2.33c-0.484,0.744 -1.061,1.401 -1.73,1.973c-0.668,0.572 -1.475,1.028 -2.418,1.369c-0.944,0.341 -1.953,0.511 -3.028,0.511c-1.694,-0 -3.244,-0.453 -4.65,-1.359c0.218,0.025 0.462,0.037 0.731,0.037c1.406,0 2.659,-0.431 3.759,-1.294c-0.656,-0.012 -1.244,-0.214 -1.762,-0.604c-0.519,-0.391 -0.875,-0.889 -1.069,-1.496c0.206,0.032 0.397,0.047 0.572,0.047c0.269,0 0.534,-0.034 0.797,-0.103c-0.7,-0.144 -1.28,-0.492 -1.739,-1.045c-0.46,-0.553 -0.689,-1.196 -0.689,-1.927l-0,-0.037c0.425,0.237 0.881,0.365 1.368,0.384c-0.412,-0.275 -0.74,-0.634 -0.984,-1.078c-0.244,-0.444 -0.366,-0.925 -0.366,-1.444c0,-0.55 0.138,-1.059 0.413,-1.528c0.756,0.931 1.676,1.677 2.761,2.236c1.084,0.559 2.245,0.87 3.483,0.933c-0.05,-0.238 -0.075,-0.469 -0.075,-0.694c-0.001,-0.837 0.295,-1.551 0.885,-2.142c0.591,-0.591 1.305,-0.886 2.143,-0.886c0.875,-0 1.612,0.319 2.212,0.956c0.681,-0.131 1.322,-0.375 1.922,-0.731c-0.231,0.719 -0.675,1.275 -1.331,1.669c0.581,-0.063 1.162,-0.219 1.743,-0.469Z" style="fill-rule:nonzero;"/></svg>