<?xml version="1.0" encoding="UTF-8" standalone="no"?><!DOCTYPE svg PUBLIC "-//W3C//DTD SVG 1.1//EN" "http://www.w3.org/Graphics/SVG/1.1/DTD/svg11.dtd"><svg width="100%" height="100%" viewBox="0 0 24 24" version="1.1" xmlns="http://www.w3.org/2000/svg" xmlns:xlink="http://www.w3.org/1999/xlink" xml:space="preserve" xmlns:serif="http://www.serif.com/" style="fill-rule:evenodd;clip-rule:evenodd;stroke-linejoin:round;stroke-miterlimit:2;"><rect id="undo" x="0" y="0" width="24" height="24" style="fill:none;"/><path d="M5.173,10.908c3.901,-3.881 10.233,-3.881 14.124,0.02c1.09,1.091 1.901,2.401 2.391,3.822c0.21,0.61 -0.26,1.25 -0.911,1.25l-0.1,-0c-0.42,-0 -0.77,-0.28 -0.91,-0.67c-0.39,-1.111 -1.02,-2.131 -1.88,-2.991c-3.111,-3.111 -8.183,-3.121 -11.304,-0.02l1.971,1.97c0.63,0.631 0.18,1.711 -0.711,1.711l-4.581,-0c-0.55,-0 -1,-0.45 -1,-1l-0,-4.592c-0,-0.89 1.08,-1.34 1.71,-0.71l1.201,1.21Z" style="fill-rule:nonzero;"/></svg>