<?xml version="1.0" encoding="UTF-8" standalone="no"?><!DOCTYPE svg PUBLIC "-//W3C//DTD SVG 1.1//EN" "http://www.w3.org/Graphics/SVG/1.1/DTD/svg11.dtd"><svg width="100%" height="100%" viewBox="0 0 24 24" version="1.1" xmlns="http://www.w3.org/2000/svg" xmlns:xlink="http://www.w3.org/1999/xlink" xml:space="preserve" xmlns:serif="http://www.serif.com/" style="fill-rule:evenodd;clip-rule:evenodd;stroke-linejoin:round;stroke-miterlimit:2;"><rect id="unfold_less" x="0" y="0" width="24" height="24" style="fill:none;"/><g><path d="M14.508,4.308l-2.508,2.508l-2.508,-2.508c-0.411,-0.411 -1.074,-0.411 -1.485,0c-0.411,0.411 -0.411,1.085 -0,1.496l3.245,3.246c0.411,0.411 1.075,0.411 1.486,-0l3.245,-3.246c0.411,-0.411 0.411,-1.085 -0,-1.496c-0.401,-0.411 -1.075,-0.4 -1.475,0Zm-5.016,15.384l2.508,-2.508l2.508,2.508c0.411,0.411 1.074,0.411 1.485,-0c0.411,-0.411 0.411,-1.085 0,-1.496l-3.245,-3.246c-0.411,-0.411 -1.075,-0.411 -1.486,0l-3.245,3.246c-0.411,0.411 -0.411,1.085 0,1.496c0.401,0.411 1.075,0.4 1.475,-0Z" style="fill-rule:nonzero;"/></g></svg>