<?xml version="1.0" encoding="UTF-8" standalone="no"?><!DOCTYPE svg PUBLIC "-//W3C//DTD SVG 1.1//EN" "http://www.w3.org/Graphics/SVG/1.1/DTD/svg11.dtd"><svg width="100%" height="100%" viewBox="0 0 24 25" version="1.1" xmlns="http://www.w3.org/2000/svg" xmlns:xlink="http://www.w3.org/1999/xlink" xml:space="preserve" xmlns:serif="http://www.serif.com/" style="fill-rule:evenodd;clip-rule:evenodd;stroke-linejoin:round;stroke-miterlimit:2;"><rect id="update" x="0" y="0.398" width="24" height="24" style="fill:#f00;"/><path d="M11,8.398l0,4c0,0.27 0.11,0.52 0.29,0.71l2.79,2.79c0.39,0.39 1.02,0.39 1.41,0c0.39,-0.39 0.39,-1.02 0,-1.41l-2.5,-2.5l0,-3.59c0,-0.55 -0.45,-1 -1,-1c-0.54,0 -0.99,0.45 -0.99,1Zm9.15,-3.15l-1.31,1.31c-1.6,-1.88 -3.96,-3.09 -6.6,-3.16c-4.89,-0.12 -9.1,3.86 -9.24,8.74c-0.14,5.09 3.94,9.26 9,9.26c4.2,0 7.72,-2.88 8.72,-6.76c0.16,-0.63 -0.33,-1.24 -0.98,-1.24c-0.45,0 -0.85,0.3 -0.96,0.73c-0.87,3.41 -4.25,5.83 -8.05,5.16c-2.78,-0.49 -5.04,-2.71 -5.58,-5.47c-0.89,-4.48 2.53,-8.42 6.85,-8.42c2.18,0 4.12,1.02 5.41,2.59l-1.55,1.55c-0.32,0.32 -0.1,0.86 0.35,0.86l4.29,0c0.28,0 0.5,-0.22 0.5,-0.5l0,-4.29c0,-0.45 -0.54,-0.67 -0.85,-0.36Z" style="fill-rule:nonzero;"/></svg>