<?xml version="1.0" encoding="UTF-8" standalone="no"?><!DOCTYPE svg PUBLIC "-//W3C//DTD SVG 1.1//EN" "http://www.w3.org/Graphics/SVG/1.1/DTD/svg11.dtd"><svg width="100%" height="100%" viewBox="0 0 24 25" version="1.1" xmlns="http://www.w3.org/2000/svg" xmlns:xlink="http://www.w3.org/1999/xlink" xml:space="preserve" xmlns:serif="http://www.serif.com/" style="fill-rule:evenodd;clip-rule:evenodd;stroke-linejoin:round;stroke-miterlimit:2;"><rect id="upload" x="0" y="0.398" width="24" height="24" style="fill:none;"/><g><path d="M7.4,10.398l1.59,0l0,5c0,0.55 0.45,1 1,1l4,0c0.55,0 1,-0.45 1,-1l0,-5l1.59,0c0.89,0 1.34,-1.08 0.71,-1.71l-4.59,-4.59c-0.39,-0.39 -1.02,-0.39 -1.41,0l-4.59,4.59c-0.63,0.63 -0.19,1.71 0.7,1.71Zm-2.4,9c-0,0.55 0.45,1 1,1l12,0c0.55,0 1,-0.45 1,-1c-0,-0.55 -0.45,-1 -1,-1l-12,0c-0.55,0 -1,0.45 -1,1Z" style="fill-rule:nonzero;"/></g></svg>