<?xml version="1.0" encoding="UTF-8" standalone="no"?><!DOCTYPE svg PUBLIC "-//W3C//DTD SVG 1.1//EN" "http://www.w3.org/Graphics/SVG/1.1/DTD/svg11.dtd"><svg width="100%" height="100%" viewBox="0 0 24 24" version="1.1" xmlns="http://www.w3.org/2000/svg" xmlns:xlink="http://www.w3.org/1999/xlink" xml:space="preserve" xmlns:serif="http://www.serif.com/" style="fill-rule:evenodd;clip-rule:evenodd;stroke-linejoin:round;stroke-miterlimit:2;"><rect id="user_schedule" x="0" y="0" width="24" height="24" style="fill:none;"/><g><g><path d="M20.466,11.539l-0.47,0l0,-0.47c0,-0.258 -0.211,-0.47 -0.47,-0.47c-0.258,-0 -0.47,0.212 -0.47,0.47l0,0.47l-3.76,0l-0,-0.47c-0,-0.258 -0.212,-0.47 -0.47,-0.47c-0.259,-0 -0.47,0.212 -0.47,0.47l-0,0.47l-0.471,0c-0.521,0 -0.935,0.423 -0.935,0.94l-0.005,6.581c0,0.517 0.419,0.94 0.94,0.94l6.581,0c0.517,0 0.94,-0.423 0.94,-0.94l0,-6.581c0,-0.517 -0.423,-0.94 -0.94,-0.94Zm0,7.521l-6.581,-0l0,-4.701l6.581,0l0,4.701Zm-5.17,-3.761l1.41,0c0.258,0 0.47,0.212 0.47,0.471l-0,1.41c-0,0.258 -0.212,0.47 -0.47,0.47l-1.41,-0c-0.259,-0 -0.47,-0.212 -0.47,-0.47l-0,-1.41c-0,-0.259 0.211,-0.471 0.47,-0.471Z" style="fill-rule:nonzero;"/></g><path d="M3.536,19.077c-0.518,-0 -0.942,-0.424 -0.942,-0.942l-0,-1.555c-0,-0.971 0.48,-1.894 1.31,-2.384c1.818,-1.084 3.948,-1.715 6.228,-1.715l0.967,-0l-0,6.596l-7.563,-0Z" style="fill-rule:nonzero;"/><circle cx="10.132" cy="7.769" r="3.769"/></g></svg>