<?xml version="1.0" encoding="UTF-8" standalone="no"?><!DOCTYPE svg PUBLIC "-//W3C//DTD SVG 1.1//EN" "http://www.w3.org/Graphics/SVG/1.1/DTD/svg11.dtd"><svg width="100%" height="100%" viewBox="0 0 24 24" version="1.1" xmlns="http://www.w3.org/2000/svg" xmlns:xlink="http://www.w3.org/1999/xlink" xml:space="preserve" xmlns:serif="http://www.serif.com/" style="fill-rule:evenodd;clip-rule:evenodd;stroke-linejoin:round;stroke-miterlimit:2;"><rect id="videocam" x="0" y="0" width="24" height="24" style="fill:none;"/><g><path d="M18,10.48l0,-4.48c0,-1.1 -0.9,-2 -2,-2l-12,0c-1.1,0 -2,0.9 -2,2l0,12c0,1.1 0.9,2 2,2l12,0c1.1,0 2,-0.9 2,-2l0,-4.48l3.15,3.13c0.31,0.32 0.85,0.09 0.85,-0.35l0,-8.6c0,-0.44 -0.54,-0.67 -0.85,-0.35l-3.15,3.13Z" style="fill-rule:nonzero;"/></g></svg>