<?xml version="1.0" encoding="UTF-8" standalone="no"?><!DOCTYPE svg PUBLIC "-//W3C//DTD SVG 1.1//EN" "http://www.w3.org/Graphics/SVG/1.1/DTD/svg11.dtd"><svg width="100%" height="100%" viewBox="0 0 24 24" version="1.1" xmlns="http://www.w3.org/2000/svg" xmlns:xlink="http://www.w3.org/1999/xlink" xml:space="preserve" xmlns:serif="http://www.serif.com/" style="fill-rule:evenodd;clip-rule:evenodd;stroke-linejoin:round;stroke-miterlimit:2;"><rect id="visibility_off" x="0" y="0" width="24" height="24" style="fill:none;"/><g><path d="M22.65,10.7c-1.91,-3.96 -5.96,-6.7 -10.65,-6.7c-1.53,-0 -3,0.3 -4.34,0.83l2.55,2.55c0.55,-0.24 1.15,-0.38 1.79,-0.38c2.48,-0 4.5,2.02 4.5,4.5c-0,0.64 -0.14,1.24 -0.38,1.79l3.17,3.17c1.41,-1.11 2.57,-2.53 3.35,-4.16c0.25,-0.5 0.25,-1.1 0.01,-1.6Z" style="fill-rule:nonzero;"/><path d="M12,8.8c-0.12,0 -0.23,0.02 -0.34,0.03l3,3c0.01,-0.11 0.03,-0.22 0.03,-0.34c0.01,-1.48 -1.2,-2.69 -2.69,-2.69Z" style="fill-rule:nonzero;"/><path d="M3.51,3.51c-0.39,-0.39 -1.02,-0.39 -1.41,-0c-0.39,0.39 -0.39,1.02 -0,1.41l2.06,2.06c-1.16,1.04 -2.12,2.3 -2.81,3.72c-0.24,0.5 -0.24,1.1 0,1.6c1.91,3.96 5.96,6.7 10.65,6.7c1.26,0 2.47,-0.2 3.6,-0.57l3.47,3.47c0.39,0.39 1.02,0.39 1.41,0c0.39,-0.39 0.39,-1.02 0,-1.41l-16.97,-16.98Zm8.49,12.49c-2.48,0 -4.5,-2.02 -4.5,-4.5c-0,-0.36 0.05,-0.7 0.13,-1.04l1.78,1.78c0.26,0.89 0.95,1.58 1.84,1.84l1.78,1.78c-0.33,0.09 -0.67,0.14 -1.03,0.14Z" style="fill-rule:nonzero;"/></g></svg>