<?xml version="1.0" encoding="UTF-8" standalone="no"?><!DOCTYPE svg PUBLIC "-//W3C//DTD SVG 1.1//EN" "http://www.w3.org/Graphics/SVG/1.1/DTD/svg11.dtd"><svg width="100%" height="100%" viewBox="0 0 24 24" version="1.1" xmlns="http://www.w3.org/2000/svg" xmlns:xlink="http://www.w3.org/1999/xlink" xml:space="preserve" xmlns:serif="http://www.serif.com/" style="fill-rule:evenodd;clip-rule:evenodd;stroke-linejoin:round;stroke-miterlimit:2;"><rect id="visibility" x="0" y="0" width="24" height="24" style="fill:none;"/><g><path d="M12,4.5c-4.69,0 -8.74,2.74 -10.65,6.7c-0.24,0.5 -0.24,1.1 0,1.6c1.91,3.96 5.96,6.7 10.65,6.7c4.69,0 8.74,-2.74 10.65,-6.7c0.24,-0.5 0.24,-1.1 0,-1.6c-1.91,-3.96 -5.96,-6.7 -10.65,-6.7Zm0,12c-2.48,0 -4.5,-2.02 -4.5,-4.5c0,-2.48 2.02,-4.5 4.5,-4.5c2.48,0 4.5,2.02 4.5,4.5c0,2.48 -2.02,4.5 -4.5,4.5Z" style="fill-rule:nonzero;"/><circle cx="12" cy="12" r="2.7"/></g></svg>