<?xml version="1.0" encoding="UTF-8" standalone="no"?><!DOCTYPE svg PUBLIC "-//W3C//DTD SVG 1.1//EN" "http://www.w3.org/Graphics/SVG/1.1/DTD/svg11.dtd"><svg width="100%" height="100%" viewBox="0 0 24 24" version="1.1" xmlns="http://www.w3.org/2000/svg" xmlns:xlink="http://www.w3.org/1999/xlink" xml:space="preserve" xmlns:serif="http://www.serif.com/" style="fill-rule:evenodd;clip-rule:evenodd;stroke-linejoin:round;stroke-miterlimit:2;"><rect id="walk" x="0" y="0" width="24" height="24" style="fill:none;"/><g><path d="M13.5,5.5c1.1,0 2,-0.9 2,-2c0,-1.1 -0.9,-2 -2,-2c-1.1,0 -2,0.9 -2,2c0,1.1 0.9,2 2,2Zm-3.7,3.4l-2.56,12.91c-0.13,0.61 0.35,1.19 0.98,1.19l0.08,-0c0.47,-0 0.87,-0.32 0.98,-0.78l1.62,-7.22l2.1,2l-0,5c-0,0.55 0.45,1 1,1c0.55,-0 1,-0.45 1,-1l-0,-5.64c-0,-0.55 -0.22,-1.07 -0.62,-1.45l-1.48,-1.41l0.6,-3c1.07,1.24 2.62,2.13 4.36,2.41c0.6,0.09 1.14,-0.39 1.14,-1c-0,-0.49 -0.36,-0.9 -0.85,-0.98c-1.52,-0.25 -2.78,-1.15 -3.45,-2.33l-1,-1.6c-0.56,-0.89 -1.68,-1.25 -2.65,-0.84l-3.83,1.62c-0.74,0.32 -1.22,1.04 -1.22,1.85l-0,2.37c-0,0.55 0.45,1 1,1c0.55,-0 1,-0.45 1,-1l-0,-2.4l1.8,-0.7" style="fill-rule:nonzero;"/></g></svg>