<?xml version="1.0" encoding="UTF-8" standalone="no"?><!DOCTYPE svg PUBLIC "-//W3C//DTD SVG 1.1//EN" "http://www.w3.org/Graphics/SVG/1.1/DTD/svg11.dtd"><svg width="100%" height="100%" viewBox="0 0 24 24" version="1.1" xmlns="http://www.w3.org/2000/svg" xmlns:xlink="http://www.w3.org/1999/xlink" xml:space="preserve" xmlns:serif="http://www.serif.com/" style="fill-rule:evenodd;clip-rule:evenodd;stroke-linejoin:round;stroke-miterlimit:2;"><rect id="warning" x="0" y="0" width="24" height="24" style="fill:none;"/><path d="M2.73,21l18.53,0c0.77,0 1.25,-0.83 0.87,-1.5l-9.27,-16c-0.39,-0.67 -1.35,-0.67 -1.73,0l-9.27,16c-0.38,0.67 0.1,1.5 0.87,1.5Zm9.27,-6c-0.55,0 -1,-0.45 -1,-1l-0,-3c-0,-0.55 0.45,-1 1,-1c0.55,0 1,0.45 1,1l-0,3c-0,0.55 -0.45,1 -1,1Zm1,2c-0,0.55 -0.45,1 -1,1c-0.55,0 -1,-0.45 -1,-1c-0,-0.55 0.45,-1 1,-1c0.55,0 1,0.45 1,1Z" style="fill-rule:nonzero;"/></svg>