<?xml version="1.0" encoding="UTF-8" standalone="no"?><!DOCTYPE svg PUBLIC "-//W3C//DTD SVG 1.1//EN" "http://www.w3.org/Graphics/SVG/1.1/DTD/svg11.dtd"><svg width="100%" height="100%" viewBox="0 0 24 24" version="1.1" xmlns="http://www.w3.org/2000/svg" xmlns:xlink="http://www.w3.org/1999/xlink" xml:space="preserve" xmlns:serif="http://www.serif.com/" style="fill-rule:evenodd;clip-rule:evenodd;stroke-linejoin:round;stroke-miterlimit:2;"><rect id="yard_sign" x="0" y="0" width="24" height="24" style="fill:none;"/><path id="Path_669" d="M4.794,3.284l-0.845,1.499c-0.036,0.065 -0.054,0.138 -0.054,0.212l-0,1.833l-1.057,0c-0.239,0 -0.436,0.197 -0.436,0.436l-0,1.303c-0,0.239 0.197,0.436 0.436,0.436l1.057,-0l-0,11.561c-0,0.239 0.197,0.436 0.436,0.436l1.751,-0c0.239,-0 0.436,-0.197 0.436,-0.436l0,-11.566l2.168,0l-0,1.5l-0.982,-0c-0.239,-0 -0.436,0.197 -0.436,0.436l-0,5.753c-0,0.24 0.197,0.437 0.436,0.437l9.54,-0c0.239,-0 0.436,-0.197 0.436,-0.437l-0,-5.753c-0,-0.239 -0.197,-0.436 -0.436,-0.436l-1.152,-0l0,-1.5l3.516,0c0.059,0 0.117,-0.011 0.171,-0.034l1.492,-0.627c0.194,-0.05 0.33,-0.229 0.327,-0.43c0,-0.198 -0.135,-0.373 -0.327,-0.423l-1.492,-0.627c-0.054,-0.022 -0.112,-0.034 -0.171,-0.034l-13.089,0l0,-1.832c0,-0.074 -0.018,-0.147 -0.054,-0.212l-0.845,-1.499c-0.06,-0.16 -0.209,-0.269 -0.379,-0.28l-0.069,-0c-0.17,0.012 -0.318,0.123 -0.378,0.284Zm4.763,5.719l5.663,-0l-0,1.499l-5.663,0l0,-1.499Z"/></svg>