<?xml version="1.0" encoding="UTF-8" standalone="no"?><!DOCTYPE svg PUBLIC "-//W3C//DTD SVG 1.1//EN" "http://www.w3.org/Graphics/SVG/1.1/DTD/svg11.dtd"><svg width="100%" height="100%" viewBox="0 0 24 24" version="1.1" xmlns="http://www.w3.org/2000/svg" xmlns:xlink="http://www.w3.org/1999/xlink" xml:space="preserve" xmlns:serif="http://www.serif.com/" style="fill-rule:evenodd;clip-rule:evenodd;stroke-linejoin:round;stroke-miterlimit:2;"><rect id="youtube" x="0" y="0" width="24" height="24" style="fill:none;"/><path d="M10.238,14.31l4.61,-2.381l-4.61,-2.41l0,4.791Zm1.762,-8.21c1.067,0 2.097,0.015 3.09,0.043c0.994,0.029 1.723,0.059 2.186,0.091l0.695,0.038c0.007,-0 0.061,0.005 0.162,0.014c0.102,0.01 0.175,0.019 0.219,0.029c0.045,0.009 0.119,0.024 0.224,0.043c0.105,0.019 0.195,0.044 0.272,0.076c0.076,0.032 0.165,0.073 0.266,0.124c0.102,0.05 0.2,0.112 0.296,0.185c0.095,0.073 0.187,0.157 0.276,0.253c0.038,0.038 0.087,0.097 0.147,0.176c0.061,0.079 0.153,0.265 0.277,0.557c0.123,0.292 0.207,0.613 0.252,0.962c0.051,0.406 0.09,0.84 0.119,1.3c0.029,0.46 0.046,0.821 0.052,1.081l0,1.676c0.007,0.921 -0.05,1.841 -0.171,2.762c-0.045,0.349 -0.124,0.665 -0.238,0.948c-0.114,0.282 -0.216,0.477 -0.305,0.585l-0.133,0.162c-0.089,0.095 -0.181,0.18 -0.276,0.253c-0.096,0.073 -0.194,0.133 -0.296,0.181c-0.101,0.047 -0.19,0.087 -0.266,0.119c-0.077,0.031 -0.167,0.057 -0.272,0.076c-0.105,0.019 -0.181,0.033 -0.228,0.043c-0.048,0.009 -0.121,0.019 -0.219,0.028c-0.099,0.01 -0.151,0.014 -0.158,0.014c-1.593,0.121 -3.584,0.181 -5.971,0.181c-1.314,-0.012 -2.456,-0.033 -3.424,-0.061c-0.968,-0.029 -1.605,-0.053 -1.909,-0.072l-0.467,-0.038l-0.343,-0.038c-0.228,-0.032 -0.401,-0.064 -0.519,-0.095c-0.117,-0.032 -0.279,-0.099 -0.486,-0.2c-0.206,-0.102 -0.385,-0.232 -0.538,-0.391c-0.038,-0.038 -0.087,-0.097 -0.147,-0.176c-0.061,-0.079 -0.153,-0.265 -0.277,-0.557c-0.123,-0.292 -0.207,-0.613 -0.252,-0.962c-0.051,-0.406 -0.09,-0.84 -0.119,-1.3c-0.029,-0.46 -0.046,-0.821 -0.052,-1.081l-0,-1.676c-0.007,-0.921 0.05,-1.841 0.171,-2.762c0.045,-0.349 0.124,-0.665 0.238,-0.948c0.114,-0.282 0.216,-0.477 0.305,-0.585l0.133,-0.162c0.089,-0.096 0.181,-0.18 0.276,-0.253c0.096,-0.073 0.194,-0.135 0.296,-0.185c0.101,-0.051 0.19,-0.092 0.266,-0.124c0.077,-0.032 0.167,-0.057 0.272,-0.076c0.105,-0.019 0.179,-0.034 0.224,-0.043c0.044,-0.01 0.117,-0.019 0.219,-0.029c0.101,-0.009 0.155,-0.014 0.162,-0.014c1.593,-0.114 3.584,-0.172 5.971,-0.172Z" style="fill-rule:nonzero;"/></svg>