<?xml version="1.0" encoding="UTF-8" standalone="no"?><!DOCTYPE svg PUBLIC "-//W3C//DTD SVG 1.1//EN" "http://www.w3.org/Graphics/SVG/1.1/DTD/svg11.dtd"><svg width="100%" height="100%" viewBox="0 0 24 24" version="1.1" xmlns="http://www.w3.org/2000/svg" xmlns:xlink="http://www.w3.org/1999/xlink" xml:space="preserve" xmlns:serif="http://www.serif.com/" style="fill-rule:evenodd;clip-rule:evenodd;stroke-linejoin:round;stroke-miterlimit:2;"><rect id="zoom_alt" x="0" y="0" width="24" height="24" style="fill:none;"/><path d="M21.025,19.193l-4.08,-4.08c0.982,-1.308 1.513,-2.9 1.511,-4.536c-0,-4.178 -3.399,-7.577 -7.577,-7.577c-4.179,-0 -7.578,3.399 -7.578,7.577c0,4.178 3.399,7.578 7.578,7.578c1.635,0.001 3.227,-0.529 4.535,-1.511l4.08,4.08c0.199,0.178 0.457,0.276 0.723,0.276c0.595,-0 1.084,-0.489 1.084,-1.084c0,-0.267 -0.098,-0.524 -0.276,-0.723Zm-15.559,-8.616c0,-2.969 2.443,-5.412 5.413,-5.412c2.969,-0 5.412,2.443 5.412,5.412c-0,2.969 -2.443,5.413 -5.412,5.413c-2.968,-0.004 -5.409,-2.445 -5.413,-5.413Z" style="fill-rule:nonzero;"/></svg>