<?xml version="1.0" encoding="UTF-8" standalone="no"?><!DOCTYPE svg PUBLIC "-//W3C//DTD SVG 1.1//EN" "http://www.w3.org/Graphics/SVG/1.1/DTD/svg11.dtd"><svg width="100%" height="100%" viewBox="0 0 24 24" version="1.1" xmlns="http://www.w3.org/2000/svg" xmlns:xlink="http://www.w3.org/1999/xlink" xml:space="preserve" xmlns:serif="http://www.serif.com/" style="fill-rule:evenodd;clip-rule:evenodd;stroke-linejoin:round;stroke-miterlimit:2;"><rect id="zoom_out" x="0" y="0" width="24" height="24" style="fill:none;"/><g><path d="M11,8.5l-3,0c-0.55,0 -1,0.45 -1,1c0,0.55 0.45,1 1,1l3,0c0.55,0 1,-0.45 1,-1c0,-0.55 -0.45,-1 -1,-1Z" style="fill-rule:nonzero;"/><path d="M14.73,13.31c1.13,-1.55 1.63,-3.58 0.98,-5.74c-0.68,-2.23 -2.57,-3.98 -4.85,-4.44c-4.65,-0.93 -8.66,3.09 -7.72,7.73c0.46,2.29 2.21,4.18 4.44,4.85c2.16,0.65 4.19,0.15 5.74,-0.98l5.56,5.56c0.39,0.39 1.02,0.39 1.41,0c0.39,-0.39 0.39,-1.02 -0,-1.41l-5.56,-5.57Zm-5.23,0.69c-2.49,0 -4.5,-2.01 -4.5,-4.5c-0,-2.49 2.01,-4.5 4.5,-4.5c2.49,0 4.5,2.01 4.5,4.5c-0,2.49 -2.01,4.5 -4.5,4.5Z" style="fill-rule:nonzero;"/></g></svg>